<svg width="24" height="24" viewBox="0 0 24 24" fill="none" xmlns="http://www.w3.org/2000/svg">
<path d="M17.2581 2.60543V1H6.7138V2.60543H1V20.939C1 22.0747 1.92547 23 3.06117 23H20.939C22.0747 23 23 22.0745 23 20.939V2.60543H17.2581ZM8.08795 2.37403H15.8772V4.6666H8.08795V2.37403ZM21.6261 20.939C21.6258 21.1211 21.5533 21.2957 21.4245 21.4245C21.2957 21.5533 21.1211 21.6258 20.939 21.6261H3.06117C2.87902 21.6258 2.70442 21.5533 2.57562 21.4245C2.44682 21.2957 2.37433 21.1211 2.37403 20.939V3.97959H6.7138V6.04076H17.2581V3.97959H21.6261V20.939Z" fill="white"/>
<path d="M5 16.7775H18.2926V18.1517H5V16.7775ZM16.596 9.70368L15.0675 8L10.7909 11.8349L8.28115 9.34607L6.66866 10.9727L10.7069 14.9829L16.596 9.70368Z" fill="white"/>
</svg>
