<svg width="24" height="24" viewBox="0 0 24 24" fill="none" xmlns="http://www.w3.org/2000/svg">
<path d="M17.2031 12.5808L13.8582 9.23608C13.6156 8.98153 13.2019 8.98153 12.9553 9.23608L6.05859 16.1406H6.04272C5.93528 16.268 5.8598 16.427 5.8598 16.594V19.943C5.8598 20.3009 6.1462 20.5873 6.50015 20.5873H9.85306C10.0122 20.5873 10.1792 20.5235 10.3065 20.3963L17.2032 13.4876C17.4576 13.237 17.4576 12.8235 17.2031 12.5808ZM6.72973 19.7227V17.7368L8.70839 19.7227H6.72973ZM9.72053 19.5377L6.89621 16.7317L11.565 12.0673L14.3847 14.8872L9.72053 19.5377ZM15.0719 14.2454L12.2011 11.3747L13.4609 10.1194L16.332 12.9904L15.0719 14.2454Z" fill="white" stroke="white" stroke-width="0.2"/>
<path d="M21.008 7.37066L14.8891 1.25163C14.7317 1.10068 14.5211 1 14.2883 1H4.26821C3.64222 1 3.07595 1.26108 2.66694 1.66694C2.25793 2.07583 2 2.64537 2 3.27136V20.7349C2 21.3641 2.25793 21.9302 2.66694 22.3392H2.67009C2.87986 22.5492 3.12902 22.7156 3.40326 22.829C3.67751 22.9424 3.97145 23.0005 4.26821 23H18.9852C19.5753 23.0009 20.1423 22.7705 20.5645 22.3581L20.5864 22.3424L20.5896 22.3331C20.9986 21.924 21.2532 21.364 21.2532 20.7379V7.97145C21.2537 7.74673 21.1656 7.53088 21.008 7.37066ZM14.7979 2.62122L19.6386 7.46492L18.7053 7.46177H15.7071C15.5878 7.46208 15.4695 7.43859 15.3594 7.39268C15.2492 7.34677 15.1492 7.27936 15.0654 7.19439L15.0402 7.16919C14.8891 7.01181 14.7979 6.78538 14.7979 6.55253V2.62122ZM20.0307 21.0878C20.0307 21.2453 19.9646 21.5035 19.864 21.6135H19.8545C19.8023 21.6664 19.7401 21.7084 19.6715 21.7371C19.6029 21.7657 19.5293 21.7804 19.4549 21.7803H3.80157C3.64889 21.7794 3.50245 21.7196 3.39268 21.6135C3.292 21.5066 3.22597 21.362 3.22597 21.2045V2.80472C3.22597 2.64747 3.292 2.50584 3.39268 2.39583C3.49966 2.29515 3.64117 2.22901 3.80157 2.22901H13.7785V6.55264C13.7785 7.06233 13.9862 7.53736 14.3164 7.88023L14.3448 7.91476C14.6972 8.26404 15.1784 8.48102 15.707 8.48102H20.0307V21.0878Z" fill="white" stroke="white" stroke-width="0.2"/>
</svg>
