<svg width="20" height="20" viewBox="0 0 20 20" fill="none" xmlns="http://www.w3.org/2000/svg">
<path d="M14.8386 8.99619C14.8386 9.19339 14.7629 9.38245 14.6281 9.52196C14.4933 9.66146 14.3106 9.7397 14.12 9.7397H5.88066C5.62386 9.7397 5.38675 9.59791 5.25842 9.36796C5.12994 9.13801 5.12994 8.85442 5.25842 8.62448C5.38674 8.39452 5.62387 8.25273 5.88066 8.25273H14.12C14.3106 8.25273 14.4933 8.33097 14.6281 8.47047C14.7629 8.60996 14.8386 8.79902 14.8386 8.99624V8.99619ZM13.593 11.2267H6.4075C6.1507 11.2267 5.91359 11.3685 5.78526 11.5984C5.65677 11.8284 5.65677 12.112 5.78526 12.3419C5.91357 12.5719 6.1507 12.7137 6.4075 12.7137H13.593C13.8498 12.7137 14.0869 12.5719 14.2153 12.3419C14.3438 12.112 14.3438 11.8284 14.2153 11.5984C14.087 11.3685 13.8498 11.2267 13.593 11.2267ZM12.0601 14.2007H7.94035C7.68355 14.2007 7.44643 14.3424 7.31811 14.5724C7.18962 14.8023 7.18962 15.0859 7.31811 15.3159C7.44642 15.5458 7.68355 15.6876 7.94035 15.6876H12.0601C12.3169 15.6876 12.554 15.5458 12.6823 15.3159C12.8108 15.0859 12.8108 14.8023 12.6823 14.5724C12.554 14.3424 12.3169 14.2007 12.0601 14.2007ZM18 6.47625V15.4319C17.9986 16.643 17.5331 17.804 16.7054 18.6605C15.8777 19.5169 14.7555 19.9985 13.5851 20H6.4149C5.24448 19.9986 4.12233 19.5169 3.29463 18.6605C2.46693 17.804 2.0014 16.6429 2 15.4319V6.47625C2.00137 5.26523 2.46689 4.10415 3.29463 3.24773C4.12233 2.39132 5.24452 1.90964 6.4149 1.90819H7.90351C7.9752 1.20363 8.38052 0.581921 8.98511 0.249334C9.58974 -0.0831115 10.3145 -0.0831115 10.9191 0.249334C11.5237 0.581957 11.929 1.20368 12.0007 1.90819H13.5851C14.7555 1.9096 15.8777 2.39127 16.7054 3.24773C17.5331 4.10415 17.9986 5.26528 18 6.47625ZM6.93395 5.27869H12.922V3.3952H6.93395V5.27869ZM9.36834 1.90819H10.5355C10.4455 1.65505 10.2125 1.48687 9.95191 1.48687C9.69135 1.48687 9.4583 1.65504 9.36834 1.90819ZM16.5626 6.47621C16.5618 5.79894 16.3455 5.14074 15.9472 4.60314C15.5491 4.06554 14.991 3.67839 14.359 3.50138V6.02217C14.359 6.21938 14.2834 6.40843 14.1486 6.54795C14.0138 6.68744 13.831 6.76568 13.6404 6.76568H6.21532C6.02473 6.76568 5.84202 6.68744 5.70718 6.54795C5.57236 6.40845 5.49674 6.21939 5.49674 6.02217V3.54565C4.89863 3.74692 4.3773 4.13886 4.00725 4.66513C3.63736 5.19159 3.4377 5.82549 3.43687 6.47625V15.4319C3.43773 16.2487 3.75184 17.0319 4.31012 17.6095C4.8684 18.1871 5.62525 18.5121 6.41466 18.513H13.5849C14.3742 18.5121 15.1312 18.1871 15.6894 17.6095C16.2477 17.0318 16.5618 16.2487 16.5627 15.4319L16.5626 6.47621Z" fill="white"/>
</svg>
