<svg width="24" height="24" viewBox="0 0 24 24" fill="none" xmlns="http://www.w3.org/2000/svg">
<path d="M19.4797 3H3.74023C2.77988 3 2 3.77988 2 4.74023V16.2301C2 17.1904 2.77988 17.9703 3.74023 17.9703H7.88242L11.0879 20.5871C11.2469 20.716 11.4381 20.7805 11.6314 20.7805C11.8227 20.7805 12.016 20.716 12.1729 20.5871L15.3955 17.9703H19.4775C20.4379 17.9703 21.2178 17.1904 21.2178 16.2301V4.74023C21.2199 3.77988 20.4379 3 19.4797 3V3ZM19.5012 16.2301C19.5012 16.2408 19.4904 16.2516 19.4797 16.2516H15.0926C14.8949 16.2516 14.7037 16.3203 14.5512 16.4449L11.6336 18.8125L8.7332 16.4449C8.58066 16.3203 8.3873 16.2516 8.18965 16.2516H3.74023C3.72949 16.2516 3.71875 16.2408 3.71875 16.2301V4.74023C3.71875 4.72949 3.72949 4.71875 3.74023 4.71875H19.4775C19.4883 4.71875 19.499 4.72949 19.499 4.74023V16.2301H19.5012Z" fill="white"/>
<path d="M5.84595 9.61646C5.84595 9.90136 5.95912 10.1746 6.16058 10.376C6.36203 10.5775 6.63527 10.6907 6.92017 10.6907C7.20507 10.6907 7.4783 10.5775 7.67975 10.376C7.88121 10.1746 7.99438 9.90136 7.99438 9.61646C7.99438 9.33155 7.88121 9.05832 7.67975 8.85687C7.4783 8.65541 7.20507 8.54224 6.92017 8.54224C6.63527 8.54224 6.36203 8.65541 6.16058 8.85687C5.95912 9.05832 5.84595 9.33155 5.84595 9.61646V9.61646Z" fill="white"/>
<path d="M9.94946 9.61646C9.94946 9.90136 10.0626 10.1746 10.2641 10.376C10.4655 10.5775 10.7388 10.6907 11.0237 10.6907C11.3086 10.6907 11.5818 10.5775 11.7833 10.376C11.9847 10.1746 12.0979 9.90136 12.0979 9.61646C12.0979 9.33155 11.9847 9.05832 11.7833 8.85687C11.5818 8.65541 11.3086 8.54224 11.0237 8.54224C10.7388 8.54224 10.4655 8.65541 10.2641 8.85687C10.0626 9.05832 9.94946 9.33155 9.94946 9.61646V9.61646Z" fill="white"/>
<path d="M14.0573 9.61646C14.0573 9.90136 14.1704 10.1746 14.3719 10.376C14.5733 10.5775 14.8466 10.6907 15.1315 10.6907C15.4164 10.6907 15.6896 10.5775 15.8911 10.376C16.0925 10.1746 16.2057 9.90136 16.2057 9.61646C16.2057 9.33155 16.0925 9.05832 15.8911 8.85687C15.6896 8.65541 15.4164 8.54224 15.1315 8.54224C14.8466 8.54224 14.5733 8.65541 14.3719 8.85687C14.1704 9.05832 14.0573 9.33155 14.0573 9.61646V9.61646Z" fill="white"/>
</svg>
