<svg width="20" height="20" viewBox="0 0 20 20" fill="none" xmlns="http://www.w3.org/2000/svg">
<path d="M15.6 2H3.7C3.24913 2 2.81673 2.17911 2.49792 2.49792C2.17911 2.81673 2 3.24913 2 3.7V17.3C2 17.7509 2.17911 18.1833 2.49792 18.5021C2.81673 18.8209 3.24913 19 3.7 19H15.6C16.0509 19 16.4833 18.8209 16.8021 18.5021C17.1209 18.1833 17.3 17.7509 17.3 17.3V3.7C17.3 3.24913 17.1209 2.81673 16.8021 2.49792C16.4833 2.17911 16.0509 2 15.6 2ZM15.6 17.3H3.7V3.7H15.6V17.3Z" fill="white"/>
<path d="M13.05 13.8999H6.25002C6.02458 13.8999 5.80838 13.9895 5.64898 14.1489C5.48957 14.3083 5.40002 14.5245 5.40002 14.7499C5.40002 14.9754 5.48957 15.1916 5.64898 15.351C5.80838 15.5104 6.02458 15.5999 6.25002 15.5999H13.05C13.2755 15.5999 13.4917 15.5104 13.6511 15.351C13.8105 15.1916 13.9 14.9754 13.9 14.7499C13.9 14.5245 13.8105 14.3083 13.6511 14.1489C13.4917 13.9895 13.2755 13.8999 13.05 13.8999ZM13.05 11.3499H6.25002C6.02458 11.3499 5.80838 11.4395 5.64898 11.5989C5.48957 11.7583 5.40002 11.9745 5.40002 12.1999C5.40002 12.4254 5.48957 12.6416 5.64898 12.801C5.80838 12.9604 6.02458 13.0499 6.25002 13.0499H13.05C13.2755 13.0499 13.4917 12.9604 13.6511 12.801C13.8105 12.6416 13.9 12.4254 13.9 12.1999C13.9 11.9745 13.8105 11.7583 13.6511 11.5989C13.4917 11.4395 13.2755 11.3499 13.05 11.3499ZM5.70602 10.1089C5.81788 10.1096 5.92878 10.0881 6.03234 10.0458C6.1359 10.0035 6.23009 9.94122 6.30952 9.86244L8.33252 7.83094L10.177 9.64994C10.3351 9.80063 10.5451 9.8847 10.7635 9.8847C10.9819 9.8847 11.1919 9.80063 11.35 9.64994L14.172 6.82794C14.3113 6.66533 14.384 6.45617 14.3758 6.24224C14.3675 6.02832 14.2788 5.82539 14.1274 5.67401C13.9761 5.52263 13.7731 5.43395 13.5592 5.42568C13.3453 5.41742 13.1361 5.49018 12.9735 5.62944L10.772 7.86494L8.93602 6.02894C8.77676 5.87062 8.56132 5.78176 8.33677 5.78176C8.11221 5.78176 7.89678 5.87062 7.73752 6.02894L5.10252 8.65544C4.98264 8.77433 4.90089 8.92622 4.86768 9.09176C4.83447 9.25729 4.85131 9.42897 4.91605 9.5849C4.98079 9.74082 5.0905 9.87394 5.2312 9.96727C5.37189 10.0606 5.53719 10.1099 5.70602 10.1089Z" fill="white"/>
</svg>
