<svg width="20" height="20" viewBox="0 0 20 20" fill="none" xmlns="http://www.w3.org/2000/svg">
<path fill-rule="evenodd" clip-rule="evenodd" d="M10.2719 1.67042H17.0898C17.3153 1.2707 17.7396 1 18.2305 1C18.9468 1 19.5171 1.55436 19.5171 2.25061C19.5171 2.71486 19.2386 3.14041 18.8407 3.3467V16.6403C19.2386 16.8596 19.5171 17.2722 19.5171 17.7493C19.5171 18.4326 18.9468 19 18.2305 19C17.7396 19 17.302 18.7163 17.0898 18.3036H10.2719V17.3624H17.0102C17.1428 16.9755 17.4611 16.6662 17.8723 16.5501V3.43694C17.4611 3.32087 17.1295 3.01138 17.0102 2.61177H10.2719V1.67042ZM3.42743 1.67042H10.2719V2.61177H3.52027C3.3876 2.99852 3.08252 3.30802 2.68461 3.43694V16.563C3.06924 16.679 3.3876 16.9885 3.507 17.3624H10.2719V18.3036H3.44072C3.22848 18.7163 2.79073 19 2.28669 19C1.5837 19 1 18.4326 1 17.7493C1 17.2592 1.29179 16.8338 1.71627 16.6275V3.35956C1.29179 3.15327 1 2.72771 1 2.25061C1 1.55436 1.5837 1 2.28669 1C2.77745 1 3.2152 1.2707 3.42743 1.67042Z" fill="white"/>
<path fill-rule="evenodd" clip-rule="evenodd" d="M16.1628 8.03532H15.5465C15.5465 8.04818 15.5465 8.04818 15.5465 8.06104V12.1609H16.1628C16.3857 12.1609 16.5824 12.2894 16.5824 12.4693C16.5824 12.6365 16.3857 12.765 16.1628 12.765H14.8253H13.4878C13.2648 12.765 13.0681 12.6365 13.0681 12.4693C13.0681 12.2894 13.2517 12.1609 13.4878 12.1609H14.1434V8.06104C14.1434 8.04818 14.1434 8.04818 14.1434 8.03532H13.4878C13.2648 8.03532 13.0681 7.89399 13.0681 7.72695C13.0681 7.55979 13.2517 7.41846 13.4878 7.41846H16.1628C16.3857 7.41846 16.5824 7.55979 16.5824 7.72695C16.5824 7.89399 16.3857 8.03532 16.1628 8.03532ZM11.9273 12.765C11.7438 12.765 11.5864 12.7007 11.4814 12.5465L8.68842 8.89638C8.636 8.8322 8.55725 8.76791 8.47861 8.69076C8.38681 8.61372 8.30818 8.57515 8.21638 8.57515C8.12458 8.57515 8.04594 8.61372 7.96719 8.69076C7.87539 8.76791 7.80992 8.8322 7.75738 8.89638L4.9512 12.5593C4.83318 12.7007 4.67591 12.765 4.50547 12.765C4.34809 12.765 4.21691 12.7135 4.0989 12.6107C3.98089 12.495 3.92847 12.3666 3.92847 12.2123C3.92847 12.0709 3.96784 11.9552 4.04648 11.8653L6.95751 8.02258C7.10173 7.84256 7.27228 7.70112 7.49514 7.5855C7.71812 7.46989 7.96719 7.41846 8.21638 7.41846C8.4524 7.41846 8.68842 7.46989 8.89823 7.57265C9.12121 7.67551 9.29164 7.81684 9.4227 7.99675L12.3338 11.8139C12.3863 11.8653 12.4256 11.9296 12.4519 11.9938C12.4911 12.0581 12.5043 12.1351 12.5043 12.2123C12.5043 12.3666 12.4519 12.495 12.3338 12.6107C12.2289 12.7135 12.0847 12.765 11.9273 12.765ZM8.21638 10.7729C8.42619 10.7729 8.59662 10.85 8.74085 10.9914C8.88507 11.1327 8.96382 11.2998 8.96382 11.5054C8.96382 11.711 8.88507 11.8782 8.74085 12.0195C8.59662 12.1609 8.42619 12.2251 8.21638 12.2251C8.00657 12.2251 7.83613 12.1609 7.6919 12.0195C7.54756 11.8782 7.48209 11.711 7.48209 11.5054C7.48209 11.2998 7.54756 11.1327 7.6919 10.9914C7.83613 10.85 8.00657 10.7729 8.21638 10.7729Z" fill="white"/>
</svg>
