<svg width="24" height="24" viewBox="0 0 24 24" fill="none" xmlns="http://www.w3.org/2000/svg">
<path d="M16.8056 22C15.8212 22 14.8976 21.6017 14.2049 20.8923C13.5122 20.1829 13.1233 19.2246 13.1233 18.2166C13.1233 16.1381 14.776 14.4456 16.8056 14.4456C17.4861 14.458 18.1545 14.6447 18.7378 15.018L19.0903 15.2421L19.2604 14.8438C19.3576 14.6073 19.5885 14.4456 19.8559 14.4456C20.2083 14.4456 20.5 14.7442 20.5 15.1052V17.4449C20.5 17.8058 20.2083 18.1045 19.8559 18.1045H17.6076C17.2552 18.1045 16.9635 17.8058 16.9635 17.4449C16.9635 17.2707 17.0365 17.0965 17.158 16.972C17.2795 16.8475 17.4375 16.7729 17.6198 16.7729H17.8385L18.0208 16.0759C17.6806 15.8768 17.2917 15.7772 16.9028 15.7648H16.8663C15.566 15.7648 14.4965 16.8475 14.4722 18.1668C14.4601 18.8264 14.7031 19.4362 15.1406 19.9091C15.5903 20.3821 16.1858 20.6434 16.8177 20.6559C17.4132 20.6559 17.9722 20.4319 18.3976 20.0336C18.5191 19.934 18.6649 19.8718 18.8229 19.8718C19.0052 19.8718 19.1875 19.9589 19.309 20.0958C19.4184 20.2327 19.4792 20.407 19.467 20.5812C19.4549 20.7554 19.3819 20.9172 19.2483 21.0417C18.5677 21.664 17.7049 22 16.8056 22ZM5.67361 22C4.20312 22 3 20.7679 3 19.262V4.73802C3 3.23211 4.20312 2 5.67361 2H11.7865C11.8472 2.01245 11.908 2.03734 11.9566 2.06223L12.0417 2.11201H12.1389C12.1875 2.1369 12.224 2.17424 12.2604 2.21157L18.3247 8.4219C18.3611 8.45924 18.3854 8.49658 18.4097 8.53391V8.60859L18.434 8.67081C18.4583 8.73304 18.4705 8.78282 18.4705 8.84505V12.6275C18.4705 12.9884 18.1788 13.2871 17.8264 13.2871C17.474 13.2871 17.1823 12.9884 17.1823 12.6275V9.55445H13.7795C12.309 9.55445 11.1059 8.32234 11.1059 6.81643V3.33167H5.67361C4.92014 3.33167 4.30035 3.9664 4.30035 4.73802V19.262C4.30035 20.0336 4.92014 20.6683 5.67361 20.6683H11.5747C11.9271 20.6683 12.2188 20.967 12.2188 21.3279C12.2188 21.6889 11.9271 21.9876 11.5747 21.9876H5.67361V22ZM12.3941 6.81643C12.3941 7.58805 13.0139 8.22278 13.7674 8.22278H16.2587L12.3941 4.26509V6.81643ZM6.86979 17.8432C6.51736 17.8432 6.22569 17.5445 6.22569 17.1836C6.22569 17.0093 6.29861 16.8351 6.42014 16.7106C6.54167 16.5862 6.69965 16.5115 6.88194 16.5115H9.74479C10.0972 16.5115 10.3889 16.8102 10.3889 17.1711C10.3889 17.3454 10.316 17.5196 10.1944 17.6441C10.0729 17.7685 9.91493 17.8432 9.73264 17.8432H6.86979ZM6.86979 13.6988C6.51736 13.6988 6.22569 13.4001 6.22569 13.0392C6.22569 12.865 6.29861 12.6907 6.42014 12.5663C6.54167 12.4418 6.69965 12.3671 6.88194 12.3671H12.783C13.1354 12.3671 13.4271 12.6658 13.4271 13.0268C13.4271 13.3877 13.1233 13.6988 12.7587 13.6988H6.86979ZM6.86979 9.55445C6.51736 9.55445 6.22569 9.25576 6.22569 8.89483C6.22569 8.53391 6.51736 8.23522 6.86979 8.23522H8.71181C9.06424 8.23522 9.3559 8.53391 9.3559 8.89483C9.3559 9.25576 9.06424 9.55445 8.71181 9.55445H6.86979Z" fill="white"/>
</svg>
