<svg width="24" height="24" viewBox="0 0 24 24" fill="none" xmlns="http://www.w3.org/2000/svg">
<path d="M16.6379 21.3293C19.2964 21.3293 21.3293 19.2964 21.3293 16.6379C21.3293 13.9795 19.2964 11.9466 16.6379 11.9466C13.9795 11.9466 11.9466 13.9795 11.9466 16.6379C11.9466 19.2964 13.9795 21.3293 16.6379 21.3293ZM16.6379 22.8931C13.6667 22.8931 11.1647 20.7038 10.5391 17.889C9.91362 14.9178 11.4774 12.1029 14.2922 10.8519C17.1071 9.60086 20.2347 10.6955 21.9548 13.1976C23.675 15.6997 23.2059 18.9836 21.1729 21.1729C19.9219 22.2676 18.3581 22.8931 16.6379 22.8931ZM6.3169 5.69138H12.8848C13.0412 5.69138 13.1976 5.84776 13.354 6.00414C13.5103 6.16052 13.5103 6.3169 13.5103 6.47328C13.5103 6.62965 13.5103 6.78603 13.354 6.94241C13.1976 7.09879 13.0412 7.09879 12.8848 7.25517H6.3169C6.16052 7.25517 6.00414 7.09879 5.84776 6.94241C5.69138 6.78603 5.69138 6.62965 5.69138 6.47328C5.69138 6.3169 5.69138 6.16052 5.84776 6.00414C6.00414 5.84776 6.16052 5.69138 6.3169 5.69138ZM6.3169 8.81896H12.8848C13.0412 8.81896 13.1976 8.97534 13.354 9.13172C13.5103 9.2881 13.5103 9.44448 13.5103 9.60086C13.5103 9.75724 13.5103 9.91362 13.354 10.07C13.1976 10.2264 13.0412 10.2264 12.8848 10.3828H6.3169C6.16052 10.3828 6.00414 10.2264 5.84776 10.07C5.69138 9.91362 5.69138 9.75724 5.69138 9.60086C5.69138 9.44448 5.69138 9.2881 5.84776 9.13172C6.00414 8.97534 6.16052 8.81896 6.3169 8.81896ZM17.7326 16.6379L18.8272 17.7326C18.9836 17.889 19.14 18.0453 19.14 18.3581C19.14 18.6709 18.9836 18.8272 18.8272 18.9836C18.5145 19.2964 18.0453 19.2964 17.7326 18.9836L16.6379 17.7326L15.5433 18.8272C15.2305 19.14 14.7614 19.14 14.4486 18.8272C14.1359 18.5145 14.1359 18.0453 14.4486 17.7326L15.5433 16.6379L14.4486 15.5433C14.1359 15.2305 14.1359 14.7614 14.4486 14.4486C14.7614 14.1359 15.2305 14.1359 15.5433 14.4486L16.6379 15.5433L17.7326 14.4486C18.0453 14.1359 18.5145 14.1359 18.8272 14.4486C18.9836 14.605 19.14 14.7614 19.14 15.0741C19.14 15.3869 18.9836 15.5433 18.8272 15.6997L17.7326 16.6379ZM9.60086 19.7655C10.07 19.7655 10.3828 20.0783 10.3828 20.5474C10.3828 21.0165 10.07 21.3293 9.60086 21.3293H4.12759C2.40741 21.3293 1 19.9219 1 18.2017V4.12759C1 2.40741 2.40741 1 4.12759 1H15.0741C16.7943 1 18.2017 2.40741 18.2017 4.12759V8.03707C18.2017 8.50621 17.889 8.81896 17.4198 8.81896C16.9507 8.81896 16.6379 8.50621 16.6379 8.03707V4.12759C16.6379 3.18931 16.0124 2.56379 15.0741 2.56379H4.12759C3.18931 2.56379 2.56379 3.18931 2.56379 4.12759V18.2017C2.56379 19.14 3.18931 19.7655 4.12759 19.7655H9.60086Z" fill="white"/>
</svg>
