<svg width="24" height="24" viewBox="0 0 24 24" fill="none" xmlns="http://www.w3.org/2000/svg">
<path d="M12.4168 21.6892C12.3092 21.6892 12.2016 21.6658 12.102 21.6191C12.008 21.5751 9.77676 20.514 7.53574 18.1011C6.21953 16.6839 5.17031 15.09 4.41738 13.3634C3.47676 11.207 3 8.84116 3 6.33198C3 6.06597 3.14238 5.82026 3.37324 5.68784C4.92832 4.79722 11.8588 2.1603 12.1531 2.04839C12.323 1.98374 12.5107 1.98394 12.6807 2.04858C13.4514 2.34175 20.2453 4.9353 21.482 5.70073C21.7006 5.83608 21.8336 6.07476 21.8336 6.33179C21.8336 9.64976 21.0236 12.8478 19.5529 15.3365C19.3443 15.6894 18.8893 15.8064 18.5363 15.5978C18.1834 15.3892 18.0664 14.9341 18.275 14.5812C19.5482 12.4265 20.277 9.66772 20.3441 6.77085C18.8629 6.03765 14.4402 4.30991 12.4166 3.53628C10.4496 4.28804 6.10488 5.98608 4.48965 6.77827C4.58574 10.772 5.975 14.2398 8.62324 17.091C10.2082 18.7976 11.79 19.7646 12.4324 20.1187C13.0314 19.8166 14.4385 19.0234 15.8897 17.6093C16.1832 17.3232 16.6531 17.3292 16.9393 17.6228C17.2254 17.9164 17.2191 18.3863 16.9256 18.6724C14.8014 20.7423 12.7873 21.5968 12.7025 21.6322C12.612 21.6699 12.5149 21.6892 12.4168 21.6892Z" fill="white"/>
<path d="M12.4167 15.7817C11.2286 15.7817 10.1116 15.319 9.27161 14.479C8.43157 13.6389 7.96887 12.5219 7.96887 11.3338C7.96887 10.1458 8.43157 9.02876 9.27161 8.18872C10.1116 7.34868 11.2286 6.88599 12.4167 6.88599C13.6048 6.88599 14.7218 7.34868 15.5618 8.18872C16.4019 9.02876 16.8646 10.1458 16.8646 11.3338C16.8646 12.5219 16.4019 13.6389 15.5618 14.479C14.7218 15.319 13.6048 15.7817 12.4167 15.7817ZM12.4167 8.37036C10.7827 8.37036 9.45325 9.69966 9.45325 11.3338C9.45325 12.9678 10.7825 14.2973 12.4167 14.2973C14.0509 14.2973 15.3802 12.968 15.3802 11.3338C15.3802 9.69985 14.0507 8.37036 12.4167 8.37036Z" fill="white"/>
<path d="M17.7839 17.4493C17.5939 17.4493 17.404 17.3769 17.2591 17.2319L14.8474 14.8202C14.5575 14.5304 14.5575 14.0604 14.8474 13.7706C15.1372 13.4808 15.6072 13.4808 15.897 13.7706L18.3087 16.1823C18.5986 16.4722 18.5986 16.9421 18.3087 17.2319C18.1638 17.3769 17.9738 17.4493 17.7839 17.4493Z" fill="white"/>
</svg>
