<svg width="24" height="24" viewBox="0 0 24 24" fill="none" xmlns="http://www.w3.org/2000/svg">
<path d="M17.3333 12.6704C17.9462 12.6704 18.553 12.7911 19.1192 13.0255C19.6854 13.2599 20.1998 13.6035 20.6332 14.0367C21.0665 14.4699 21.4102 14.9841 21.6448 15.5501C21.8793 16.116 22 16.7226 22 17.3352C22 17.9478 21.8793 18.5544 21.6448 19.1203C21.4102 19.6863 21.0665 20.2005 20.6332 20.6337C20.1998 21.0669 19.6854 21.4105 19.1192 21.6449C18.553 21.8793 17.9462 22 17.3333 22C16.0957 22 14.9087 21.5085 14.0335 20.6337C13.1583 19.7589 12.6667 18.5724 12.6667 17.3352C12.6667 16.098 13.1583 14.9115 14.0335 14.0367C14.9087 13.1619 16.0957 12.6704 17.3333 12.6704ZM15.8773 2.00133C16.0895 2.00133 16.293 2.08558 16.443 2.23555C16.593 2.38552 16.6773 2.58892 16.6773 2.80101L16.676 3.3408H18C18.7072 3.3408 19.3855 3.62164 19.8856 4.12153C20.3857 4.62143 20.6667 5.29944 20.6667 6.0064V10.6712C20.576 11.115 20.3093 11.3376 19.8667 11.3376C19.424 11.3376 19.1573 11.115 19.0667 10.6712V6.0064C19.0668 5.74663 18.972 5.49577 18.8001 5.30092C18.6283 5.10606 18.3912 4.98062 18.1333 4.94815L18 4.94016H16.676V6.53285C16.676 6.63788 16.6553 6.74188 16.6151 6.83892C16.5749 6.93595 16.516 7.02412 16.4417 7.09839C16.3674 7.17266 16.2792 7.23158 16.1822 7.27177C16.0851 7.31197 15.9811 7.33266 15.876 7.33266C15.7709 7.33266 15.6669 7.31197 15.5698 7.27177C15.4728 7.23158 15.3846 7.17266 15.3103 7.09839C15.236 7.02412 15.1771 6.93595 15.1369 6.83892C15.0967 6.74188 15.076 6.63788 15.076 6.53285V4.94016H7.6V6.53952C7.60002 6.64454 7.57934 6.74854 7.53914 6.84558C7.49894 6.94262 7.44002 7.03079 7.36573 7.10506C7.29144 7.17933 7.20324 7.23824 7.10618 7.27844C7.00911 7.31863 6.90507 7.33932 6.8 7.33932C6.69493 7.33932 6.59089 7.31863 6.49382 7.27844C6.39676 7.23824 6.30856 7.17933 6.23427 7.10506C6.15998 7.03079 6.10106 6.94262 6.06086 6.84558C6.02066 6.74854 5.99998 6.64454 6 6.53952V4.94016H4.66667C4.4068 4.94007 4.15584 5.03481 3.9609 5.2066C3.76597 5.37838 3.64048 5.61539 3.608 5.87312L3.6 6.0064V18.0016C3.59991 18.2614 3.69469 18.5122 3.86655 18.7071C4.0384 18.9019 4.2755 19.0274 4.53333 19.0598L4.66667 19.0678H10.5373C11.068 19.0972 11.3333 19.3651 11.3333 19.8702C11.3333 20.3766 11.0667 20.6432 10.5373 20.6672H4.66667C3.95942 20.6672 3.28115 20.3864 2.78105 19.8865C2.28095 19.3866 2 18.7086 2 18.0016V6.0064C2 5.29944 2.28095 4.62143 2.78105 4.12153C3.28115 3.62164 3.95942 3.3408 4.66667 3.3408H6V2.80768C5.99998 2.70265 6.02066 2.59865 6.06086 2.50161C6.10106 2.40458 6.15998 2.31641 6.23427 2.24214C6.30856 2.16787 6.39676 2.10895 6.49382 2.06876C6.59089 2.02856 6.69493 2.00787 6.8 2.00787C6.90507 2.00787 7.00911 2.02856 7.10618 2.06876C7.20324 2.10895 7.29144 2.16787 7.36573 2.24214C7.44002 2.31641 7.49894 2.40458 7.53914 2.50161C7.57934 2.59865 7.60002 2.70265 7.6 2.80768V3.3408H15.076V2.79968C15.076 2.58759 15.1603 2.38419 15.3103 2.23422C15.4603 2.08425 15.6638 2 15.876 2L15.8773 2.00133ZM17.3333 14.0032C16.8956 14.0032 16.4621 14.0894 16.0577 14.2568C15.6533 14.4243 15.2858 14.6697 14.9763 14.9791C14.6668 15.2885 14.4213 15.6558 14.2537 16.0601C14.0862 16.4644 14 16.8976 14 17.3352C14 17.7728 14.0862 18.206 14.2537 18.6103C14.4213 19.0146 14.6668 19.3819 14.9763 19.6913C15.2858 20.0007 15.6533 20.2461 16.0577 20.4136C16.4621 20.581 16.8956 20.6672 17.3333 20.6672C18.2174 20.6672 19.0652 20.3162 19.6904 19.6913C20.3155 19.0664 20.6667 18.2189 20.6667 17.3352C20.6667 16.4515 20.3155 15.604 19.6904 14.9791C19.0652 14.3542 18.2174 14.0032 17.3333 14.0032ZM17.308 14.9068C17.4848 14.9068 17.6544 14.977 17.7794 15.102C17.9044 15.227 17.9747 15.3965 17.9747 15.5732L17.9733 17.2592L19.3347 18.2122C19.4797 18.3135 19.5785 18.4681 19.6093 18.6422C19.6402 18.8163 19.6006 18.9956 19.4993 19.1405C19.398 19.2854 19.2433 19.3842 19.0691 19.415C18.8949 19.4459 18.7157 19.4064 18.5707 19.3051L16.932 18.1589C16.8562 18.106 16.7923 18.0379 16.7444 17.959C16.6964 17.88 16.6654 17.792 16.6533 17.7004C16.6452 17.6582 16.6412 17.6154 16.6413 17.5724V15.5732C16.6413 15.4857 16.6586 15.3991 16.6921 15.3182C16.7256 15.2374 16.7747 15.1639 16.8366 15.102C16.8985 15.0401 16.972 14.9911 17.0529 14.9576C17.1338 14.9241 17.2205 14.9068 17.308 14.9068ZM10.5333 14.0032C10.7455 14.0032 10.949 14.0875 11.099 14.2374C11.249 14.3874 11.3333 14.5908 11.3333 14.8029C11.3333 15.015 11.249 15.2184 11.099 15.3683C10.949 15.5183 10.7455 15.6026 10.5333 15.6026H6.8C6.58783 15.6026 6.38434 15.5183 6.23431 15.3683C6.08429 15.2184 6 15.015 6 14.8029C6 14.5908 6.08429 14.3874 6.23431 14.2374C6.38434 14.0875 6.58783 14.0032 6.8 14.0032H10.5333ZM15.8667 10.0048C16.0788 10.0048 16.2823 10.0891 16.4323 10.2391C16.5823 10.389 16.6665 10.5924 16.6665 10.8045C16.6665 11.0165 16.5823 11.2199 16.4323 11.3699C16.2823 11.5199 16.0788 11.6041 15.8667 11.6042H6.8C6.69493 11.6042 6.59089 11.5835 6.49381 11.5433C6.39674 11.5031 6.30853 11.4442 6.23423 11.37C6.15993 11.2957 6.101 11.2076 6.06078 11.1105C6.02057 11.0135 5.99987 10.9095 5.99987 10.8045C5.99987 10.6995 6.02057 10.5955 6.06078 10.4984C6.101 10.4014 6.15993 10.3132 6.23423 10.239C6.30853 10.1647 6.39674 10.1058 6.49381 10.0656C6.59089 10.0255 6.69493 10.0048 6.8 10.0048H15.8667Z" fill="white"/>
</svg>
