<svg width="24" height="24" viewBox="0 0 24 24" fill="none" xmlns="http://www.w3.org/2000/svg">
<g id="account preferences">
<path id="Vector" d="M19.9832 17.7649H20.8422C21.4815 17.7649 22 18.2829 22 18.9203V21H15.5182V18.9203C15.5182 18.2829 16.0368 17.7649 16.676 17.7649H17.535C17.151 17.4263 16.9076 16.9303 16.9076 16.3785C16.9076 15.3586 17.7369 14.5299 18.7601 14.5299H20.6126V16.3785C20.6106 16.9323 20.3692 17.4263 19.9832 17.7649ZM19.2212 15.9163H18.7581C18.5028 15.9163 18.295 16.1235 18.295 16.3785C18.295 16.6335 18.5028 16.8406 18.7581 16.8406C19.0134 16.8406 19.2212 16.6335 19.2212 16.3785V15.9163ZM16.9076 19.1514V19.6135H20.6126V19.1514H16.9076ZM14.1289 19.5936H8.68021C7.93604 19.5936 7.24729 19.1972 6.87521 18.5538L3.27906 12.3367C2.90698 11.6932 2.90698 10.9004 3.27906 10.257L6.87521 4.03984C7.24729 3.39641 7.93604 3 8.68021 3H15.8725C16.6167 3 17.3054 3.39641 17.6775 4.03984L21.2736 10.257C21.6457 10.9004 21.6457 11.6932 21.2736 12.3367L20.8066 13.1454H19.2034L20.0723 11.6434C20.197 11.4283 20.197 11.1653 20.0723 10.9502L16.4742 4.73307C16.3495 4.51793 16.1199 4.38645 15.8725 4.38645H8.68021C8.43281 4.38645 8.20323 4.51793 8.07854 4.73307L4.4824 10.9502C4.35771 11.1653 4.35771 11.4283 4.4824 11.6434L8.07854 17.8606C8.20323 18.0757 8.43281 18.2072 8.68021 18.2072H14.1289V19.5936ZM12.2764 8.06175C14.0655 8.06175 15.5182 9.50996 15.5182 11.2968C15.5182 13.0837 14.0675 14.5319 12.2764 14.5319C10.4852 14.5319 9.03646 13.0837 9.03646 11.2968C9.03646 9.50996 10.4872 8.06175 12.2764 8.06175ZM12.2764 9.44821C11.2531 9.44821 10.4239 10.2749 10.4239 11.2968C10.4239 12.3187 11.2531 13.1454 12.2764 13.1454C13.2996 13.1454 14.1289 12.3187 14.1289 11.2968C14.1289 10.2749 13.2996 9.44821 12.2764 9.44821Z" fill="#5A5C60"/>
</g>
</svg>
