<svg width="24" height="24" viewBox="0 0 24 24" fill="none" xmlns="http://www.w3.org/2000/svg">
<path d="M19.2727 1H4.72727C4.325 1 4 1.35112 4 1.78571V7.28571H20V1.78571C20 1.35112 19.675 1 19.2727 1ZM6.90909 5.125C6.40682 5.125 6 4.68549 6 4.14286C6 3.60022 6.40682 3.16071 6.90909 3.16071C7.41136 3.16071 7.81818 3.60022 7.81818 4.14286C7.81818 4.68549 7.41136 5.125 6.90909 5.125ZM4 22.2143C4 22.6489 4.325 23 4.72727 23H19.2727C19.675 23 20 22.6489 20 22.2143V16.7143H4V22.2143ZM6.90909 18.875C7.41136 18.875 7.81818 19.3145 7.81818 19.8571C7.81818 20.3998 7.41136 20.8393 6.90909 20.8393C6.40682 20.8393 6 20.3998 6 19.8571C6 19.3145 6.40682 18.875 6.90909 18.875ZM4 15.1429H20V8.85714H4V15.1429ZM6.90909 11.0179C7.41136 11.0179 7.81818 11.4574 7.81818 12C7.81818 12.5426 7.41136 12.9821 6.90909 12.9821C6.40682 12.9821 6 12.5426 6 12C6 11.4574 6.40682 11.0179 6.90909 11.0179Z" fill="#5A5C60"/>
</svg>
