<svg width="24" height="24" viewBox="0 0 24 24" fill="none" xmlns="http://www.w3.org/2000/svg">
<path d="M9.88077 19.2077C9.03244 18.7882 8.12043 18.5244 7.19666 18.4127C7.22851 18.1827 7.25869 17.9561 7.28886 17.7312C7.49508 17.5942 7.64261 17.3929 7.65601 17.2255C7.68117 17.0158 7.70463 16.806 7.7281 16.5929C7.7566 16.6251 7.79349 16.6471 7.83707 16.6521C7.93598 16.6623 8.02316 16.5895 8.0349 16.4881L8.13215 15.5139C8.14221 15.4141 8.07012 15.3228 7.97287 15.3126C7.93599 15.3075 7.8991 15.3177 7.86892 15.3329C7.89072 15.1486 7.91084 14.9642 7.93264 14.7799C7.94939 14.5245 8.06844 13.8496 7.59566 13.4116C6.91332 12.7182 5.40612 12.7182 4.72212 13.4116C4.24934 13.8497 4.37005 14.5245 4.38682 14.7799C4.40862 14.9659 4.42874 15.1502 4.45053 15.3329C4.42036 15.3177 4.38348 15.3075 4.34827 15.3126C4.25102 15.3228 4.17893 15.4141 4.18899 15.5139L4.28624 16.4881C4.2963 16.5879 4.38348 16.6623 4.48239 16.6521C4.52598 16.6487 4.56454 16.6251 4.59303 16.5929C4.61483 16.806 4.63997 17.0158 4.66345 17.2255C4.67854 17.3929 4.82438 17.5925 5.03227 17.7312C5.06245 17.9561 5.09263 18.1827 5.1228 18.4111C4.19737 18.5244 3.28869 18.7865 2.43869 19.206C2.16543 19.3548 1.97432 19.7387 2.00281 20.0364C2.03467 20.378 2.0682 20.7197 2.1034 21.063C2.13189 21.359 2.38002 21.6549 2.65498 21.7108C4.9803 22.0964 7.34252 22.0964 9.66954 21.7108C9.94448 21.6533 10.1893 21.359 10.2211 21.063C10.253 20.7197 10.2865 20.3797 10.3184 20.0364C10.3468 19.7387 10.154 19.3548 9.88077 19.2077ZM21.5594 19.2077C20.7111 18.7882 19.8007 18.5244 18.8769 18.4127C18.9071 18.1844 18.9373 17.9578 18.9708 17.7312C19.1754 17.5942 19.3229 17.3929 19.338 17.2255C19.3615 17.0158 19.3866 16.806 19.4084 16.5929C19.4386 16.6251 19.4738 16.6471 19.519 16.6521C19.6179 16.6623 19.7035 16.5895 19.7135 16.4881L19.8124 15.5139C19.8225 15.4141 19.7521 15.3228 19.6531 15.3126C19.6179 15.3075 19.5811 15.3177 19.5492 15.3329C19.571 15.1486 19.5928 14.9642 19.6129 14.7799C19.628 14.5245 19.7521 13.8496 19.2793 13.4116C18.5936 12.7182 17.0864 12.7182 16.404 13.4116C15.9313 13.8497 16.052 14.5245 16.0688 14.7799C16.0889 14.9642 16.1073 15.1486 16.1308 15.3329C16.1006 15.3177 16.0637 15.3075 16.0252 15.3126C15.9279 15.3228 15.8575 15.4141 15.8676 15.5139L15.9665 16.4881C15.9748 16.5879 16.0637 16.6623 16.1609 16.6521C16.2062 16.6487 16.2448 16.6251 16.2716 16.5929C16.2951 16.806 16.3185 17.0158 16.342 17.2255C16.3588 17.3929 16.5046 17.5925 16.7108 17.7312C16.741 17.9561 16.7712 18.1827 16.803 18.4111C15.8776 18.5244 14.9672 18.7865 14.1189 19.206C13.8456 19.3548 13.6528 19.7387 13.6813 20.0364C13.7149 20.378 13.7484 20.7197 13.7819 21.063C13.8121 21.359 14.0586 21.655 14.3318 21.7108C16.6588 22.0964 19.021 22.0964 21.3464 21.7108C21.6213 21.6533 21.8678 21.359 21.898 21.063C21.9315 20.7197 21.965 20.3797 21.9969 20.0364C22.0271 19.7387 21.8343 19.3548 21.5594 19.2077ZM15.7201 8.31573C14.8701 7.89798 13.9614 7.63582 13.036 7.52081C13.0678 7.29588 13.098 7.06586 13.1282 6.83923C13.3361 6.70393 13.4819 6.50435 13.4953 6.33691C13.5205 6.1238 13.5439 5.9141 13.5691 5.70437C13.5976 5.73481 13.6361 5.75511 13.6797 5.76187C13.777 5.77032 13.8642 5.69759 13.8725 5.59782L13.9714 4.62364C13.9832 4.52386 13.9094 4.43421 13.8122 4.42237C13.777 4.41898 13.7401 4.42745 13.7082 4.44436C13.7317 4.25832 13.7535 4.07397 13.7719 3.88791C13.7887 3.63421 13.9111 2.95769 13.4366 2.52134C12.7543 1.82622 11.2471 1.82622 10.5648 2.52134C10.092 2.95769 10.2127 3.63421 10.2295 3.88791C10.2496 4.07395 10.2731 4.2583 10.2932 4.44436C10.2613 4.42745 10.2261 4.41898 10.1892 4.42237C10.0903 4.43421 10.0182 4.52384 10.0283 4.62364L10.1255 5.59782C10.1373 5.69759 10.2244 5.77032 10.32 5.76187C10.3636 5.75678 10.4038 5.73481 10.4323 5.70437C10.4541 5.9141 10.4793 6.12382 10.5027 6.33691C10.5178 6.50435 10.6654 6.70393 10.8716 6.83923C10.9017 7.06586 10.9319 7.29249 10.9621 7.52081C10.0367 7.63582 9.12799 7.89967 8.27967 8.3174C8.00473 8.46455 7.81191 8.85017 7.84209 9.14783C7.87394 9.48946 7.90748 9.8328 7.94267 10.1744C7.97117 10.4721 8.2193 10.7664 8.49258 10.8205C10.8196 11.2078 13.1818 11.2078 15.5071 10.8205C15.7821 10.7664 16.0269 10.4721 16.0587 10.1744C16.0923 9.8328 16.1258 9.48946 16.156 9.14783C16.1845 8.85019 15.9933 8.46457 15.7201 8.31573ZM14.7829 16.6437L12.5062 15.2856V12.571C12.5062 12.2818 12.2799 12.0484 11.9982 12.0484C11.7182 12.0484 11.4919 12.2818 11.4919 12.571V15.2839L9.21686 16.6437C8.97377 16.7891 8.88994 17.1104 9.03244 17.3608C9.12633 17.5299 9.29565 17.6246 9.47336 17.6246C9.55887 17.6246 9.64772 17.6009 9.72485 17.5536L11.9999 16.1972L14.2766 17.5536C14.3554 17.6009 14.4442 17.6246 14.5297 17.6246C14.7058 17.6246 14.8768 17.5299 14.969 17.3608C15.1081 17.1104 15.026 16.7891 14.7829 16.6437Z" fill="#5A5C60"/>
</svg>
