<svg width="23" height="24" viewBox="0 0 23 24" fill="none" xmlns="http://www.w3.org/2000/svg">
<path d="M22 3.90309C21.9986 3.40463 21.6264 3 21.1683 3H2.83166C2.37217 3 2 3.40463 2 3.90309V21.0954C2 21.5939 2.37074 21.9971 2.83023 21.9971L2.83166 22H21.1683C21.6264 21.9985 21.9986 21.5954 21.9986 21.0969V21.0954H22V3.90309ZM20.3152 20.1894H3.67907V18.1883C3.83796 17.7294 4.38477 16.212 5.19496 14.7079C6.35156 12.5616 7.53392 11.3785 8.52734 11.3785C9.86716 11.3785 11.3415 13.5468 12.6799 17.4831L13.2811 19.257L14.1743 17.637C14.4199 17.2208 14.7099 16.8339 15.0389 16.4833C15.4755 16.0215 16.1497 15.4687 16.8812 15.4687C17.3765 15.4687 17.8646 15.7136 18.3727 16.2164C19.0384 16.8762 19.6925 17.9464 20.3152 19.3963V20.1894ZM20.3324 15.8778C20.0819 15.5204 19.8017 15.1859 19.495 14.8779C18.6776 14.0672 17.7973 13.6567 16.8798 13.6567C15.8448 13.6567 14.7956 14.1977 13.8423 15.221L13.7034 15.3749C13.0235 13.6347 12.3178 12.3123 11.562 11.3565C10.623 10.1704 9.60235 9.56937 8.52734 9.56937C6.87117 9.56937 5.26653 10.9914 3.75637 13.7945L3.66762 13.9631V4.80911H20.3338V15.8778H20.3324Z" fill="#5A5C60"/>
<path d="M14.98 9.59475C15.1342 9.76275 15.317 9.90375 15.522 10.0057C15.8532 10.1728 16.2324 10.2356 16.6041 10.1849C16.9758 10.1341 17.3206 9.97255 17.5881 9.72375C17.7788 9.55061 17.9307 9.34298 18.0346 9.11325C18.2398 8.65837 18.2546 8.14699 18.076 7.68225C17.9832 7.44023 17.8382 7.21905 17.65 7.03275C17.4537 6.83673 17.2115 6.68674 16.9428 6.59475C16.7204 6.51931 16.4841 6.48707 16.2481 6.49996C16.0122 6.51285 15.7814 6.5706 15.5697 6.66975C15.3474 6.774 15.1496 6.91938 14.988 7.09725C14.6693 7.44479 14.4958 7.89012 14.5001 8.34975C14.499 8.80526 14.6691 9.24637 14.98 9.59475Z" fill="#5A5C60"/>
</svg>
