<svg width="24" height="24" viewBox="0 0 24 24" fill="none" xmlns="http://www.w3.org/2000/svg">
<path d="M6.14308 16.5012C6.14308 17.6442 5.21578 18.5708 4.07161 18.5708C2.92744 18.5708 2.00024 17.6442 2.00024 16.5012C2.00024 15.3582 2.92741 14.432 4.07161 14.432C5.21574 14.432 6.14308 15.3582 6.14308 16.5012Z" fill="#5A5C60"/>
<path d="M11.3667 19.3934C11.3667 20.1019 10.7919 20.6761 10.0832 20.6761C9.37414 20.6761 8.79944 20.1018 8.79944 19.3934C8.79944 18.6854 9.37411 18.111 10.0832 18.111C10.7919 18.111 11.3667 18.6854 11.3667 19.3934Z" fill="#5A5C60"/>
<path d="M20.1366 15.3451C20.1366 17.2086 18.6239 18.719 16.7593 18.719C14.8933 18.719 13.3822 17.2086 13.3822 15.3451C13.3822 13.4809 14.8933 11.9702 16.7593 11.9702C18.6239 11.9702 20.1366 13.4809 20.1366 15.3451Z" fill="#5A5C60"/>
<path d="M18.3552 7.06448C18.3552 8.15554 17.4708 9.03924 16.3792 9.03924C15.2877 9.03924 14.4032 8.15554 14.4032 7.06448C14.4032 5.97441 15.2877 5.09028 16.3792 5.09028C17.4708 5.09028 18.3552 5.97441 18.3552 7.06448ZM22.0003 4.62171C22.0003 5.33034 21.4255 5.90471 20.7164 5.90471C20.008 5.90471 19.4329 5.33038 19.4329 4.62171C19.4329 3.91388 20.008 3.33984 20.7164 3.33984C21.4255 3.33984 22.0003 3.91388 22.0003 4.62171Z" fill="#5A5C60"/>
</svg>
