<svg width="24" height="24" viewBox="0 0 24 24" fill="none" xmlns="http://www.w3.org/2000/svg">
<path d="M8.85714 7.12062C9.30739 7.12062 9.75323 7.20753 10.1692 7.37637C10.5852 7.54522 10.9631 7.79271 11.2815 8.10469C11.5999 8.41668 11.8524 8.78707 12.0247 9.1947C12.197 9.60234 12.2857 10.0392 12.2857 10.4805V11.6004C12.2857 12.4915 11.9245 13.3461 11.2815 13.9762C10.6385 14.6063 9.76646 14.9602 8.85714 14.9602C7.94783 14.9602 7.07576 14.6063 6.43278 13.9762C5.78979 13.3461 5.42857 12.4915 5.42857 11.6004V10.4805C5.42857 9.58937 5.78979 8.73479 6.43278 8.10469C7.07576 7.4746 7.94783 7.12062 8.85714 7.12062ZM5.48914 14.6299C5.91694 15.0876 6.43737 15.453 7.01725 15.7027C7.59713 15.9524 8.22374 16.081 8.85714 16.0802C9.49054 16.081 10.1172 15.9524 10.697 15.7027C11.2769 15.453 11.7973 15.0876 12.2251 14.6299C13.7962 15.4151 15.0325 16.7206 15.7143 18.3145V18.8801C15.7143 19.1771 15.5939 19.4619 15.3795 19.672C15.1652 19.882 14.8745 20 14.5714 20H3.14286C2.83975 20 2.54906 19.882 2.33474 19.672C2.12041 19.4619 2 19.1771 2 18.8801V18.315C2.68172 16.7209 3.91796 15.4152 5.48914 14.6299ZM12.9383 13.6202C13.2442 13.0281 13.4113 12.3765 13.4274 11.713C13.4663 11.6934 13.5051 11.6738 13.5446 11.6553C14.2858 12.3406 15.2667 12.7217 16.2857 12.7204C17.3048 12.7217 18.2857 12.3406 19.0269 11.6553C20.3391 12.2804 21.3897 13.3317 22 14.6304V14.9602C22 15.2573 21.8796 15.5421 21.6653 15.7522C21.4509 15.9622 21.1602 16.0802 20.8571 16.0802H15.8566C15.0933 15.048 14.0938 14.2055 12.9383 13.6202ZM16.2857 4.88073C17.0435 4.88073 17.7702 5.17571 18.306 5.70079C18.8418 6.22587 19.1429 6.93802 19.1429 7.68059V8.80054C19.1428 9.54306 18.8417 10.2552 18.3059 10.7802C17.7701 11.3052 17.0434 11.6001 16.2857 11.6001C15.528 11.6001 14.8013 11.3052 14.2655 10.7802C13.7297 10.2552 13.4286 9.54306 13.4286 8.80054V7.68059C13.4286 6.93802 13.7296 6.22587 14.2654 5.70079C14.8012 5.17571 15.528 4.88073 16.2857 4.88073ZM5.26286 5.53422C6.15886 4.99944 7.092 4.60466 8.064 4.34932C9.03543 4.09397 10.0457 3.97861 11.0937 4.00325C11.2171 4.00612 11.3362 4.04803 11.4332 4.12272C11.5302 4.19741 11.6 4.30087 11.632 4.41763L11.6714 4.56155C11.6882 4.62326 11.6901 4.68793 11.6771 4.75051C11.6642 4.81309 11.6366 4.87188 11.5966 4.92229C11.5566 4.97271 11.5053 5.01338 11.4466 5.04114C11.3879 5.0689 11.3234 5.08299 11.2583 5.08232C10.2802 5.06749 9.30476 5.18488 8.35943 5.43118C7.41525 5.68112 6.51073 6.05742 5.67143 6.54945C5.61537 6.58206 5.55236 6.60151 5.48735 6.60627C5.42233 6.61104 5.35707 6.60098 5.29669 6.5769C5.2363 6.55282 5.18242 6.51536 5.13928 6.46746C5.09613 6.41957 5.06489 6.36253 5.048 6.30082L5.00857 6.15691C4.97674 6.04007 4.98436 5.91626 5.0303 5.80402C5.07624 5.69178 5.15803 5.59712 5.26343 5.53422H5.26286Z" fill="#5A5C60"/>
</svg>
