<svg width="24" height="24" viewBox="0 0 24 24" fill="none" xmlns="http://www.w3.org/2000/svg">
<path d="M17.4434 10.8958C17.4434 11.1127 17.3583 11.3207 17.2066 11.4742C17.055 11.6276 16.8494 11.7137 16.635 11.7137H7.36575C7.07684 11.7137 6.8101 11.5577 6.66573 11.3048C6.52118 11.0518 6.52118 10.7399 6.66573 10.4869C6.81008 10.234 7.07685 10.078 7.36575 10.078H16.635C16.8494 10.078 17.0549 10.1641 17.2066 10.3175C17.3583 10.471 17.4434 10.6789 17.4434 10.8959V10.8958ZM16.0422 13.3493H7.95844C7.66953 13.3493 7.40278 13.5053 7.25842 13.7583C7.11387 14.0112 7.11387 14.3232 7.25842 14.5761C7.40277 14.829 7.66954 14.985 7.95844 14.985H16.0422C16.3311 14.985 16.5978 14.829 16.7422 14.5761C16.8867 14.3232 16.8867 14.0112 16.7422 13.7583C16.5978 13.5053 16.3311 13.3493 16.0422 13.3493ZM14.3176 16.6207H9.68289C9.39399 16.6207 9.12724 16.7767 8.98287 17.0296C8.83832 17.2826 8.83832 17.5945 8.98287 17.8475C9.12722 18.1004 9.39399 18.2564 9.68289 18.2564H14.3176C14.6065 18.2564 14.8733 18.1004 15.0176 17.8475C15.1622 17.5945 15.1622 17.2826 15.0176 17.0296C14.8733 16.7767 14.6065 16.6207 14.3176 16.6207ZM21 8.12388V17.9751C20.9985 19.3073 20.4748 20.5844 19.5435 21.5265C18.6124 22.4686 17.3499 22.9984 16.0332 23H7.96676C6.65004 22.9984 5.38762 22.4686 4.45646 21.5265C3.5253 20.5844 3.00158 19.3072 3 17.9751V8.12388C3.00154 6.79175 3.52525 5.51456 4.45646 4.57251C5.38762 3.63045 6.65009 3.1006 7.96676 3.09901H9.64145C9.7221 2.324 10.1781 1.64011 10.8582 1.27427C11.5385 0.908577 12.3538 0.908577 13.0339 1.27427C13.7142 1.64015 14.1701 2.32405 14.2507 3.09901H16.0332C17.35 3.10056 18.6124 3.6304 19.5435 4.57251C20.4747 5.51456 20.9984 6.7918 21 8.12388ZM8.5507 6.80656H15.2873V4.73472H8.5507V6.80656ZM11.2894 3.09901H12.6024C12.5012 2.82055 12.239 2.63556 11.9459 2.63556C11.6528 2.63556 11.3906 2.82055 11.2894 3.09901ZM19.383 8.12383C19.382 7.37883 19.1387 6.65482 18.6906 6.06345C18.2427 5.47209 17.6149 5.04623 16.9039 4.85151V7.62439C16.9039 7.84131 16.8188 8.04927 16.6672 8.20274C16.5155 8.35618 16.3099 8.44225 16.0955 8.44225H7.74224C7.52782 8.44225 7.32227 8.35618 7.17058 8.20274C7.01891 8.0493 6.93383 7.84133 6.93383 7.62439V4.90022C6.26096 5.12162 5.67447 5.55275 5.25816 6.13165C4.84204 6.71075 4.61741 7.40804 4.61648 8.12388V17.9751C4.61744 18.8736 4.97082 19.7351 5.59888 20.3704C6.22694 21.0058 7.0784 21.3633 7.9665 21.3643H16.033C16.921 21.3634 17.7726 21.0059 18.4006 20.3704C19.0286 19.735 19.382 18.8736 19.383 17.9751L19.383 8.12383Z" fill="#5F5F61"/>
</svg>
