<svg width="24" height="24" viewBox="0 0 24 24" fill="none" xmlns="http://www.w3.org/2000/svg">
<mask id="path-1-inside-1_226_1913" fill="white">
<path fill-rule="evenodd" clip-rule="evenodd" d="M4.99956 2.70103C4.55773 2.70103 4.19956 3.0592 4.19956 3.50103C4.19956 3.94285 4.55773 4.30103 4.99956 4.30103C5.44139 4.30103 5.79956 3.94285 5.79956 3.50103C5.79956 3.0592 5.44139 2.70103 4.99956 2.70103ZM2.79956 3.50103C2.79956 2.286 3.78453 1.30103 4.99956 1.30103C6.21459 1.30103 7.19956 2.286 7.19956 3.50103C7.19956 4.47126 6.5715 5.2948 5.69976 5.58726V8.50024C5.69976 9.21821 6.28179 9.80024 6.99976 9.80024H16.9133C17.2055 8.92805 18.0292 8.29956 18.9998 8.29956C20.2148 8.29956 21.1998 9.28453 21.1998 10.4996C21.1998 11.7146 20.2148 12.6996 18.9998 12.6996C18.0298 12.6996 17.2063 12.0717 16.9137 11.2002H6.99976C6.52847 11.2002 6.08539 11.0795 5.69976 10.8672V13.5002C5.69976 14.2182 6.28179 14.8002 6.99976 14.8002H16.9134C17.2056 13.928 18.0294 13.2996 18.9999 13.2996C20.215 13.2996 21.1999 14.2845 21.1999 15.4996C21.1999 16.7146 20.215 17.6996 18.9999 17.6996C18.0299 17.6996 17.2065 17.0717 16.9139 16.2002H6.99976C6.52847 16.2002 6.08539 16.0795 5.69976 15.8672V18.5002C5.69976 19.2182 6.28179 19.8002 6.99976 19.8002H16.9134C17.2056 18.928 18.0294 18.2996 18.9999 18.2996C20.215 18.2996 21.1999 19.2845 21.1999 20.4996C21.1999 21.7146 20.215 22.6996 18.9999 22.6996C18.0299 22.6996 17.2065 22.0717 16.9139 21.2002H6.99976C5.50859 21.2002 4.29976 19.9914 4.29976 18.5002V13.5002V8.50024V5.58739C3.42781 5.29504 2.79956 4.4714 2.79956 3.50103ZM18.1998 10.4996C18.1998 10.0577 18.558 9.69956 18.9998 9.69956C19.4416 9.69956 19.7998 10.0577 19.7998 10.4996C19.7998 10.9414 19.4416 11.2996 18.9998 11.2996C18.558 11.2996 18.1998 10.9414 18.1998 10.4996ZM18.9999 14.6996C18.5581 14.6996 18.1999 15.0577 18.1999 15.4996C18.1999 15.9414 18.5581 16.2996 18.9999 16.2996C19.4418 16.2996 19.7999 15.9414 19.7999 15.4996C19.7999 15.0577 19.4418 14.6996 18.9999 14.6996ZM18.1999 20.4996C18.1999 20.0577 18.5581 19.6996 18.9999 19.6996C19.4418 19.6996 19.7999 20.0577 19.7999 20.4996C19.7999 20.9414 19.4418 21.2996 18.9999 21.2996C18.5581 21.2996 18.1999 20.9414 18.1999 20.4996Z"/>
</mask>
<path fill-rule="evenodd" clip-rule="evenodd" d="M4.99956 2.70103C4.55773 2.70103 4.19956 3.0592 4.19956 3.50103C4.19956 3.94285 4.55773 4.30103 4.99956 4.30103C5.44139 4.30103 5.79956 3.94285 5.79956 3.50103C5.79956 3.0592 5.44139 2.70103 4.99956 2.70103ZM2.79956 3.50103C2.79956 2.286 3.78453 1.30103 4.99956 1.30103C6.21459 1.30103 7.19956 2.286 7.19956 3.50103C7.19956 4.47126 6.5715 5.2948 5.69976 5.58726V8.50024C5.69976 9.21821 6.28179 9.80024 6.99976 9.80024H16.9133C17.2055 8.92805 18.0292 8.29956 18.9998 8.29956C20.2148 8.29956 21.1998 9.28453 21.1998 10.4996C21.1998 11.7146 20.2148 12.6996 18.9998 12.6996C18.0298 12.6996 17.2063 12.0717 16.9137 11.2002H6.99976C6.52847 11.2002 6.08539 11.0795 5.69976 10.8672V13.5002C5.69976 14.2182 6.28179 14.8002 6.99976 14.8002H16.9134C17.2056 13.928 18.0294 13.2996 18.9999 13.2996C20.215 13.2996 21.1999 14.2845 21.1999 15.4996C21.1999 16.7146 20.215 17.6996 18.9999 17.6996C18.0299 17.6996 17.2065 17.0717 16.9139 16.2002H6.99976C6.52847 16.2002 6.08539 16.0795 5.69976 15.8672V18.5002C5.69976 19.2182 6.28179 19.8002 6.99976 19.8002H16.9134C17.2056 18.928 18.0294 18.2996 18.9999 18.2996C20.215 18.2996 21.1999 19.2845 21.1999 20.4996C21.1999 21.7146 20.215 22.6996 18.9999 22.6996C18.0299 22.6996 17.2065 22.0717 16.9139 21.2002H6.99976C5.50859 21.2002 4.29976 19.9914 4.29976 18.5002V13.5002V8.50024V5.58739C3.42781 5.29504 2.79956 4.4714 2.79956 3.50103ZM18.1998 10.4996C18.1998 10.0577 18.558 9.69956 18.9998 9.69956C19.4416 9.69956 19.7998 10.0577 19.7998 10.4996C19.7998 10.9414 19.4416 11.2996 18.9998 11.2996C18.558 11.2996 18.1998 10.9414 18.1998 10.4996ZM18.9999 14.6996C18.5581 14.6996 18.1999 15.0577 18.1999 15.4996C18.1999 15.9414 18.5581 16.2996 18.9999 16.2996C19.4418 16.2996 19.7999 15.9414 19.7999 15.4996C19.7999 15.0577 19.4418 14.6996 18.9999 14.6996ZM18.1999 20.4996C18.1999 20.0577 18.5581 19.6996 18.9999 19.6996C19.4418 19.6996 19.7999 20.0577 19.7999 20.4996C19.7999 20.9414 19.4418 21.2996 18.9999 21.2996C18.5581 21.2996 18.1999 20.9414 18.1999 20.4996Z" fill="#5A5C60"/>
<path d="M5.69976 5.58726L5.38169 4.63919L4.69976 4.86797V5.58726H5.69976ZM16.9133 9.80024V10.8002H17.6329L17.8615 10.1179L16.9133 9.80024ZM16.9137 11.2002L17.8617 10.882L17.6328 10.2002H16.9137V11.2002ZM5.69976 10.8672L6.18194 9.99118L4.69976 9.1754V10.8672H5.69976ZM16.9134 14.8002V15.8002H17.633L17.8616 15.1179L16.9134 14.8002ZM16.9139 16.2002L17.8619 15.882L17.633 15.2002H16.9139V16.2002ZM5.69976 15.8672L6.18194 14.9912L4.69976 14.1754V15.8672H5.69976ZM16.9134 19.8002V20.8002H17.633L17.8616 20.1179L16.9134 19.8002ZM16.9139 21.2002L17.8619 20.882L17.633 20.2002H16.9139V21.2002ZM4.29976 5.58739H5.29976V4.86796L4.61764 4.63926L4.29976 5.58739ZM5.19956 3.50103C5.19956 3.61148 5.11002 3.70103 4.99956 3.70103V1.70103C4.00545 1.70103 3.19956 2.50691 3.19956 3.50103H5.19956ZM4.99956 3.30103C5.11002 3.30103 5.19956 3.39057 5.19956 3.50103H3.19956C3.19956 4.49514 4.00545 5.30103 4.99956 5.30103V3.30103ZM4.79956 3.50103C4.79956 3.39057 4.8891 3.30103 4.99956 3.30103V5.30103C5.99367 5.30103 6.79956 4.49514 6.79956 3.50103H4.79956ZM4.99956 3.70103C4.8891 3.70103 4.79956 3.61148 4.79956 3.50103H6.79956C6.79956 2.50691 5.99367 1.70103 4.99956 1.70103V3.70103ZM4.99956 0.301025C3.23225 0.301025 1.79956 1.73371 1.79956 3.50103H3.79956C3.79956 2.83828 4.33682 2.30103 4.99956 2.30103V0.301025ZM8.19956 3.50103C8.19956 1.73371 6.76687 0.301025 4.99956 0.301025V2.30103C5.6623 2.30103 6.19956 2.83828 6.19956 3.50103H8.19956ZM6.01782 6.53532C7.28466 6.11032 8.19956 4.91382 8.19956 3.50103H6.19956C6.19956 4.0287 5.85834 4.47928 5.38169 4.63919L6.01782 6.53532ZM6.69976 8.50024V5.58726H4.69976V8.50024H6.69976ZM6.99976 8.80024C6.83407 8.80024 6.69976 8.66593 6.69976 8.50024H4.69976C4.69976 9.7705 5.7295 10.8002 6.99976 10.8002V8.80024ZM16.9133 8.80024H6.99976V10.8002H16.9133V8.80024ZM18.9998 7.29956C17.5865 7.29956 16.3897 8.21508 15.9651 9.48258L17.8615 10.1179C18.0212 9.64102 18.472 9.29956 18.9998 9.29956V7.29956ZM22.1998 10.4996C22.1998 8.73225 20.7671 7.29956 18.9998 7.29956V9.29956C19.6625 9.29956 20.1998 9.83682 20.1998 10.4996H22.1998ZM18.9998 13.6996C20.7671 13.6996 22.1998 12.2669 22.1998 10.4996H20.1998C20.1998 11.1623 19.6625 11.6996 18.9998 11.6996V13.6996ZM15.9657 11.5185C16.391 12.785 17.5873 13.6996 18.9998 13.6996V11.6996C18.4722 11.6996 18.0217 11.3585 17.8617 10.882L15.9657 11.5185ZM6.99976 12.2002H16.9137V10.2002H6.99976V12.2002ZM5.21758 11.7433C5.74717 12.0348 6.35564 12.2002 6.99976 12.2002V10.2002C6.7013 10.2002 6.4236 10.1242 6.18194 9.99118L5.21758 11.7433ZM6.69976 13.5002V10.8672H4.69976V13.5002H6.69976ZM6.99976 13.8002C6.83407 13.8002 6.69976 13.6659 6.69976 13.5002H4.69976C4.69976 14.7705 5.7295 15.8002 6.99976 15.8002V13.8002ZM16.9134 13.8002H6.99976V15.8002H16.9134V13.8002ZM18.9999 12.2996C17.5867 12.2996 16.3898 13.2151 15.9652 14.4826L17.8616 15.1179C18.0214 14.641 18.4721 14.2996 18.9999 14.2996V12.2996ZM22.1999 15.4996C22.1999 13.7322 20.7672 12.2996 18.9999 12.2996V14.2996C19.6627 14.2996 20.1999 14.8368 20.1999 15.4996H22.1999ZM18.9999 18.6996C20.7672 18.6996 22.1999 17.2669 22.1999 15.4996H20.1999C20.1999 16.1623 19.6627 16.6996 18.9999 16.6996V18.6996ZM15.9659 16.5185C16.3911 17.785 17.5874 18.6996 18.9999 18.6996V16.6996C18.4724 16.6996 18.0218 16.3585 17.8619 15.882L15.9659 16.5185ZM6.99976 17.2002H16.9139V15.2002H6.99976V17.2002ZM5.21758 16.7433C5.74717 17.0348 6.35564 17.2002 6.99976 17.2002V15.2002C6.7013 15.2002 6.4236 15.1242 6.18194 14.9912L5.21758 16.7433ZM6.69976 18.5002V15.8672H4.69976V18.5002H6.69976ZM6.99976 18.8002C6.83407 18.8002 6.69976 18.6659 6.69976 18.5002H4.69976C4.69976 19.7705 5.7295 20.8002 6.99976 20.8002V18.8002ZM16.9134 18.8002H6.99976V20.8002H16.9134V18.8002ZM17.8616 20.1179C18.0214 19.641 18.4721 19.2996 18.9999 19.2996V17.2996C17.5867 17.2996 16.3898 18.2151 15.9652 19.4826L17.8616 20.1179ZM18.9999 19.2996C19.6627 19.2996 20.1999 19.8368 20.1999 20.4996H22.1999C22.1999 18.7323 20.7672 17.2996 18.9999 17.2996V19.2996ZM20.1999 20.4996C20.1999 21.1623 19.6627 21.6996 18.9999 21.6996V23.6996C20.7672 23.6996 22.1999 22.2669 22.1999 20.4996H20.1999ZM18.9999 21.6996C18.4724 21.6996 18.0218 21.3585 17.8619 20.882L15.9659 21.5185C16.3911 22.785 17.5874 23.6996 18.9999 23.6996V21.6996ZM6.99976 22.2002H16.9139V20.2002H6.99976V22.2002ZM3.29976 18.5002C3.29976 20.5437 4.9563 22.2002 6.99976 22.2002V20.2002C6.06087 20.2002 5.29976 19.4391 5.29976 18.5002H3.29976ZM3.29976 13.5002V18.5002H5.29976V13.5002H3.29976ZM3.29976 8.50024V13.5002H5.29976V8.50024H3.29976ZM3.29976 5.58739V8.50024H5.29976V5.58739H3.29976ZM1.79956 3.50103C1.79956 4.91403 2.71474 6.11067 3.98187 6.53552L4.61764 4.63926C4.14089 4.47941 3.79956 4.02878 3.79956 3.50103H1.79956ZM18.9998 8.69956C18.0057 8.69956 17.1998 9.50545 17.1998 10.4996H19.1998C19.1998 10.61 19.1103 10.6996 18.9998 10.6996V8.69956ZM20.7998 10.4996C20.7998 9.50545 19.9939 8.69956 18.9998 8.69956V10.6996C18.8893 10.6996 18.7998 10.61 18.7998 10.4996H20.7998ZM18.9998 12.2996C19.9939 12.2996 20.7998 11.4937 20.7998 10.4996H18.7998C18.7998 10.3891 18.8893 10.2996 18.9998 10.2996V12.2996ZM17.1998 10.4996C17.1998 11.4937 18.0057 12.2996 18.9998 12.2996V10.2996C19.1103 10.2996 19.1998 10.3891 19.1998 10.4996H17.1998ZM19.1999 15.4996C19.1999 15.61 19.1104 15.6996 18.9999 15.6996V13.6996C18.0058 13.6996 17.1999 14.5054 17.1999 15.4996H19.1999ZM18.9999 15.2996C19.1104 15.2996 19.1999 15.3891 19.1999 15.4996H17.1999C17.1999 16.4937 18.0058 17.2996 18.9999 17.2996V15.2996ZM18.7999 15.4996C18.7999 15.3891 18.8895 15.2996 18.9999 15.2996V17.2996C19.994 17.2996 20.7999 16.4937 20.7999 15.4996H18.7999ZM18.9999 15.6996C18.8895 15.6996 18.7999 15.61 18.7999 15.4996H20.7999C20.7999 14.5054 19.994 13.6996 18.9999 13.6996V15.6996ZM18.9999 18.6996C18.0058 18.6996 17.1999 19.5054 17.1999 20.4996H19.1999C19.1999 20.61 19.1104 20.6996 18.9999 20.6996V18.6996ZM20.7999 20.4996C20.7999 19.5054 19.994 18.6996 18.9999 18.6996V20.6996C18.8895 20.6996 18.7999 20.61 18.7999 20.4996H20.7999ZM18.9999 22.2996C19.994 22.2996 20.7999 21.4937 20.7999 20.4996H18.7999C18.7999 20.3891 18.8895 20.2996 18.9999 20.2996V22.2996ZM17.1999 20.4996C17.1999 21.4937 18.0058 22.2996 18.9999 22.2996V20.2996C19.1104 20.2996 19.1999 20.3891 19.1999 20.4996H17.1999Z" fill="#5A5C60" mask="url(#path-1-inside-1_226_1913)"/>
</svg>
