<svg width="24" height="24" viewBox="0 0 24 24" fill="none" xmlns="http://www.w3.org/2000/svg">
<path d="M9.75 7.5V2.25H19.5C19.8978 2.25 20.2794 2.40804 20.5607 2.68934C20.842 2.97064 21 3.35218 21 3.75V20.25C21 20.6478 20.842 21.0294 20.5607 21.3107C20.2794 21.592 19.8978 21.75 19.5 21.75H4.5C4.10218 21.75 3.72064 21.592 3.43934 21.3107C3.15804 21.0294 3 20.6478 3 20.25V9H8.25C8.64782 9 9.02936 8.84196 9.31066 8.56066C9.59196 8.27936 9.75 7.89782 9.75 7.5ZM12.75 9C12.5511 9 12.3603 9.07902 12.2197 9.21967C12.079 9.36032 12 9.55109 12 9.75C12 9.94891 12.079 10.1397 12.2197 10.2803C12.3603 10.421 12.5511 10.5 12.75 10.5H17.25C17.4489 10.5 17.6397 10.421 17.7803 10.2803C17.921 10.1397 18 9.94891 18 9.75C18 9.55109 17.921 9.36032 17.7803 9.21967C17.6397 9.07902 17.4489 9 17.25 9H12.75ZM8.25 12.75C8.05109 12.75 7.86032 12.829 7.71967 12.9697C7.57902 13.1103 7.5 13.3011 7.5 13.5C7.5 13.6989 7.57902 13.8897 7.71967 14.0303C7.86032 14.171 8.05109 14.25 8.25 14.25H17.25C17.4489 14.25 17.6397 14.171 17.7803 14.0303C17.921 13.8897 18 13.6989 18 13.5C18 13.3011 17.921 13.1103 17.7803 12.9697C17.6397 12.829 17.4489 12.75 17.25 12.75H8.25ZM8.25 16.5C8.05109 16.5 7.86032 16.579 7.71967 16.7197C7.57902 16.8603 7.5 17.0511 7.5 17.25C7.5 17.4489 7.57902 17.6397 7.71967 17.7803C7.86032 17.921 8.05109 18 8.25 18H17.25C17.4489 18 17.6397 17.921 17.7803 17.7803C17.921 17.6397 18 17.4489 18 17.25C18 17.0511 17.921 16.8603 17.7803 16.7197C17.6397 16.579 17.4489 16.5 17.25 16.5H8.25ZM8.25 2.25V6.75C8.25 6.94891 8.17098 7.13968 8.03033 7.28033C7.88968 7.42098 7.69891 7.5 7.5 7.5H3L8.25 2.25Z" fill="#5A5C60"/>
</svg>
