<svg width="24" height="24" viewBox="0 0 24 24" fill="none" xmlns="http://www.w3.org/2000/svg">
<path d="M15.9016 7.68018H8.10094C7.86743 7.68018 7.67737 7.87024 7.67737 8.10374V15.9044C7.67737 16.138 7.86743 16.328 8.10094 16.328H15.9016C16.1351 16.328 16.3252 16.138 16.3252 15.9044V8.10374C16.3252 7.87024 16.1351 7.68018 15.9016 7.68018Z" fill="#5A5C60"/>
<path d="M21.5791 8.60874C21.8127 8.60874 22.0027 8.41868 22.0027 8.18518V7.17513C22.0027 6.94162 21.8127 6.75156 21.5791 6.75156H20.5582V3.86533C20.5582 3.63454 20.3709 3.44719 20.1401 3.44719H17.2539V2.42357C17.2539 2.19006 17.0638 2 16.8303 2H15.8175C15.584 2 15.394 2.19006 15.394 2.42357V3.44719H8.60603V2.42357C8.60603 2.19006 8.41597 2 8.18246 2H7.1697C6.93619 2 6.74613 2.19006 6.74613 2.42357V3.44719H3.86261C3.63182 3.44719 3.44447 3.63454 3.44447 3.86533V6.74885H2.42357C2.19006 6.74885 2 6.93891 2 7.17241V8.18246C2 8.41597 2.19006 8.60603 2.42357 8.60603H3.44447V15.394H2.42357C2.19006 15.394 2 15.584 2 15.8175V16.8276C2 17.0611 2.19006 17.2512 2.42357 17.2512H3.44447V20.1347C3.44447 20.3655 3.63182 20.5528 3.86261 20.5528H6.74613V21.5764C6.74613 21.8099 6.93619 22 7.1697 22H8.18246C8.41597 22 8.60603 21.8099 8.60603 21.5764V20.5528H15.394V21.5764C15.394 21.8099 15.584 22 15.8175 22H16.8303C17.0638 22 17.2539 21.8099 17.2539 21.5764V20.5528H20.1374C20.3682 20.5528 20.5555 20.3655 20.5555 20.1347V17.2566H21.5764C21.8099 17.2566 22 17.0665 22 16.833V15.823C22 15.5895 21.8099 15.3994 21.5764 15.3994H20.5555V8.61146H21.5791V8.60874ZM18.1852 7.68015V17.7643C18.1852 17.9978 17.9951 18.1879 17.7616 18.1879H6.24111C6.0076 18.1879 5.81754 17.9978 5.81754 17.7643V6.24382C5.81754 6.01032 6.0076 5.82026 6.24111 5.82026H17.7616C17.9951 5.82026 18.1852 6.01032 18.1852 6.24382V7.68015Z" fill="#5A5C60"/>
</svg>
