<svg width="24" height="24" viewBox="0 0 24 24" fill="none" xmlns="http://www.w3.org/2000/svg">
<path fill-rule="evenodd" clip-rule="evenodd" d="M12.6735 19.1425H2.47623C2.21333 19.1425 2 19.3558 2 19.6187V20.571C2 21.36 2.63949 21.9995 3.42854 21.9995H14.7029C13.7329 21.3162 13.005 20.3124 12.6735 19.1425Z" fill="#5A5C60"/>
<path fill-rule="evenodd" clip-rule="evenodd" d="M20.5711 2C19.7821 2 19.1426 2.63949 19.1426 3.42854V4.85707H21.5234C21.7863 4.85707 21.9996 4.64375 21.9996 4.38084V3.42854C21.9996 2.63949 21.3602 2 20.5711 2Z" fill="#5A5C60"/>
<path fill-rule="evenodd" clip-rule="evenodd" d="M18.1897 12.4973V3.42854C18.1897 2.89234 18.3669 2.39811 18.6658 2H5.33308C4.95394 2 4.59061 2.15051 4.32306 2.41852C4.05489 2.68621 3.90454 3.04957 3.90454 3.42854V18.1902H12.497C12.4826 18.033 12.4756 17.8745 12.4756 17.714C12.4756 14.8231 14.8227 12.4761 17.7134 12.4761C17.874 12.4761 18.0325 12.4832 18.1897 12.4975L18.1897 12.4973ZM6.28513 14.3805H7.23744C7.50034 14.3805 7.71367 14.1672 7.71367 13.9045C7.71367 13.6416 7.50034 13.4282 7.23744 13.4282H6.28513C6.02223 13.4282 5.8089 13.6416 5.8089 13.9045C5.8089 14.1672 6.02223 14.3805 6.28513 14.3805ZM9.14221 14.3805H11.9993C12.2622 14.3805 12.4755 14.1672 12.4755 13.9045C12.4755 13.6416 12.2622 13.4282 11.9993 13.4282H9.14221C8.8793 13.4282 8.66597 13.6416 8.66597 13.9045C8.66597 14.1672 8.8793 14.3805 9.14221 14.3805ZM6.28513 11.5235H7.23744C7.50034 11.5235 7.71367 11.3101 7.71367 11.0474C7.71367 10.7845 7.50034 10.5712 7.23744 10.5712H6.28513C6.02223 10.5712 5.8089 10.7845 5.8089 11.0474C5.8089 11.3102 6.02223 11.5235 6.28513 11.5235ZM9.14221 11.5235H15.8086C16.0715 11.5235 16.2848 11.3101 16.2848 11.0474C16.2848 10.7845 16.0715 10.5712 15.8086 10.5712H9.14221C8.8793 10.5712 8.66597 10.7845 8.66597 11.0474C8.66597 11.3102 8.8793 11.5235 9.14221 11.5235ZM6.28513 8.6664H7.23744C7.50034 8.6664 7.71367 8.45308 7.71367 8.19033C7.71367 7.92743 7.50034 7.7141 7.23744 7.7141H6.28513C6.02223 7.7141 5.8089 7.92743 5.8089 8.19033C5.8089 8.45308 6.02223 8.6664 6.28513 8.6664ZM9.14221 8.6664H15.8086C16.0715 8.6664 16.2848 8.45308 16.2848 8.19033C16.2848 7.92743 16.0715 7.7141 15.8086 7.7141H9.14221C8.8793 7.7141 8.66597 7.92743 8.66597 8.19033C8.66597 8.45308 8.8793 8.6664 9.14221 8.6664ZM9.14221 5.80933H15.8086C16.0715 5.80933 16.2848 5.59601 16.2848 5.33326C16.2848 5.07036 16.0715 4.85703 15.8086 4.85703H9.14221C8.8793 4.85703 8.66597 5.07036 8.66597 5.33326C8.66597 5.59601 8.8793 5.80933 9.14221 5.80933ZM6.28513 5.80933H7.23744C7.50034 5.80933 7.71367 5.59601 7.71367 5.33326C7.71367 5.07036 7.50034 4.85703 7.23744 4.85703H6.28513C6.02223 4.85703 5.8089 5.07036 5.8089 5.33326C5.8089 5.59601 6.02223 5.80933 6.28513 5.80933Z" fill="#5A5C60"/>
<path fill-rule="evenodd" clip-rule="evenodd" d="M17.7143 13.4282C20.0795 13.4282 21.9999 15.3486 21.9999 17.7138C21.9999 20.079 20.0795 21.9994 17.7143 21.9994C15.3491 21.9994 13.4287 20.079 13.4287 17.7138C13.4287 15.3486 15.3491 13.4282 17.7143 13.4282ZM17.2381 15.333H16.762C15.973 15.333 15.3335 15.9725 15.3335 16.7615C15.3335 17.5506 15.973 18.1901 16.762 18.1901H18.6666C18.9295 18.1901 19.1429 18.4034 19.1429 18.6661C19.1429 18.929 18.9295 19.1424 18.6666 19.1424H16.762C16.4991 19.1424 16.2858 18.929 16.2858 18.6661C16.2858 18.4034 16.0725 18.1901 15.8095 18.1901C15.5468 18.1901 15.3335 18.4034 15.3335 18.6661C15.3335 19.4552 15.973 20.0947 16.762 20.0947H17.2381V20.5709C17.2381 20.8338 17.4514 21.0471 17.7143 21.0471C17.9772 21.0471 18.1905 20.8338 18.1905 20.5709V20.0947H18.6666C19.4557 20.0947 20.0952 19.4552 20.0952 18.6661C20.0952 17.8771 19.4557 17.2376 18.6666 17.2376H16.762C16.4991 17.2376 16.2858 17.0243 16.2858 16.7615C16.2858 16.4986 16.4991 16.2853 16.762 16.2853H18.6666C18.9295 16.2853 19.1429 16.4986 19.1429 16.7615C19.1429 17.0243 19.3562 17.2376 19.6191 17.2376C19.8818 17.2376 20.0952 17.0243 20.0952 16.7615C20.0952 15.9725 19.4557 15.333 18.6666 15.333H18.1905V14.8568C18.1905 14.5939 17.9772 14.3805 17.7143 14.3805C17.4514 14.3805 17.2381 14.5939 17.2381 14.8568V15.333Z" fill="#5A5C60"/>
</svg>
