<svg width="24" height="24" viewBox="0 0 24 24" fill="none" xmlns="http://www.w3.org/2000/svg">
<g id="profile">
<path id="Vector" d="M11.7686 11.7662C12.275 11.3591 12.6843 10.8411 12.9656 10.2507C13.247 9.66039 13.3931 9.01308 13.3931 8.35727C13.3937 5.95439 11.4687 4 9.10192 4C6.73517 4 4.81017 5.95439 4.81017 8.35727C4.81066 9.02022 4.96039 9.67429 5.24793 10.2695C5.53547 10.8647 5.95321 11.3853 6.46923 11.7916C3.85156 12.8716 2 15.4778 2 18.5184V19.2736C2 19.6746 2.31991 20 2.71492 20H15.5907C15.9863 20 16.3062 19.6752 16.3062 19.2736V18.5184C16.3062 15.4512 14.4213 12.8292 11.7686 11.7662ZM6.24057 8.35727C6.24131 7.58704 6.54301 6.84856 7.07945 6.30393C7.6159 5.75929 8.34327 5.45298 9.10192 5.45223C9.86058 5.45298 10.5879 5.75929 11.1244 6.30393C11.6608 6.84856 11.9625 7.58704 11.9633 8.35727C11.9633 9.93885 10.7109 11.2239 9.1609 11.2567L9.15311 11.2561C9.12807 11.2561 9.10304 11.2595 9.07745 11.2595C8.32339 11.2526 7.60245 10.944 7.07127 10.4006C6.54008 9.85714 6.24157 9.12287 6.24057 8.35727ZM3.43096 18.5472V18.5184C3.43096 15.3445 5.95126 12.7614 9.06576 12.7134C9.07745 12.7134 9.08969 12.7151 9.10192 12.7151C9.13141 12.7151 9.15979 12.7106 9.18927 12.7106C12.3283 12.7304 14.8753 15.3275 14.8753 18.5184L3.43096 18.5472ZM15.5618 6.92763H22V8.37986H15.5629V6.92763H15.5618ZM15.5618 10.5591H22V12.0113H15.5629V10.5591H15.5618ZM17.7361 14.1899H21.9994V15.6427H17.7361V14.1899Z" fill="#5A5C60"/>
</g>
</svg>
