<svg width="24" height="24" viewBox="0 0 24 24" fill="none" xmlns="http://www.w3.org/2000/svg">
<path d="M12.5 21.642C12.3068 21.642 12.2102 21.642 12.017 21.5455C10.1818 20.8693 4 18.2614 4 11.1136V7.25C4 6.76705 4.28977 6.28409 4.77273 6.09091L11.9205 3.09659C12.2102 3 12.3068 3 12.5 3C12.6932 3 12.8864 3 13.0795 3.09659L20.2273 6.09091C20.7102 6.28409 21 6.76705 21 7.25V11.1136C21 18.1648 14.8182 20.8693 12.8864 21.5455C12.7898 21.642 12.6932 21.642 12.5 21.642ZM5.44886 11.1136C5.44886 17.2955 10.858 19.6136 12.5 20.1932C14.0455 19.6136 19.4545 17.2955 19.4545 11.1136V7.34659L12.4034 4.44886L5.35227 7.34659L5.44886 11.1136Z" fill="#5F5F61"/>
<path d="M8.25 12.3699L9.60227 11.1143L12.8864 14.3018L11.6307 15.4608L8.25 12.3699Z" fill="#5F5F61"/>
<path d="M10.2783 14.3018L15.784 8.98926L17.0397 10.2449L11.6306 15.4608L10.2783 14.3018Z" fill="#5F5F61"/>
</svg>
