<svg width="24" height="24" viewBox="0 0 24 24" fill="none" xmlns="http://www.w3.org/2000/svg">
<path d="M17.9966 13.9611L18.8929 11.6135C19.0429 11.2197 18.7542 10.7997 18.3304 10.7997H16.1366C16.5491 10.0909 16.8041 9.27717 16.8041 8.39965V8.3884C18.2741 8.09589 19.2042 7.67213 19.2042 7.19961C19.2042 6.70085 18.1804 6.25834 16.5753 5.96208C16.2303 4.73204 15.5628 3.49451 15.0528 2.85699C14.6965 2.41073 14.0815 2.27197 13.5715 2.52698L12.5365 3.0445C12.199 3.21325 11.8015 3.21325 11.4639 3.0445L10.4289 2.52698C9.91891 2.27197 9.30389 2.41073 8.94763 2.85699C8.44136 3.49451 7.77009 4.73204 7.42508 5.96208C5.82379 6.25834 4.80001 6.70085 4.80001 7.19961C4.80001 7.67213 5.73004 8.09589 7.20008 8.3884V8.39965C7.20008 9.27717 7.45509 10.0909 7.8676 10.7997H5.71129C5.28002 10.7997 4.99127 11.2385 5.16002 11.636L6.12755 13.8936C4.62375 14.7673 3.59998 16.3761 3.59998 18.2399V19.92C3.59998 20.8463 4.35375 21.6 5.28002 21.6H18.7204C19.6467 21.6 20.4005 20.8463 20.4005 19.92V18.2399C20.4005 16.4249 19.4329 14.8498 17.9966 13.9611ZM10.2002 20.4L8.64012 13.1998L10.5002 14.3998L11.4002 15.8999L10.2002 20.4ZM13.8003 20.4L12.6002 15.8999L13.5003 14.3998L15.3603 13.1998L13.8003 20.4ZM15.3641 9.20592C15.2178 9.65218 15.1016 10.1284 14.7453 10.4585C14.3665 10.8072 12.9452 11.2985 12.3452 9.52093C12.2402 9.20592 11.7677 9.20592 11.659 9.52093C11.0214 11.4035 9.5589 10.736 9.25889 10.4585C8.90263 10.1284 8.78262 9.65218 8.64012 9.20592C8.61012 9.11217 8.40386 8.99217 8.40386 8.98842V8.5834C9.46514 8.71841 10.6914 8.80091 12.004 8.80091C13.3165 8.80091 14.5428 8.72216 15.6041 8.5834V8.98842C15.6003 8.99217 15.3941 9.10842 15.3641 9.20592Z" fill="#5A5C60"/>
</svg>
