<svg width="24" height="24" viewBox="0 0 24 24" fill="none" xmlns="http://www.w3.org/2000/svg">
<path d="M21.0954 13.8029C21.6622 11.5355 21.0387 10.0558 21.0387 10.0558L18.87 9.9493C18.6799 9.26865 18.4016 8.62681 18.048 8.03304L19.511 6.37205C18.3086 4.3681 16.8213 3.76258 16.8213 3.76258L15.2104 5.22276C14.6103 4.87368 13.9611 4.60326 13.2745 4.42017L13.1363 2.23803C10.869 1.67113 9.38917 2.29482 9.38917 2.29482L9.28619 4.39231C8.60946 4.5624 7.96557 4.81342 7.37036 5.14469L5.84555 3.76256C5.84555 3.76256 4.3582 4.36808 3.15579 6.37202C3.53798 6.80584 4.28995 7.30396 4.33506 7.94179C4.34618 8.09926 3.61133 9.95838 3.57964 9.95998L1.62811 10.0557C1.62811 10.0557 1.0046 11.5355 1.57133 13.8028L3.5054 13.9254C3.68805 14.6944 3.98117 15.4188 4.36926 16.0831L3.09588 17.4878C3.09588 17.4878 3.70141 18.9751 5.70535 20.1776L7.15664 18.8993C7.81415 19.2929 8.53192 19.5928 9.29482 19.7837L9.38917 21.7052C9.38917 21.7052 10.869 22.3288 13.1363 21.762L13.2634 19.7565C14.036 19.5517 14.7611 19.2351 15.4225 18.8221L16.9614 20.1776C18.9654 18.9753 19.5709 17.4878 19.5709 17.4878L18.1691 15.9414C18.5145 15.3208 18.7737 14.6478 18.9432 13.9392L21.0954 13.8029ZM11.3334 16.6585C8.76059 16.6585 6.67492 14.5729 6.67492 12C6.67492 9.4272 8.76059 7.34154 11.3334 7.34154C13.9062 7.34154 15.9919 9.4272 15.9919 12C15.9919 14.5729 13.9062 16.6585 11.3334 16.6585Z" fill="#5A5C60"/>
</svg>
