<svg width="24" height="24" viewBox="0 0 24 24" fill="none" xmlns="http://www.w3.org/2000/svg">
<g id="shared tasks">
<path id="Vector" d="M21 8.12388V17.9751C20.9985 19.3073 20.4748 20.5844 19.5435 21.5265C18.6124 22.4686 17.3499 22.9984 16.0332 23H7.96676C6.65004 22.9984 5.38762 22.4686 4.45646 21.5265C3.5253 20.5844 3.00158 19.3072 3 17.9751V8.12388C3.00154 6.79175 3.52525 5.51456 4.45646 4.57251C5.38762 3.63045 6.65009 3.1006 7.96676 3.09901H9.64145C9.7221 2.324 10.1781 1.64011 10.8582 1.27427C11.5385 0.908577 12.3538 0.908577 13.0339 1.27427C13.7142 1.64015 14.1701 2.32405 14.2507 3.09901H16.0332C17.35 3.10056 18.6124 3.6304 19.5435 4.57251C20.4747 5.51456 20.9984 6.7918 21 8.12388ZM8.5507 6.80656H15.2873V4.73472H8.5507V6.80656ZM11.2894 3.09901H12.6024C12.5012 2.82055 12.239 2.63556 11.9459 2.63556C11.6528 2.63556 11.3906 2.82055 11.2894 3.09901ZM19.383 8.12383C19.382 7.37883 19.1387 6.65482 18.6906 6.06345C18.2427 5.47209 17.6149 5.04623 16.9039 4.85151V7.62439C16.9039 7.84131 16.8188 8.04927 16.6672 8.20274C16.5155 8.35618 16.3099 8.44225 16.0955 8.44225H7.74224C7.52782 8.44225 7.32227 8.35618 7.17058 8.20274C7.01891 8.0493 6.93383 7.84133 6.93383 7.62439V4.90022C6.26096 5.12162 5.67447 5.55274 5.25816 6.13165C4.84204 6.71075 4.61741 7.40804 4.61648 8.12388V17.9751C4.61744 18.8736 4.97082 19.7351 5.59888 20.3704C6.22694 21.0058 7.0784 21.3633 7.9665 21.3643H16.033C16.921 21.3634 17.7726 21.0059 18.4006 20.3704C19.0286 19.735 19.382 18.8736 19.383 17.9751L19.383 8.12383Z" fill="#5A5C60"/>
<path id="Vector_2" d="M11.2767 16.0676C11.0909 16.4721 10.8021 16.8128 10.4435 17.0508C10.0848 17.2888 9.67066 17.4145 9.24824 17.4136C8.95387 17.4148 8.66217 17.3541 8.38981 17.235C8.11746 17.1158 7.8698 16.9406 7.661 16.7193C7.45219 16.4981 7.28634 16.235 7.17292 15.9454C7.0595 15.6557 7.00074 15.345 7 15.031C7 13.7136 8.0072 12.6485 9.24965 12.6485C9.93144 12.6485 10.5428 12.97 10.9541 13.4762L12.2431 12.4547C12.0844 12.1979 12.0002 11.8969 12.0008 11.5894C12.0008 10.7121 12.6713 10 13.501 10C14.3293 10 15.0027 10.7121 15.0027 11.5894C15.0027 12.4667 14.3321 13.1788 13.501 13.1788C13.1559 13.1788 12.8389 13.0541 12.584 12.8483L11.2387 13.9149C11.4931 14.4208 11.5657 15.0084 11.4429 15.5673L12.784 16.1367C13.0967 15.6289 13.6362 15.2954 14.249 15.2954C15.2168 15.2954 16 16.1247 16 17.1477C16 18.1708 15.2168 19 14.2504 19C13.9792 19.0008 13.7115 18.934 13.4688 18.805C13.226 18.676 13.0148 18.4884 12.852 18.257C12.6893 18.0256 12.5794 17.7569 12.5311 17.4723C12.4829 17.1876 12.4976 16.8949 12.5741 16.6174L11.2767 16.0676Z" fill="#5A5C60"/>
</g>
</svg>
