<svg width="24" height="24" viewBox="0 0 24 24" fill="none" xmlns="http://www.w3.org/2000/svg">
<path fill-rule="evenodd" clip-rule="evenodd" d="M4.67327 22C3.18812 22 2 20.8119 2 19.3267V4.67327C2 3.18812 3.18812 2 4.67327 2H12.495C12.8911 2 13.1881 2.09901 13.4851 2.29703C13.6832 2.39604 13.8812 2.59406 14.0792 2.79208L18.8317 7.44554C19.0297 7.64356 19.2277 7.84158 19.3267 8.13861C19.5248 8.43564 19.5248 8.73267 19.5248 9.12871V9.62376C19.4257 9.92079 19.1287 10.2178 18.8317 10.2178C18.5347 10.2178 18.2376 10.0198 18.1386 9.62376H14.1782C12.9901 9.62376 12 8.63366 12 7.44554V3.48515H4.67327C3.9802 3.48515 3.48515 3.9802 3.48515 4.67327V19.3267C3.48515 20.0198 3.9802 20.5149 4.67327 20.5149H13.2871C13.6832 20.5149 13.9802 20.8119 13.9802 21.2079C13.9802 21.604 13.6832 21.901 13.2871 21.901H4.67327V22ZM13.3861 7.44554C13.3861 7.84158 13.6832 8.13861 14.0792 8.13861H17.3465L13.2871 4.07921V7.44554H13.3861ZM15.8614 20.6139C15.6634 20.6139 15.4653 20.4158 15.4653 20.2178V19.3267C15.1683 19.2277 14.9703 19.1287 14.6733 19.0297L14.0792 19.6238C13.9802 19.7228 13.8812 19.8218 13.7822 19.8218C13.6832 19.8218 13.5842 19.8218 13.4851 19.7228L12.396 18.6337C12.198 18.4356 12.198 18.1386 12.396 18.0396L12.9901 17.4455C12.8911 17.2475 12.7921 16.9505 12.6931 16.6535H11.802C11.604 16.6535 11.4059 16.4554 11.4059 16.2574V14.6733C11.4059 14.4752 11.604 14.2772 11.802 14.2772H12.6931C12.7921 13.9802 12.8911 13.7822 12.9901 13.4851L12.396 12.8911C12.198 12.6931 12.198 12.396 12.396 12.297L13.4851 11.2079C13.5842 10.9109 13.6832 10.9109 13.7822 10.9109C13.8812 10.9109 13.9802 10.9109 14.0792 11.0099L14.6733 11.604C14.8713 11.5049 15.1683 11.4059 15.4653 11.3069V10.4158C15.4653 10.2178 15.6634 10.0198 15.8614 10.0198H17.4455C17.6436 10.0198 17.8416 10.2178 17.8416 10.4158V11.3069C18.1386 11.4059 18.3366 11.5049 18.6337 11.604L19.2277 11.0099C19.3267 10.9109 19.4257 10.9109 19.6238 10.9109C19.8218 10.9109 19.8218 10.9109 19.9208 11.0099L21.0099 12.099C21.1089 12.198 21.1089 12.297 21.1089 12.396C21.1089 12.495 21.1089 12.5941 21.0099 12.6931L20.4158 13.2871C20.5149 13.4851 20.6139 13.7822 20.7129 14.0792H21.604C21.703 14.0792 21.802 14.0792 21.901 14.1782C22 14.2772 22 14.3762 22 14.4752V16.0594C22 16.2574 21.802 16.4554 21.604 16.4554H20.7129C20.6139 16.7525 20.5149 16.9505 20.4158 17.2475L21.0099 17.8416C21.1089 17.9406 21.1089 18.0396 21.1089 18.1386C21.1089 18.2376 21.1089 18.3366 21.0099 18.4356L19.9208 19.5248C19.8218 19.7228 19.7228 19.8218 19.6238 19.8218C19.5248 19.8218 19.4257 19.8218 19.3267 19.7228L18.7327 19.1287C18.5347 19.2277 18.2376 19.3267 17.9406 19.4257V20.3168C17.9406 20.5149 17.7426 20.7129 17.5446 20.7129H15.8614V20.6139ZM15.9604 12.6931C15.7624 12.7921 15.5644 12.7921 15.3663 12.8911L14.6733 13.2871L14.2772 13.9802C14.1782 14.1782 14.0792 14.3762 13.9802 14.5743L13.8812 15.3663L14.0792 16.0594C14.1782 16.2574 14.1782 16.4554 14.3762 16.6535L14.7723 17.3465L15.4653 17.6436C15.6634 17.7426 15.8614 17.8416 16.0594 17.8416L16.8515 18.0396L17.5446 17.8416C17.7426 17.7426 17.9406 17.7426 18.1386 17.6436L18.8317 17.2475L19.1287 16.5545C19.2277 16.3564 19.3267 16.1584 19.4257 15.9604L19.6238 15.1683L19.4257 14.4752C19.3267 14.2772 19.3267 14.0792 19.1287 13.8812L18.7327 13.1881L18.0396 12.7921C17.8416 12.6931 17.6436 12.5941 17.4455 12.5941L16.7525 12.396L15.9604 12.6931ZM5.16832 18.3366C4.77228 18.3366 4.47525 18.0396 4.47525 17.6436C4.47525 17.2475 4.77228 16.8515 5.16832 16.8515H10.1188C10.5149 16.8515 10.9109 17.1485 10.9109 17.6436C10.9109 18.1386 10.6139 18.3366 10.2178 18.3366H5.16832ZM16.6535 17.4455C15.4653 17.4455 14.5743 16.5545 14.5743 15.3663C14.5743 14.1782 15.4653 13.2871 16.6535 13.2871C17.8416 13.2871 18.7327 14.1782 18.7327 15.3663C18.7327 16.5545 17.8416 17.4455 16.6535 17.4455ZM16.6535 14.6733C16.3564 14.6733 16.0594 14.9703 16.0594 15.2673C16.0594 15.5644 16.3564 15.8614 16.6535 15.8614C16.9505 15.8614 17.2475 15.5644 17.2475 15.2673C17.2475 14.9703 17.0495 14.6733 16.6535 14.6733ZM5.16832 14.6733C4.77228 14.6733 4.47525 14.3762 4.47525 13.9802C4.47525 13.5842 4.77228 13.2871 5.16832 13.2871H10.1188C10.5149 13.1881 10.9109 13.4851 10.9109 13.8812C10.9109 14.2772 10.6139 14.5743 10.2178 14.5743H5.16832V14.6733ZM5.16832 10.9109C4.77228 10.9109 4.47525 10.6139 4.47525 10.2178C4.47525 9.82178 4.77228 9.52475 5.16832 9.52475H10.1188C10.5149 9.42574 10.9109 9.82178 10.9109 10.2178C10.9109 10.6139 10.5149 10.9109 10.1188 10.9109H5.16832ZM5.16832 7.24752C4.77228 7.24752 4.47525 6.95049 4.47525 6.55446C4.47525 6.15842 4.77228 5.86139 5.16832 5.86139H10.1188C10.5149 5.76238 10.9109 6.05941 10.9109 6.45545C10.9109 6.85148 10.5149 7.24752 10.1188 7.24752H5.16832Z" fill="#5A5C60"/>
</svg>
