<svg width="24" height="24" viewBox="0 0 24 24" fill="none" xmlns="http://www.w3.org/2000/svg">
<path d="M12.7574 13.7518H7.60262C4.52118 13.7518 2 15.1637 2 16.8892V20.2508H8.4242L9.39546 17.3376L8.05075 15.3207H12.0846L10.7399 17.3376L11.7112 20.251H18.3595V16.8989C18.3595 16.8955 18.36 16.8927 18.36 16.8892C18.36 15.1637 15.8388 13.7518 12.7573 13.7518L12.7574 13.7518Z" fill="#5A5C60"/>
<path d="M12.3094 4.93726C11.6861 4.56255 10.9594 4.34338 10.1795 4.34338C7.89028 4.34338 6.03394 6.19989 6.03394 8.48932C6.03394 10.7788 7.89028 12.6353 10.1795 12.6353C10.959 12.6353 11.6861 12.4159 12.3094 12.0414V4.93726Z" fill="#5A5C60"/>
<path d="M19.9281 3.00008H15.6701C14.4375 3.00008 13.4291 4.00851 13.4291 5.24113V11.0679L15.4459 9.27497H19.928C21.1607 9.27497 22.1691 8.26654 22.1691 7.03393V5.24105C22.1691 4.00859 21.1607 3 19.928 3L19.9281 3.00008ZM20.6005 7.03397C20.6005 7.39836 20.2928 7.70632 19.9281 7.70632H14.9978V5.24109C14.9978 4.8767 15.3058 4.56873 15.6702 4.56873H19.9282C20.2927 4.56873 20.6005 4.87669 20.6005 5.24109L20.6005 7.03397Z" fill="#5A5C60"/>
</svg>
