<svg width="24" height="24" viewBox="0 0 24 24" fill="none" xmlns="http://www.w3.org/2000/svg">
<path d="M18.6317 8.68417H17.2107L17.2108 5.36844C17.2108 4.06265 16.1482 3 14.8424 3H5.36844C4.06265 3 3 4.06265 3 5.36844V18.6317C3 19.9376 4.06265 21 5.36844 21H18.6317C19.9376 21 21 19.9376 21 18.6316V11.0526C21 9.74667 19.9376 8.68417 18.6316 8.68417H18.6317ZM13.3267 17.116H6.88455C6.57052 17.116 6.3162 16.8615 6.3162 16.5473C6.3162 16.2332 6.57038 15.979 6.88455 15.979H13.3267C13.6405 15.979 13.8954 16.2332 13.8954 16.5473C13.8952 16.8617 13.6405 17.116 13.3267 17.116ZM13.3267 13.9896H6.88455C6.57052 13.9896 6.3162 13.7351 6.3162 13.4212C6.3162 13.107 6.57038 12.8524 6.88455 12.8524H13.3267C13.6405 12.8524 13.8954 13.1066 13.8954 13.4212C13.8952 13.7351 13.6405 13.9896 13.3267 13.9896ZM12.9478 10.2949H7.26316C6.74238 10.2949 6.31591 9.86856 6.31591 9.34767V7.4527C6.31591 6.93191 6.74227 6.50544 7.26316 6.50544H12.9475C13.4683 6.50544 13.8947 6.9318 13.8947 7.4527V9.34767H13.8951C13.8953 9.86846 13.4687 10.2949 12.9479 10.2949H12.9478ZM20.0532 18.6317C20.0532 19.4151 19.4156 20.0525 18.6325 20.0525C17.8492 20.0525 17.2117 19.4149 17.2117 18.6317V9.63171H18.6325C19.4161 9.63171 20.0532 10.2689 20.0532 11.0525V18.6317Z" fill="#5A5C60"/>
</svg>
