<svg width="24" height="24" viewBox="0 0 24 24" fill="none" xmlns="http://www.w3.org/2000/svg">
<path d="M14.3961 16.3563C13.4162 16.4195 13.511 15.9357 14.0931 15.233C15.4207 13.599 17.8783 11.3791 17.989 9.75729C18.1418 7.65164 15.8475 7 13.4847 7C11.841 7.0389 10.1394 7.45955 8.98035 7.84129C4.98705 9.14213 2.48465 11.1846 0.896288 13.4823C-0.747392 15.7533 -0.236376 17.9368 3.31439 18C5.99591 17.8979 7.80554 17.2098 9.62834 16.3417C9.64151 16.3417 4.55769 17.6815 2.67694 16.6992C2.46885 16.597 2.26339 16.456 2.20807 16.0621C2.20807 15.2573 3.64629 14.416 4.4892 14.1485V12.7699C6.1882 13.3194 8.19275 13.1662 9.90755 11.9918C9.96287 12.1328 10.0182 12.3103 10.005 12.5024H10.2948C10.3633 11.9529 9.96287 11.418 9.29908 11.3791C9.49136 11.5201 9.63097 11.6344 9.69946 11.7365L9.67312 11.7608L9.65995 11.773C7.44993 13.2027 5.30578 12.5389 5.10032 12.5L6.33044 11.3888L5.98537 10.584C8.43246 9.79377 10.4502 9.21751 13.806 8.67042L13.0553 8.11119L13.4425 7.89478C15.4313 8.40539 16.772 8.78714 16.7035 9.75729C16.6772 9.92263 16.6061 10.1147 16.4954 10.319C15.9028 11.4034 14.1616 13.1516 13.4557 13.9054C13 14.4038 12.5443 14.8634 12.2256 15.3229C11.8673 15.7947 11.6856 16.2299 11.6724 16.6238C11.7409 19.8285 21.9823 15.1187 24 13.8786C21.0577 15.0409 17.8652 16.1521 14.3961 16.3563ZM16.635 8.99138C16.7088 9.11782 16.743 9.27343 16.743 9.45579C16.7404 9.29045 16.7062 9.1324 16.635 8.99138Z" fill="#FF6003"/>
</svg>
