<svg width="24" height="24" viewBox="0 0 24 24" fill="none" xmlns="http://www.w3.org/2000/svg">
<path d="M19.9014 5.88602L12.5906 3.10742C12.4008 3.03581 12.2004 3 12.0018 3C11.8014 3 11.601 3.03581 11.4094 3.10921L4.09512 5.90213C3.43594 6.15457 3 6.7955 3 7.51164V15.2656C3 15.8993 3.34102 16.4812 3.88945 16.7802L11.2301 20.7959C11.4797 20.932 11.7539 21 12.0281 21C12.2865 21 12.5449 20.9391 12.7822 20.8192L20.0666 17.1096C20.6379 16.8178 21 16.2234 21 15.5717V7.49731C21 6.77939 20.5623 6.13666 19.9014 5.88602ZM11.8031 4.18162C11.8664 4.15834 11.9332 4.14581 12 4.14581C12.0668 4.14581 12.1336 4.15834 12.1969 4.18162L18.6234 6.62363C18.808 6.69346 18.8062 6.96021 18.6199 7.02646L12.5643 9.22857C12.1972 9.36284 11.7957 9.36284 11.4287 9.22857L5.3959 7.03362C5.21133 6.96559 5.20957 6.70062 5.39238 6.63079L11.8031 4.18162ZM19.875 15.5717C19.875 15.7901 19.7555 15.9871 19.5639 16.0837L13.1725 19.3386C12.8912 19.4818 12.5625 19.2741 12.5625 18.9537V11.0547C12.5625 10.6913 12.7875 10.3672 13.1232 10.2455L19.3125 7.99503C19.5867 7.89477 19.8768 8.10245 19.8768 8.39964V15.5717H19.875Z" fill="#5A5C60"/>
</svg>
