<svg width="16" height="16" viewBox="0 0 16 16" fill="none" xmlns="http://www.w3.org/2000/svg">
<path d="M1.756 5.75244C1.343 5.75244 1 6.06515 1 6.45603V9.55049C1 9.93485 1.343 10.2541 1.756 10.2541C2.169 10.2541 2.512 9.93485 2.512 9.55049V6.45603C2.512 6.06515 2.169 5.75244 1.756 5.75244ZM4.878 4.24756C4.465 4.24756 4.122 4.56678 4.122 4.95114V11.0423C4.122 11.4267 4.465 11.7459 4.878 11.7459C5.291 11.7459 5.634 11.4267 5.634 11.0423V4.95114C5.634 4.56678 5.291 4.24756 4.878 4.24756ZM8 2C7.587 2 7.244 2.31922 7.244 2.70358V13.2964C7.244 13.6808 7.587 14 8 14C8.413 14 8.756 13.6808 8.756 13.2964V2.70358C8.756 2.31922 8.413 2 8 2ZM14.244 5.75244C13.831 5.75244 13.488 6.07166 13.488 6.45603V9.55049C13.488 9.93485 13.831 10.2541 14.244 10.2541C14.657 10.2541 15 9.93485 15 9.55049V6.45603C15 6.06515 14.657 5.75244 14.244 5.75244ZM11.122 4.24756C10.709 4.24756 10.366 4.56678 10.366 4.95114V11.0423C10.366 11.4267 10.709 11.7459 11.122 11.7459C11.535 11.7459 11.878 11.4267 11.878 11.0423V4.95114C11.878 4.56678 11.535 4.24756 11.122 4.24756Z" fill="#5A5C60"/>
</svg>
