<svg width="24" height="24" viewBox="0 0 24 24" fill="none" xmlns="http://www.w3.org/2000/svg">
<path d="M7.24151 15.4216L10.7637 19.2953C10.7988 19.3339 10.8417 19.3648 10.8895 19.386C10.9372 19.4071 10.9889 19.418 11.0411 19.418C11.2483 19.418 11.4161 19.2501 11.4161 19.043V4.96481C11.4162 4.91256 11.4052 4.86089 11.3841 4.8131C11.363 4.76532 11.3321 4.72248 11.2934 4.68733C11.1402 4.54802 10.903 4.55929 10.7637 4.71253L7.24151 8.58625C6.99548 8.85683 6.69563 9.07302 6.36117 9.22095C6.02672 9.36889 5.66505 9.44531 5.29934 9.44531H4.14844C3.73423 9.44531 3.39844 9.7811 3.39844 10.1953V13.8125C3.39844 14.2267 3.73423 14.5625 4.14844 14.5625H5.29934C5.66505 14.5625 6.02672 14.6389 6.36118 14.7869C6.69563 14.9348 6.99548 15.151 7.24151 15.4216ZM4.14844 16.4375C2.69869 16.4375 1.52344 15.2622 1.52344 13.8125V10.1953C1.52344 8.74556 2.69869 7.57031 4.14844 7.57031H5.29934C5.40382 7.57031 5.50716 7.54848 5.60272 7.50621C5.69828 7.46394 5.78395 7.40218 5.85424 7.32487L9.37643 3.45112C10.2124 2.53174 11.6354 2.4641 12.5548 3.30006C12.7867 3.51094 12.972 3.76796 13.0988 4.05463C13.2256 4.34131 13.2911 4.65132 13.2911 4.96478V19.043C13.2911 20.2857 12.2838 21.293 11.0411 21.293C10.7277 21.293 10.4177 21.2275 10.131 21.1007C9.84431 20.9739 9.58729 20.7886 9.37641 20.5567L5.85422 16.6829C5.78393 16.6056 5.69826 16.5439 5.60271 16.5016C5.50715 16.4593 5.40382 16.4375 5.29934 16.4375H4.14844ZM14.8373 8.27336C14.4044 7.98935 14.2837 7.40817 14.5677 6.97525C14.8517 6.54234 15.4329 6.42164 15.8658 6.70565C17.6366 7.86738 18.7266 9.84159 18.7266 12C18.7266 14.1584 17.6366 16.1326 15.8658 17.2943C15.4329 17.5784 14.8517 17.4577 14.5677 17.0247C14.2837 16.5918 14.4044 16.0106 14.8373 15.7266C16.0852 14.9079 16.8516 13.5199 16.8516 12C16.8516 10.4801 16.0852 9.0921 14.8373 8.27336ZM17.0153 5.05485C16.5918 4.75696 16.49 4.1722 16.7879 3.74868C17.0857 3.32517 17.6705 3.22333 18.094 3.5212C20.8346 5.4487 22.5 8.5851 22.5 12C22.5 15.4149 20.8346 18.5513 18.094 20.4788C17.6705 20.7767 17.0857 20.6748 16.7879 20.2513C16.49 19.8278 16.5919 19.243 17.0153 18.9451C19.2618 17.3651 20.625 14.798 20.625 12C20.625 9.20203 19.2619 6.63487 17.0153 5.05485Z" fill="#5A5C60"/>
</svg>
