<svg width="24" height="24" viewBox="0 0 24 24" fill="none" xmlns="http://www.w3.org/2000/svg">
<path d="M6.82257 10.0569C6.82257 10.3491 6.85416 10.586 6.90943 10.7597C6.97261 10.9334 7.05157 11.123 7.16213 11.3283C7.20161 11.3914 7.2174 11.4546 7.2174 11.5099C7.2174 11.5889 7.17002 11.6678 7.06737 11.7468L6.56988 12.0785C6.49881 12.1258 6.42774 12.1495 6.36456 12.1495C6.2856 12.1495 6.20663 12.11 6.12766 12.039C6.01711 11.9205 5.92235 11.7942 5.84338 11.6678C5.76442 11.5336 5.68545 11.3836 5.59859 11.2019C4.98265 11.9284 4.20877 12.2917 3.27697 12.2917C2.61365 12.2917 2.08457 12.1021 1.69763 11.7231C1.3107 11.3441 1.11328 10.8387 1.11328 10.2069C1.11328 9.53573 1.35018 8.99086 1.83188 8.58024C2.31357 8.16961 2.9532 7.9643 3.76656 7.9643C4.03505 7.9643 4.31143 7.98799 4.60361 8.02747C4.89578 8.06695 5.19586 8.13013 5.51172 8.2012V7.62474C5.51172 7.02459 5.38538 6.60607 5.14058 6.36127C4.88789 6.11648 4.46147 5.99803 3.85342 5.99803C3.57704 5.99803 3.29276 6.02961 3.00058 6.10068C2.70841 6.17175 2.42413 6.25862 2.14774 6.36917C2.0214 6.42445 1.92664 6.45603 1.87136 6.47183C1.81608 6.48762 1.7766 6.49552 1.74501 6.49552C1.63446 6.49552 1.57918 6.41655 1.57918 6.25072V5.86378C1.57918 5.73744 1.59498 5.64268 1.63446 5.5874C1.67394 5.53212 1.74501 5.47685 1.85557 5.42157C2.13195 5.27943 2.46361 5.16098 2.85055 5.06622C3.23748 4.96356 3.64811 4.91618 4.08243 4.91618C5.02213 4.91618 5.70914 5.12939 6.15135 5.55581C6.58567 5.98223 6.80678 6.62976 6.80678 7.49839V10.0569H6.82257ZM3.61652 11.2572C3.87711 11.2572 4.1456 11.2098 4.42988 11.1151C4.71416 11.0203 4.96685 10.8466 5.18006 10.6097C5.30641 10.4596 5.40117 10.2938 5.44855 10.1043C5.49593 9.91477 5.52752 9.68577 5.52752 9.41728V9.08562C5.29851 9.03035 5.05372 8.98297 4.80102 8.95138C4.54833 8.91979 4.30353 8.904 4.05874 8.904C3.52966 8.904 3.14272 9.00666 2.88213 9.21987C2.62154 9.43308 2.4952 9.73315 2.4952 10.128C2.4952 10.4991 2.58996 10.7755 2.78737 10.965C2.97689 11.1624 3.25328 11.2572 3.61652 11.2572ZM9.95755 12.11C9.8154 12.11 9.72064 12.0864 9.65747 12.0311C9.5943 11.9837 9.53902 11.8731 9.49164 11.7231L7.63593 5.61899C7.58855 5.46105 7.56486 5.3584 7.56486 5.30312C7.56486 5.17677 7.62803 5.1057 7.75438 5.1057H8.52825C8.67829 5.1057 8.78094 5.12939 8.83622 5.18467C8.89939 5.23205 8.94677 5.3426 8.99415 5.49264L10.3208 10.7202L11.5527 5.49264C11.5922 5.33471 11.6395 5.23205 11.7027 5.18467C11.7659 5.13729 11.8764 5.1057 12.0186 5.1057H12.6503C12.8003 5.1057 12.903 5.12939 12.9662 5.18467C13.0293 5.23205 13.0846 5.3426 13.1162 5.49264L14.3639 10.7834L15.73 5.49264C15.7774 5.33471 15.8327 5.23205 15.8879 5.18467C15.9511 5.13729 16.0538 5.1057 16.1959 5.1057H16.9303C17.0566 5.1057 17.1277 5.16888 17.1277 5.30312C17.1277 5.3426 17.1198 5.38209 17.1119 5.42947C17.104 5.47685 17.0882 5.54002 17.0566 5.62688L15.1536 11.731C15.1062 11.8889 15.0509 11.9916 14.9877 12.039C14.9245 12.0864 14.8219 12.1179 14.6876 12.1179H14.0085C13.8585 12.1179 13.7558 12.0943 13.6927 12.039C13.6295 11.9837 13.5742 11.881 13.5426 11.7231L12.3186 6.62976L11.1026 11.7152C11.0631 11.8731 11.0157 11.9758 10.9525 12.0311C10.8894 12.0864 10.7788 12.11 10.6367 12.11H9.95755ZM20.1048 12.3233C19.6941 12.3233 19.2835 12.2759 18.8887 12.1811C18.4938 12.0864 18.1859 11.9837 17.9806 11.8652C17.8542 11.7942 17.7673 11.7152 17.7358 11.6441C17.7042 11.5731 17.6884 11.4941 17.6884 11.423V11.0203C17.6884 10.8545 17.7516 10.7755 17.87 10.7755C17.9174 10.7755 17.9648 10.7834 18.0121 10.7992C18.0595 10.815 18.1306 10.8466 18.2096 10.8782C18.478 10.9966 18.7702 11.0914 19.0782 11.1545C19.3941 11.2177 19.702 11.2493 20.0179 11.2493C20.5154 11.2493 20.9023 11.1624 21.1708 10.9887C21.4393 10.815 21.5814 10.5623 21.5814 10.2385C21.5814 10.0174 21.5104 9.83581 21.3682 9.68577C21.2261 9.53573 20.9576 9.40149 20.5707 9.27514L19.4256 8.91979C18.8492 8.73817 18.4228 8.46968 18.1622 8.11433C17.9016 7.76688 17.7673 7.37994 17.7673 6.96932C17.7673 6.63766 17.8384 6.34548 17.9806 6.09279C18.1227 5.84009 18.3122 5.61899 18.5491 5.44526C18.786 5.26364 19.0545 5.12939 19.3704 5.03463C19.6862 4.93987 20.0179 4.90039 20.3653 4.90039C20.5391 4.90039 20.7207 4.90829 20.8944 4.93198C21.076 4.95567 21.2419 4.98725 21.4077 5.01884C21.5656 5.05832 21.7157 5.09781 21.8578 5.14519C22 5.19257 22.1105 5.23995 22.1895 5.28733C22.3 5.3505 22.379 5.41367 22.4264 5.48474C22.4738 5.54792 22.4974 5.63478 22.4974 5.74533V6.11648C22.4974 6.28231 22.4343 6.36917 22.3158 6.36917C22.2527 6.36917 22.15 6.33758 22.0158 6.27441C21.5656 6.0691 21.0603 5.96644 20.4996 5.96644C20.0495 5.96644 19.6941 6.03751 19.4493 6.18755C19.2045 6.33758 19.0782 6.56659 19.0782 6.89035C19.0782 7.11146 19.1572 7.30098 19.3151 7.45101C19.473 7.60105 19.7652 7.75109 20.1837 7.88533L21.3051 8.24068C21.8736 8.4223 22.2842 8.675 22.529 8.99876C22.7738 9.32252 22.8923 9.69367 22.8923 10.1043C22.8923 10.4438 22.8212 10.7518 22.687 11.0203C22.5448 11.2888 22.3553 11.5257 22.1105 11.7152C21.8657 11.9126 21.5735 12.0548 21.234 12.1574C20.8786 12.268 20.5075 12.3233 20.1048 12.3233Z" fill="#252F3E"/>
<path d="M21.5975 16.1618C18.9995 18.0807 15.2249 19.0994 11.9794 19.0994C7.43088 19.0994 3.33251 17.4174 0.237021 14.622C-0.00777575 14.4009 0.213331 14.1008 0.505507 14.2745C3.85369 16.2171 7.98365 17.3937 12.2557 17.3937C15.138 17.3937 18.3046 16.7936 21.2185 15.5617C21.6528 15.3643 22.0239 15.846 21.5975 16.1618Z" fill="#FDB022"/>
<path d="M22.6793 14.9292C22.3476 14.5027 20.484 14.7239 19.6391 14.8265C19.3864 14.8581 19.3469 14.637 19.5759 14.4712C21.0605 13.4288 23.5005 13.7289 23.7848 14.0763C24.0691 14.4317 23.7059 16.8717 22.316 18.0405C22.1028 18.2221 21.8975 18.1273 21.9923 17.8904C22.3081 17.1086 23.0109 15.3477 22.6793 14.9292Z" fill="#FDB022"/>
</svg>
