<svg width="24" height="24" viewBox="0 0 24 24" fill="none" xmlns="http://www.w3.org/2000/svg">
<path d="M6.81319 10.1308C6.68607 9.3772 6.72482 8.6049 6.92675 7.86777C7.12867 7.13064 7.48891 6.44641 7.98236 5.86276C8.47581 5.27912 9.09059 4.81009 9.78387 4.48838C10.4771 4.16666 11.2322 4 11.9965 4C12.7608 4 13.5159 4.16666 14.2092 4.48838C14.9025 4.81009 15.5173 5.27912 16.0107 5.86276C16.5041 6.44641 16.8644 7.13064 17.0663 7.86777C17.2682 8.6049 17.307 9.3772 17.1799 10.1308C17.9775 10.1355 18.7617 10.3369 19.4629 10.7172C20.1641 11.0975 20.7607 11.6449 21.1997 12.3109C21.6387 12.9769 21.9066 13.741 21.9796 14.5353C22.0527 15.3296 21.9286 16.1297 21.6184 16.8646C21.3083 17.5995 20.8215 18.2466 20.2015 18.7484C19.5814 19.2501 18.8471 19.5912 18.0636 19.7412C17.2802 19.8913 16.4718 19.8458 15.7102 19.6086C14.9486 19.3715 14.2572 18.9502 13.6974 18.3819C13.4794 18.1539 13.3597 17.8495 13.3639 17.5341C13.3682 17.2188 13.4961 16.9177 13.7202 16.6957C13.9442 16.4737 14.2465 16.3486 14.5619 16.3472C14.8773 16.3459 15.1806 16.4684 15.4065 16.6885C15.4214 16.7034 15.4359 16.7186 15.4499 16.7341C15.7907 17.0655 16.2209 17.2902 16.6875 17.3809C17.1542 17.4716 17.6372 17.4242 18.0774 17.2445C18.5175 17.0649 18.8958 16.7608 19.1657 16.3695C19.4357 15.9782 19.5857 15.5166 19.5974 15.0414C19.6091 14.5661 19.4819 14.0978 19.2315 13.6937C18.9811 13.2896 18.6182 12.9673 18.1874 12.7662C17.7566 12.5652 17.2766 12.4941 16.806 12.5617C16.3354 12.6294 15.8948 12.8327 15.538 13.147L15.4977 13.1873C15.4478 13.2312 15.4023 13.2768 15.3609 13.3241L15.2683 13.4168L10.3128 18.3721C9.75451 18.9424 9.06406 19.3659 8.30276 19.6053C7.54146 19.8446 6.73285 19.8924 5.94868 19.7443C5.1645 19.5962 4.42901 19.2568 3.80746 18.7562C3.18591 18.2557 2.69752 17.6095 2.38562 16.8749C2.07373 16.1403 1.94798 15.3401 2.01953 14.5453C2.09107 13.7505 2.3577 12.9856 2.79576 12.3185C3.23382 11.6515 3.82976 11.1028 4.53071 10.7213C5.23166 10.3398 6.01593 10.1373 6.81395 10.1316L6.81319 10.1308ZM6.84833 17.4253C7.33182 17.4255 7.8045 17.2822 8.20659 17.0137C8.60867 16.7452 8.92209 16.3635 9.10722 15.9168C9.29235 15.4702 9.34086 14.9787 9.24662 14.5044C9.15239 14.0302 8.91963 13.5946 8.5778 13.2526C8.23597 12.9107 7.80041 12.6778 7.32621 12.5834C6.85202 12.4891 6.36048 12.5374 5.91378 12.7224C5.46707 12.9074 5.08526 13.2207 4.81663 13.6227C4.548 14.0247 4.40461 14.4974 4.40461 14.9809C4.40452 15.3019 4.46767 15.6199 4.59048 15.9165C4.71328 16.2132 4.89332 16.4828 5.12032 16.7098C5.34731 16.9369 5.61682 17.117 5.91344 17.2399C6.21006 17.3628 6.52799 17.426 6.84906 17.426L6.84833 17.4253ZM11.9965 12.1023C12.5603 12.1023 13.1113 11.9351 13.58 11.6219C14.0487 11.3087 14.4141 10.8636 14.6298 10.3428C14.8455 9.82196 14.9019 9.24887 14.792 8.69599C14.682 8.14311 14.4105 7.63525 14.0119 7.23665C13.6133 6.83804 13.1054 6.56659 12.5525 6.45661C11.9997 6.34664 11.4266 6.40309 10.9058 6.61881C10.385 6.83454 9.93983 7.19986 9.62665 7.66857C9.31346 8.13729 9.1463 8.68834 9.1463 9.25206C9.1463 10.008 9.44659 10.7329 9.98111 11.2675C10.5156 11.802 11.2406 12.1023 11.9965 12.1023H11.9965Z" fill="#26B1FF"/>
<path d="M14.8313 9.55303C14.8125 9.38271 14.83 9.21034 14.8826 9.04727C14.9352 8.88419 15.0218 8.7341 15.1365 8.60685C15.2513 8.4796 15.3917 8.37807 15.5484 8.30895C15.7052 8.23982 15.8749 8.20466 16.0462 8.20578C16.2176 8.20689 16.3868 8.24425 16.5426 8.31541C16.6985 8.38657 16.8376 8.48991 16.9507 8.61864C17.0638 8.74738 17.1483 8.89859 17.1988 9.06233C17.2493 9.22608 17.2646 9.39866 17.2436 9.56872C17.1638 10.9063 16.5762 12.1629 15.601 13.0818C14.6257 14.0006 13.3363 14.5123 11.9964 14.5123C10.6564 14.5123 9.36703 14.0006 8.39174 13.0818C7.41645 12.1629 6.82889 10.9063 6.74912 9.56872C6.72815 9.39866 6.74341 9.22608 6.7939 9.06233C6.84438 8.89859 6.92895 8.74738 7.04204 8.61864C7.15513 8.48991 7.29419 8.38657 7.45007 8.31541C7.60595 8.24425 7.77512 8.20689 7.94647 8.20578C8.11782 8.20466 8.28746 8.23982 8.44425 8.30895C8.60105 8.37807 8.74143 8.4796 8.85619 8.60685C8.97095 8.7341 9.05747 8.88419 9.11009 9.04727C9.1627 9.21034 9.1802 9.38271 9.16145 9.55303C9.23689 10.2521 9.56803 10.8987 10.0912 11.3685C10.6144 11.8383 11.2928 12.0981 11.996 12.0981C12.6991 12.0981 13.3775 11.8383 13.9007 11.3685C14.4239 10.8987 14.755 10.2521 14.8305 9.55303H14.8313Z" fill="#FF637E"/>
</svg>
