<svg width="16" height="16" viewBox="0 0 16 16" fill="none" xmlns="http://www.w3.org/2000/svg">
<path d="M12.9583 4.1314H11.8687V2.91833C11.8687 1.85868 10.9543 1 9.827 1H3.04167C1.91437 1 1 1.85868 1 2.91833V9.95056C1 11.0102 1.91437 11.8686 3.04167 11.8686H4.13133V13.0817C4.13133 14.1413 5.04542 15 6.173 15H12.9583C14.0856 15 15 14.1413 15 13.0817V6.04944C15 4.99037 14.0856 4.1314 12.9583 4.1314ZM4.13133 6.04973V10.771H3.19012C2.64062 10.771 2.19525 10.3898 2.19525 9.91994V3.14292C2.19525 2.67333 2.64062 2.29211 3.19012 2.29211H9.67883C10.228 2.29211 10.6734 2.67303 10.6734 3.14292V4.1314H6.173C5.04542 4.1314 4.13133 4.99037 4.13133 6.04973ZM13.332 7.90039L11.8684 9.4378L9.55458 11.8686L9.35858 12.0745C9.24775 12.1903 9.10338 12.2487 8.95696 12.2487C8.81229 12.2487 8.66821 12.1906 8.55621 12.0745L8.36021 11.8686L7.31546 10.771L6.28587 9.68952C6.06537 9.45588 6.06537 9.07875 6.28587 8.84687C6.50871 8.61353 6.86804 8.61353 7.08854 8.84687L8.9205 10.771L8.95725 10.8095L8.994 10.771L10.6734 9.00758L11.8687 7.75281L12.5299 7.05863C12.581 7.00324 12.643 6.95904 12.7121 6.92882C12.7811 6.89859 12.8557 6.88298 12.9311 6.88298C13.0064 6.88298 13.081 6.89859 13.15 6.92882C13.2191 6.95904 13.2811 7.00324 13.3322 7.05863C13.5539 7.29051 13.5539 7.66822 13.332 7.90039Z" fill="#5A5C60"/>
</svg>
