<svg width="24" height="24" viewBox="0 0 24 24" fill="none" xmlns="http://www.w3.org/2000/svg">
<path d="M12.8951 9.54161C11.1106 9.54161 9.56106 10.4511 8.77802 11.7862C7.99498 10.451 6.44552 9.54171 4.66108 9.54171C3.61227 9.54171 2.64442 9.85582 1.86569 10.386V6.82758H1.86526C1.85437 6.36903 1.44159 6 0.933071 6C0.424495 6 0.0118305 6.36903 0.0010419 6.82758H0.000610352V13.8361H0.0025523C0.0439806 16.1368 2.11308 17.9908 4.66103 17.9908C6.44547 17.9908 7.99498 17.0811 8.77797 15.746C9.56106 17.0812 11.1105 17.9907 12.895 17.9907C15.4689 17.9907 17.5554 16.0991 17.5554 13.7662C17.5555 11.4329 15.4688 9.54161 12.8951 9.54161ZM4.66103 16.3C3.11712 16.3 1.86564 15.1656 1.86564 13.7662C1.86564 12.3666 3.11717 11.2322 4.66103 11.2322C6.20493 11.2322 7.45647 12.3666 7.45647 13.7662C7.45647 15.1656 6.20493 16.3 4.66103 16.3ZM12.8951 16.3C11.3511 16.3 10.0997 15.1656 10.0997 13.7661C10.0997 12.3665 11.3512 11.2322 12.8951 11.2322C14.4389 11.2322 15.6905 12.3665 15.6905 13.7661C15.6905 15.1656 14.4389 16.3 12.8951 16.3Z" fill="#0075C9"/>
<path d="M23.8244 16.6618L21.4376 13.7699L23.8244 10.8779L23.824 10.8776C24.1192 10.505 24.0336 9.98525 23.627 9.70829C23.2204 9.43164 22.6459 9.5019 22.3334 9.86266L22.3332 9.86256L20.2732 12.3586L18.2132 9.86256L18.2129 9.863C17.9004 9.5019 17.326 9.43164 16.9193 9.70849C16.5126 9.98544 16.4271 10.5052 16.7225 10.8777L16.722 10.8779L19.1087 13.7699L16.722 16.6618L16.7225 16.662C16.427 17.0346 16.5126 17.5543 16.9193 17.8311C17.326 18.1081 17.9004 18.0377 18.2129 17.6768L18.2132 17.6772L20.2732 15.181L22.3332 17.6772L22.3334 17.6771C22.646 18.0378 23.2204 18.1081 23.627 17.8313C24.0336 17.5544 24.1192 17.0347 23.824 16.6622L23.8244 16.6618Z" fill="#0075C9"/>
</svg>
