<svg width="32" height="32" viewBox="0 0 32 32" fill="none" xmlns="http://www.w3.org/2000/svg">
<path d="M28.1212 4H3.67192C2.96519 4.00617 2.28916 4.28966 1.78941 4.78941C1.28966 5.28916 1.00617 5.96519 1 6.67192V21.403C1 21.7538 1.06911 22.1013 1.20339 22.4255C1.33766 22.7496 1.53448 23.0442 1.78259 23.2923C2.0307 23.5404 2.32525 23.7372 2.64942 23.8715C2.97359 24.0058 3.32104 24.0749 3.67192 24.0749H12.799V25.4227H9.98522C9.31023 25.4298 8.66499 25.7015 8.18818 26.1793C7.94552 26.4159 7.75336 26.6992 7.6233 27.0121C7.49325 27.3251 7.42801 27.6611 7.43153 28H24.3379C24.338 27.3246 24.073 26.6761 23.5998 26.1941C23.1267 25.7121 22.4832 25.4351 21.8079 25.4227H18.9941V23.9803H28.1212C28.8137 23.9807 29.4794 23.7122 29.9778 23.2314C30.4763 22.7506 30.7686 22.0951 30.7931 21.403V6.67192C30.7931 6.32104 30.724 5.97359 30.5897 5.64942C30.4554 5.32525 30.2586 5.0307 30.0105 4.78259C29.7624 4.53448 29.4679 4.33766 29.1437 4.20339C28.8195 4.06911 28.4721 4 28.1212 4ZM28.5704 21.9232H3.22266V6.17537H28.5704V21.9232Z" fill="#5A5C60"/>
<path d="M5.01953 7.97266H26.7732V20.0791H5.01953V7.97266Z" fill="#5A5C60"/>
</svg>
