<svg width="16" height="16" viewBox="0 0 16 16" fill="none" xmlns="http://www.w3.org/2000/svg">
<path fill-rule="evenodd" clip-rule="evenodd" d="M14.7857 4.14737V4.36165C15.5 4.57594 16 5.2188 16 6.00451V13.5759C16 14.5759 15.2143 15.3617 14.2143 15.3617H2.78571C1.78571 15.3617 1 14.5759 1 13.5759V2.7188C1 1.7188 1.78571 0.933083 2.78571 1.00451H6.35714C6.92857 1.00451 7.5 1.29023 7.78571 1.79023H12.4286C13.7143 1.79023 14.7857 2.86165 14.7857 4.14737ZM9.28571 4.36165H13.5V4.14737C13.5 3.50451 13.0714 3.00451 12.4286 3.00451H8.14286V3.14737C8.14286 3.86165 8.64286 4.36165 9.28571 4.36165ZM5.35717 12.3008H11.25C12.4286 12.3008 13.3125 11.457 13.3125 10.4258C13.3125 9.39453 12.4286 8.55078 11.3482 8.55078H10.1697C9.77681 8.55078 9.38396 8.36328 9.28574 7.98828C8.9911 7.23828 8.3036 6.67578 7.41967 6.67578C6.43753 6.67578 5.65181 7.42578 5.45538 8.26953C5.35717 8.45703 5.16074 8.64453 4.96431 8.73828C3.88395 9.30078 3.39288 9.86328 3.39288 10.4258C3.39288 11.457 4.27681 12.3008 5.35717 12.3008Z" fill="#5A5C60"/>
</svg>
