<svg width="16" height="16" viewBox="0 0 16 16" fill="none" xmlns="http://www.w3.org/2000/svg">
<path d="M10.5 12.4536L5.264 12.4536C5.05682 12.4536 4.88804 12.7484 4.88804 13.1103C4.88804 13.4717 5.05628 13.767 5.264 13.767H10.5C10.7072 13.767 10.876 13.4717 10.876 13.1103C10.876 12.7484 10.7072 12.4536 10.5 12.4536ZM11.8568 7.18657H3.6421C3.5568 7.18749 3.47253 7.20521 3.39408 7.23872C3.31564 7.27223 3.24458 7.32086 3.18494 7.38185C3.12531 7.44284 3.07828 7.51499 3.04655 7.59416C3.01481 7.67334 2.99899 7.75799 2.99999 7.84328C2.99999 8.20464 3.28886 8.49999 3.64264 8.49999H11.8574C12.2111 8.49999 12.5 8.20464 12.5 7.84328C12.501 7.75795 12.4852 7.67325 12.4534 7.59404C12.4216 7.51483 12.3745 7.44266 12.3149 7.38166C12.2552 7.32067 12.184 7.27204 12.1055 7.23856C12.027 7.20509 11.9422 7.18742 11.8568 7.18657ZM13.9719 2.75715H1.65472C1.56943 2.75806 1.48515 2.77578 1.40671 2.80929C1.32827 2.8428 1.2572 2.89144 1.19757 2.95243C1.13794 3.01342 1.09091 3.08556 1.05917 3.16473C1.02744 3.24391 1.01162 3.32856 1.01262 3.41385C1.01169 3.49915 1.02758 3.58379 1.05938 3.66293C1.09118 3.74208 1.13827 3.81418 1.19795 3.87512C1.25764 3.93606 1.32874 3.98464 1.40721 4.01808C1.48568 4.05153 1.56997 4.06918 1.65526 4.07002H13.9724C14.0578 4.06925 14.1421 4.05165 14.2207 4.01824C14.2992 3.98483 14.3704 3.93626 14.4301 3.87531C14.4898 3.81437 14.537 3.74224 14.5688 3.66306C14.6006 3.58387 14.6166 3.49919 14.6156 3.41385C14.6166 3.32847 14.6008 3.24373 14.569 3.16449C14.5372 3.08524 14.49 3.01305 14.4303 2.95205C14.3705 2.89104 14.2993 2.84243 14.2208 2.80898C14.1422 2.77554 14.0573 2.75792 13.9719 2.75715Z" fill="#515151"/>
</svg>
