<svg width="16" height="16" viewBox="0 0 16 16" fill="none" xmlns="http://www.w3.org/2000/svg">
<path fill-rule="evenodd" clip-rule="evenodd" d="M13.25 1H2.75C1.78477 1 1 1.78478 1 2.75003V10.6252C1 11.5904 1.78477 12.3752 2.75 12.3752H5.375V14.6721C5.375 14.9401 5.68125 15.0959 5.89727 14.9373L9.3125 12.3752H13.25C14.2152 12.3752 15 11.5904 15 10.6252V2.75003C15 1.78478 14.2152 1 13.25 1ZM3.33351 5.08915C3.33351 4.9787 3.42305 4.88915 3.53351 4.88915H12.4675C12.578 4.88915 12.6675 4.9787 12.6675 5.08915V5.62256C12.6675 5.73301 12.578 5.82256 12.4675 5.82256H3.53351C3.42305 5.82256 3.33351 5.73301 3.33351 5.62256V5.08915ZM3.53351 7.22266C3.42305 7.22266 3.33351 7.3122 3.33351 7.42266V7.95606C3.33351 8.06652 3.42305 8.15606 3.53351 8.15606H10.9119C11.0223 8.15606 11.1119 8.06652 11.1119 7.95606V7.42266C11.1119 7.3122 11.0223 7.22266 10.9119 7.22266H3.53351Z" fill="#5A5C60"/>
</svg>
