<svg width="16" height="16" viewBox="0 0 16 16" fill="none" xmlns="http://www.w3.org/2000/svg">
<path d="M6.42929 14.5347C6.31263 14.5212 6.21011 14.4484 6.16238 14.345L5.52428 12.9577C5.26974 12.4054 4.70764 12.0599 4.08898 12.0599C4.03241 12.0599 3.97408 12.0633 3.91575 12.0683L2.34258 12.2327C2.22591 12.2445 2.10925 12.1971 2.03855 12.1056C1.72568 11.7075 1.4623 11.2722 1.25903 10.8148C1.2113 10.7098 1.22544 10.5878 1.29615 10.498L2.23122 9.27331C2.63777 8.7414 2.63777 8.02655 2.23122 7.49465L1.29615 6.26991C1.22721 6.17844 1.21307 6.05817 1.25903 5.95314C1.4623 5.49577 1.72568 5.06212 2.03855 4.66234C2.10925 4.57256 2.22591 4.52344 2.34258 4.5353L3.91575 4.69961C4.59982 4.77076 5.24676 4.41333 5.52428 3.81028L6.16238 2.42293C6.21011 2.3196 6.31263 2.24676 6.42929 2.2332C6.6856 2.20441 6.9472 2.18916 7.20881 2.18916C7.46865 2.18916 7.73026 2.20441 7.98833 2.2332C8.10499 2.24676 8.20751 2.3196 8.25524 2.42293L8.89334 3.81028C9.17086 4.41333 9.8178 4.77076 10.5019 4.69961L12.075 4.5353C12.1917 4.52344 12.3084 4.57256 12.3791 4.66234C12.6919 5.06042 12.9553 5.49577 13.1586 5.95314C13.2045 6.05817 13.1904 6.18013 13.1215 6.26991L12.1846 7.49126C11.7781 8.02316 11.7781 8.73802 12.1846 9.26992L12.4462 9.61379H13.9805L13.1833 8.57031C13.0967 8.45682 13.0967 8.30436 13.1833 8.19256L14.1184 6.96782C14.4454 6.54095 14.5126 5.97178 14.2952 5.48392C14.0512 4.93846 13.7401 4.4218 13.3672 3.9458C13.0349 3.524 12.4887 3.29532 11.9407 3.35291L10.3675 3.51723C10.2226 3.53247 10.0847 3.45624 10.0264 3.3275L9.38828 1.94015C9.16556 1.45568 8.68477 1.11519 8.13681 1.05251C7.83101 1.01694 7.51991 1 7.21058 1C6.90125 1 6.59015 1.01694 6.28435 1.05251C5.73462 1.11519 5.2556 1.45568 5.03288 1.94015L4.39477 3.3275C4.33644 3.45624 4.19857 3.53247 4.05362 3.51723L2.48045 3.35291C1.93249 3.29532 1.3863 3.52231 1.05399 3.9458C0.68102 4.4218 0.368153 4.93846 0.12599 5.48392C-0.0914259 5.97178 -0.0242567 6.54095 0.302751 6.96782L1.23782 8.19256C1.32443 8.30605 1.32443 8.45851 1.23782 8.57031L0.302751 9.79505C-0.0242567 10.2219 -0.0914259 10.7911 0.12599 11.279C0.369921 11.8244 0.68102 12.3411 1.05399 12.8171C1.35271 13.1965 1.8229 13.4184 2.31253 13.4184C2.36909 13.4184 2.42389 13.415 2.48045 13.41L4.05362 13.2456C4.19857 13.2304 4.33644 13.3066 4.39477 13.4354L5.03288 14.8227C5.2556 15.3072 5.73639 15.6477 6.28435 15.7104C6.59015 15.7459 6.90125 15.7629 7.21058 15.7629C7.30249 15.7629 7.39441 15.7612 7.48633 15.7578V14.5737C7.39441 14.5771 7.30249 14.5788 7.21058 14.5788C6.9472 14.5788 6.6856 14.5635 6.42929 14.5347Z" fill="#5F5F61"/>
<path d="M5.09103 8.32331C5.09103 7.19005 6.05261 6.26854 7.23514 6.26854C8.41767 6.26854 9.37926 7.19005 9.37926 8.32331C9.37926 8.81287 9.20073 9.26177 8.902 9.61411H10.3373C10.5176 9.21772 10.6184 8.78237 10.6184 8.32331C10.6184 6.53618 9.10174 5.08276 7.23691 5.08276C5.37208 5.08276 3.85547 6.53618 3.85547 8.32331C3.85547 10.1104 5.37208 11.5639 7.23691 11.5639C7.31999 11.5639 7.40307 11.5605 7.48614 11.5554V10.3645C7.40483 10.373 7.32176 10.3781 7.23691 10.3781C6.05261 10.3781 5.09103 9.45657 5.09103 8.32331Z" fill="#5F5F61"/>
<path d="M15.0481 10.5524H9.10011C8.75896 10.5524 8.48145 10.8184 8.48145 11.1453C8.48145 11.4723 8.75896 11.7382 9.10011 11.7382H15.0481C15.3893 11.7382 15.6668 11.4723 15.6668 11.1453C15.6668 10.8184 15.3893 10.5524 15.0481 10.5524ZM15.0481 12.6258H9.10011C8.75896 12.6258 8.48145 12.8918 8.48145 13.2187C8.48145 13.5457 8.75896 13.8116 9.10011 13.8116H15.0481C15.3893 13.8116 15.6668 13.5457 15.6668 13.2187C15.6668 12.8918 15.3893 12.6258 15.0481 12.6258ZM15.0481 14.7009H9.10011C8.75896 14.7009 8.48145 14.9669 8.48145 15.2938C8.48145 15.6208 8.75896 15.8867 9.10011 15.8867H15.0481C15.3893 15.8867 15.6668 15.6208 15.6668 15.2938C15.6668 14.9652 15.3893 14.7009 15.0481 14.7009Z" fill="#5F5F61"/>
</svg>
