<svg width="16" height="16" viewBox="0 0 16 16" fill="none" xmlns="http://www.w3.org/2000/svg">
<path fill-rule="evenodd" clip-rule="evenodd" d="M10.7778 4.6H5.27778V3.5H10.7778C11.4528 3.5 12 3.99249 12 4.6V10.65H10.7778V4.6ZM1 6.8C1 6.19249 1.54721 5.7 2.22222 5.7H8.33333C9.00706 5.7 9.55556 6.19044 9.55556 6.79911V13.4023C9.55556 14.012 9.00678 14.5 8.33413 14.5H2.22085C1.54405 14.5 1 14.0059 1 13.4V6.8ZM8.33333 6.8H2.22222V13.4H8.33333V6.8Z" fill="#5A5C60"/>
<path fill-rule="evenodd" clip-rule="evenodd" d="M12.7273 2.73077H7.00002V1.5H12.7273C13.4302 1.5 14 2.05103 14 2.73077V9.5H12.7273V2.73077Z" fill="#5A5C60"/>
</svg>
