<svg width="16" height="16" viewBox="0 0 16 16" fill="none" xmlns="http://www.w3.org/2000/svg">
<path d="M3.04481 5.10743C1.91713 5.10743 1 4.19031 1 3.06263C1 1.93495 1.91713 1.01782 3.04481 1.01782C4.17248 1.01782 5.08961 1.93495 5.08961 3.06263C5.08961 4.19031 4.17427 5.10743 3.04481 5.10743ZM3.04481 2.0884C2.50773 2.0884 2.07058 2.52555 2.07058 3.06263C2.07058 3.5997 2.50773 4.03686 3.04481 4.03686C3.58188 4.03686 4.01903 3.5997 4.01903 3.06263C4.01903 2.52555 3.58366 2.0884 3.04481 2.0884Z" fill="#5A5C60"/>
<path d="M2.06341 14.7874C1.92602 14.7874 1.78863 14.7356 1.68514 14.6303C1.47637 14.4216 1.47637 14.0826 1.68514 13.8738L3.76028 11.7987C3.96904 11.5899 4.30806 11.5899 4.51682 11.7987C4.72558 12.0074 4.72558 12.3464 4.51682 12.5552L2.44168 14.6303C2.33819 14.7356 2.2008 14.7874 2.06341 14.7874ZM14.1627 14.6821C14.0253 14.6821 13.888 14.6303 13.7845 14.5251L11.8324 12.573C11.6237 12.3643 11.6237 12.0253 11.8324 11.8165C12.0412 11.6077 12.3802 11.6077 12.589 11.8165L14.541 13.7685C14.7498 13.9773 14.7498 14.3163 14.541 14.5251C14.4357 14.6286 14.3001 14.6821 14.1627 14.6821Z" fill="#5A5C60"/>
<path d="M13.2885 5.08961C12.1608 5.08961 11.2437 4.17248 11.2437 3.04481C11.2437 1.91713 12.1608 1 13.2885 1C14.4162 1 15.3333 1.91713 15.3333 3.04481C15.3333 4.17248 14.418 5.08961 13.2885 5.08961ZM13.2885 2.07058C12.7514 2.07058 12.3143 2.50773 12.3143 3.04481C12.3143 3.58188 12.7514 4.01903 13.2885 4.01903C13.8256 4.01903 14.2627 3.58188 14.2627 3.04481C14.2627 2.50773 13.8274 2.07058 13.2885 2.07058Z" fill="#5A5C60"/>
<path d="M8.18358 14.3912C7.34139 14.3912 6.5224 14.2253 5.75158 13.9005C5.00753 13.5865 4.3402 13.1351 3.76744 12.5623C3.19468 11.9895 2.74326 11.3204 2.42922 10.5782C2.10269 9.80735 1.93854 8.99014 1.93854 8.14617C1.93854 7.3022 2.10448 6.48499 2.42922 5.71417C2.74326 4.97012 3.19468 4.30279 3.76744 3.73003C4.3402 3.15727 5.00932 2.70584 5.75158 2.39181C6.5224 2.06528 7.33961 1.90112 8.18358 1.90112C9.02756 1.90112 9.84477 2.06706 10.6156 2.39181C11.3596 2.70584 12.027 3.15727 12.5997 3.73003C13.1725 4.30279 13.6239 4.9719 13.9379 5.71417C14.2645 6.48499 14.4286 7.3022 14.4286 8.14617C14.4286 8.99014 14.2627 9.80735 13.9379 10.5782C13.6239 11.3222 13.1725 11.9895 12.5997 12.5623C12.027 13.1351 11.3579 13.5865 10.6156 13.9005C9.84477 14.2271 9.02577 14.3912 8.18358 14.3912ZM8.18358 2.9717C5.33049 2.9717 3.00912 5.29308 3.00912 8.14617C3.00912 10.9993 5.33049 13.3206 8.18358 13.3206C11.0367 13.3206 13.358 10.9993 13.358 8.14617C13.358 5.29308 11.0367 2.9717 8.18358 2.9717Z" fill="#5A5C60"/>
<path d="M8.16749 8.70612C7.8713 8.70612 7.6322 8.46703 7.6322 8.17083V5.86195C7.6322 5.56576 7.8713 5.32666 8.16749 5.32666C8.46368 5.32666 8.70278 5.56576 8.70278 5.86195V8.17083C8.70278 8.46703 8.46368 8.70612 8.16749 8.70612Z" fill="#5A5C60"/>
<path d="M9.80015 10.3187C9.66455 10.3187 9.52894 10.267 9.42367 10.1635L7.79103 8.55228C7.58049 8.3453 7.5787 8.00628 7.78568 7.79573C7.99266 7.58519 8.33168 7.5834 8.54222 7.79038L10.1749 9.40339C10.3854 9.61037 10.3872 9.94938 10.1802 10.1599C10.0767 10.2652 9.93755 10.3187 9.80015 10.3187Z" fill="#5A5C60"/>
</svg>
