<svg width="12" height="12" viewBox="0 0 12 12" fill="none" xmlns="http://www.w3.org/2000/svg">
<g clip-path="url(#clip0_4165_12056)">
<path d="M11.0759 2.17676C11.01 1.51758 10.4827 0.990234 9.82349 0.924316L7.05493 0.726562C6.52759 0.726562 6.00024 0.858398 5.67065 1.25391L1.25415 5.67041C0.594971 6.32959 0.594971 7.4502 1.25415 8.10938L3.89087 10.7461C4.22046 11.0757 4.61597 11.2734 5.07739 11.2734C5.53882 11.2734 6.00024 11.0757 6.32983 10.7461L10.7463 6.32959C11.1418 6 11.2737 5.47266 11.2737 4.94531L11.0759 2.17676ZM10.1531 5.73633L5.73657 10.1528C5.40698 10.4824 4.81372 10.4824 4.41821 10.1528L1.78149 7.51611C1.4519 7.18652 1.4519 6.59326 1.78149 6.19775L6.198 1.78125C6.39575 1.5835 6.59351 1.51758 6.85718 1.51758H6.9231L9.69165 1.71533C9.95532 1.71533 10.1531 1.979 10.219 2.24268L10.4167 5.01123C10.4827 5.2749 10.3508 5.53857 10.1531 5.73633Z" fill="#5F5F61"/>
<path d="M6.65918 3.23145C6.13184 3.82471 6.13184 4.74756 6.65918 5.34082C6.92285 5.60449 7.31836 5.80225 7.71387 5.80225C7.8457 5.80225 7.91162 5.80225 8.04346 5.73633C8.30713 5.67041 8.5708 5.53857 8.76855 5.34082C8.96631 5.14307 9.09814 4.87939 9.16406 4.61572C9.2959 4.08838 9.09814 3.62695 8.76855 3.23145C8.24121 2.63818 7.25244 2.63818 6.65918 3.23145ZM8.37305 4.41797C8.37305 4.5498 8.30713 4.68164 8.17529 4.74756C8.10938 4.81348 7.97754 4.87939 7.8457 4.94531C7.64795 5.01123 7.38428 4.94531 7.18652 4.74756C6.92285 4.48389 6.92285 4.08838 7.18652 3.82471C7.31836 3.69287 7.51611 3.62695 7.64795 3.62695C7.8457 3.62695 7.97754 3.69287 8.10938 3.82471C8.37305 3.95654 8.43896 4.1543 8.37305 4.41797Z" fill="#5F5F61"/>
</g>
<defs>
<clipPath id="clip0_4165_12056">
<rect width="12" height="12" fill="white"/>
</clipPath>
</defs>
</svg>
