<svg width="12" height="12" viewBox="0 0 12 12" fill="none" xmlns="http://www.w3.org/2000/svg">
<path d="M12 0.98033C12 0.439412 11.5859 0 11.0762 0H1.9238C1.41407 0 1 0.439412 1 0.98033V3.22547C1 3.45119 1.07174 3.65821 1.19382 3.82382C1.07174 3.99077 1 4.19779 1 4.42351V6.66865C1 6.87433 1.05915 7.06399 1.1611 7.22159C1.05915 7.37919 1 7.56884 1 7.77453V10.0197C1 10.5606 1.41407 11 1.9238 11H11.0762C11.5859 11 12 10.5606 12 10.0197V7.77453C12 7.56884 11.9408 7.37919 11.8389 7.22159C11.9408 7.06399 12 6.873 12 6.66865V4.42351C12 4.19779 11.9283 3.99077 11.8062 3.82516C11.927 3.65954 12 3.45119 12 3.22681V0.98033ZM1.80549 0.98033C1.80549 0.912215 1.85961 0.854784 1.9238 0.854784H11.0762C11.1404 0.854784 11.1945 0.912215 11.1945 0.98033V3.22547C11.1945 3.29359 11.1404 3.35102 11.0762 3.35102H1.9238C1.85961 3.35102 1.80549 3.29359 1.80549 3.22547V0.98033ZM11.1945 6.66865C11.1945 6.73677 11.1404 6.7942 11.0762 6.7942H1.9238C1.85961 6.7942 1.80549 6.73677 1.80549 6.66865V4.42351C1.80549 4.35539 1.85961 4.29796 1.9238 4.29796H11.0762C11.1404 4.29796 11.1945 4.35539 11.1945 4.42351V6.66865ZM11.1945 10.0197C11.1945 10.0878 11.1404 10.1452 11.0762 10.1452H1.9238C1.85961 10.1452 1.80549 10.0878 1.80549 10.0197V7.77453C1.80549 7.70641 1.85961 7.64898 1.9238 7.64898H11.0762C11.1404 7.64898 11.1945 7.70641 11.1945 7.77453V10.0197Z" fill="#5F5F61"/>
<path d="M2.68599 3.3949H4.11567C4.3231 3.3949 4.49067 3.22732 4.49067 3.0199C4.49067 2.81248 4.3231 2.6449 4.11567 2.6449H2.68599C2.47856 2.6449 2.31099 2.81248 2.31099 3.0199C2.31099 3.22732 2.47856 3.3949 2.68599 3.3949ZM4.1145 5.66482H2.68481C2.47739 5.66482 2.30981 5.8324 2.30981 6.03982C2.30981 6.24724 2.47739 6.41482 2.68481 6.41482H4.1145C4.32192 6.41482 4.4895 6.24724 4.4895 6.03982C4.4895 5.83357 4.32192 5.66482 4.1145 5.66482ZM4.1145 8.60505H2.68481C2.47739 8.60505 2.30981 8.77263 2.30981 8.98005C2.30981 9.18747 2.47739 9.35505 2.68481 9.35505H4.1145C4.32192 9.35505 4.4895 9.18747 4.4895 8.98005C4.4895 8.77263 4.32192 8.60505 4.1145 8.60505Z" fill="#5F5F61"/>
</svg>
