<svg width="16" height="16" viewBox="0 0 16 16" fill="none" xmlns="http://www.w3.org/2000/svg">
<path d="M9.17826 2.86021H13.5719C14.3429 2.86021 14.7281 2.94225 14.7281 4.24566V4.73364C15.576 4.74404 16 4.86673 16 6.30914V14.1106C16 14.7571 15.746 15 14.2657 15H3.0687C2.66314 15 2.32326 15.0038 2.06135 14.92H0.930251C0.467942 14.92 0.00536331 14.7571 0.00536331 13.5351C0.00536331 12.3131 0 4.32407 0 2.93867C0 1.55286 0.313354 1 1.70123 1C3.08841 1 6.44013 1.04385 7.36502 1.04385C8.29012 1.04385 9.17826 2.86021 9.17826 2.86021ZM13.957 4.73261C13.957 3.87189 13.7233 3.71474 13.1761 3.71474H1.54449C0.764148 3.71474 0.451296 3.87128 0.451296 4.81009V12.5581C0.451296 13.7528 0.829872 14.0009 1.47231 14.039C1.45909 13.9236 1.45226 13.7944 1.45226 13.6495C1.45226 12.2749 1.47068 7.32005 1.47068 6.34921C1.47068 5.21746 1.54864 4.73259 2.6392 4.73259L13.957 4.73261Z" fill="#5A5C60"/>
</svg>
