<svg width="12" height="12" viewBox="0 0 12 12" fill="none" xmlns="http://www.w3.org/2000/svg">
<path d="M10.8212 7.90813V3.09187C11.0894 3.02275 11.3346 2.88392 11.5319 2.68946C11.7292 2.495 11.8715 2.25183 11.9445 1.98461C12.0175 1.71738 12.0185 1.43562 11.9474 1.16788C11.8764 0.900135 11.7358 0.655945 11.5399 0.460071C11.3441 0.264197 11.0999 0.123604 10.8321 0.0525518C10.5644 -0.0185008 10.2826 -0.0174866 10.0154 0.0554918C9.74817 0.12847 9.505 0.270817 9.31054 0.468096C9.11608 0.665375 8.97725 0.910571 8.90813 1.17882H4.09187C4.02275 0.910571 3.88392 0.665375 3.68946 0.468096C3.495 0.270817 3.25183 0.12847 2.98461 0.0554918C2.71738 -0.0174866 2.43562 -0.0185008 2.16788 0.0525518C1.90013 0.123604 1.65595 0.264197 1.46007 0.460071C1.2642 0.655945 1.1236 0.900135 1.05255 1.16788C0.981499 1.43562 0.982513 1.71738 1.05549 1.98461C1.12847 2.25183 1.27082 2.495 1.4681 2.68946C1.66538 2.88392 1.91057 3.02275 2.17882 3.09187V7.90813C1.91057 7.97725 1.66538 8.11608 1.4681 8.31054C1.27082 8.505 1.12847 8.74817 1.05549 9.01539C0.982513 9.28261 0.981499 9.56438 1.05255 9.83212C1.1236 10.0999 1.2642 10.3441 1.46007 10.5399C1.65595 10.7358 1.90013 10.8764 2.16788 10.9474C2.43562 11.0185 2.71738 11.0175 2.98461 10.9445C3.25183 10.8715 3.495 10.7292 3.68946 10.5319C3.88392 10.3346 4.02275 10.0894 4.09187 9.82118H8.90813C8.97725 10.0894 9.11608 10.3346 9.31054 10.5319C9.505 10.7292 9.74817 10.8715 10.0154 10.9445C10.2826 11.0175 10.5644 11.0185 10.8321 10.9474C11.0999 10.8764 11.3441 10.7358 11.5399 10.5399C11.7358 10.3441 11.8764 10.0999 11.9474 9.83212C12.0185 9.56438 12.0175 9.28261 11.9445 9.01539C11.8715 8.74817 11.7292 8.505 11.5319 8.31054C11.3346 8.11608 11.0894 7.97725 10.8212 7.90813ZM10.43 0.787646C10.6264 0.804999 10.8091 0.895254 10.9422 1.04063C11.0752 1.186 11.1491 1.37594 11.1491 1.57304C11.1491 1.77013 11.0752 1.96008 10.9422 2.10545C10.8091 2.25082 10.6264 2.34107 10.43 2.35843C10.3211 2.36806 10.2113 2.35491 10.1077 2.31982C10.0041 2.28472 9.90888 2.22845 9.82819 2.15458C9.74751 2.08071 9.68308 1.99086 9.639 1.89074C9.59492 1.79063 9.57215 1.68243 9.57215 1.57304C9.57215 1.46364 9.59492 1.35545 9.639 1.25533C9.68308 1.15521 9.74751 1.06536 9.82819 0.991491C9.90888 0.917622 10.0041 0.861351 10.1077 0.826258C10.2113 0.791164 10.3211 0.778015 10.43 0.787646ZM1.78764 1.56997C1.80497 1.37363 1.89522 1.19091 2.0406 1.05781C2.18597 0.924706 2.37593 0.850881 2.57303 0.850881C2.77013 0.850881 2.96009 0.924706 3.10546 1.05781C3.25084 1.19091 3.34109 1.37363 3.35843 1.56997C3.36806 1.67894 3.35491 1.78872 3.31982 1.89233C3.28472 1.99594 3.22845 2.09112 3.15458 2.17181C3.08071 2.25249 2.99086 2.31692 2.89074 2.361C2.79063 2.40508 2.68243 2.42785 2.57304 2.42785C2.46364 2.42785 2.35545 2.40508 2.25533 2.361C2.15521 2.31692 2.06536 2.25249 1.99149 2.17181C1.91762 2.09112 1.86135 1.99594 1.82626 1.89233C1.79116 1.78872 1.778 1.67894 1.78764 1.56997ZM2.56997 10.2124C2.37363 10.195 2.19091 10.1048 2.05781 9.9594C1.92471 9.81403 1.85088 9.62407 1.85088 9.42697C1.85088 9.22986 1.92471 9.03991 2.05781 8.89454C2.19091 8.74916 2.37363 8.65891 2.56997 8.64157C2.67894 8.63194 2.78872 8.64509 2.89233 8.68018C2.99594 8.71528 3.09112 8.77155 3.17181 8.84542C3.25249 8.91929 3.31692 9.00914 3.361 9.10926C3.40508 9.20937 3.42785 9.31757 3.42785 9.42696C3.42785 9.53636 3.40508 9.64455 3.361 9.74467C3.31692 9.84479 3.25249 9.93464 3.17181 10.0085C3.09112 10.0824 2.99594 10.1386 2.89233 10.1737C2.78872 10.2088 2.67894 10.222 2.56997 10.2124V10.2124ZM8.90813 9.03886H4.09187C4.02311 8.76582 3.88167 8.51652 3.68257 8.31743C3.48348 8.11833 3.23418 7.97689 2.96114 7.90813V3.09187C3.23418 3.02311 3.48348 2.88167 3.68257 2.68257C3.88167 2.48348 4.02311 2.23418 4.09187 1.96114H8.90813C8.97689 2.23418 9.11833 2.48348 9.31743 2.68257C9.51652 2.88167 9.76582 3.02311 10.0389 3.09187V7.90813C9.76582 7.97689 9.51652 8.11833 9.31743 8.31743C9.11833 8.51652 8.97689 8.76582 8.90813 9.03886ZM10.43 10.2124C10.2736 10.2136 10.1203 10.1682 9.9897 10.082C9.8591 9.99586 9.7571 9.87279 9.69666 9.72847C9.63623 9.58415 9.6201 9.42511 9.65033 9.2716C9.68055 9.11809 9.75577 8.97704 9.8664 8.8664C9.97704 8.75577 10.1181 8.68055 10.2716 8.65033C10.4251 8.6201 10.5842 8.63623 10.7285 8.69666C10.8728 8.7571 10.9959 8.8591 11.082 8.9897C11.1682 9.12029 11.2136 9.27357 11.2124 9.43003C11.2124 9.63751 11.1299 9.8365 10.9832 9.98321C10.8365 10.1299 10.6375 10.2124 10.43 10.2124Z" fill="#5F5F61"/>
</svg>
