<svg width="12" height="12" viewBox="0 0 12 12" fill="none" xmlns="http://www.w3.org/2000/svg">
<path fill-rule="evenodd" clip-rule="evenodd" d="M2.53751 10.6146H10.0964L10.0964 10.6146C10.7008 10.6146 11.1944 10.151 11.2105 9.57497L11.967 4.7746V4.748C11.967 4.27814 11.649 3.87821 11.2088 3.73528C11.1535 3.065 10.0641 2.71974 9.59246 2.71974H6.66622C6.32978 2.3361 5.71632 2 5.30903 2H3.04153C2.42693 2 1.92685 2.47948 1.92685 3.06885V3.67916H1.782C1.16718 3.67916 0.666992 4.15863 0.666992 4.748V4.77448L1.42339 9.57496C1.43947 10.1508 1.9332 10.6146 2.53751 10.6146ZM2.64493 4.36719H10.493V3.79739C10.4753 3.76016 10.3765 3.66159 10.1591 3.56393C9.93551 3.46366 9.70872 3.41795 9.59238 3.41795H6.2857L6.18045 3.25193C6.00663 2.97727 5.49581 2.69821 5.30908 2.69821H3.04158C2.82284 2.69821 2.64493 2.86457 2.64493 3.06883V4.36719ZM11.1983 5.04278L10.4929 9.51904V9.54564C10.4929 9.75002 10.315 9.91625 10.0964 9.91625H2.53752C2.31887 9.91625 2.14098 9.75002 2.14098 9.54564V9.51904L1.43566 5.04278H11.1983Z" fill="#5F5F61"/>
</svg>
