<svg width="24" height="24" viewBox="0 0 24 24" fill="none" xmlns="http://www.w3.org/2000/svg">
<path d="M20.7333 12.5L20.1 11.875L19.4667 12.5V10H13.1333V3.75H5.52953C5.19526 3.75 4.87462 3.88078 4.63789 4.11369C4.40117 4.3466 4.26767 4.66262 4.26667 4.9925V20.0075C4.26667 20.6912 4.83667 21.25 5.54093 21.25H11.8667L13.1333 22.5H5.54093C4.86915 22.5017 4.22418 22.2401 3.74774 21.7727C3.27129 21.3053 3.00235 20.6704 3 20.0075V4.9925C3 3.61625 4.13493 2.5 5.52953 2.5H14.4L20.7333 8.75V12.5ZM14.4 8.75H18.8333L14.4 4.375V8.75ZM18.2 22.5H16.9333L17.5667 21.875L18.2 22.5ZM20.1 13.75L22 15.625L19.4667 18.125L22 20.625L20.1 22.5L17.5667 20L15.0333 22.5L13.1333 20.625L15.6667 18.125L13.1333 15.625L15.0333 13.75L17.5667 16.25L20.1 13.75Z" fill="#333333"/>
</svg>
