<svg width="16" height="16" viewBox="0 0 16 16" fill="none" xmlns="http://www.w3.org/2000/svg">
<g id="deselect all" clip-path="url(#clip0_5226_187)">
<path id="Vector" d="M7.21673 11.8129C7.1502 11.8129 7.08418 11.8013 7.02162 11.7787L11.3403 5.93824C11.3864 5.96971 11.4279 6.00757 11.4634 6.05069C11.5635 6.17263 11.6121 6.32881 11.5988 6.48601C11.5855 6.64322 11.5114 6.78904 11.3923 6.89246L9.87272 8.19557L12.2492 10.1565C12.3701 10.2577 12.4468 10.4021 12.4629 10.5589C12.479 10.7158 12.4333 10.8728 12.3354 10.9965L11.8687 11.584C11.8211 11.645 11.7618 11.6957 11.6942 11.7333C11.6266 11.7709 11.5522 11.7945 11.4753 11.8028C11.3984 11.8111 11.3207 11.8039 11.2466 11.7816C11.1726 11.7593 11.1038 11.7223 11.0443 11.6729L8.66606 9.71202L7.73273 11.4965C7.66803 11.6206 7.56142 11.7178 7.43184 11.7707C7.36352 11.7985 7.29048 11.8128 7.21673 11.8129ZM5.86073 9.35646L4.39673 5.59691C4.35678 5.49478 4.34526 5.38373 4.3634 5.27558C4.385 5.13779 4.45488 5.01217 4.56056 4.92115C4.66623 4.83013 4.80082 4.77964 4.94028 4.77869C4.9735 4.77866 5.00666 4.78148 5.0394 4.78713L8.7585 5.43558L5.86117 9.35646H5.86073Z" fill="#5A5C60"/>
<path id="Vector_2" d="M8.00695 16C6.15991 16.0014 4.36929 15.3637 2.93899 14.195C1.5087 13.0263 0.526851 11.3988 0.160099 9.58851C-0.206652 7.77825 0.0642895 5.89686 0.926937 4.26365C1.78958 2.63045 3.19079 1.34605 4.89273 0.628459C6.84518 -0.183491 9.03964 -0.189649 10.9966 0.611331C12.9536 1.41231 14.514 2.95531 15.3369 4.90318C16.1597 6.85106 16.1782 9.04545 15.3882 11.0069C14.5982 12.9683 13.064 14.5373 11.1207 15.3711C10.1357 15.7881 9.07661 16.002 8.00695 16ZM8.00695 1.18357C6.43432 1.18447 4.91035 1.72898 3.69322 2.72484C2.47609 3.7207 1.64063 5.1067 1.32838 6.64801C1.01613 8.18933 1.24629 9.7912 1.97987 11.1823C2.71345 12.5733 3.90533 13.668 5.35361 14.2809C7.01941 14.9846 8.89652 14.9978 10.572 14.3175C12.2475 13.6372 13.5841 12.3191 14.2878 10.6533C14.9915 8.98755 15.0047 7.11043 14.3244 5.43494C13.6441 3.75945 12.3261 2.42283 10.6603 1.71913C9.82087 1.36391 8.91841 1.18176 8.00695 1.18357Z" fill="#5A5C60"/>
<path id="Vector_3" d="M12.1372 1.9613L13.1438 2.71997L4.29495 14.4648L3.28784 13.7062L12.1372 1.9613Z" fill="#5A5C60"/>
</g>
<defs>
<clipPath id="clip0_5226_187">
<rect width="16" height="16" fill="white"/>
</clipPath>
</defs>
</svg>
