<svg width="16" height="16" viewBox="0 0 16 16" fill="none" xmlns="http://www.w3.org/2000/svg">
<path d="M6.50012 15C6.43171 14.999 6.36444 14.9815 6.30348 14.9488C6.24252 14.9162 6.18949 14.8694 6.14847 14.8119C6.04948 14.686 5.99684 14.5271 6.00015 14.3639V13.0907C5.99716 12.9283 6.04946 12.7701 6.14764 12.6445C6.1883 12.5863 6.24134 12.5389 6.30254 12.5061C6.36374 12.4733 6.4314 12.456 6.50012 12.4555H7.00009V8.63525H6.50012C6.43171 8.63421 6.36444 8.61671 6.30348 8.58409C6.24252 8.55148 6.18949 8.50462 6.14847 8.44712C6.04967 8.32152 5.99705 8.16288 6.00015 8V6.72688C5.99725 6.56418 6.04953 6.40571 6.14764 6.27975C6.18847 6.22184 6.24158 6.1747 6.30275 6.14205C6.36393 6.1094 6.4315 6.09213 6.50012 6.09162H9.49996C9.56832 6.09243 9.63559 6.10974 9.69657 6.14221C9.75754 6.17468 9.81059 6.22144 9.85161 6.27887C9.94942 6.40495 10.0014 6.56342 9.99827 6.726V12.4546H10.4982C10.5666 12.4554 10.6339 12.4727 10.6948 12.5052C10.7558 12.5377 10.8089 12.5844 10.8499 12.6419C10.9488 12.7682 11.0019 12.9272 10.9999 13.0907V14.3639C11.0028 14.5266 10.9506 14.6851 10.8524 14.811C10.8113 14.8687 10.7582 14.9158 10.6971 14.9486C10.636 14.9813 10.5685 14.9989 10.4999 15H6.50012ZM7.50007 4.17975C7.43163 4.17884 7.36432 4.1614 7.30334 4.12877C7.24236 4.09615 7.18935 4.04922 7.14842 3.99162C7.04955 3.86606 6.99692 3.70739 7.00009 3.5445V1.63525C6.99668 1.47247 7.04902 1.31381 7.14759 1.18812C7.18847 1.13026 7.24158 1.08316 7.30275 1.05051C7.36391 1.01787 7.43146 1.00058 7.50007 1H9.49996C9.56839 1.00091 9.63571 1.01835 9.69669 1.05098C9.75767 1.0836 9.81068 1.13053 9.85161 1.18812C9.95113 1.31364 10.0038 1.47285 9.99993 1.63612V3.5445C10.0032 3.70711 9.95121 3.86562 9.85327 3.99162C9.81234 4.04922 9.75934 4.09615 9.69836 4.12877C9.63737 4.1614 9.57006 4.17884 9.50163 4.17975H7.50007Z" fill="#5A5C60"/>
</svg>
