<svg width="16" height="16" viewBox="0 0 16 16" fill="none" xmlns="http://www.w3.org/2000/svg">
<path fill-rule="evenodd" clip-rule="evenodd" d="M8.15371 3.73367H13.0508C14.1273 3.73367 15 4.60575 15 5.68113V11.9525C15 13.0279 14.1273 13.9 13.0511 13.9H2.94892C1.87238 13.8997 1 13.0279 1 11.9525V4.01862C1 2.90387 1.90446 2 3.02037 2H5.84546C5.99645 1.99996 6.14494 2.03859 6.27677 2.11222C6.4086 2.18584 6.51938 2.292 6.59854 2.42058L7.71446 3.48808C7.80808 3.64062 7.97463 3.73367 8.15371 3.73367ZM12.5059 6.30859H3.49398C3.15361 6.30859 2.98328 6.48359 2.98328 6.83359C2.98328 7.18359 3.15361 7.35859 3.49398 7.35859H12.5059C12.8463 7.35859 13.0166 7.18359 13.0166 6.83359C13.0166 6.48359 12.8463 6.30859 12.5059 6.30859Z" fill="#5A5C60"/>
</svg>
