<svg width="16" height="16" viewBox="0 0 16 16" fill="none" xmlns="http://www.w3.org/2000/svg">
<path fill-rule="evenodd" clip-rule="evenodd" d="M14.2966 2.86354C14.3599 2.84093 14.4275 2.83159 14.4949 2.83615L14.4963 2.85885C14.6274 2.86616 14.7511 2.91928 14.844 3.00812C14.9368 3.09696 14.9924 3.21533 15 3.34075V13.1658C14.9791 13.6593 14.7594 14.1258 14.3869 14.4677C14.0145 14.8097 13.5181 15.0004 13.0019 15H3.90179C3.44207 14.9598 3.00831 14.7783 2.66547 14.4825C2.32263 14.1868 2.08915 13.7927 2 13.3594V2.74938C2.01884 2.49471 2.09163 2.24637 2.21395 2.01946C2.33627 1.79256 2.50556 1.59183 2.71152 1.4295C2.91748 1.26716 3.15581 1.14661 3.41201 1.07518C3.6682 1.00374 3.93691 0.982922 4.20178 1.01398H11.0025C11.2562 0.986414 11.5133 1.01096 11.7563 1.08598C11.9994 1.161 12.223 1.28476 12.4121 1.44901C12.6012 1.61325 12.7515 1.8142 12.853 2.03844C12.9544 2.26269 13.0047 2.50506 13.0005 2.74938V10.6254C13.0053 10.6899 12.9955 10.7546 12.9719 10.8151C12.9483 10.8757 12.9113 10.9306 12.8636 10.9763C12.8158 11.022 12.7584 11.0574 12.6951 11.08C12.6318 11.1026 12.5642 11.1119 12.4968 11.1074H4.10411C3.50274 11.1074 2.90136 11.4024 2.90136 11.8843V12.9642C2.90136 13.4461 3.60041 13.9281 4.20178 13.9281H12.9922C13.2523 13.9099 13.4967 13.8023 13.6803 13.6251C13.8639 13.448 13.9744 13.2132 13.9912 12.9642V3.31806C13.9864 3.2536 13.9962 3.18892 14.0198 3.12838C14.0435 3.06785 14.0804 3.01288 14.1282 2.96718C14.1759 2.92149 14.2334 2.88615 14.2966 2.86354ZM4.43619 12.0939H12.561C12.6946 12.0939 12.8227 12.1446 12.9172 12.235C13.0117 12.3254 13.0647 12.448 13.0647 12.5758C13.0647 12.7036 13.0117 12.8262 12.9172 12.9165C12.8227 13.0069 12.6946 13.0577 12.561 13.0577H4.43619C4.3026 13.0577 4.17448 13.0069 4.08002 12.9165C3.98556 12.8262 3.93249 12.7036 3.93249 12.5758C3.93249 12.448 3.98556 12.3254 4.08002 12.235C4.17448 12.1446 4.3026 12.0939 4.43619 12.0939ZM6.89687 1.52344H3.35876V8.27649L4.92431 7.15454L5.17889 6.97466L5.42736 7.16368L6.89687 8.26124V1.52344Z" fill="#5A5C60"/>
</svg>
