<svg width="16" height="16" viewBox="0 0 16 16" fill="none" xmlns="http://www.w3.org/2000/svg">
<path d="M14.2218 8.24617C14.6523 8.24617 15 8.58217 15 8.99633V12.7483C15 13.992 13.9558 15 12.6667 15H3.33333C2.04417 15 1 13.992 1 12.7483V8.99633C1 8.58217 1.34767 8.24617 1.77817 8.24617C2.2075 8.24617 2.55517 8.58217 2.55517 8.99633V12.7483C2.55517 13.1637 2.90283 13.4997 3.33333 13.4997H12.6667C12.7671 13.5015 12.867 13.4835 12.9605 13.4468C13.0539 13.41 13.1393 13.3552 13.2116 13.2854C13.2838 13.2156 13.3416 13.1322 13.3817 13.0401C13.4217 12.9479 13.4432 12.8488 13.4448 12.7483V8.99633C13.4448 8.58217 13.7925 8.24617 14.2218 8.24617ZM8 1C8.4305 1 8.77817 1.336 8.77817 1.75017V8.686L10.8163 6.719C10.9646 6.57757 11.1615 6.49867 11.3664 6.49867C11.5713 6.49867 11.7683 6.57757 11.9165 6.719C12.2198 7.01183 12.2198 7.48667 11.9165 7.78067L8.54833 11.0275C8.40004 11.1683 8.20334 11.2468 7.99883 11.2468C7.79433 11.2468 7.59763 11.1683 7.44933 11.0275L4.0835 7.7795C4.01159 7.71116 3.95434 7.62892 3.91521 7.53776C3.87609 7.44661 3.85591 7.34845 3.85591 7.24925C3.85591 7.15005 3.87609 7.05189 3.91521 6.96074C3.95434 6.86958 4.01159 6.78733 4.0835 6.719C4.23182 6.57749 4.42917 6.49888 4.63417 6.49967C4.83836 6.49949 5.03476 6.57805 5.1825 6.719L7.22183 8.686V1.75017C7.22183 1.336 7.5695 1 8 1Z" fill="#666666"/>
</svg>
