<svg width="16" height="16" viewBox="0 0 16 16" fill="none" xmlns="http://www.w3.org/2000/svg">
<path fill-rule="evenodd" clip-rule="evenodd" d="M9.47729 1.30763C9.9329 0.897458 10.6716 0.897457 11.1272 1.30763L13.2994 3.26319C13.755 3.67336 13.755 4.33837 13.2994 4.74854L5.34669 11.9081C5.16103 12.0752 4.91818 12.1811 4.6574 12.2086L2.30581 12.4564C1.57708 12.5333 0.951426 11.9926 1.0068 11.334L1.19255 9.12484C1.2136 8.8744 1.33365 8.63903 1.53093 8.46144L9.47729 1.30763ZM8.89739 3.81016L10.5196 5.27061L11.9245 4.00586L10.3023 2.54542L8.89739 3.81016ZM9.41969 6.26084L7.79745 4.8004L2.73279 9.35992L2.59353 11.0161L4.3423 10.8318L9.41969 6.26084ZM15 15L1 15V13.5996L15 13.5996V15Z" fill="#5A5C60"/>
</svg>
