<svg width="16" height="16" viewBox="0 0 16 16" fill="none" xmlns="http://www.w3.org/2000/svg">
<path d="M14.6405 11.0235V5.34985L11.6803 8.31093L14.6405 11.0226M9.64431 10.346C9.40534 10.5863 9.12108 10.7769 8.80798 10.9067C8.49488 11.0364 8.15915 11.1028 7.82023 11.102C7.13141 11.102 6.48269 10.8334 5.99528 10.346L4.4075 8.75735L1 11.8806V12.4038C1 13.0882 1.55629 13.6445 2.23988 13.6445H13.4006C14.0842 13.6445 14.6405 13.0882 14.6405 12.4046V11.864L11.2408 8.74951L9.64518 10.3451" fill="#5A5C60"/>
<path d="M13.4259 3H2.26517C1.58245 3 1.02703 3.55629 1.02703 4.23988V4.49885L6.46002 9.93358C6.83059 10.3033 7.32323 10.5073 7.84639 10.5073C8.37042 10.5073 8.86306 10.3033 9.23276 9.93358L14.6666 4.49885V4.23988C14.6666 3.55629 14.1086 3 13.4259 3ZM1 5.34985V11.0392L3.96805 8.31877L1 5.34985Z" fill="#5A5C60"/>
</svg>
