<svg width="16" height="16" viewBox="0 0 16 16" fill="none" xmlns="http://www.w3.org/2000/svg">
<g clip-path="url(#clip0_4386_11927)">
<path fill-rule="evenodd" clip-rule="evenodd" d="M14.8679 2.83774L12.8452 0.815094C12.4226 0.362264 11.5471 0 10.9132 0H4.09053C3.45657 0 2.94336 0.513208 2.94336 1.14717V3.44151H2.97355V1.02642L2.97363 1.02637V3.41133H3.8491V1.14718C3.8491 1.02643 3.93967 0.90567 4.09061 0.90567H10.9133C10.9736 0.90567 11.0642 0.90567 11.1548 0.935859V4.5585H14.7774C14.8076 4.64907 14.8076 5.1019 14.8076 5.16227V14.883C14.8076 15.0038 14.717 15.1245 14.5661 15.1245H4.09061C3.96986 15.1245 3.8491 15.034 3.8491 14.883V14.1283H2.97363V14.6416L2.97355 14.6415V14.8528C2.97355 15.4868 3.48676 16 4.12072 16H14.566C15.2 16 15.7132 15.4868 15.7132 14.8528V5.16226C15.683 4.5283 15.3207 3.29057 14.8679 2.83774ZM3.69816 0.633972L3.69682 0.634643L3.69808 0.633962H11.5773L11.5773 0.633972H3.69816ZM4.08838 15.5454L4.0906 15.5472H4.09053L4.08838 15.5454ZM12.0604 1.32837V1.32831C12.0627 1.32946 12.065 1.33065 12.0673 1.33188C12.117 1.35777 12.1464 1.38453 12.1933 1.43112C12.2001 1.43779 12.2062 1.44387 12.2114 1.44907L14.234 3.47171C14.2436 3.48128 14.2524 3.49009 14.2606 3.49838L14.2641 3.50189C14.2943 3.53208 14.3546 3.59246 14.3848 3.65284H12.0603V1.32831C12.0603 1.32833 12.0604 1.32835 12.0604 1.32837Z" fill="#5A5C60"/>
<path fill-rule="evenodd" clip-rule="evenodd" d="M13.6001 6.40002H9.85669V7.45663H13.6001V6.40002ZM13.6001 10.6566H9.85669V11.7132H13.6001V10.6566ZM13.6001 8.5434H9.85669V9.6H13.6001V8.5434Z" fill="#5A5C60"/>
<path d="M2.97366 4.49811H0.286865V13.0415H8.80007V4.49811H2.97366ZM5.72083 11.2L4.57366 9.47924L4.06045 10.2641H4.57366V11.2302H1.91705L2.97366 9.66037L3.81894 8.42264L2.97366 7.15471L2.12837 5.88679H3.54724L4.54347 7.36603L5.5397 5.88679H6.95856L5.268 8.42264L7.16988 11.2302H5.72083V11.2Z" fill="#5A5C60"/>
</g>
<defs>
<clipPath id="clip0_4386_11927">
<rect width="16" height="16" fill="white"/>
</clipPath>
</defs>
</svg>
