<svg width="16" height="16" viewBox="0 0 16 16" fill="none" xmlns="http://www.w3.org/2000/svg">
<path d="M1 8.00084V14.1929C1 14.6386 1.42331 15 1.94793 15H6.68394C7.20675 15 7.63186 14.6386 7.63186 14.1929C7.63186 13.7471 7.20855 13.3857 6.68394 13.3857H2.89585V2.61428H6.68575C7.20855 2.61428 7.63367 2.25292 7.63367 1.80714C7.63367 1.36136 7.21036 1 6.68575 1H1.94793C1.42512 1 1 1.36136 1 1.80714V8.00084ZM14.7033 7.4166C14.886 7.56519 15 7.77964 15 8.01773C15 8.25751 14.886 8.47027 14.7033 8.61886L11.7112 11.0403C11.552 11.1686 11.3404 11.248 11.1106 11.248C10.6149 11.248 10.2133 10.8849 10.2133 10.4392C10.2133 10.2011 10.3291 9.98661 10.5118 9.83971L11.7655 8.82487H6.32033C5.82465 8.82487 5.42305 8.46351 5.42305 8.01773C5.42305 7.57195 5.82465 7.21059 6.32033 7.21059H11.7619L10.5082 6.19575C10.3255 6.04885 10.2097 5.83271 10.2097 5.59462C10.2097 5.14884 10.6131 4.78748 11.107 4.78748C11.3385 4.78748 11.5484 4.86515 11.7076 4.99518L14.7033 7.4166Z" fill="#5A5C60"/>
</svg>
