<svg width="16" height="16" viewBox="0 0 16 16" fill="none" xmlns="http://www.w3.org/2000/svg">
<path d="M13.4369 2H2.56315C2.06351 2 1.8114 2.60623 2.16542 2.96026L6.5 7.29549V12.125C6.5 12.3085 6.58955 12.4805 6.73993 12.5858L8.61493 13.8979C8.98484 14.1568 9.5 13.8944 9.5 13.437V7.29549L13.8347 2.96026C14.188 2.60694 13.9376 2 13.4369 2Z" fill="#5A5C60"/>
<path d="M11.3595 7.41629H14.241C14.3056 7.40765 14.3714 7.41404 14.4332 7.43495C14.495 7.45585 14.5511 7.49072 14.5972 7.53685C14.6434 7.58297 14.6782 7.6391 14.6991 7.70088C14.72 7.76267 14.7264 7.82844 14.7178 7.89309C14.7264 7.95774 14.72 8.02352 14.6991 8.0853C14.6782 8.14709 14.6434 8.20322 14.5972 8.24934C14.5511 8.29546 14.495 8.33033 14.4332 8.35124C14.3714 8.37215 14.3056 8.37853 14.241 8.3699H11.3595C11.2949 8.37853 11.2291 8.37215 11.1673 8.35124C11.1055 8.33033 11.0494 8.29546 11.0033 8.24934C10.9571 8.20322 10.9223 8.14709 10.9014 8.0853C10.8804 8.02352 10.8741 7.95774 10.8827 7.89309C10.874 7.82814 10.8804 7.76204 10.9015 7.69998C10.9225 7.63793 10.9577 7.58159 11.0042 7.5354C11.0507 7.48922 11.1073 7.45442 11.1695 7.43376C11.2317 7.41309 11.2978 7.40711 11.3627 7.41629H11.3595Z" fill="#5F5F61"/>
<path d="M11.3595 9.65726H14.241C14.3056 9.64862 14.3714 9.65501 14.4332 9.67591C14.495 9.69682 14.5511 9.73169 14.5972 9.77781C14.6434 9.82393 14.6782 9.88007 14.6991 9.94185C14.72 10.0036 14.7264 10.0694 14.7178 10.1341C14.7264 10.1987 14.72 10.2645 14.6991 10.3263C14.6782 10.3881 14.6434 10.4442 14.5972 10.4903C14.5511 10.5364 14.495 10.5713 14.4332 10.5922C14.3714 10.6131 14.3056 10.6195 14.241 10.6109H11.3595C11.2949 10.6195 11.2291 10.6131 11.1673 10.5922C11.1055 10.5713 11.0494 10.5364 11.0033 10.4903C10.9571 10.4442 10.9223 10.3881 10.9014 10.3263C10.8804 10.2645 10.8741 10.1987 10.8827 10.1341C10.874 10.0691 10.8804 10.003 10.9015 9.94095C10.9225 9.87889 10.9577 9.82256 11.0042 9.77637C11.0507 9.73018 11.1073 9.69539 11.1695 9.67472C11.2317 9.65406 11.2978 9.64808 11.3627 9.65726H11.3595Z" fill="#5F5F61"/>
<path d="M11.3595 11.8975H14.241C14.3056 11.8889 14.3714 11.8952 14.4332 11.9161C14.495 11.9371 14.5511 11.9719 14.5972 12.018C14.6434 12.0642 14.6782 12.1203 14.6991 12.1821C14.72 12.2439 14.7264 12.3096 14.7178 12.3743C14.7264 12.4389 14.72 12.5047 14.6991 12.5665C14.6782 12.6283 14.6434 12.6844 14.5972 12.7305C14.5511 12.7767 14.495 12.8115 14.4332 12.8324C14.3714 12.8533 14.3056 12.8597 14.241 12.8511H11.3595C11.2949 12.8597 11.2291 12.8533 11.1673 12.8324C11.1055 12.8115 11.0494 12.7767 11.0033 12.7305C10.9571 12.6844 10.9223 12.6283 10.9014 12.5665C10.8804 12.5047 10.8741 12.4389 10.8827 12.3743C10.874 12.3093 10.8804 12.2432 10.9015 12.1812C10.9225 12.1191 10.9577 12.0628 11.0042 12.0166C11.0507 11.9704 11.1073 11.9356 11.1695 11.915C11.2317 11.8943 11.2978 11.8883 11.3627 11.8975H11.3595Z" fill="#5F5F61"/>
</svg>
