<svg width="16" height="16" viewBox="0 0 16 16" fill="none" xmlns="http://www.w3.org/2000/svg">
<path d="M14.3636 6.42106C14.5324 6.42106 14.6943 6.4876 14.8136 6.60605C14.933 6.72449 15 6.88514 15 7.05264V13.3684C15 13.5359 14.933 13.6966 14.8136 13.815C14.6943 13.9335 14.5324 14 14.3636 14H9.27272V6.42106H14.3636ZM6.72728 6.42106V14H1.63635C1.46758 14 1.30572 13.9335 1.18638 13.815C1.06704 13.6966 1 13.5359 1 13.3684V7.05264C1 6.88514 1.06704 6.72449 1.18638 6.60605C1.30572 6.4876 1.46758 6.42106 1.63635 6.42106H6.72728ZM3.54545 12.1053H2.27272V13.3684H3.54545V12.1053ZM5.45454 12.1053H4.18182V13.3684H5.45454V12.1053ZM11.8182 12.1053H10.5455V13.3684H11.8182V12.1053ZM13.7273 12.1053H12.4546V13.3684H13.7273V12.1053ZM8.00191 2L10.5455 5.1579H8.63637V12.1053H7.36363V5.1579H5.45454L8.00191 2ZM3.54545 7.05264H2.27272V8.31579H3.54545V7.05264ZM5.45454 7.05264H4.18182V8.31579H5.45454V7.05264ZM11.8182 7.05264H10.5455V8.31579H11.8182V7.05264ZM13.7273 7.05264H12.4546V8.31579H13.7273V7.05264Z" fill="#5A5C60"/>
</svg>
