<svg width="16" height="16" viewBox="0 0 16 16" fill="none" xmlns="http://www.w3.org/2000/svg">
<path d="M1.56127 14.9966H1.48628C1.37273 14.9811 1.26664 14.9312 1.18233 14.8535C1.09801 14.7757 1.03953 14.674 1.01477 14.5619L1.00909 14.4481V10.0262C1.00909 9.87712 1.06822 9.73415 1.17348 9.62873C1.27874 9.52331 1.4215 9.46408 1.57036 9.46408C1.71922 9.46408 1.86198 9.52331 1.96724 9.62873C2.0725 9.73415 2.13163 9.87712 2.13163 10.0262V13.0986L5.40951 9.81456C5.51498 9.70893 5.65802 9.64959 5.80717 9.64959C5.95633 9.64959 6.09937 9.70893 6.20484 9.81456C6.3103 9.92019 6.36955 10.0634 6.36955 10.2128C6.36955 10.3622 6.3103 10.5055 6.20484 10.6111L2.92469 13.8883H6.09236C6.22913 13.9112 6.35252 13.9842 6.43856 14.0931C6.5246 14.202 6.56715 14.339 6.55794 14.4776C6.54874 14.6162 6.48843 14.7464 6.38874 14.8429C6.28906 14.9395 6.1571 14.9954 6.0185 15L1.56127 14.9966ZM9.40091 14.4401C9.39908 14.2916 9.45601 14.1484 9.55926 14.0418C9.66251 13.9352 9.80369 13.8739 9.95196 13.8712H13.8491V10.0137C13.8514 9.86555 13.9114 9.72418 14.0162 9.61963C14.121 9.51508 14.2624 9.4556 14.4103 9.45384H14.4626C14.6023 9.46675 14.7322 9.53097 14.8275 9.63412C14.9227 9.73728 14.9765 9.87208 14.9784 10.0126V14.4276C14.9766 14.5773 14.916 14.7203 14.8096 14.8255C14.7033 14.9308 14.5598 14.9898 14.4103 14.9898H9.96218C9.81604 14.9898 9.67564 14.9328 9.57082 14.8308C9.46601 14.7288 9.40505 14.5899 9.40091 14.4436V14.4401ZM1.56127 6.54308C1.41374 6.54133 1.27267 6.48217 1.16791 6.37811C1.06316 6.27404 1.00294 6.13324 1 5.9855V1.56132C1.00209 1.41181 1.06286 1.26913 1.16918 1.16415C1.27549 1.05917 1.41879 1.00032 1.56809 1.00033H5.98328C6.13184 0.995203 6.27635 1.04939 6.38502 1.15096C6.49368 1.25254 6.55761 1.39319 6.56273 1.54198C6.56786 1.69076 6.51375 1.83549 6.41233 1.94432C6.31091 2.05316 6.17047 2.11718 6.02191 2.12231H2.12255V5.99119C2.1224 6.06486 2.10776 6.13778 2.07947 6.20579C2.05119 6.27379 2.0098 6.33555 1.95768 6.38754C1.90556 6.43952 1.84373 6.48072 1.77571 6.50878C1.7077 6.53683 1.63483 6.55119 1.56127 6.55104V6.54308ZM13.8502 5.98209V2.90974L10.5723 6.19602C10.5201 6.24832 10.4581 6.2898 10.3899 6.31811C10.3216 6.34641 10.2485 6.36098 10.1746 6.36098C10.1008 6.36098 10.0277 6.34641 9.95943 6.31811C9.8912 6.2898 9.82921 6.24832 9.77698 6.19602C9.72476 6.14371 9.68334 6.08162 9.65508 6.01329C9.62681 5.94495 9.61227 5.87171 9.61227 5.79775C9.61227 5.72378 9.62681 5.65054 9.65508 5.58221C9.68334 5.51387 9.72476 5.45178 9.77698 5.39948L13.056 2.12572H9.98831C9.91453 2.12804 9.84102 2.11578 9.77197 2.08964C9.70292 2.0635 9.63968 2.024 9.58587 1.97339C9.53207 1.92277 9.48874 1.86204 9.45837 1.79466C9.428 1.72727 9.41117 1.65456 9.40886 1.58067C9.40655 1.50677 9.41879 1.43315 9.44489 1.36399C9.47099 1.29483 9.51043 1.2315 9.56097 1.17761C9.61151 1.12373 9.67214 1.08033 9.73943 1.04992C9.80671 1.0195 9.87931 1.00265 9.95309 1.00033H14.483C14.5978 1.01674 14.7049 1.06795 14.7898 1.14708C14.8747 1.22621 14.9334 1.32947 14.958 1.44298V1.48963L15 1.59432L14.975 5.9855C14.9744 6.13419 14.915 6.27659 14.8098 6.38152C14.7046 6.48644 14.5622 6.54535 14.4137 6.54535C14.265 6.54478 14.1225 6.48582 14.0167 6.38115C13.9109 6.27647 13.8503 6.13442 13.8479 5.9855L13.8502 5.98209Z" fill="#5A5C60"/>
</svg>
