<svg t="1694157953576" class="icon" viewBox="0 0 1024 1024" version="1.1" xmlns="http://www.w3.org/2000/svg" p-id="4115" width="16" height="16">
<path d="M367.013743 619.015916h5.678434a40.912655 40.912655 0 0 1 34.536053 31.743379l0.418901 8.005662v323.996576a41.145378 41.145378 0 0 1-82.244211 0v-224.484339L85.186524 998.260867A41.098833 41.098833 0 1 1 27.005843 940.219819l240.216396-240.030217H34.918416a41.005744 41.005744 0 0 1 5.445711-81.406409h326.69616z" p-id="4116"></path>
<path d="M657.73097 0.020014a41.238467 41.238467 0 0 1 41.005744 41.005744v224.437795L938.813476 25.619514a41.098833 41.098833 0 1 1 58.227225 57.994503L756.824306 323.504601h224.623973a41.052289 41.052289 0 1 1 2.839217 82.058032h-332.095327a41.285011 41.285011 0 0 1-34.768775-32.581181v-3.118485l-3.118485-7.633305 2.14105-321.157359a41.098833 41.098833 0 0 1 41.098833-40.9592z" p-id="4117"></path>
<path d="M656.148455 1023.860366a41.098833 41.098833 0 0 1-1.349792-82.104577h285.038793v-282.385753a41.610823 41.610823 0 0 1 41.098833-40.959199h3.770108a41.471189 41.471189 0 0 1 37.468359 40.912654v323.438042a41.3781 41.3781 0 0 1-41.285012 41.098833zM40.922662 405.562633A41.145378 41.145378 0 0 1 0.010007 364.556889V41.025758A41.424645 41.424645 0 0 1 41.295018 0.020014h323.11223a41.098833 41.098833 0 0 1 31.417568 69.072105 40.726477 40.726477 0 0 1-28.57835 12.985928H82.021495v282.525387a41.098833 41.098833 0 0 1-41.052288 40.959199z" p-id="4118"></path>
</svg>