<svg width="24" height="24" viewBox="0 0 24 24" fill="none" xmlns="http://www.w3.org/2000/svg">
<path d="M5.97607 12.5009C5.97607 11.8839 6.08138 11.292 6.26771 10.7373L2.99645 8.29193C2.33921 9.5976 1.9979 11.0393 2.00001 12.5009C2.00001 14.0135 2.35808 15.4403 2.99483 16.7067L6.26447 14.2572C6.07382 13.6913 5.97642 13.0981 5.97607 12.5009Z" fill="#FBBC05"/>
<path d="M11.7214 6.88672C13.0905 6.88672 14.3276 7.36122 15.2997 8.13857L18.1278 5.37495C16.4047 3.9069 14.1955 3 11.7214 3C7.87985 3 4.57781 5.14984 2.99646 8.29161L6.26933 10.737C7.02274 8.49728 9.17118 6.88672 11.7214 6.88672Z" fill="#EA4335"/>
<path d="M11.7214 18.1133C9.17037 18.1133 7.02193 16.5027 6.26771 14.263L2.99646 16.7084C4.577 19.8502 7.87904 22 11.7214 22C14.0918 22 16.3553 21.1765 18.0549 19.6323L14.9489 17.2825C14.0732 17.8226 12.9698 18.1133 11.7206 18.1133" fill="#34A853"/>
<path d="M21.0005 12.4999C21.0005 11.9388 20.9114 11.3339 20.7793 10.7728H11.7206V14.4433H16.9345C16.6744 15.6951 15.9648 16.6571 14.9497 17.283L18.0549 19.6329C19.8396 18.0118 21.0005 15.5972 21.0005 12.4999Z" fill="#4285F4"/>
</svg>
