<svg t="1694155895247" class="icon" viewBox="0 0 1025 1024" version="1.1" xmlns="http://www.w3.org/2000/svg" p-id="31593" width="200" height="200">
<path d="M775.398263 5.024287H231.569403A230.11236 230.11236 0 0 0 5.024287 237.950248v372.651391a230.11236 230.11236 0 0 0 226.545116 232.92596h138.368873l133.545557 158.516265 133.545557-158.516265h138.368873a230.11236 230.11236 0 0 0 226.545116-232.92596V237.950248A230.062117 230.062117 0 0 0 775.398263 5.024287z m164.444924 605.527109a192.731662 192.731662 0 0 1-164.444924 169.067268h-179.819243l-92.095187 115.558609-92.095187-115.206908H231.569403a192.731662 192.731662 0 0 1-164.444924-169.067269V238.151219a192.731662 192.731662 0 0 1 164.444924-169.067268h543.728374a178.663657 178.663657 0 0 1 164.444925 169.067268v372.651391z" p-id="31594"></path><path d="M520.817624 212.024925a144.096561 144.096561 0 0 0-167.208282 125.958883l63.004563 15.072862q19.544478-86.769442 95.461459-86.869927a66.772779 66.772779 0 0 1 69.435651 65.315735q2.160444 43.460085-58.633433 86.869928a113.046465 113.046465 0 0 0-56.472989 101.94279v21.755164h58.633433v-17.384035a87.573328 87.573328 0 0 1 47.831215-78.17791 135.655758 135.655758 0 0 0 80.388597-121.637996 122.441882 122.441882 0 0 0-132.440214-112.845494z m-60.894362 382.298023h71.69658v69.435651H459.923262z" p-id="31595">
</path>
</svg>