<svg width="16" height="16" viewBox="0 0 16 16" fill="none" xmlns="http://www.w3.org/2000/svg">
<path fill-rule="evenodd" clip-rule="evenodd" d="M3.52 8.3125C3.52 9.03738 2.95588 9.625 2.26 9.625C1.56412 9.625 1 9.03738 1 8.3125C1 7.58763 1.56412 7 2.26 7C2.95588 7 3.52 7.58763 3.52 8.3125ZM8.98009 8.3125C8.98009 9.03738 8.41596 9.625 7.72008 9.625C7.0242 9.625 6.46008 9.03738 6.46008 8.3125C6.46008 7.58763 7.0242 7 7.72008 7C8.41596 7 8.98009 7.58763 8.98009 8.3125ZM13.1798 9.625C13.8757 9.625 14.4398 9.03738 14.4398 8.3125C14.4398 7.58763 13.8757 7 13.1798 7C12.4839 7 11.9198 7.58763 11.9198 8.3125C11.9198 9.03738 12.4839 9.625 13.1798 9.625Z" fill="#5F5F61"/>
</svg>
