<svg width="16" height="16" viewBox="0 0 16 16" fill="none" xmlns="http://www.w3.org/2000/svg">
<g clip-path="url(#clip0_5163_13366)">
<path d="M1.99886 0.666077C1.46839 0.666077 0.959637 0.876808 0.584533 1.25191C0.20943 1.62701 -0.00130081 2.13576 -0.00130081 2.66624V13.3338C-0.00130081 13.8643 0.20943 14.373 0.584533 14.7481C0.959637 15.1232 1.46839 15.3339 1.99886 15.3339H13.9998C14.5303 15.3339 15.0391 15.1232 15.4142 14.7481C15.7893 14.373 16 13.8643 16 13.3338V2.66624C16 2.13576 15.7893 1.62701 15.4142 1.25191C15.0391 0.876808 14.5303 0.666077 13.9998 0.666077L1.99886 0.666077ZM11.3996 7.76865L14.6666 11.5796V13.3338C14.6665 13.4971 14.6066 13.6547 14.4981 13.7767C14.3896 13.8988 14.24 13.9767 14.0778 13.9958L13.9998 14.0005H1.99886C1.88158 14.0008 1.76632 13.9699 1.66483 13.9112C1.70638 13.8879 1.74509 13.86 1.78018 13.8278L1.83818 13.7678L4.64841 10.3782L6.81192 13.0838C6.873 13.1603 6.95019 13.2224 7.03799 13.2657C7.12579 13.309 7.22205 13.3324 7.31994 13.3343C7.41782 13.3363 7.51492 13.3166 7.60434 13.2767C7.69376 13.2369 7.77331 13.1778 7.83734 13.1038L7.88734 13.0371L11.3996 7.76865ZM1.99886 1.99952H13.9998C14.1767 1.99952 14.3462 2.06976 14.4713 2.1948C14.5963 2.31983 14.6666 2.48941 14.6666 2.66624V9.5308L11.8397 6.23253C11.7771 6.15952 11.6995 6.10091 11.6122 6.0607C11.5249 6.02049 11.4299 5.99963 11.3338 5.99957C11.2376 5.99951 11.1426 6.02023 11.0553 6.06033C10.9679 6.10042 10.8902 6.15894 10.8276 6.23186L10.7782 6.29654L7.28396 11.5383L5.18645 8.91675C5.12949 8.84563 5.05854 8.78694 4.97801 8.74431C4.89747 8.70168 4.80905 8.67601 4.7182 8.66888C4.62736 8.66176 4.53602 8.67334 4.44982 8.7029C4.36362 8.73245 4.2844 8.77937 4.21704 8.84074L4.1597 8.89941L1.33214 12.2924V2.66624C1.33216 2.50294 1.39212 2.34532 1.50063 2.22329C1.60915 2.10126 1.75867 2.02329 1.92086 2.00419L1.99886 1.99952ZM4.66575 3.99968C4.31209 3.99968 3.97293 4.14017 3.72286 4.39024C3.47279 4.64031 3.3323 4.97947 3.3323 5.33312C3.3323 5.68677 3.47279 6.02594 3.72286 6.27601C3.97293 6.52608 4.31209 6.66657 4.66575 6.66657C5.0194 6.66657 5.35856 6.52608 5.60863 6.27601C5.8587 6.02594 5.99919 5.68677 5.99919 5.33312C5.99919 4.97947 5.8587 4.64031 5.60863 4.39024C5.35856 4.14017 5.0194 3.99968 4.66575 3.99968Z" fill="#5A5C60"/>
</g>
<defs>
<clipPath id="clip0_5163_13366">
<rect width="16" height="16" fill="white" transform="matrix(-1 0 0 1 16 0)"/>
</clipPath>
</defs>
</svg>
