<svg width="16" height="16" viewBox="0 0 16 16" fill="none" xmlns="http://www.w3.org/2000/svg">
<path fill-rule="evenodd" clip-rule="evenodd" d="M8 15C11.866 15 15 11.866 15 8C15 4.13401 11.866 1 8 1C4.13401 1 1 4.13401 1 8C1 11.866 4.13401 15 8 15ZM8.58329 3.91671C8.58329 4.23887 8.32213 4.50004 7.99996 4.50004C7.67779 4.50004 7.41663 4.23887 7.41663 3.91671C7.41663 3.59454 7.67779 3.33337 7.99996 3.33337C8.32213 3.33337 8.58329 3.59454 8.58329 3.91671ZM7.99996 5.66663C8.32213 5.66663 8.58329 5.92779 8.58329 6.24996V12.0833C8.58329 12.4055 8.32213 12.6666 7.99996 12.6666C7.67779 12.6666 7.41663 12.4055 7.41663 12.0833V6.24996C7.41663 5.92779 7.67779 5.66663 7.99996 5.66663Z" fill="#5A5C60"/>
</svg>
