<svg width="16" height="16" viewBox="0 0 16 16" fill="none" xmlns="http://www.w3.org/2000/svg">
<path d="M7.29988 11.5H8.69988V7.3H7.29988V11.5ZM7.99988 1C4.13588 1 0.999878 4.136 0.999878 8C0.999878 11.864 4.13588 15 7.99988 15C11.8639 15 14.9999 11.864 14.9999 8C14.9999 4.136 11.8639 1 7.99988 1ZM7.99988 13.6C4.91288 13.6 2.39988 11.087 2.39988 8C2.39988 4.913 4.91288 2.4 7.99988 2.4C11.0869 2.4 13.5999 4.913 13.5999 8C13.5999 11.087 11.0869 13.6 7.99988 13.6ZM7.29988 5.9H8.69988V4.5H7.29988V5.9Z" fill="#5A5C60"/>
</svg>
