<svg width="16" height="16" viewBox="0 0 16 16" fill="none" xmlns="http://www.w3.org/2000/svg">
<g id="json file" clip-path="url(#clip0_5372_29)">
<path id="Vector" d="M14.51 2.84L12.51 0.84C12.015 0.357534 11.3685 0.0608111 10.68 0L3.61997 0C3.32466 0.0078638 3.04442 0.132078 2.84027 0.345595C2.63612 0.559112 2.52459 0.844638 2.52997 1.14V6.64H3.64997V1.35C3.64862 1.32028 3.65331 1.29059 3.66376 1.26274C3.67421 1.23488 3.6902 1.20943 3.71076 1.18793C3.73133 1.16643 3.75604 1.14933 3.7834 1.13765C3.81077 1.12597 3.84022 1.11997 3.86997 1.12H10.66V4.76H14.15V14.65C14.15 14.7093 14.1272 14.7663 14.0862 14.8092C14.0452 14.8521 13.9892 14.8774 13.93 14.88H3.86997C3.81072 14.8774 3.75476 14.8521 3.71376 14.8092C3.67277 14.7663 3.64991 14.7093 3.64997 14.65V13H2.52997V14.86C2.52459 15.1554 2.63612 15.4409 2.84027 15.6544C3.04442 15.8679 3.32466 15.9921 3.61997 16H14.19C14.4853 15.9921 14.7655 15.8679 14.9697 15.6544C15.1738 15.4409 15.2854 15.1554 15.28 14.86V5.15C15.2535 4.32148 14.9859 3.51868 14.51 2.84ZM11.56 3.74V1.46L11.71 1.59L13.71 3.59C13.7552 3.63919 13.7954 3.69279 13.83 3.75L11.56 3.74ZM12.47 6.9H1.33997C1.17462 6.90262 1.01694 6.97016 0.900944 7.08802C0.78495 7.20589 0.71995 7.36463 0.719971 7.53V11.82C0.71995 11.9854 0.78495 12.1441 0.900944 12.262C1.01694 12.3798 1.17462 12.4474 1.33997 12.45H12.47C12.6353 12.4474 12.793 12.3798 12.909 12.262C13.025 12.1441 13.09 11.9854 13.09 11.82V7.53C13.09 7.36463 13.025 7.20589 12.909 7.08802C12.793 6.97016 12.6353 6.90262 12.47 6.9ZM7.99997 8.93C7.9239 8.92686 7.84814 8.9415 7.77871 8.97274C7.70927 9.00399 7.64808 9.05098 7.59997 9.11C7.49187 9.28346 7.43952 9.48588 7.44997 9.69C7.43227 9.89479 7.4852 10.0995 7.59997 10.27C7.64854 10.3311 7.71125 10.3794 7.7827 10.4107C7.85414 10.4421 7.93215 10.4556 8.00997 10.45C8.08933 10.4564 8.16906 10.4433 8.24224 10.412C8.31542 10.3806 8.37986 10.3319 8.42997 10.27C8.54631 10.0852 8.59899 9.8675 8.57997 9.65C8.59272 9.45358 8.5361 9.25893 8.41997 9.1C8.36646 9.04293 8.30118 8.99817 8.22866 8.96882C8.15615 8.93946 8.07811 8.92622 7.99997 8.93ZM3.45997 9.81C3.47006 10.0468 3.43963 10.2835 3.36997 10.51C3.30761 10.6761 3.19595 10.8192 3.04997 10.92C2.86064 11.035 2.64123 11.0907 2.41997 11.08C2.19017 11.1069 1.95727 11.0795 1.73997 11C1.59292 10.9322 1.4706 10.8204 1.38997 10.68C1.30459 10.5189 1.25352 10.3418 1.23997 10.16L1.99997 10C1.9856 10.0827 1.9856 10.1673 1.99997 10.25C2.01892 10.3054 2.05368 10.3541 2.09997 10.39C2.14511 10.4069 2.19483 10.4069 2.23997 10.39C2.27906 10.3917 2.31794 10.3834 2.35294 10.3659C2.38794 10.3484 2.41789 10.3223 2.43997 10.29C2.51097 10.2071 2.55921 10.1072 2.57997 10V8.35H3.40997V9.81H3.45997ZM6.15997 10.65C6.05797 10.7933 5.92 10.9071 5.75997 10.98C5.55236 11.058 5.33169 11.0953 5.10997 11.09C4.77162 11.1291 4.43123 11.036 4.15997 10.83C3.97865 10.6528 3.87142 10.4133 3.85997 10.16H4.64997C4.66453 10.2622 4.69847 10.3606 4.74997 10.45C4.79374 10.5082 4.85156 10.5543 4.91803 10.5841C4.98449 10.6138 5.05742 10.6262 5.12997 10.62C5.22659 10.626 5.32224 10.5977 5.39997 10.54C5.43102 10.5167 5.45622 10.4865 5.47358 10.4518C5.49093 10.4171 5.49997 10.3788 5.49997 10.34C5.50016 10.3039 5.49106 10.2684 5.47355 10.2369C5.45603 10.2054 5.43069 10.1789 5.39997 10.16C5.25925 10.068 5.0976 10.013 4.92997 10C4.64855 9.94976 4.382 9.83699 4.14997 9.67C4.00904 9.56256 3.91485 9.40501 3.88692 9.23001C3.859 9.05501 3.89948 8.87597 3.99997 8.73C4.08644 8.59784 4.21243 8.49635 4.35997 8.44C4.56993 8.3585 4.79529 8.32435 5.01997 8.34C5.2964 8.32262 5.57167 8.38882 5.80997 8.53C5.90117 8.60531 5.97644 8.69805 6.03138 8.80279C6.08632 8.90752 6.11984 9.02216 6.12997 9.14H5.34997C5.34281 9.03953 5.29605 8.94601 5.21997 8.88C5.15109 8.8489 5.07466 8.83847 4.99997 8.85C4.92176 8.84231 4.84345 8.86366 4.77997 8.91C4.75649 8.92697 4.73773 8.94965 4.72548 8.9759C4.71323 9.00216 4.70789 9.03111 4.70997 9.06C4.70759 9.08226 4.71206 9.10472 4.72278 9.12438C4.7335 9.14403 4.74996 9.15995 4.76997 9.17C4.85344 9.2263 4.94973 9.26069 5.04997 9.27C5.31808 9.32075 5.5797 9.40125 5.82997 9.51C5.96838 9.57737 6.08589 9.68106 6.16997 9.81C6.2468 9.92889 6.2852 10.0685 6.27997 10.21C6.26846 10.3671 6.21681 10.5186 6.12997 10.65H6.15997ZM9.23997 10.45C9.14185 10.6492 8.98472 10.8133 8.78997 10.92C8.56 11.0436 8.30076 11.1024 8.03997 11.09C7.78155 11.101 7.52429 11.0495 7.28997 10.94C7.08653 10.8406 6.91632 10.6843 6.79997 10.49C6.67276 10.2466 6.61074 9.97446 6.61997 9.7C6.60174 9.51336 6.62475 9.32499 6.68737 9.14822C6.74999 8.97145 6.85068 8.81059 6.98233 8.67704C7.11398 8.54348 7.27336 8.44048 7.44921 8.37533C7.62506 8.31018 7.81308 8.28446 7.99997 8.3C8.36718 8.28707 8.72527 8.41598 8.99997 8.66C9.12356 8.7943 9.21907 8.95194 9.28089 9.12367C9.34272 9.29539 9.3696 9.47774 9.35997 9.66C9.36489 9.9297 9.30667 10.1968 9.18997 10.44L9.23997 10.45ZM12.43 11.04H11.6L10.6 9.56V11H9.80997V8.35H10.59L11.59 9.84V8.35H12.37L12.43 11.04Z" fill="#5A5C60"/>
</g>
<defs>
<clipPath id="clip0_5372_29">
<rect width="16" height="16" fill="white"/>
</clipPath>
</defs>
</svg>
