<svg width="16" height="16" viewBox="0 0 16 16" fill="none" xmlns="http://www.w3.org/2000/svg">
<path d="M5.52246 15.0038C3.00699 15.0038 0.967773 12.9904 0.967773 10.5068C0.967773 8.0232 3.00684 6.00977 5.52246 6.00977C8.03809 6.00977 10.0771 8.0232 10.0771 10.5068C10.0771 12.9904 8.03793 15.0038 5.52246 15.0038ZM5.52246 13.2051C6.49887 13.2051 7.40105 12.6909 7.88918 11.856C8.3773 11.0212 8.3773 9.99258 7.88918 9.15773C7.40105 8.32289 6.49887 7.80867 5.52246 7.80867C4.01309 7.80867 2.78965 9.01664 2.78965 10.507C2.78965 11.9973 4.01309 13.2051 5.52246 13.2051Z" fill="#5A5C60"/>
<path d="M8.89913 7.8445C8.54022 8.17465 7.98085 8.16496 7.63397 7.82246C7.2871 7.47996 7.27725 6.92778 7.61163 6.5734L12.4701 1.77653C12.829 1.44637 13.3883 1.45606 13.7352 1.79856C14.0821 2.14106 14.0919 2.69325 13.7576 3.04762L8.89913 7.8445Z" fill="#5A5C60"/>
<path d="M10.0413 6.04605C9.70694 5.69168 9.71678 5.13949 10.0637 4.79699C10.4105 4.45449 10.9699 4.4448 11.3288 4.77496L13.1507 6.57371C13.4851 6.92808 13.4752 7.48027 13.1283 7.82277C12.7815 8.16527 12.2221 8.17496 11.8632 7.8448L10.0413 6.04605ZM15.0904 3.05402C15.4248 3.40839 15.4149 3.96058 15.068 4.30308C14.7212 4.64558 14.1618 4.65527 13.8029 4.32511L12.5883 3.12589C12.3446 2.90168 12.2443 2.56402 12.3268 2.24527C12.4093 1.92668 12.6613 1.67777 12.984 1.59636C13.3068 1.51496 13.6488 1.61402 13.8758 1.85464L15.0904 3.05402Z" fill="#5A5C60"/>
</svg>
