<svg width="16" height="16" viewBox="0 0 16 16" fill="none" xmlns="http://www.w3.org/2000/svg">
<g clip-path="url(#clip0_1737_9166)">
<path fill-rule="evenodd" clip-rule="evenodd" d="M3.02826 10.0931C2.48492 10.6364 2.51933 11.5517 3.10512 12.1375C3.69091 12.7233 4.60624 12.7577 5.14958 12.2144L8.10098 9.26298C8.64432 8.71964 8.60991 7.8043 8.02412 7.21852L9.00792 6.23472C10.1795 7.40629 10.2483 9.23696 9.16164 10.3236L6.21024 13.275C5.12357 14.3617 3.29289 14.2929 2.12132 13.1213C0.949747 11.9497 0.880925 10.1191 1.9676 9.0324L3.68925 7.31075L4.74991 8.37141L3.02826 10.0931ZM6.54842 8.69422C5.37685 7.52264 5.30803 5.69197 6.39471 4.60529L9.34611 1.65389C10.4328 0.567217 12.2635 0.636039 13.435 1.80761C14.6066 2.97918 14.6754 4.80986 13.5887 5.89653L11.8671 7.61819L10.8064 6.55753L12.5281 4.83587C13.0714 4.29254 13.037 3.3772 12.4512 2.79141C11.8654 2.20563 10.9501 2.17122 10.4068 2.71455L7.45537 5.66596C6.91203 6.20929 6.94644 7.12463 7.53223 7.71042L6.54842 8.69422Z" fill="#5A5C60"/>
</g>
<defs>
<clipPath id="clip0_1737_9166">
<rect width="16" height="16" fill="white"/>
</clipPath>
</defs>
</svg>
