<svg width="24" height="24" viewBox="0 0 24 24" fill="none" xmlns="http://www.w3.org/2000/svg">
<path d="M12 22C6.4775 22 2 17.5225 2 12C2 6.4775 6.4775 2 12 2C17.5225 2 22 6.4775 22 12C22 17.5225 17.5225 22 12 22ZM12 3.66667C7.39833 3.66667 3.66667 7.39833 3.66667 12C3.66667 16.6017 7.39833 20.3333 12 20.3333C16.6017 20.3333 20.3333 16.6017 20.3333 12C20.3333 7.39833 16.6017 3.66667 12 3.66667Z" fill="#5A5C60"/>
<path d="M8.57643 10.009L11.9998 10L15.4411 10.0262C15.6503 10.0262 15.8342 10.0359 15.8953 10.0762C16.0428 10.1734 16.0267 10.372 15.8953 10.4846L12.2528 13.9178C12.1834 13.9778 12.0907 14.0035 11.9995 13.9996C11.9083 14.0035 11.816 13.9778 11.7462 13.9178L8.10376 10.4846C7.97266 10.372 7.95835 10.1752 8.10376 10.0764C8.17141 10.0305 8.28915 10.009 8.57643 10.009Z" fill="#5A5C60"/>
</svg>
