<svg width="16" height="16" viewBox="0 0 16 16" fill="none" xmlns="http://www.w3.org/2000/svg">
<path fill-rule="evenodd" clip-rule="evenodd" d="M13.1424 11.9433L15 13.9038L13.9613 15L12.1037 13.0396C11.4531 13.5127 10.6638 13.7902 9.81397 13.7902C7.58289 13.7902 5.77424 11.8814 5.77424 9.52682C5.77424 7.16079 7.57209 5.26341 9.81397 5.26341C12.0559 5.26341 13.8537 7.16079 13.8537 9.52682C13.8537 10.4237 13.5907 11.2567 13.1424 11.9433ZM1 1L14.2209 1L14.2209 2.55033L1 2.55033L1 1ZM12.3847 9.52682C12.3847 8.01702 11.2446 6.81374 9.81397 6.81374C8.38339 6.81374 7.24323 8.01702 7.24323 9.52682C7.24323 11.0252 8.39419 12.2399 9.81397 12.2399C10.5241 12.2399 11.1657 11.9371 11.6318 11.4453C12.0978 10.9534 12.3847 10.2762 12.3847 9.52682ZM1 7.20132L4.67249 7.20132L4.67249 8.75165L1 8.75165L1 7.20132ZM1 13.4026L4.67249 13.4026L4.67249 14.953L1 14.953L1 13.4026Z" fill="#5A5C60"/>
</svg>
