<svg t="1697095085843" class="icon" viewBox="0 0 1024 1024" version="1.1" xmlns="http://www.w3.org/2000/svg" p-id="9431" width="16" height="16">
<path d="M507.725333 981.09240634v-161.360861c45.05335 0 85.529087-8.974531 126.125287-26.923593l63.002412 152.38633a544.675725 544.675725 0 0 1-189.127699 35.898124z m355.788954-152.38633l-117.090524-112.031057a259.297688 259.297688 0 0 0 67.519793-112.091289l153.109111 53.786954a510.042468 510.042468 0 0 1-103.598612 170.335392zM994.096723 465.62908034l-162.143874 8.974531c-4.45715-44.812423-13.491912-85.167696-36.018587-125.522969l144.13458-71.675784c31.501206 58.244103 49.510499 121.005588 54.027881 188.224222z m-175.635786-340.670784l-103.598612 125.522969a346.332569 346.332569 0 0 0-112.573143-62.761484l45.05335-156.903712c63.062643 22.406211 121.607905 53.786954 171.118405 94.142227zM440.20554 17.38438934l22.526675 161.421093c-45.05335 4.45715-85.589318 22.34598-121.668137 44.752191L255.595223 80.20610534c58.545262-31.380742 117.090524-53.786954 184.670549-62.761484zM111.460643 214.58314234l130.582436 94.142227a305.073819 305.073819 0 0 0-54.027881 116.548438L30.388706 389.43591534c18.069525-62.761485 45.05335-121.06582 81.071937-174.852773zM30.388706 595.60919934l157.626492-31.32051c9.034763 44.752191 26.983824 80.650315 49.5105 116.488206l-135.099818 94.142227C70.924674 721.07193734 43.880618 662.88806534 30.388706 595.60919934z m220.689136 313.807423l85.529086-139.014881c36.018587 22.406211 76.554556 35.898124 121.607906 44.872654l-22.526675 161.360861c-67.580025-9.034763-126.065055-31.380742-184.610317-67.278866z" p-id="9432"></path>
</svg>