<svg width="30" height="30" viewBox="0 0 30 30" fill="none" xmlns="http://www.w3.org/2000/svg">
<g clip-path="url(#clip0_4384_11925)">
<path d="M5.71876 5.718C7.24481 4.19043 9.12416 3.06295 11.1902 2.4355C13.2563 1.80806 15.4452 1.70003 17.563 2.12099C19.6808 2.54196 21.6621 3.47891 23.3311 4.8488C25.0001 6.21868 26.3054 7.97919 27.1313 9.97425C28.0696 12.2381 28.3491 14.721 27.9375 17.1368C27.6402 17.0367 27.3316 16.9737 27.0188 16.9493C26.7661 16.8956 26.5083 16.8704 26.25 16.8743H26.0813C26.1932 16.2555 26.2497 15.628 26.25 14.9993C26.2485 13.7208 26.0265 12.4522 25.5938 11.2493H21.1875C21.5645 13.1312 21.653 15.0595 21.45 16.968C20.7336 17.0982 20.0511 17.3725 19.4438 17.7743C19.6094 16.8586 19.691 15.9297 19.6875 14.9993C19.6811 13.7383 19.5428 12.4815 19.275 11.2493H10.725C10.4572 12.4815 10.3189 13.7383 10.3125 14.9993C10.3189 16.2602 10.4572 17.517 10.725 18.7493H18.3375C17.8369 19.2898 17.4539 19.9282 17.2125 20.6243H11.2313C11.735 22.119 12.4282 23.5431 13.2938 24.8618C13.18 25.3154 13.1234 25.7815 13.125 26.2493C13.1212 26.5137 13.1463 26.7778 13.2 27.0368C13.235 27.3758 13.3106 27.7094 13.425 28.0305C12.2409 27.8814 11.0811 27.5788 9.97501 27.1305C7.97995 26.3047 6.21944 24.9994 4.84956 23.3303C3.47967 21.6613 2.54272 19.6801 2.12176 17.5623C1.70079 15.4445 1.80882 13.2555 2.43627 11.1895C3.06371 9.12339 4.19119 7.24405 5.71876 5.718ZM8.81251 11.2493H4.40626C3.52501 13.6716 3.52501 16.3269 4.40626 18.7493H8.81251C8.32502 16.273 8.32502 13.7255 8.81251 11.2493ZM20.7188 9.37425H24.7313C23.314 6.93695 21.0422 5.11279 18.3563 4.2555C19.3876 5.8383 20.1834 7.56257 20.7188 9.37425ZM18.75 9.37425C18.0743 7.34368 17.0391 5.45109 15.6938 3.78675C15.4688 3.768 15.2438 3.74925 15 3.74925C14.7563 3.74925 14.5313 3.768 14.3063 3.78675C12.9541 5.44649 11.9182 7.34038 11.25 9.37425H18.75ZM11.6438 4.2555C8.95786 5.11279 6.68601 6.93695 5.26876 9.37425H9.28126C9.82099 7.5642 10.6165 5.84054 11.6438 4.2555ZM9.28126 20.6243H5.26876C6.68601 23.0616 8.95786 24.8857 11.6438 25.743C10.62 24.1561 9.82468 22.4329 9.28126 20.6243Z" fill="#5A5C60"/>
<path d="M26.25 26.25C26.25 25.2554 25.8549 24.3016 25.1517 23.5984C24.4484 22.8951 23.4946 22.5 22.5 22.5H18.75C17.7554 22.5 16.8016 22.8951 16.0983 23.5984C15.3951 24.3016 15 25.2554 15 26.25C15 27.2446 15.3951 28.1984 16.0983 28.9016C16.8016 29.6049 17.7554 30 18.75 30H22.5C23.4946 30 24.4484 29.6049 25.1517 28.9016C25.8549 28.1984 26.25 27.2446 26.25 26.25ZM22.5 24.375C22.9973 24.375 23.4742 24.5725 23.8258 24.9242C24.1775 25.2758 24.375 25.7527 24.375 26.25C24.375 26.7473 24.1775 27.2242 23.8258 27.5758C23.4742 27.9275 22.9973 28.125 22.5 28.125H18.75C18.2527 28.125 17.7758 27.9275 17.4242 27.5758C17.0725 27.2242 16.875 26.7473 16.875 26.25C16.875 25.7527 17.0725 25.2758 17.4242 24.9242C17.7758 24.5725 18.2527 24.375 18.75 24.375H22.5Z" fill="#5A5C60"/>
<path d="M22.5 18.75H26.25C27.2446 18.75 28.1984 19.1451 28.9017 19.8484C29.6049 20.5516 30 21.5054 30 22.5C30 23.4946 29.6049 24.4484 28.9017 25.1516C28.1984 25.8549 27.2446 26.25 26.25 26.25C26.2508 25.5914 26.0768 24.9443 25.7456 24.375H26.25C26.7473 24.375 27.2242 24.1775 27.5758 23.8258C27.9275 23.4742 28.125 22.9973 28.125 22.5C28.125 22.0027 27.9275 21.5258 27.5758 21.1742C27.2242 20.8225 26.7473 20.625 26.25 20.625H22.5C22.0027 20.625 21.5258 20.8225 21.1742 21.1742C20.8225 21.5258 20.625 22.0027 20.625 22.5C20.625 22.9973 20.8225 23.4742 21.1742 23.8258C21.5258 24.1775 22.0027 24.375 22.5 24.375C22.9973 24.375 23.4742 24.5725 23.8258 24.9242C24.1775 25.2758 24.375 25.7527 24.375 26.25H22.5C21.5054 26.25 20.5516 25.8549 19.8483 25.1516C19.1451 24.4484 18.75 23.4946 18.75 22.5C18.75 21.5054 19.1451 20.5516 19.8483 19.8484C20.5516 19.1451 21.5054 18.75 22.5 18.75Z" fill="#5A5C60"/>
</g>
<defs>
<clipPath id="clip0_4384_11925">
<rect width="30" height="30" fill="white" transform="matrix(-1 0 0 1 30 0)"/>
</clipPath>
</defs>
</svg>
