<svg width="16" height="16" viewBox="0 0 16 16" fill="none" xmlns="http://www.w3.org/2000/svg">
<path fill-rule="evenodd" clip-rule="evenodd" d="M12.0714 6.425H12.7143C13.4241 6.425 14 7.01289 14 7.7375V13.6875C14 14.4121 13.4241 15 12.7143 15H3.28571C2.57589 15 2 14.4121 2 13.6875V7.7375C2 7.01289 2.57589 6.425 3.28571 6.425H3.92857V5.15625C3.92857 2.86484 5.75536 1 8 1C10.2446 1 12.0714 2.86484 12.0714 5.15625V6.425ZM6.07143 5.15625V6.425H9.92857V5.15625C9.92857 4.0707 9.06339 3.1875 8 3.1875C6.93661 3.1875 6.07143 4.0707 6.07143 5.15625ZM7.45144 9.26C7.45144 8.95072 7.69704 8.7 8.00001 8.7C8.30298 8.7 8.54858 8.95072 8.54858 9.26V10.2616C8.83701 10.4476 9.02857 10.776 9.02857 11.15C9.02857 11.7299 8.56806 12.2 8 12.2C7.43194 12.2 6.97143 11.7299 6.97143 11.15C6.97143 10.776 7.163 10.4476 7.45144 10.2616V9.26Z" fill="#5A5C60"/>
</svg>
