<svg width="16" height="16" viewBox="0 0 16 16" fill="none" xmlns="http://www.w3.org/2000/svg">
<g clip-path="url(#clip0_1737_8916)">
<path fill-rule="evenodd" clip-rule="evenodd" d="M2.28571 0H3.04761V1.52381H2.28571C1.86493 1.52381 1.52381 1.86493 1.52381 2.28571V13.7143C1.52381 14.1351 1.86493 14.4762 2.28571 14.4762H3.04761V16H2.28571C1.02335 16 0 14.9767 0 13.7143V2.28571C0 1.02335 1.02335 0 2.28571 0ZM13.7143 14.4762H12.9524V16H13.7143C14.9767 16 16 14.9767 16 13.7143V2.28571C16 1.02335 14.9767 0 13.7143 0H12.9524V1.52381H13.7143C14.1351 1.52381 14.4762 1.86493 14.4762 2.28571V13.7143C14.4762 14.1351 14.1351 14.4762 13.7143 14.4762ZM5.33332 3.04762H3.04761V12.9524H5.33332V3.04762ZM9.14289 3.04762H6.85718V12.9524H9.14289V3.04762ZM10.6666 3.04762H12.9523V12.9524H10.6666V3.04762Z" fill="#5A5C60"/>
</g>
<defs>
<clipPath id="clip0_1737_8916">
<rect width="16" height="16" fill="white"/>
</clipPath>
</defs>
</svg>
