<svg width="16" height="16" viewBox="0 0 16 16" fill="none" xmlns="http://www.w3.org/2000/svg">
<path d="M12.5443 15H2.95992C1.88052 15 1.00024 14.2109 1.00024 13.2413V4.76055C1.00024 3.79094 1.87866 3.00186 2.95992 3.00186H3.44007C3.76575 3.00186 4.03002 3.26613 4.03002 3.59181C4.03002 3.91749 3.76575 4.18176 3.44007 4.18176H2.95992C2.53747 4.18176 2.18015 4.44789 2.18015 4.76241V13.2413C2.18015 13.5558 2.53747 13.822 2.95992 13.822H12.5461C12.9686 13.822 13.3259 13.5558 13.3259 13.2413V4.76055C13.3259 4.44603 12.9686 4.1799 12.5461 4.1799H12.0846C11.7589 4.1799 11.4947 3.91563 11.4947 3.58995C11.4947 3.26427 11.7589 3 12.0846 3H12.5461C13.6256 3 14.504 3.78908 14.504 4.75868V13.2376C14.504 14.2109 13.6256 15 12.5443 15Z" fill="#5A5C60"/>
<path d="M10.8911 9.00027H4.61571C4.29002 9.00027 4.02576 8.73601 4.02576 8.41032C4.02576 8.08464 4.29002 7.82037 4.61571 7.82037H10.893C11.2187 7.82037 11.483 8.08464 11.483 8.41032C11.483 8.73601 11.2168 9.00027 10.8911 9.00027ZM10.8911 11.9705H4.61571C4.29002 11.9705 4.02576 11.7062 4.02576 11.3805C4.02576 11.0549 4.29002 10.7906 4.61571 10.7906H10.893C11.2187 10.7906 11.483 11.0549 11.483 11.3805C11.483 11.7062 11.2168 11.9705 10.8911 11.9705Z" fill="#5A5C60"/>
<path d="M7.99999 1C6.34312 1 5 2.34312 5 4C5 5.65689 6.34312 7 8 7C9.65688 7 11 5.65689 11 4C11 2.34312 9.65687 1 7.99999 1ZM8.00476 6.1C7.77339 6.1 7.58582 5.92452 7.58582 5.70801C7.58582 5.49152 7.77339 5.31602 8.00476 5.31602C8.23621 5.31602 8.42377 5.49152 8.42377 5.70801C8.42377 5.92452 8.2362 6.1 8.00476 6.1ZM8.75601 2.83267L8.42312 4.68599C8.42312 4.68804 8.42377 4.68994 8.42377 4.69199C8.42377 4.9085 8.2362 5.08398 8.00476 5.08398C7.77339 5.08398 7.58581 4.9085 7.58581 4.69199C7.58581 4.68994 7.5864 4.68803 7.58647 4.68599L7.2535 2.83267H7.2582C7.25526 2.80719 7.2535 2.78155 7.2535 2.75547C7.2535 2.36583 7.58984 2.05 8.00476 2.05C8.41968 2.05 8.756 2.36583 8.756 2.75547C8.756 2.78156 8.75424 2.80719 8.75131 2.83267H8.75601Z" fill="#5A5C60"/>
</svg>
