<svg width="16" height="16" viewBox="0 0 16 16" fill="none" xmlns="http://www.w3.org/2000/svg">
<g clip-path="url(#clip0_5168_13492)">
<path d="M2.66667 8C2.66592 8.22628 2.72312 8.44898 2.83282 8.64689C2.94251 8.8448 3.10105 9.01133 3.29333 9.13063L13.96 15.796C14.1618 15.9222 14.3937 15.992 14.6317 15.9983C14.8696 16.0045 15.1048 15.947 15.313 15.8316C15.5212 15.7162 15.6947 15.5472 15.8155 15.3421C15.9363 15.1371 16 14.9034 16 14.6654V1.33458C16 1.09658 15.9363 0.862917 15.8155 0.657852C15.6947 0.452787 15.5212 0.283795 15.313 0.168422C15.1048 0.0530487 14.8696 -0.00450082 14.6317 0.00174809C14.3937 0.00799699 14.1618 0.0778165 13.96 0.203958L3.29333 6.86938C3.10105 6.98867 2.94251 7.1552 2.83282 7.35311C2.72312 7.55102 2.66592 7.77372 2.66667 8ZM0 15.3333V0.666667C0 0.489856 0.0702372 0.320287 0.195261 0.195262C0.320286 0.070238 0.489855 0 0.666666 0C0.843477 0 1.01305 0.070238 1.13807 0.195262C1.2631 0.320287 1.33333 0.489856 1.33333 0.666667V15.3333C1.33333 15.5101 1.2631 15.6797 1.13807 15.8047C1.01305 15.9298 0.843477 16 0.666666 16C0.489855 16 0.320286 15.9298 0.195261 15.8047C0.0702372 15.6797 0 15.5101 0 15.3333Z" fill="#5A5C60"/>
</g>
<defs>
<clipPath id="clip0_5168_13492">
<rect width="16" height="16" fill="white" transform="matrix(-1 0 0 1 16 0)"/>
</clipPath>
</defs>
</svg>
