<svg width="16" height="16" viewBox="0 0 16 16" fill="none" xmlns="http://www.w3.org/2000/svg">
<path fill-rule="evenodd" clip-rule="evenodd" d="M3.73339 15.9111C2.66672 15.9111 1.77783 15.1111 1.77783 14.0445V2.75558C1.77783 1.7778 2.66672 0.888916 3.73339 0.888916H8.4445C8.88894 0.888916 9.42228 1.06669 9.77783 1.33336L14.0445 4.80003C14.4889 5.15558 14.7556 5.68892 14.7556 6.22225V14.0445C14.7556 15.1111 13.8667 15.9111 12.8001 15.9111H3.73339ZM3.73339 1.86669C3.20005 1.86669 2.75561 2.31114 2.75561 2.75558V14.0445C2.75561 14.5778 3.20005 14.9334 3.73339 14.9334H12.7112C13.2445 14.9334 13.6889 14.4889 13.6889 14.0445V6.22225C13.6889 5.95558 13.6001 5.68892 13.3334 5.51114L9.06672 2.04447C8.88894 1.95558 8.71117 1.86669 8.4445 1.86669H3.73339Z" fill="#5A5C60"/>
<path fill-rule="evenodd" clip-rule="evenodd" d="M10.489 6.04515C9.42234 6.04515 8.53345 5.15626 8.53345 4.17849V1.60071H9.51123V4.17849C9.51123 4.71182 9.95567 5.06737 10.489 5.06737H13.9557V6.04515H10.489Z" fill="#5A5C60"/>
<path d="M8.71118 6.84375H7.7334V10.666H8.71118V6.84375Z" fill="#5A5C60"/>
<path d="M8.71118 12.1771H7.7334V13.5104H8.71118V12.1771Z" fill="#5A5C60"/>
</svg>
