<svg width="16" height="16" viewBox="0 0 16 16" fill="none" xmlns="http://www.w3.org/2000/svg">
<path d="M1.875 13C1.7601 13 1.64632 13.0259 1.54016 13.0761C1.43399 13.1264 1.33753 13.2 1.25628 13.2929C1.17503 13.3857 1.11058 13.496 1.06661 13.6173C1.02263 13.7386 1 13.8687 1 14C1 14.1313 1.02263 14.2614 1.06661 14.3827C1.11058 14.504 1.17503 14.6142 1.25628 14.7071C1.33753 14.8 1.43399 14.8736 1.54016 14.9239C1.64632 14.9741 1.7601 15 1.875 15H14.125C14.3571 15 14.5796 14.8946 14.7437 14.7071C14.9078 14.5196 15 14.2652 15 14C15 13.7348 14.9078 13.4804 14.7437 13.2929C14.5796 13.1053 14.3571 13 14.125 13H1.875ZM1.79625 5.54499C1.71653 5.49002 1.62545 5.46026 1.53234 5.45877C1.43924 5.45729 1.34747 5.48413 1.26643 5.53654C1.1854 5.58896 1.11802 5.66506 1.0712 5.75705C1.02439 5.84903 0.999819 5.9536 1.00002 6.06001V9.93999C0.999819 10.0464 1.02439 10.151 1.0712 10.243C1.11802 10.3349 1.1854 10.411 1.26643 10.4635C1.34747 10.5159 1.43924 10.5427 1.53234 10.5412C1.62545 10.5397 1.71653 10.51 1.79625 10.455L4.62426 8.51499C4.7022 8.46174 4.76672 8.3863 4.81152 8.29604C4.85632 8.20578 4.87987 8.10377 4.87987 8C4.87987 7.89622 4.85632 7.79423 4.81152 7.70396C4.76672 7.6137 4.7022 7.53826 4.62426 7.48501L1.79625 5.54499ZM8 6.99999C7.76793 6.99999 7.54537 7.10535 7.38128 7.29289C7.21718 7.48043 7.125 7.73478 7.125 8C7.125 8.26522 7.21718 8.51957 7.38128 8.70711C7.54537 8.89465 7.76793 9.00001 8 9.00001H14.125C14.3571 9.00001 14.5796 8.89465 14.7437 8.70711C14.9078 8.51957 15 8.26522 15 8C15 7.73478 14.9078 7.48043 14.7437 7.29289C14.5796 7.10535 14.3571 6.99999 14.125 6.99999H8ZM1.875 1C1.64294 1 1.42038 1.10536 1.25628 1.2929C1.09219 1.48043 1 1.73479 1 2.00001C1 2.26523 1.09219 2.51958 1.25628 2.70712C1.42038 2.89466 1.64294 3.00001 1.875 3.00001H14.125C14.3571 3.00001 14.5796 2.89466 14.7437 2.70712C14.9078 2.51958 15 2.26523 15 2.00001C15 1.73479 14.9078 1.48043 14.7437 1.2929C14.5796 1.10536 14.3571 1 14.125 1H1.875Z" fill="#5F5F61"/>
</svg>
