<svg width="16" height="16" viewBox="0 0 16 16" fill="none" xmlns="http://www.w3.org/2000/svg">
<path d="M6.03125 10.842V14.1239C6.03125 14.4366 5.86444 14.7255 5.59354 14.8818C5.3228 15.0381 4.98916 15.0381 4.71845 14.8818C4.44773 14.7255 4.2809 14.4366 4.2809 14.1239V10.842C4.2809 10.5293 4.44771 10.2404 4.71845 10.0841C4.98919 9.92769 5.32283 9.92769 5.59354 10.0841C5.86444 10.2404 6.03125 10.5293 6.03125 10.842Z" fill="#5A5C60"/>
<path d="M1.87477 14.999C1.64264 14.999 1.42011 14.9069 1.25589 14.7428C1.09183 14.5786 0.999647 14.3561 0.999647 14.1239V10.842C0.999647 10.5293 1.16646 10.2404 1.4372 10.0841C1.70794 9.92769 2.04158 9.92769 2.31229 10.0841C2.58319 10.2404 2.75 10.5293 2.75 10.842V14.1239C2.75 14.3561 2.65767 14.5786 2.4936 14.7428C2.32954 14.9069 2.10687 14.999 1.87473 14.999H1.87477Z" fill="#5A5C60"/>
<path d="M8.65572 4.93389V7.55938H10.6248C10.9375 7.55938 11.2264 7.72619 11.3827 7.99692C11.5391 8.26767 11.5391 8.6013 11.3827 8.87202C11.2264 9.14292 10.9375 9.30973 10.6248 9.30973H8.43685C8.03071 9.30973 7.6411 9.14826 7.35386 8.86104C7.06663 8.57381 6.90533 8.18434 6.90533 7.77805V4.93385C6.90533 4.62113 7.07214 4.33224 7.34288 4.1758C7.61362 4.01952 7.94726 4.01952 8.21813 4.1758C8.48888 4.33224 8.65568 4.62113 8.65568 4.93385L8.65572 4.93389Z" fill="#5A5C60"/>
<path d="M2.76542 7.62071C2.7436 7.93343 2.55649 8.2106 2.27474 8.34809C1.99301 8.48544 1.65938 8.46209 1.39964 8.28673C1.13973 8.11153 0.993232 7.81086 1.01504 7.49814C1.14538 5.68961 1.97242 4.00212 3.32187 2.79094C4.67132 1.57976 6.43804 0.939358 8.25021 1.00453C10.0624 1.0697 11.7785 1.8354 13.0375 3.14043C14.2965 4.44545 14.9999 6.18791 15 8.00117C15 9.81442 14.2966 11.557 13.0378 12.8619C11.779 14.1669 10.0629 14.9328 8.25087 14.9981H8.22035C7.90763 15.0036 7.61581 14.8418 7.45465 14.5739C7.29363 14.3059 7.28783 13.9723 7.43938 13.6988C7.59093 13.4251 7.87693 13.2533 8.18965 13.2478C9.54903 13.1995 10.8367 12.6257 11.7814 11.6471C12.7261 10.6683 13.2541 9.36132 13.2545 8.00105C13.2546 6.64078 12.727 5.3336 11.7828 4.35454C10.8383 3.37547 9.55102 2.80118 8.19164 2.75234C6.83227 2.70365 5.50692 3.18426 4.49492 4.09308C3.48292 5.00193 2.86296 6.26805 2.76575 7.62484L2.76542 7.62071Z" fill="#5A5C60"/>
</svg>
