<svg width="16" height="16" viewBox="0 0 16 16" fill="none" xmlns="http://www.w3.org/2000/svg">
<path d="M13.7562 13.7265C14.2492 12.8003 13.9761 12.0889 13.1031 11.3771C12.0768 10.5404 11.0739 9.97756 10.3527 10.8791C10.3527 10.8791 9.58739 11.8627 7.3352 9.56104C4.71628 6.8659 5.81542 5.91003 5.81542 5.91003C6.72626 4.92145 6.14727 4.18396 5.38336 3.06703C4.61951 1.95011 3.84789 1.59659 2.74013 2.5572C0.605458 4.4084 3.61547 8.75507 5.13734 10.4452L5.13728 10.4453C5.13728 10.4453 7.45152 13.0296 8.90783 13.8899L9.68689 14.3602C10.8043 14.9792 12.0594 15.2626 12.943 14.6878C12.943 14.6878 13.3689 14.4513 13.7562 13.7265Z" fill="#5A5C60"/>
</svg>
