<svg width="32" height="32" viewBox="0 0 32 32" fill="none" xmlns="http://www.w3.org/2000/svg">
<path d="M25.6097 18.2776L10.7243 27.3736C10.3201 27.6206 9.85745 27.7556 9.38384 27.7645C8.91023 27.7734 8.44279 27.656 8.0296 27.4243C7.61641 27.1927 7.27238 26.8552 7.03289 26.4465C6.79341 26.0378 6.66711 25.5726 6.66699 25.0989V6.90428C6.66711 6.43058 6.79341 5.96547 7.03289 5.55677C7.27238 5.14807 7.61641 4.81054 8.0296 4.57889C8.44279 4.34724 8.91023 4.22984 9.38384 4.23875C9.85745 4.24767 10.3201 4.38258 10.7243 4.62961L25.6097 13.7256C25.9997 13.9638 26.322 14.2981 26.5457 14.6967C26.7693 15.0953 26.8867 15.5446 26.8867 16.0016C26.8867 16.4586 26.7693 16.908 26.5457 17.3065C26.322 17.7051 25.9997 18.0395 25.6097 18.2776Z" fill="#5A5C60"/>
</svg>
