<svg width="16" height="16" viewBox="0 0 16 16" fill="none" xmlns="http://www.w3.org/2000/svg">
<g clip-path="url(#clip0_5168_13496)">
<path d="M13.3333 8C13.3341 8.22628 13.2769 8.44898 13.1672 8.64689C13.0575 8.8448 12.8989 9.01133 12.7067 9.13063L2.04 15.796C1.83817 15.9222 1.60626 15.992 1.36834 15.9983C1.13042 16.0045 0.895162 15.947 0.686993 15.8316C0.478823 15.7162 0.30533 15.5472 0.184525 15.3421C0.0637201 15.1371 6.87621e-06 14.9034 0 14.6654V1.33458C6.87621e-06 1.09658 0.0637201 0.862917 0.184525 0.657852C0.30533 0.452787 0.478823 0.283795 0.686993 0.168422C0.895162 0.0530487 1.13042 -0.00450082 1.36834 0.00174809C1.60626 0.00799699 1.83817 0.0778165 2.04 0.203958L12.7067 6.86938C12.8989 6.98867 13.0575 7.1552 13.1672 7.35311C13.2769 7.55102 13.3341 7.77372 13.3333 8ZM16 15.3333V0.666667C16 0.489856 15.9298 0.320287 15.8047 0.195262C15.6797 0.070238 15.5101 0 15.3333 0C15.1565 0 14.987 0.070238 14.8619 0.195262C14.7369 0.320287 14.6667 0.489856 14.6667 0.666667V15.3333C14.6667 15.5101 14.7369 15.6797 14.8619 15.8047C14.987 15.9298 15.1565 16 15.3333 16C15.5101 16 15.6797 15.9298 15.8047 15.8047C15.9298 15.6797 16 15.5101 16 15.3333Z" fill="#5A5C60"/>
</g>
<defs>
<clipPath id="clip0_5168_13496">
<rect width="16" height="16" fill="white"/>
</clipPath>
</defs>
</svg>
