<svg width="16" height="16" viewBox="0 0 16 16" fill="none" xmlns="http://www.w3.org/2000/svg">
<path d="M14.125 13C14.2399 13 14.3537 13.0259 14.4598 13.0761C14.566 13.1264 14.6625 13.2 14.7437 13.2929C14.825 13.3857 14.8894 13.496 14.9334 13.6173C14.9774 13.7386 15 13.8687 15 14C15 14.1313 14.9774 14.2614 14.9334 14.3827C14.8894 14.504 14.825 14.6142 14.7437 14.7071C14.6625 14.8 14.566 14.8736 14.4598 14.9239C14.3537 14.9741 14.2399 15 14.125 15H1.87501C1.64294 15 1.42038 14.8946 1.25628 14.7071C1.09219 14.5196 1 14.2652 1 14C1 13.7348 1.09219 13.4804 1.25628 13.2929C1.42038 13.1053 1.64294 13 1.87501 13H14.125ZM14.2037 5.54499C14.2835 5.49002 14.3746 5.46026 14.4677 5.45877C14.5608 5.45729 14.6525 5.48413 14.7336 5.53654C14.8146 5.58896 14.882 5.66506 14.9288 5.75705C14.9756 5.84903 15.0002 5.9536 15 6.06001V9.93999C15.0002 10.0464 14.9756 10.151 14.9288 10.243C14.882 10.3349 14.8146 10.411 14.7336 10.4635C14.6525 10.5159 14.5608 10.5427 14.4677 10.5412C14.3746 10.5397 14.2835 10.51 14.2037 10.455L11.3757 8.51499C11.2978 8.46174 11.2333 8.3863 11.1885 8.29604C11.1437 8.20578 11.1201 8.10377 11.1201 8C11.1201 7.89622 11.1437 7.79423 11.1885 7.70396C11.2333 7.6137 11.2978 7.53826 11.3757 7.48501L14.2037 5.54499ZM8 6.99999C8.23207 6.99999 8.45463 7.10535 8.61872 7.29289C8.78282 7.48043 8.875 7.73478 8.875 8C8.875 8.26522 8.78282 8.51957 8.61872 8.70711C8.45463 8.89465 8.23207 9.00001 8 9.00001H1.87501C1.64294 9.00001 1.42038 8.89465 1.25628 8.70711C1.09219 8.51957 1 8.26522 1 8C1 7.73478 1.09219 7.48043 1.25628 7.29289C1.42038 7.10535 1.64294 6.99999 1.87501 6.99999H8ZM14.125 1C14.3571 1 14.5796 1.10536 14.7437 1.2929C14.9078 1.48043 15 1.73479 15 2.00001C15 2.26523 14.9078 2.51958 14.7437 2.70712C14.5796 2.89466 14.3571 3.00001 14.125 3.00001H1.87501C1.64294 3.00001 1.42038 2.89466 1.25628 2.70712C1.09219 2.51958 1 2.26523 1 2.00001C1 1.73479 1.09219 1.48043 1.25628 1.2929C1.42038 1.10536 1.64294 1 1.87501 1H14.125Z" fill="#5F5F61"/>
</svg>
