<svg width="16" height="16" viewBox="0 0 16 16" fill="none" xmlns="http://www.w3.org/2000/svg">
<path d="M7.51551 15C6.98325 15 6.45131 14.8653 5.97681 14.5952L2.66586 12.713C1.63833 12.1285 1 11.0136 1 9.8038L1 4.22297C1 3.33205 1.60025 2.54547 2.45969 2.3105L6.99993 1.06893C7.33767 0.977023 7.6935 0.977023 8.03061 1.06893L12.5708 2.3105C13.4306 2.54531 14.031 3.33173 14.031 4.22297L14.031 9.8038C14.031 11.0136 13.3928 12.1285 12.3652 12.713L12.3648 12.713L9.05389 14.5952C8.57939 14.8653 8.04745 15 7.51551 15ZM7.51551 2.40005C7.46625 2.40005 7.41699 2.4065 7.36883 2.41972L2.82906 3.66097C2.57678 3.73006 2.40036 3.96109 2.40036 4.22297L2.40036 9.8038C2.40036 10.5114 2.76753 11.1599 3.35817 11.4959L6.66912 13.3782C7.19146 13.6749 7.83971 13.6749 8.36205 13.3782L11.673 11.4959C12.2638 11.1596 12.6308 10.5111 12.6308 9.8038L12.6308 4.22297C12.6308 3.96109 12.4544 3.73006 12.2018 3.66129L7.66156 2.41956C7.61396 2.40659 7.56484 2.40002 7.51551 2.40005Z" fill="#5F5F61"/>
<path d="M6.82137 10.351C6.64227 10.351 6.46317 10.2827 6.32641 10.146L4.47736 8.29676C4.20384 8.02324 4.20384 7.58021 4.47736 7.30669C4.75089 7.03316 5.19391 7.03316 5.46743 7.30669L6.82153 8.66078L9.56323 5.91907C9.83676 5.64555 10.2798 5.64555 10.5533 5.91907C10.8268 6.1926 10.8268 6.63562 10.5533 6.90915L7.31649 10.146C7.17972 10.2827 7.00063 10.351 6.82137 10.351Z" fill="#5F5F61"/>
</svg>
