<svg width="16" height="16" viewBox="0 0 16 16" fill="none" xmlns="http://www.w3.org/2000/svg">
<path d="M8 13.8333C11.2218 13.8333 13.8333 11.2218 13.8333 8C13.8333 4.77825 11.2218 2.16667 8 2.16667C4.77825 2.16667 2.16667 4.77825 2.16667 8C2.16667 11.2218 4.77825 13.8333 8 13.8333ZM8 15C4.13425 15 1 11.8658 1 8C1 4.13425 4.13425 1 8 1C11.8658 1 15 4.13425 15 8C15 11.8658 11.8658 15 8 15Z" fill="#5A5C60"/>
<path d="M8.12242 4.17334C7.27076 4.17334 6.59409 4.41834 6.10409 4.92001C5.60242 5.41001 5.35742 6.07501 5.35742 6.92667H6.59409C6.59409 6.41334 6.69909 6.00501 6.90909 5.72501C7.14242 5.39834 7.52742 5.23501 8.05242 5.23501C8.47242 5.23501 8.79909 5.35167 9.03242 5.58501C9.25409 5.81834 9.37076 6.13334 9.37076 6.54167C9.37076 6.84501 9.26576 7.12501 9.05576 7.39334L8.85742 7.61501C8.13409 8.25667 7.69076 8.73501 7.52742 9.06167C7.37576 9.36501 7.30576 9.73834 7.30576 10.17V10.3683H8.55409V10.17C8.55409 9.87834 8.61242 9.62167 8.74075 9.38834C8.84575 9.17834 9.00909 8.98001 9.21909 8.79334C9.77909 8.31501 10.1058 8.01167 10.2108 7.88334C10.4908 7.51001 10.6424 7.03167 10.6424 6.46001C10.6424 5.76001 10.4091 5.20001 9.95409 4.79167C9.48742 4.37167 8.88076 4.17334 8.12242 4.17334ZM7.92409 10.9983C7.67909 10.9983 7.48076 11.0683 7.32909 11.2317C7.15409 11.3833 7.07242 11.5817 7.07242 11.8267C7.07242 12.06 7.15409 12.2583 7.32909 12.4217C7.48076 12.585 7.67909 12.6667 7.92409 12.6667C8.15742 12.6667 8.36742 12.585 8.54242 12.4333C8.70575 12.27 8.78742 12.0717 8.78742 11.8267C8.78742 11.5817 8.70575 11.3833 8.54242 11.2317C8.37909 11.0683 8.16909 10.9983 7.92409 10.9983Z" fill="#5A5C60"/>
</svg>
