<svg width="16" height="16" viewBox="0 0 16 16" fill="none" xmlns="http://www.w3.org/2000/svg">
<path d="M14.3556 10.6987C15.07 9.29038 15.1674 7.7602 14.7615 6.37466C14.2906 4.76835 13.1378 3.33714 11.4654 2.46928L12.2123 1L7.99077 2.01251L9.86611 5.60576L10.6455 4.06797C11.782 4.69984 12.5614 5.69712 12.8943 6.8162C13.1865 7.82871 13.1134 8.92496 12.602 9.94508C11.9444 11.2469 10.7185 12.13 9.31406 12.4802C9.1111 12.5334 8.90003 12.5715 8.69707 12.5943L9.56573 14.2387C9.64691 14.2235 9.7281 14.2007 9.80928 14.1854C11.7414 13.7287 13.4463 12.4878 14.3556 10.6987ZM5.38478 11.9853C4.23198 11.3535 3.43638 10.3486 3.10353 9.21425C2.81127 8.20174 2.88433 7.10549 3.39579 6.08537C4.05337 4.78358 5.27924 3.89288 6.68372 3.5503C6.91915 3.4894 7.15458 3.45133 7.39813 3.42849L6.52947 1.7689C6.41581 1.79173 6.30216 1.81457 6.1885 1.84502C4.25633 2.31702 2.54336 3.5503 1.64223 5.34693C0.93593 6.7553 0.830391 8.28548 1.23631 9.67102V9.67863C1.70717 11.2926 2.87621 12.7314 4.57295 13.5992L3.86665 15L8.08819 13.9723L6.1885 10.379L5.38478 11.9853Z" fill="#5F5F61"/>
</svg>
