<svg width="16" height="16" viewBox="0 0 16 16" fill="none" xmlns="http://www.w3.org/2000/svg">
<path d="M12.2443 14.0778C11.9421 13.7304 11.9792 13.204 12.3263 12.9021C14.7572 10.7887 15.0146 7.10465 12.9011 4.67364C10.7876 2.24262 7.10352 1.98528 4.67259 4.09877C2.24174 6.21209 1.98424 9.89597 4.09731 12.3269C4.39735 12.6762 4.35753 13.2023 4.00855 13.5022C3.84219 13.6452 3.62613 13.7169 3.40726 13.7016C3.1884 13.6863 2.98439 13.5853 2.83952 13.4206C0.122344 10.2945 0.453667 5.55774 3.57959 2.84056L3.58001 2.84007C6.70561 0.122485 11.4425 0.453397 14.1601 3.579L14.1605 3.57941C16.8776 6.70534 16.5464 11.4421 13.4204 14.1593L13.4199 14.1597C13.0728 14.4619 12.5462 14.4251 12.2443 14.0778Z" fill="#5F5F61"/>
<path d="M11.0971 15.6226L14.4095 15.6341L11.0971 12.1769V15.6226ZM6.23682 12.1668V4.38666L11.435 8.32837L6.23682 12.1668Z" fill="#5F5F61"/>
</svg>
