<svg width="16" height="16" viewBox="0 0 16 16" fill="none" xmlns="http://www.w3.org/2000/svg">
<g clip-path="url(#clip0_4753_11310)">
<path d="M13.3333 1.33331H2.66665C1.93331 1.33331 1.33998 1.93331 1.33998 2.66665L1.33331 14.6666L3.99998 12H13.3333C14.0666 12 14.6666 11.4 14.6666 10.6666V2.66665C14.6666 1.93331 14.0666 1.33331 13.3333 1.33331ZM13.3333 10.6666H3.44665L3.05331 11.06L2.66665 11.4466V2.66665H13.3333V10.6666ZM6.99998 9.33331H12V7.99998H8.33331L6.99998 9.33331ZM9.57331 5.41998C9.70665 5.28665 9.70665 5.07998 9.57331 4.94665L8.39331 3.76665C8.25998 3.63331 8.05331 3.63331 7.91998 3.76665L3.99998 7.68665V9.33331H5.64665L9.57331 5.41998Z" fill="#5A5C60"/>
</g>
<defs>
<clipPath id="clip0_4753_11310">
<rect width="16" height="16" fill="white"/>
</clipPath>
</defs>
</svg>
