<svg width="16" height="16" viewBox="0 0 16 16" fill="none" xmlns="http://www.w3.org/2000/svg">
<path d="M8.61875 4.5C8.8246 4.29412 9.13337 4.29412 9.33921 4.5C9.54506 4.70588 9.54506 5.01471 9.33921 5.22059L6.56028 8L9.33921 10.7794C9.54506 10.9853 9.54506 11.2941 9.33921 11.5C9.13337 11.7059 8.8246 11.7059 8.61875 11.5L5.53105 8.30882C5.3252 8.10294 5.3252 7.79412 5.53105 7.58823L8.61875 4.5ZM8.00121 1C11.8094 1 15 4.08824 15 8C15 11.9118 11.8094 15 8.00121 15C4.19305 15 1.00242 11.8088 1.00242 8C0.899499 4.08824 4.09012 1 8.00121 1ZM8.00121 13.9706C11.2948 13.9706 13.9708 11.2941 13.9708 8C13.9708 4.70588 11.2948 2.02941 8.00121 2.02941C4.70766 2.02941 2.03166 4.70588 2.03166 8C1.92873 11.2941 4.60474 13.9706 8.00121 13.9706Z" fill="#5A5C60"/>
</svg>
