<svg width="16" height="16" viewBox="0 0 16 16" fill="none" xmlns="http://www.w3.org/2000/svg">
<path d="M7.38125 4.5C7.1754 4.29412 6.86663 4.29412 6.66079 4.5C6.45494 4.70588 6.45494 5.01471 6.66079 5.22059L9.43972 8L6.66079 10.7794C6.45494 10.9853 6.45494 11.2941 6.66079 11.5C6.86663 11.7059 7.1754 11.7059 7.38125 11.5L10.4689 8.30882C10.6748 8.10294 10.6748 7.79412 10.4689 7.58823L7.38125 4.5ZM7.99879 1C4.19062 1 1 4.08824 1 8C1 11.9118 4.19062 15 7.99879 15C11.807 15 14.9976 11.8088 14.9976 8C15.1005 4.08824 11.9099 1 7.99879 1ZM7.99879 13.9706C4.70524 13.9706 2.02923 11.2941 2.02923 8C2.02923 4.70588 4.70524 2.02941 7.99879 2.02941C11.2923 2.02941 13.9683 4.70588 13.9683 8C14.0713 11.2941 11.3953 13.9706 7.99879 13.9706Z" fill="#5A5C60"/>
</svg>
