<svg width="16" height="16" viewBox="0 0 16 16" fill="none" xmlns="http://www.w3.org/2000/svg">
<g id="sampling">
<g id="Group 1707478041">
<path id="Vector" d="M2.57089 5.47364C2.22536 5.47364 1.94598 5.19426 1.94598 4.84873V3.32505C1.94598 2.97951 2.22536 2.70013 2.57089 2.70013C2.91643 2.70013 3.19581 2.97951 3.19581 3.32505V4.84873C3.19581 5.19426 2.91643 5.47364 2.57089 5.47364ZM4.71949 5.47364C4.37395 5.47364 4.09457 5.19426 4.09457 4.84873V3.32505C4.09457 2.97951 4.37395 2.70013 4.71949 2.70013C5.06502 2.70013 5.3444 2.97951 5.3444 3.32505V4.84873C5.3444 5.19426 5.06502 5.47364 4.71949 5.47364ZM2.57089 13.1931C2.22536 13.1931 1.94598 12.9138 1.94598 12.5682V11.0445C1.94598 10.699 2.22536 10.4196 2.57089 10.4196C2.91643 10.4196 3.19581 10.699 3.19581 11.0445V12.5682C3.19581 12.9138 2.91643 13.1931 2.57089 13.1931ZM4.71949 13.1931C4.37395 13.1931 4.09457 12.9138 4.09457 12.5682V11.0445C4.09457 10.699 4.37395 10.4196 4.71949 10.4196C5.06502 10.4196 5.3444 10.699 5.3444 11.0445V12.5682C5.3444 12.9138 5.06502 13.1931 4.71949 13.1931Z" fill="#5A5C60"/>
<path id="Subtract" fill-rule="evenodd" clip-rule="evenodd" d="M7.40603 7.17192H0.624911C0.279372 7.17192 0 6.89254 0 6.547V1.62491C0 1.27937 0.279372 1 0.624911 1H12.7372C13.0827 1 13.3621 1.27937 13.3621 1.62491V6.25C12.9645 6.06445 12.5448 5.92744 12.1122 5.84278V2.24982H1.24798V5.92393H9.68022C8.83782 6.14805 8.05598 6.57389 7.40603 7.17192ZM6.237 8.71949H0.624911C0.279372 8.71949 0 8.99886 0 9.3444V14.2665C0 14.612 0.279372 14.8914 0.624911 14.8914H7.15169C6.79469 14.5167 6.49626 14.0959 6.26233 13.6434H1.24798V9.96747H5.78969C5.88725 9.53414 6.03765 9.11501 6.237 8.71949Z" fill="#5A5C60"/>
<path id="Vector_2" d="M11.0724 15.5195C8.66648 15.5195 6.71088 13.5621 6.71088 11.158C6.71088 8.75211 8.66832 6.79651 11.0724 6.79651C13.4783 6.79651 15.4339 8.75395 15.4339 11.158C15.4357 13.5639 13.4783 15.5195 11.0724 15.5195ZM11.0724 8.04449C9.35572 8.04449 7.95886 9.44135 7.95886 11.158C7.95886 12.8747 9.35572 14.2715 11.0724 14.2715C12.7891 14.2715 14.1859 12.8747 14.1859 11.158C14.1859 9.44135 12.7891 8.04449 11.0724 8.04449Z" fill="#5A5C60"/>
<path id="Vector_3" d="M11.706 9V10.4001H13.1V11.6301H11.706V13.1H10.476V11.6301H9V10.4001H10.476V9H11.706Z" fill="#5A5C60"/>
</g>
</g>
</svg>
