<svg width="16" height="16" viewBox="0 0 16 16" fill="none" xmlns="http://www.w3.org/2000/svg">
<path d="M2.67606 15C1.78873 15 1 14.2113 1 13.3239V2.67606C1 1.78873 1.78873 1 2.67606 1H12.2394C12.4366 1 12.5352 1.09859 12.6338 1.19718L14.8028 3.26761C14.9014 3.3662 15 3.56338 15 3.66197V13.2254C15 14.1127 14.2113 14.9014 13.3239 14.9014H2.67606V15ZM13.3239 13.7183C13.5211 13.7183 13.7183 13.5211 13.7183 13.3239V3.95775L11.9437 2.1831H11.5493V4.94366C11.5493 5.73239 10.8592 6.42253 10.0704 6.42253H5.92958C5.14084 6.42253 4.4507 5.73239 4.4507 4.94366V2.28169H2.67606C2.47887 2.28169 2.28169 2.47887 2.28169 2.67606V13.3239C2.28169 13.5211 2.47887 13.7183 2.67606 13.7183H3.66197V10.169C3.66197 9.1831 4.4507 8.39437 5.43662 8.39437H10.662C11.6479 8.39437 12.4366 9.1831 12.4366 10.169V13.7183H13.3239ZM11.0563 13.7183V10.169C11.0563 9.87324 10.8592 9.67606 10.5634 9.67606H5.43662C5.14084 9.67606 4.94366 9.87324 4.94366 10.169V13.7183H11.0563ZM5.73239 5.04225C5.73239 5.14084 5.83099 5.23944 5.92958 5.23944H9.97183C10.0704 5.23944 10.169 5.14084 10.169 5.04225V2.28169H5.73239V5.04225ZM9.08451 4.64789C8.69014 4.64789 8.49296 4.35211 8.49296 4.05634V3.46479C8.49296 3.07042 8.78873 2.87324 9.08451 2.87324C9.47887 2.87324 9.67606 3.16901 9.67606 3.46479V3.95775C9.67606 4.35211 9.38028 4.64789 9.08451 4.64789Z" fill="#5F5F61"/>
</svg>
