<svg width="16" height="16" viewBox="0 0 16 16" fill="none" xmlns="http://www.w3.org/2000/svg">
<path fill-rule="evenodd" clip-rule="evenodd" d="M8 6.67469L13.4816 1L14.5237 2.07876L9.04205 7.75345L10.5555 9.3202C10.9942 9.05195 11.5063 8.89764 12.0526 8.89764C13.6804 8.89764 15 10.2637 15 11.9488C15 13.6339 13.6804 15 12.0526 15C10.4248 15 9.10526 13.6339 9.10526 11.9488C9.10526 11.3833 9.25432 10.8532 9.51345 10.399L8 8.8322L6.48655 10.399C6.74568 10.8532 6.89474 11.3833 6.89474 11.9488C6.89474 13.6339 5.57516 15 3.94737 15C2.31958 15 1 13.6339 1 11.9488C1 10.2637 2.31958 8.89764 3.94737 8.89764C4.49365 8.89764 5.00575 9.05195 5.4445 9.3202L6.95795 7.75345L1.47633 2.07876L2.51838 1L8 6.67469ZM3.94737 10.4232C3.13348 10.4232 2.47368 11.1063 2.47368 11.9488C2.47368 12.7914 3.13348 13.4744 3.94737 13.4744C4.76126 13.4744 5.42105 12.7914 5.42105 11.9488C5.42105 11.5273 5.25691 11.147 4.98942 10.8701C4.72193 10.5932 4.35452 10.4232 3.94737 10.4232ZM12.0526 10.4232C11.6455 10.4232 11.2781 10.5932 11.0106 10.8701C10.7431 11.147 10.5789 11.5273 10.5789 11.9488C10.5789 12.7914 11.2387 13.4744 12.0526 13.4744C12.8665 13.4744 13.5263 12.7914 13.5263 11.9488C13.5263 11.1063 12.8665 10.4232 12.0526 10.4232Z" fill="#5A5C60"/>
</svg>
