<svg width="16" height="16" viewBox="0 0 16 16" fill="none" xmlns="http://www.w3.org/2000/svg">
<path fill-rule="evenodd" clip-rule="evenodd" d="M7.27733 2.47702C4.62619 2.47702 2.47702 4.62619 2.47702 7.27733C2.47702 9.92847 4.62619 12.0776 7.27733 12.0776C8.6031 12.0776 9.80217 11.5412 10.6717 10.6717C11.5412 9.80217 12.0776 8.6031 12.0776 7.27733C12.0776 4.62619 9.92847 2.47702 7.27733 2.47702ZM1 7.27733C1 3.81046 3.81046 1 7.27733 1C10.7442 1 13.5547 3.81046 13.5547 7.27733C13.5547 8.74435 13.0507 10.0947 12.2076 11.1632L15 13.9556L13.9556 15L11.1632 12.2076C10.0947 13.0507 8.74435 13.5547 7.27733 13.5547C3.81046 13.5547 1 10.7442 1 7.27733Z" fill="#5A5C60"/>
</svg>
