<svg width="16" height="16" viewBox="0 0 16 16" fill="none" xmlns="http://www.w3.org/2000/svg">
<path d="M15.8462 8.27285L1.40034 1.0294C1.35316 1.0057 1.30019 0.996018 1.24769 1.00149C1.19519 1.00696 1.14535 1.02735 1.10407 1.06026C1.0628 1.09317 1.03181 1.13721 1.01478 1.18718C0.997747 1.23714 0.995382 1.29095 1.00797 1.34222L2.49676 7.42503C2.51887 7.51678 2.58629 7.59084 2.67692 7.62068L5.22677 8.49613L2.67802 9.37158C2.63432 9.38641 2.59513 9.41218 2.56418 9.44642C2.53323 9.48066 2.51154 9.52225 2.50118 9.56723L1.00907 15.6578C0.996488 15.7091 0.998852 15.7629 1.01588 15.8128C1.03292 15.8628 1.0639 15.9068 1.10518 15.9397C1.14646 15.9726 1.19629 15.993 1.2488 15.9985C1.3013 16.004 1.35427 15.9943 1.40144 15.9706L15.8473 8.76916C15.9004 8.74224 15.9437 8.69932 15.9711 8.64646C16.0038 8.5803 16.009 8.50391 15.9856 8.43393C15.9622 8.36395 15.9121 8.30605 15.8462 8.27285ZM2.71229 13.9279L3.58103 10.3764L8.67852 8.62767C8.70637 8.61872 8.73065 8.60116 8.74788 8.57752C8.76511 8.55388 8.77439 8.52538 8.77439 8.49613C8.77439 8.46688 8.76511 8.43838 8.74788 8.41474C8.73065 8.39111 8.70637 8.37355 8.67852 8.36459L3.57992 6.61701L2.7145 3.07985L13.5594 8.51824L2.71118 13.9279H2.71229Z" fill="#5F5F61"/>
</svg>
