<svg width="16" height="16" viewBox="0 0 16 16" fill="none" xmlns="http://www.w3.org/2000/svg">
<path d="M13.805 6.30504V3.19496H10.695L8.5 1L6.30504 3.19496H3.19496V6.30504L1 8.5L3.19496 10.695V13.805H6.30504L8.5 16L10.695 13.805H13.805V10.695L16 8.5L13.805 6.30504ZM12.4788 10.1446V12.4788H10.1446L8.5 14.1233L6.85544 12.4788H4.52122V10.1446L2.87666 8.5L4.52122 6.85544V4.52122H6.85544L8.5 2.87666L10.1446 4.52122H12.4788V6.85544L14.1233 8.5L12.4788 10.1446ZM8.5 4.85279C6.49072 4.85279 4.85279 6.49072 4.85279 8.5C4.85279 10.5093 6.49072 12.1472 8.5 12.1472C10.5093 12.1472 12.1472 10.5093 12.1472 8.5C12.1472 6.49072 10.5093 4.85279 8.5 4.85279ZM8.5 10.821C7.22016 10.821 6.17905 9.77984 6.17905 8.5C6.17905 7.22016 7.22016 6.17905 8.5 6.17905C9.77984 6.17905 10.821 7.22016 10.821 8.5C10.821 9.77984 9.77984 10.821 8.5 10.821Z" fill="#5A5C60"/>
</svg>
