<svg width="16" height="16" viewBox="0 0 16 16" fill="none" xmlns="http://www.w3.org/2000/svg">
<path d="M8 7.3C8.45963 7.3 8.91475 7.39053 9.33939 7.56642C9.76403 7.74231 10.1499 8.00012 10.4749 8.32513C10.7999 8.65013 11.0577 9.03597 11.2336 9.46061C11.4095 9.88525 11.5 10.3404 11.5 10.8V15H4.5V10.8C4.5 10.3404 4.59053 9.88525 4.76642 9.46061C4.94231 9.03597 5.20012 8.65013 5.52513 8.32513C5.85013 8.00012 6.23597 7.74231 6.66061 7.56642C7.08525 7.39053 7.54037 7.3 8 7.3ZM3.3016 9.4042C3.1902 9.77995 3.12439 10.1677 3.1056 10.5592L3.1 10.8V15H1V11.85C0.999862 11.2463 1.22262 10.6638 1.62554 10.2142C2.02847 9.76469 2.58319 9.47972 3.1833 9.414L3.3023 9.4042H3.3016ZM12.6984 9.4042C13.3213 9.44217 13.9063 9.71637 14.334 10.1709C14.7617 10.6254 14.9999 11.2259 15 11.85V15H12.9V10.8C12.9 10.3149 12.83 9.8466 12.6984 9.4042ZM3.45 5.2C3.67981 5.2 3.90738 5.24526 4.1197 5.33321C4.33202 5.42116 4.52493 5.55006 4.68744 5.71256C4.84994 5.87507 4.97884 6.06798 5.06679 6.2803C5.15473 6.49262 5.2 6.72019 5.2 6.95C5.2 7.17981 5.15473 7.40738 5.06679 7.6197C4.97884 7.83202 4.84994 8.02493 4.68744 8.18744C4.52493 8.34994 4.33202 8.47884 4.1197 8.56679C3.90738 8.65473 3.67981 8.7 3.45 8.7C2.98587 8.7 2.54075 8.51563 2.21256 8.18744C1.88437 7.85925 1.7 7.41413 1.7 6.95C1.7 6.48587 1.88437 6.04075 2.21256 5.71256C2.54075 5.38437 2.98587 5.2 3.45 5.2ZM12.55 5.2C12.7798 5.2 13.0074 5.24526 13.2197 5.33321C13.432 5.42116 13.6249 5.55006 13.7874 5.71256C13.9499 5.87507 14.0788 6.06798 14.1668 6.2803C14.2547 6.49262 14.3 6.72019 14.3 6.95C14.3 7.17981 14.2547 7.40738 14.1668 7.6197C14.0788 7.83202 13.9499 8.02493 13.7874 8.18744C13.6249 8.34994 13.432 8.47884 13.2197 8.56679C13.0074 8.65473 12.7798 8.7 12.55 8.7C12.0859 8.7 11.6408 8.51563 11.3126 8.18744C10.9844 7.85925 10.8 7.41413 10.8 6.95C10.8 6.48587 10.9844 6.04075 11.3126 5.71256C11.6408 5.38437 12.0859 5.2 12.55 5.2ZM8 1C8.74261 1 9.4548 1.295 9.9799 1.8201C10.505 2.3452 10.8 3.05739 10.8 3.8C10.8 4.54261 10.505 5.2548 9.9799 5.7799C9.4548 6.305 8.74261 6.6 8 6.6C7.25739 6.6 6.5452 6.305 6.0201 5.7799C5.495 5.2548 5.2 4.54261 5.2 3.8C5.2 3.05739 5.495 2.3452 6.0201 1.8201C6.5452 1.295 7.25739 1 8 1Z" fill="#5A5C60"/>
</svg>
