<svg width="16" height="16" viewBox="0 0 16 16" fill="none" xmlns="http://www.w3.org/2000/svg">
<g clip-path="url(#clip0_1949_11496)">
<path fill-rule="evenodd" clip-rule="evenodd" d="M0.0761719 7.99998C0.0761719 12.3428 3.58093 15.9238 7.99998 15.9238C12.419 15.9238 15.9238 12.3428 15.9238 7.99998C15.9238 3.65712 12.419 0.0761719 7.99998 0.0761719C3.58093 0.0761719 0.0761719 3.65712 0.0761719 7.99998ZM1.59998 7.99998C1.59998 4.49522 4.41903 1.59998 7.99998 1.59998C11.5809 1.59998 14.4 4.49522 14.4 7.99998C14.4 11.5047 11.5047 14.4 7.99998 14.4C4.49522 14.4 1.59998 11.5047 1.59998 7.99998ZM7.23816 4.64764H5.71436V11.4286H7.23816V4.64764ZM10.2858 4.64764H8.76197V11.4286H10.2858V4.64764Z" fill="#5F5F61"/>
</g>
<defs>
<clipPath id="clip0_1949_11496">
<rect width="16" height="16" fill="white"/>
</clipPath>
</defs>
</svg>
