<svg width="16" height="16" viewBox="0 0 16 16" fill="none" xmlns="http://www.w3.org/2000/svg">
<path d="M13.5341 4.60605C13.0827 4.60605 12.7154 4.24713 12.7154 3.80578V2.60038H4.69829L9.41585 7.55918C9.7113 7.86998 9.70718 8.35298 9.40636 8.6587L4.74216 13.3996H12.7152V12.6718C12.7152 12.2306 13.0825 11.8717 13.5339 11.8717C13.9853 11.8717 14.3528 12.2306 14.3528 12.6718V14.1997C14.3528 14.6409 13.9855 15 13.5339 15H2.81903C2.49045 15 2.19464 14.8091 2.06572 14.5133C1.93679 14.2176 2.0009 13.8768 2.22867 13.6451L7.68951 8.09485L2.21935 2.34505C1.99768 2.11178 1.93841 1.77263 2.06841 1.48055C2.19858 1.18865 2.49332 1 2.81903 1H13.5341C13.9855 1 14.3529 1.35893 14.3529 1.80028V3.80578C14.3529 4.24695 13.9857 4.60605 13.5341 4.60605Z" fill="#5A5C60"/>
</svg>
