<svg width="16" height="16" viewBox="0 0 16 16" fill="none" xmlns="http://www.w3.org/2000/svg">
<path d="M8 2.64427L14.3202 13.3537H1.67982L8 2.64427ZM0.227771 12.5305C-0.418516 13.6253 0.387244 15 1.67982 15H14.3202C15.6128 15 16.4185 13.6253 15.7722 12.5305L9.45205 1.82111C8.80576 0.726297 7.19424 0.726297 6.54795 1.82111L0.227771 12.5305ZM7.16067 6.76834V8.41467C7.16067 8.86741 7.53837 9.23784 8 9.23784C8.46163 9.23784 8.83933 8.86741 8.83933 8.41467V6.76834C8.83933 6.3156 8.46163 5.94517 8 5.94517C7.53837 5.94517 7.16067 6.3156 7.16067 6.76834ZM7.16067 10.8842H8.83933V12.5305H7.16067V10.8842Z" fill="#5F5F61"/>
</svg>
