<svg width="16" height="16" viewBox="0 0 16 16" fill="none" xmlns="http://www.w3.org/2000/svg">
<path fill-rule="evenodd" clip-rule="evenodd" d="M12.8214 15H4.17852C3.52783 15 3 14.4121 3 13.6875V7.73747C3 7.01293 3.52783 6.42507 4.17852 6.42507H4.76784V5.15634C4.76784 2.86491 6.44244 1 8.5 1C10.3462 1 11.8831 2.5016 12.1795 4.46535H10.1532C9.90125 3.72016 9.25618 3.18747 8.5 3.18747C7.52521 3.18747 6.73216 4.07071 6.73216 5.15634V6.42507H10.2678V6.40594H12.2322V6.42507H12.8214C13.472 6.42507 14 7.01293 14 7.73747V13.6875C14 14.4121 13.472 15 12.8214 15ZM9.00283 10.2616V9.26C9.00283 8.95075 8.77772 8.7 8.5 8.7C8.22227 8.7 7.99717 8.95075 7.99717 9.26V10.2616C7.73269 10.4476 7.55709 10.776 7.55709 11.15C7.55709 11.7298 7.9793 12.2 8.5 12.2C9.0207 12.2 9.44279 11.7298 9.44279 11.15C9.44279 10.776 9.2673 10.4476 9.00283 10.2616Z" fill="#5A5C60"/>
</svg>
