<svg width="16" height="16" viewBox="0 0 16 16" fill="none" xmlns="http://www.w3.org/2000/svg">
<path d="M10.7323 12.3937C10.5433 12.2047 10.4488 12.0158 10.4488 11.8268C10.4488 11.5433 10.6378 11.3543 10.9213 11.3543H11.8662C13.0945 11.3543 14.0394 10.315 14.0394 8.99213C14.0394 7.6693 13.0945 6.62993 11.8662 6.62993C11.7717 6.62993 11.7717 6.62993 11.6772 6.62993C11.5827 6.62993 11.4882 6.62993 11.4882 6.62993L10.9213 6.72441V6.15748C10.9213 4.4567 9.59843 2.94488 7.99213 2.94488C6.38583 2.94488 5.063 4.36221 5.063 6.15748V6.72441H4.49607C4.40158 6.72441 4.30709 6.72441 4.2126 6.72441C2.98425 6.72441 1.94488 7.76379 1.94488 8.99213C1.94488 10.315 2.88977 11.3543 4.11811 11.3543H5.063C5.34646 11.3543 5.53544 11.5433 5.53544 11.8268C5.53544 12.1102 5.34646 12.3937 5.15748 12.3937H4.2126C2.41732 12.3937 1 10.8819 1 8.99213C1 7.19686 2.41732 5.68504 4.11811 5.68504C4.30709 3.6063 6.00788 2 7.99213 2C9.97639 2 11.6772 3.6063 11.9606 5.68504C13.6614 5.68504 15.0788 7.19686 15.0788 9.08662C15.0788 10.9764 13.6614 12.4882 11.8662 12.4882H10.7323V12.3937Z" fill="#5A5C60"/>
<path d="M7.99197 14C7.70851 14 7.51953 13.811 7.51953 13.5276V9.37009C7.51953 9.08662 7.70851 8.89764 7.99197 8.89764C8.27544 8.89764 8.5589 9.08662 8.5589 9.37009V13.4331C8.5589 13.811 8.27544 14 7.99197 14Z" fill="#5A5C60"/>
<path d="M9.78723 11.4488C9.59825 11.4488 9.50376 11.4488 9.40927 11.3543L7.70848 9.84253C7.51951 9.65355 7.42502 9.37009 7.61399 9.08662C7.70848 8.99213 7.89746 8.89764 7.99195 8.89764C8.08644 8.89764 8.32348 9.08662 8.41797 9.08662L10.0707 10.5039C10.2597 10.6929 10.2597 10.9764 10.1652 11.1654C10.0707 11.3543 9.88171 11.4488 9.78723 11.4488Z" fill="#5A5C60"/>
<path d="M6.29153 11.4488C6.10256 11.4488 6.00807 11.3543 5.91358 11.2598C5.81909 11.1654 5.81909 10.9764 5.81909 10.8819C5.81909 10.7874 5.91358 10.5984 6.00807 10.5984L7.70886 9.08661C7.80335 8.99213 7.89783 8.99213 7.99232 8.99213C8.1813 8.99213 8.27579 9.08661 8.37028 9.1811C8.46476 9.1811 8.55925 9.27559 8.55925 9.46457C8.55925 9.55906 8.46476 9.74803 8.37028 9.84252L6.66949 11.3543C6.575 11.3543 6.38602 11.4488 6.29153 11.4488Z" fill="#5A5C60"/>
</svg>
