<svg width="16" height="16" viewBox="0 0 16 16" fill="none" xmlns="http://www.w3.org/2000/svg">
<path fill-rule="evenodd" clip-rule="evenodd" d="M8.77821 10.4967C8.77821 10.9108 8.43054 11.2468 8.00004 11.2468C7.56954 11.2468 7.22188 10.9108 7.22188 10.4967V3.56083L5.18254 5.52783C5.0348 5.66879 4.83841 5.74735 4.63421 5.74717C4.42921 5.74795 4.23187 5.66935 4.08355 5.52783C4.01164 5.4595 3.95438 5.37725 3.91526 5.2861C3.87613 5.19494 3.85596 5.09678 3.85596 4.99758C3.85596 4.89839 3.87613 4.80023 3.91526 4.70907C3.95438 4.61791 4.01164 4.53567 4.08355 4.46733L7.44938 1.21933C7.59767 1.07851 7.79437 1 7.99888 1C8.20338 1 8.40008 1.07851 8.54838 1.21933L11.9165 4.46617C12.2199 4.76017 12.2199 5.235 11.9165 5.52783C11.7683 5.66926 11.5713 5.74817 11.3665 5.74817C11.1616 5.74817 10.9646 5.66926 10.8164 5.52783L8.77821 3.56083V10.4967ZM15 8.99633C15 8.58216 14.6523 8.24616 14.2218 8.24616C13.7925 8.24616 13.4448 8.58216 13.4448 8.99633V12.7483C13.4432 12.8488 13.4217 12.9479 13.3817 13.0401C13.3416 13.1322 13.2838 13.2156 13.2116 13.2854C13.1393 13.3552 13.0539 13.41 12.9605 13.4468C12.867 13.4835 12.7671 13.5015 12.6667 13.4997H3.33333C2.90283 13.4997 2.55517 13.1637 2.55517 12.7483V8.99633C2.55517 8.58216 2.2075 8.24616 1.77817 8.24616C1.34767 8.24616 1 8.58216 1 8.99633V12.7483C1 13.992 2.04417 15 3.33333 15H12.6667C13.9558 15 15 13.992 15 12.7483V8.99633Z" fill="#666666"/>
</svg>
