<svg width="32" height="32" viewBox="0 0 32 32" fill="none" xmlns="http://www.w3.org/2000/svg">
<path d="M18.201 20.9727H23.799C26.11 20.9727 28 22.7747 28 24.9727C28 27.1707 26.109 28.9727 23.799 28.9727H18.201C15.89 28.9727 14 27.1707 14 24.9727C14 22.7747 15.891 20.9727 18.201 20.9727ZM18.201 26.9727H23.799C24.992 26.9727 26 26.0567 26 24.9727C26 23.8887 24.992 22.9727 23.799 22.9727H18.201C17.008 22.9727 16 23.8887 16 24.9727C16 26.0567 17.008 26.9727 18.201 26.9727Z" fill="#5A5C60"/>
<path d="M5 2.97266H27C27.2652 2.97266 27.5196 3.07801 27.7071 3.26555C27.8946 3.45309 28 3.70744 28 3.97266V20.5727C27.4146 20.0499 26.7361 19.6418 26 19.3697V4.97266H6V26.9727H12.361C12.6346 27.7142 13.0527 28.394 13.591 28.9727H5C4.73478 28.9727 4.48043 28.8673 4.29289 28.6798C4.10536 28.4922 4 28.2379 4 27.9727V3.97266C4 3.70744 4.10536 3.45309 4.29289 3.26555C4.48043 3.07801 4.73478 2.97266 5 2.97266Z" fill="#5A5C60"/>
<path d="M27 10.9727H5V12.9727H27V10.9727ZM12 6.97266H8V8.97266H12V6.97266ZM12 14.9727H8V16.9727H12V14.9727ZM18.201 18.9727C17.3364 18.9702 16.4806 19.1466 15.6874 19.4908C14.8942 19.835 14.1808 20.3395 13.592 20.9727H5V18.9727H18.201ZM12 22.9727H8V24.9727H12V22.9727Z" fill="#5A5C60"/>
</svg>
