<svg width="16" height="16" viewBox="0 0 16 16" fill="none" xmlns="http://www.w3.org/2000/svg">
<path fill-rule="evenodd" clip-rule="evenodd" d="M7.6875 3.51994C6.96262 3.51994 6.375 2.95582 6.375 2.25994C6.375 1.56406 6.96262 0.999939 7.6875 0.999939C8.41237 0.999939 9 1.56406 9 2.25994C9 2.95582 8.41237 3.51994 7.6875 3.51994ZM7.6875 8.98009C6.96262 8.98009 6.375 8.41596 6.375 7.72008C6.375 7.0242 6.96262 6.46008 7.6875 6.46008C8.41237 6.46008 9 7.0242 9 7.72008C9 8.41596 8.41237 8.98009 7.6875 8.98009ZM6.375 13.1797C6.375 13.8756 6.96262 14.4397 7.6875 14.4397C8.41237 14.4397 9 13.8756 9 13.1797C9 12.4839 8.41237 11.9197 7.6875 11.9197C6.96262 11.9197 6.375 12.4839 6.375 13.1797Z" fill="#5F5F61"/>
</svg>
