<svg width="16" height="16" viewBox="0 0 16 16" fill="none" xmlns="http://www.w3.org/2000/svg">
<g clip-path="url(#clip0_5163_13364)">
<path d="M14.0011 1.5C14.5113 1.49997 15.0022 1.68272 15.3734 2.01084C15.7446 2.33897 15.968 2.78767 15.998 3.26514L16.0013 3.37515V13.376C16.0013 13.8543 15.8064 14.3145 15.4564 14.6625C15.1064 15.0105 14.6278 15.2199 14.1185 15.248L14.0011 15.2511H2.00016C1.48998 15.2511 0.999071 15.0684 0.627877 14.7403C0.256683 14.4121 0.0332643 13.9634 0.0033336 13.486L3.10743e-09 13.376V3.37515C-2.84178e-05 2.89686 0.194899 2.43663 0.5449 2.08863C0.894901 1.74064 1.37352 1.53119 1.88282 1.50313L2.00016 1.5H14.0011ZM14.6679 5.56283H12.9171L12.8137 5.64096L12.7477 5.56283H8.91673L8.81338 5.64096L8.74738 5.56283H4.9164L4.81306 5.64096L4.74705 5.56283H1.33344V13.376C1.33346 13.5291 1.39342 13.6768 1.50193 13.7912C1.61045 13.9056 1.75998 13.9787 1.92216 13.9966L2.00016 14.001H14.0011C14.1644 14.001 14.3221 13.9448 14.4441 13.8431C14.5661 13.7413 14.6441 13.6011 14.6632 13.4491L14.6679 13.376V5.56283ZM6.9359 7.17796L7.00257 7.21046L11.0029 9.39814C11.0972 9.44962 11.1765 9.52201 11.234 9.60895C11.2915 9.69589 11.3254 9.79473 11.3326 9.89679C11.3398 9.99885 11.3203 10.101 11.2756 10.1943C11.2309 10.2876 11.1624 10.3692 11.0762 10.432L11.0029 10.4782L7.00257 12.6659C6.90683 12.7182 6.79869 12.7473 6.68793 12.7506C6.57718 12.7539 6.46729 12.7312 6.36822 12.6847C6.26915 12.6382 6.18401 12.5692 6.1205 12.4841C6.05699 12.399 6.01712 12.3003 6.00449 12.1971L6.00049 12.1259V7.75051C6.0004 7.64651 6.02799 7.54413 6.08077 7.45265C6.13354 7.36117 6.20983 7.28349 6.30272 7.22663C6.39561 7.16977 6.50217 7.13555 6.61273 7.12705C6.72329 7.11855 6.83437 7.13605 6.9359 7.17796ZM7.33393 8.8381V11.0377L9.34476 9.93756L7.33393 8.8381ZM2.34686 2.7501H2.00016C1.83686 2.75012 1.67925 2.80633 1.55721 2.90806C1.43518 3.00979 1.35722 3.14998 1.33811 3.30202L1.33344 3.37515V4.31273H3.6803L2.34686 2.7501ZM6.34718 2.7501H4.05366L5.3871 4.31273H7.68062L6.34718 2.7501ZM10.3475 2.7501H8.05399L9.38743 4.31273H11.681L10.3475 2.7501ZM14.0011 2.7501H12.0543L13.3878 4.31273H14.6679V3.37515C14.6678 3.22206 14.6079 3.07429 14.4994 2.95989C14.3909 2.84548 14.2413 2.77239 14.0791 2.75448L14.0011 2.7501Z" fill="#5A5C60"/>
</g>
<defs>
<clipPath id="clip0_5163_13364">
<rect width="16" height="16" fill="white"/>
</clipPath>
</defs>
</svg>
