<svg width="16" height="16" viewBox="0 0 16 16" fill="none" xmlns="http://www.w3.org/2000/svg">
<path d="M3.29276 14.9014H3.19417H3.09558V14.8028L2.99699 14.9014V14.8028L2.8984 14.7042L2.7998 14.6056V14.507V14.4085V14.3099V1.49296V1.39437V1.29577L2.8984 1.19718L2.99699 1.09859H3.09558V1H3.19417H3.29276H10.6871H10.7857H10.8843C10.8843 1 10.9829 1 10.9829 1.09859L11.0815 1.19718L13.9406 4.5493C13.9406 4.5493 14.0392 4.64789 14.0392 4.74648C14.0392 4.84507 14.0392 4.84507 14.0392 4.94366V14.4085V14.507V14.6056V14.7042H13.9406L14.0392 14.8028H13.9406V14.9014L13.8421 15H13.7435H13.6449H3.29276V14.9014ZM12.9547 13.7183V5.04225L10.3914 2.08451H3.88431V13.7183H12.9547Z" fill="#5A5C60"/>
<path d="M5.56054 12.0423C5.26477 12.0423 4.96899 11.7465 4.96899 11.4507V9.1831C4.96899 8.88733 5.26477 8.59155 5.56054 8.59155H7.53237C7.82815 8.59155 8.12392 8.88733 8.12392 9.1831V11.4507C8.12392 11.7465 7.82815 12.0423 7.53237 12.0423H5.56054ZM6.84223 10.8592V9.77465H6.15209V10.8592H6.84223Z" fill="#5A5C60"/>
<path d="M5.16618 12.0422C4.8704 12.0422 4.67322 11.7465 4.67322 11.4507C4.67322 11.1549 4.96899 10.8591 5.26477 10.8591H11.6732C11.969 10.8591 12.2648 11.1549 12.2648 11.4507C12.2648 11.7465 11.969 12.0422 11.6732 12.0422H5.16618Z" fill="#5A5C60"/>
<path d="M7.43396 12.0423C7.13818 12.0423 6.84241 11.7465 6.84241 11.4507V7.60565C6.84241 7.30987 7.13818 7.0141 7.43396 7.0141H9.40579C9.70156 7.0141 9.99734 7.30987 9.99734 7.60565V11.4507C9.99734 11.7465 9.70156 12.0423 9.40579 12.0423H7.43396ZM8.81424 10.8592V8.1972H8.02551V10.8592H8.81424Z" fill="#5A5C60"/>
<path d="M9.40503 12.0422C9.10925 12.0422 8.81348 11.7465 8.81348 11.4507V5.92956C8.81348 5.63379 9.10925 5.33801 9.40503 5.33801H11.3769C11.6726 5.33801 11.9684 5.63379 11.9684 5.92956V11.3521C11.9684 11.6479 11.6726 11.9436 11.3769 11.9436H9.40503V12.0422ZM10.6867 10.8591V6.52111H9.99658V10.8591H10.6867Z" fill="#5A5C60"/>
</svg>
