<svg width="16" height="16" viewBox="0 0 16 16" fill="none" xmlns="http://www.w3.org/2000/svg">
<path d="M14.7531 3.18182L14.75 10.8642H15.375C15.5408 10.8642 15.6997 10.9265 15.8169 11.0373C15.9342 11.1481 16 11.2984 16 11.4551V13.4294C16 14.2927 15.195 15 14.2037 15H5.3975C4.40625 15 3.5 14.2472 3.5 13.32V6.72727H1.625C1.45924 6.72727 1.30027 6.66502 1.18306 6.5542C1.06585 6.44338 1 6.29308 1 6.13636V3.77273C1 3.30257 1.19754 2.85167 1.54917 2.51922C1.90081 2.18677 2.37772 2 2.875 2H13.5031C14.1937 2 14.7531 2.52886 14.7531 3.18182ZM3.5 5.50409V3.77273C3.5 3.61601 3.43415 3.46571 3.31694 3.35489C3.19973 3.24407 3.04076 3.18182 2.875 3.18182C2.70924 3.18182 2.55027 3.24407 2.43306 3.35489C2.31585 3.46571 2.25 3.61601 2.25 3.77273V5.50409C2.25 5.54132 2.27312 5.55964 2.29562 5.55964H3.45438C3.485 5.55964 3.5 5.53186 3.5 5.50468V5.50409ZM13.5031 10.8636V3.18182H4.12437C4.2065 3.18174 4.28784 3.19697 4.36374 3.22663C4.43964 3.25629 4.50862 3.2998 4.56672 3.35468C4.62482 3.40956 4.67092 3.47473 4.70237 3.54646C4.73381 3.61819 4.75 3.69508 4.75 3.77273V13.3106C4.75 13.5647 5.04625 13.8194 5.3725 13.8194C5.68875 13.8194 6 13.5653 6 13.3112V11.4545C6 11.2978 6.06585 11.1475 6.18306 11.0367C6.30027 10.9259 6.45924 10.8636 6.625 10.8636H13.5031ZM14.1219 13.82C14.4594 13.82 14.7531 13.5351 14.7531 13.1865V12.0455H7.2525V13.0671C7.2525 13.2964 7.2525 13.4825 7.17375 13.5901C7.10036 13.6808 7.01091 13.7587 6.90938 13.8205H14.1219V13.82ZM6 4.36364H12.25V5.54545H6V4.36364ZM6 6.72727H12.25V7.90909H6V6.72727Z" fill="#5F5F61"/>
</svg>
