<svg width="16" height="16" viewBox="0 0 16 16" fill="none" xmlns="http://www.w3.org/2000/svg">
<path d="M7.32394 13.2254V10.5211C7.32394 9.61972 8.05634 8.88732 8.95775 8.88732H10.4789C9.85915 8.32394 9.1831 7.87324 8.39437 7.59155C9.29577 6.91549 9.85915 5.84507 9.85915 4.66197C9.85915 2.6338 8.22535 1 6.19718 1C4.16901 1 2.53521 2.6338 2.53521 4.66197C2.53521 5.84507 3.09859 6.91549 4 7.59155C1.6338 8.49296 0 10.7465 0 13.3944C0 13.7887 0.0563381 14.1831 0.112676 14.5211H8.05634C7.60563 14.2958 7.32394 13.7887 7.32394 13.2254ZM15.3239 9.95775L14.1408 8.83099L13.2394 9.73239H9.57747C8.84507 9.73239 8.22535 10.3521 8.22535 11.0845V13.2254C8.22535 13.9577 8.84507 14.5775 9.57747 14.5775H10.4789L11.493 15.5352L12.5634 14.5775H13.8028C14.5352 14.5775 15.1549 13.9577 15.1549 13.2254V11.0845C15.1549 10.8028 15.0423 10.5211 14.9296 10.3521L15.3239 9.95775ZM14.1408 13.169C14.1408 13.4507 13.9155 13.7324 13.5775 13.7324H12.2817L11.5493 14.4648L10.8732 13.7324H9.57747C9.29577 13.7324 9.01408 13.507 9.01408 13.169V11.1408C9.01408 10.8592 9.23944 10.5775 9.57747 10.5775H12.3944L11.3803 11.5915V12.7746H12.3944L14.0845 11.0845V13.169H14.1408Z" fill="#5A5C60"/>
</svg>
