<svg width="16" height="16" viewBox="0 0 16 16" fill="none" xmlns="http://www.w3.org/2000/svg">
<path d="M11.7949 10.8831V10.0267C11.7949 9.94823 11.7307 9.884 11.6522 9.884H4.80118C4.72268 9.884 4.65845 9.94823 4.65845 10.0267V10.8831C4.65845 10.9616 4.72268 11.0258 4.80118 11.0258H11.6522C11.7307 11.0258 11.7949 10.9616 11.7949 10.8831ZM4.80118 12.4531C4.72268 12.4531 4.65845 12.5174 4.65845 12.5959V13.4522C4.65845 13.5307 4.72268 13.595 4.80118 13.595H8.08395C8.16245 13.595 8.22668 13.5307 8.22668 13.4522V12.5959C8.22668 12.5174 8.16245 12.4531 8.08395 12.4531H4.80118ZM6.60492 5.45404L6.56745 7.57535C6.56567 7.73414 6.69412 7.86438 6.85291 7.86438H6.86005L8.9653 7.81621C9.00098 7.81443 9.03667 7.80015 9.06164 7.77518L14.4086 2.46208C14.4639 2.40677 14.4639 2.31578 14.4086 2.26047L12.1946 0.0410347C12.166 0.0124889 12.1303 0 12.0929 0C12.0554 0 12.0197 0.014273 11.9912 0.0410347L6.64595 5.35413C6.62097 5.38089 6.60492 5.41657 6.60492 5.45404ZM7.73783 5.87688L12.0911 1.55218L12.8957 2.3586L8.5389 6.68686L7.72356 6.70471L7.73783 5.87688Z" fill="#5A5C60"/>
<path d="M13.1686 5.31666V14.7011H3.28456V1.28456H9.24351C9.32201 1.28456 9.38624 1.22033 9.38624 1.14183V0.142729C9.38624 0.0642281 9.32201 0 9.24351 0H2.57092C2.25513 0 2 0.255128 2 0.570917V15.4148C2 15.7305 2.25513 15.9857 2.57092 15.9857H13.8822C14.198 15.9857 14.4531 15.7305 14.4531 15.4148V5.31666C14.4531 5.23816 14.3889 5.17393 14.3104 5.17393H13.3113C13.2328 5.17393 13.1686 5.23816 13.1686 5.31666Z" fill="#5A5C60"/>
</svg>
