<svg width="16" height="16" viewBox="0 0 16 16" fill="none" xmlns="http://www.w3.org/2000/svg">
<path d="M13.7338 1H2.26775C1.56814 1 1 1.61406 1 2.37023V11.4171C1 12.1733 1.56814 12.7873 2.26775 12.7873H5.2853L7.62046 14.8478C7.73628 14.9493 7.87557 15 8.01643 15C8.15573 15 8.29659 14.9493 8.41084 14.8478L10.7585 12.7873H13.7322C14.4319 12.7873 15 12.1733 15 11.4171V2.37023C15.0016 1.61406 14.4319 1 13.7338 1ZM13.7495 11.4171C13.7495 11.4256 13.7416 11.434 13.7338 11.434H10.5378C10.3938 11.434 10.2546 11.4882 10.1434 11.5863L8.018 13.4505L5.90509 11.5863C5.79396 11.4882 5.6531 11.434 5.50911 11.434H2.26775C2.25992 11.434 2.2521 11.4256 2.2521 11.4171V2.37023C2.2521 2.36177 2.25992 2.35331 2.26775 2.35331H13.7322C13.7401 2.35331 13.7479 2.36177 13.7479 2.37023V11.4171H13.7495Z" fill="#5A5C60"/>
<path d="M4.7207 7.11914C4.7207 7.30044 4.79272 7.47432 4.92092 7.60251C5.04912 7.73071 5.223 7.80273 5.4043 7.80273C5.5856 7.80273 5.75947 7.73071 5.88767 7.60251C6.01587 7.47432 6.08789 7.30044 6.08789 7.11914C6.08789 6.93784 6.01587 6.76397 5.88767 6.63577C5.75947 6.50757 5.5856 6.43555 5.4043 6.43555C5.223 6.43555 5.04912 6.50757 4.92092 6.63577C4.79272 6.76397 4.7207 6.93784 4.7207 7.11914Z" fill="#5A5C60"/>
<path d="M7.33008 7.11932C7.33008 7.30062 7.4021 7.4745 7.5303 7.6027C7.6585 7.7309 7.83237 7.80292 8.01367 7.80292C8.19497 7.80292 8.36885 7.7309 8.49705 7.6027C8.62524 7.4745 8.69727 7.30062 8.69727 7.11932C8.69727 6.93802 8.62524 6.76415 8.49705 6.63595C8.36885 6.50775 8.19497 6.43573 8.01367 6.43573C7.83237 6.43573 7.6585 6.50775 7.5303 6.63595C7.4021 6.76415 7.33008 6.93802 7.33008 7.11932Z" fill="#5A5C60"/>
<path d="M9.94531 7.11914C9.94531 7.30044 10.0173 7.47432 10.1455 7.60251C10.2737 7.73071 10.4476 7.80273 10.6289 7.80273C10.8102 7.80273 10.9841 7.73071 11.1123 7.60251C11.2405 7.47432 11.3125 7.30044 11.3125 7.11914C11.3125 6.93784 11.2405 6.76397 11.1123 6.63577C10.9841 6.50757 10.8102 6.43555 10.6289 6.43555C10.4476 6.43555 10.2737 6.50757 10.1455 6.63577C10.0173 6.76397 9.94531 6.93784 9.94531 7.11914Z" fill="#5A5C60"/>
</svg>
