<svg width="16" height="16" viewBox="0 0 16 16" fill="none" xmlns="http://www.w3.org/2000/svg">
<g clip-path="url(#clip0_5196_14960)">
<path d="M7.20811 9.22637H2.88321V10.3796H1.73006C1.57713 10.3796 1.43047 10.3189 1.32233 10.2107C1.21418 10.1026 1.15342 9.95596 1.1534 9.80303V7.4964C1.1534 7.34346 1.21415 7.19678 1.3223 7.08864C1.43044 6.98049 1.57712 6.91974 1.73006 6.91974H2.88329V8.07306H9.80311V6.91974H10.9564C11.9118 6.91974 12.6863 6.14521 12.6863 5.18985V2.88321C12.6863 1.92785 11.9118 1.15332 10.9564 1.15332H9.80311V0H2.88321V3.45987H9.80303V2.30655H10.9563C11.1092 2.30655 11.2559 2.36731 11.364 2.47545C11.4722 2.5836 11.5329 2.73027 11.5329 2.88321V5.18985C11.5329 5.34278 11.4722 5.48946 11.364 5.5976C11.2559 5.70575 11.1092 5.7665 10.9563 5.7665H9.80311V4.61319H2.88321V5.7665H1.73006C0.774529 5.7665 0 6.54095 0 7.4964V9.80303C0 10.7584 0.774529 11.5329 1.72998 11.5329H2.88321V12.6862H6.91974C7.07268 12.6862 7.21935 12.6255 7.3275 12.5173C7.43564 12.4092 7.4964 12.2625 7.4964 12.1096C7.4964 11.9566 7.43564 11.81 7.3275 11.7018C7.21935 11.5937 7.07268 11.5329 6.91974 11.5329H4.03653V10.3796H7.20811C7.35986 10.3778 7.50478 10.3163 7.61145 10.2083C7.71812 10.1004 7.77795 9.95475 7.77795 9.80299C7.77795 9.65123 7.71812 9.50559 7.61145 9.39765C7.50478 9.28971 7.35986 9.22817 7.20811 9.22637ZM8.64972 2.30655H4.03653V1.15332H8.64972V2.30647V2.30655ZM4.03653 5.76658H8.64972V6.91982H4.03653V5.76658Z" fill="#5A5C60"/>
<path d="M12 8C9.79084 8 8 9.79084 8 12C8 14.2092 9.79084 16 12 16C14.2092 16 16 14.2092 16 12C16 9.79084 14.2092 8 12 8ZM13.8853 12.9427C13.948 13.0053 13.9846 13.0882 13.9846 13.1769C13.9846 13.2655 13.948 13.3542 13.8853 13.4169L13.4159 13.8863C13.3533 13.9489 13.2646 13.9855 13.1759 13.9855C13.0872 13.9855 13.0034 13.9489 12.9417 13.8863L11.999 12.9436L11.0564 13.8863C10.9937 13.9489 10.9108 13.9855 10.8222 13.9855C10.7335 13.9855 10.6448 13.9489 10.5822 13.8863L10.1137 13.4169C10.0511 13.3542 10.0145 13.2655 10.0145 13.1769C10.0145 13.0882 10.0511 13.0043 10.1137 12.9427L11.0564 12L10.1137 11.0573C10.0511 10.9947 10.0145 10.9118 10.0145 10.8231C10.0145 10.7345 10.0511 10.6458 10.1137 10.5831L10.5831 10.1137C10.6458 10.0511 10.7345 10.0145 10.8231 10.0145C10.9118 10.0145 10.9957 10.0511 11.0573 10.1137L12 11.0564L12.9427 10.1137C13.0053 10.0511 13.0882 10.0145 13.1769 10.0145C13.2655 10.0145 13.3542 10.0511 13.4169 10.1137L13.8863 10.5831C13.9489 10.6458 13.9855 10.7345 13.9855 10.8231C13.9855 10.9118 13.9489 10.9957 13.8863 11.0573L12.9427 12L13.8853 12.9427Z" fill="#5A5C60"/>
</g>
<defs>
<clipPath id="clip0_5196_14960">
<rect width="16" height="16" fill="white"/>
</clipPath>
</defs>
</svg>
