<svg width="24" height="24" viewBox="0 0 24 24" fill="none" xmlns="http://www.w3.org/2000/svg">
<path d="M20.1001 7.80139C20.5974 7.80139 21 8.17451 21 8.63501V19.1666C21.0001 19.2761 20.9768 19.3845 20.9316 19.4856C20.8864 19.5867 20.8201 19.6786 20.7366 19.7561C20.653 19.8335 20.5538 19.8949 20.4446 19.9368C20.3354 19.9787 20.2183 20.0002 20.1001 20.0002H3.89992C3.66125 20.0002 3.43235 19.9125 3.26358 19.7562C3.09481 19.5999 3 19.388 3 19.167V5.83349C3 5.37337 3.40298 5.00024 3.89992 5.00024H10.5728L12.3726 7.80139H15.6005V9.46864H17.4003V7.80139H20.1001ZM17.4003 14.4681H15.5997V16.135H13.7998V18.6348H17.3999L17.4003 14.4681ZM15.6001 12.8016H13.8002V14.4681H15.5997L15.6001 12.8016ZM17.4003 11.1348H15.5997L15.6001 12.8016H17.3999L17.4003 11.1348ZM15.6005 9.46864H13.7998V11.1351L15.5997 11.1348L15.6005 9.46864Z" fill="#5A5C60"/>
</svg>
