<svg width="12" height="12" viewBox="0 0 12 12" fill="none" xmlns="http://www.w3.org/2000/svg">
<path d="M2.28195 3.35938H1.64327C1.60274 3.35938 1.56958 3.39254 1.56958 3.43307V9.5521C1.56958 9.59263 1.60274 9.62579 1.64327 9.62579H2.28195C2.32248 9.62579 2.35565 9.59263 2.35565 9.5521V3.43307C2.35565 3.39131 2.32371 3.35938 2.28195 3.35938Z" fill="#5A5C60"/>
<path d="M4.71516 9.01418V9.57057C4.71516 9.6111 4.682 9.64426 4.64147 9.64426H4.00279C3.96226 9.64426 3.9291 9.6111 3.9291 9.57057V6.97164C3.9291 6.93111 3.96226 6.89795 4.00279 6.89795H4.64638C4.68691 6.89795 4.72008 6.93111 4.72008 6.97164V7.54154C4.72008 7.6226 4.7864 7.68892 4.86746 7.68892H10.8514C10.9324 7.68892 10.9988 7.6226 10.9988 7.54154V5.47443C10.9988 5.39337 10.9324 5.32704 10.8514 5.32704H4.86746C4.7864 5.32704 4.72008 5.39337 4.72008 5.47443V6.03942C4.72008 6.07995 4.68691 6.11311 4.64638 6.11311H4.00279C3.96226 6.11311 3.9291 6.07995 3.9291 6.03942V3.43189C3.9291 3.39136 3.96226 3.3582 4.00279 3.3582H4.64147C4.682 3.3582 4.71516 3.39136 4.71516 3.43189V4.00179C4.71516 4.08285 4.78149 4.14917 4.86255 4.14917H10.8465C10.9275 4.14917 10.9939 4.08285 10.9939 4.00179V1.93345C10.9939 1.85239 10.9275 1.78607 10.8465 1.78607H4.86255C4.78149 1.78607 4.71516 1.85239 4.71516 1.93345V2.49844C4.71516 2.53897 4.682 2.57213 4.64147 2.57213H4.00279C3.96226 2.57213 3.9291 2.53897 3.9291 2.49844V1.93468C3.9291 1.85362 3.86277 1.78729 3.78171 1.78729H2.42943C2.3889 1.78729 2.35574 1.75413 2.35574 1.7136V1.07369C2.35574 1.03316 2.32258 1 2.28205 1H1.64337C1.60284 1 1.56967 1.03316 1.56967 1.07369V1.7136C1.56967 1.75413 1.53651 1.78729 1.49598 1.78729H0.147387C0.0663243 1.78729 0 1.85362 0 1.93468V11.0678C0 11.1488 0.0663243 11.2152 0.147387 11.2152H1.49598C1.53651 11.2152 1.56967 11.2483 1.56967 11.2889V11.9263C1.56967 11.9668 1.60284 12 1.64337 12H2.28205C2.32258 12 2.35574 11.9668 2.35574 11.9263V11.2889C2.35574 11.2483 2.3889 11.2152 2.42943 11.2152H3.78048C3.86155 11.2152 3.92787 11.1488 3.92787 11.0678V10.504C3.92787 10.4635 3.96103 10.4303 4.00156 10.4303H4.64024C4.68077 10.4303 4.71393 10.4635 4.71393 10.504V11.0825C4.71393 11.1636 4.78026 11.2299 4.86132 11.2299H10.8588C10.9398 11.2299 11.0061 11.1636 11.0061 11.0825V9.01418C11.0061 8.93312 10.9398 8.86679 10.8588 8.86679H4.86255C4.78149 8.86679 4.71516 8.93312 4.71516 9.01418ZM5.57983 6.11311H10.139C10.1795 6.11311 10.2127 6.14627 10.2127 6.1868V6.82916C10.2127 6.8697 10.1795 6.90286 10.139 6.90286H5.57983C5.5393 6.90286 5.50614 6.8697 5.50614 6.82916V6.1868C5.50614 6.14504 5.5393 6.11311 5.57983 6.11311ZM5.57492 2.57213H10.1341C10.1746 2.57213 10.2078 2.60529 10.2078 2.64582V3.28819C10.2078 3.32872 10.1746 3.36188 10.1341 3.36188H5.57492C5.53439 3.36188 5.50123 3.32872 5.50123 3.28819V2.64582C5.50123 2.60529 5.53439 2.57213 5.57492 2.57213ZM3.06934 10.4291H0.859759C0.819227 10.4291 0.786065 10.3959 0.786065 10.3554V2.64705C0.786065 2.60652 0.819227 2.57336 0.859759 2.57336H3.06934C3.10987 2.57336 3.14303 2.60652 3.14303 2.64705V10.3554C3.14303 10.3972 3.10987 10.4291 3.06934 10.4291ZM10.1476 10.4438H5.57492C5.53439 10.4438 5.50123 10.4107 5.50123 10.3701V9.72778C5.50123 9.68725 5.53439 9.65409 5.57492 9.65409H10.1476C10.1881 9.65409 10.2213 9.68725 10.2213 9.72778V10.3701C10.2213 10.4107 10.1881 10.4438 10.1476 10.4438Z" fill="#5A5C60"/>
</svg>
