<svg width="12" height="12" viewBox="0 0 12 12" fill="none" xmlns="http://www.w3.org/2000/svg">
<path d="M8.91736 0H3.06921C2.80179 0 2.58544 0.215842 2.58544 0.482628V2.62898C2.58544 2.89577 2.80179 3.11161 3.06921 3.11161H8.91736C9.18477 3.11161 9.40112 2.89577 9.40112 2.62898V0.482628C9.40112 0.215842 9.18477 0 8.91736 0ZM8.43359 2.14635H3.55297V0.965255H8.43359V2.14635ZM7.84233 4.43883H4.14423C3.28421 4.43883 2.58544 5.1373 2.58544 5.99397C2.58544 6.85197 3.28555 7.5491 4.14423 7.5491H7.84233C8.70235 7.5491 9.40112 6.85063 9.40112 5.99397C9.40112 5.13596 8.70235 4.43883 7.84233 4.43883ZM7.84233 6.58385H4.14423C3.81769 6.58385 3.55297 6.3184 3.55297 5.99397C3.55297 5.66819 3.81904 5.40409 4.14423 5.40409H7.84233C8.16887 5.40409 8.43359 5.66953 8.43359 5.99397C8.43359 6.31974 8.16887 6.58385 7.84233 6.58385ZM8.89586 8.88839H3.04636C2.77895 8.88839 2.5626 9.10423 2.5626 9.37102V11.5174C2.5626 11.7842 2.77895 12 3.04636 12H8.89586C9.16327 12 9.37962 11.7842 9.37962 11.5174V9.37102C9.37962 9.10423 9.16193 8.88839 8.89586 8.88839ZM8.41209 11.0347H3.53012V9.85365H8.41209V11.0347ZM1.56417 1.37817C1.1019 1.61144 0.710862 1.96805 0.435386 2.40644C0.150504 2.85823 0 3.38107 0 3.91599C0 4.55413 0.206943 5.15607 0.597984 5.65881C0.599328 5.66015 0.600672 5.66283 0.602016 5.66417L0.0403135 6.02212C-0.0201568 6.061 -0.00403133 6.1535 0.0658455 6.16825L1.62329 6.51011C1.66629 6.51949 1.70929 6.49268 1.7187 6.44978L2.06809 4.90001C2.08421 4.8303 2.00627 4.77667 1.9458 4.81421L1.41366 5.15071C1.39888 5.12122 1.38141 5.09306 1.36125 5.06759C1.10325 4.73645 0.966181 4.33829 0.966181 3.91599C0.966181 3.20411 1.3626 2.56195 1.99955 2.23886C2.2374 2.1182 2.33281 1.82862 2.21187 1.58999C2.09093 1.35136 1.80202 1.25751 1.56417 1.37817ZM11.8455 10.3604L11.3577 9.95956C11.3711 9.94615 11.3859 9.9314 11.398 9.91532C11.7863 9.43537 12 8.83209 12 8.21405C12 7.73009 11.8697 7.25416 11.6251 6.83857C11.3872 6.43638 11.0473 6.09988 10.6414 5.86527C10.5729 5.82639 10.503 5.78885 10.4318 5.75533C10.1899 5.64272 9.90235 5.74729 9.78813 5.9886C9.67525 6.22992 9.78007 6.51681 10.0219 6.63077C10.0676 6.65222 10.1133 6.67635 10.1577 6.70048C10.6965 7.01553 11.0325 7.59468 11.0325 8.21539C11.0325 8.61893 10.8981 8.99698 10.6455 9.31069C10.6347 9.3241 10.6253 9.3375 10.6159 9.35091L10.1012 8.92861C10.0461 8.88303 9.96282 8.92727 9.96954 8.99832L10.1281 10.5816C10.1321 10.6259 10.1725 10.658 10.2155 10.654L11.7998 10.5025C11.8737 10.4958 11.9006 10.406 11.8455 10.3604Z" fill="#5A5C60"/>
</svg>
