<svg width="12" height="12" viewBox="0 0 12 12" fill="none" xmlns="http://www.w3.org/2000/svg">
<path fill-rule="evenodd" clip-rule="evenodd" d="M11.5 10.875C11.5 11.4961 10.9961 12 10.375 12H2.125C1.50391 12 1 11.4961 1 10.875V2.625C1 2.00391 1.50391 1.5 2.125 1.5H3.25V0.28125C3.25 0.126563 3.37656 0 3.53125 0H4.46875C4.62344 0 4.75 0.126563 4.75 0.28125V1.5H7.75V0.28125C7.75 0.126563 7.87656 0 8.03125 0H8.96875C9.12344 0 9.25 0.126563 9.25 0.28125V1.5H10.375C10.9961 1.5 11.5 2.00391 11.5 2.625V10.875ZM3.53125 6.75H4.46875C4.62344 6.75 4.75 6.62344 4.75 6.46875V5.53125C4.75 5.37656 4.62344 5.25 4.46875 5.25H3.53125C3.37656 5.25 3.25 5.37656 3.25 5.53125V6.46875C3.25 6.62344 3.37656 6.75 3.53125 6.75ZM7 5.53125V6.46875C7 6.62344 6.87344 6.75 6.71875 6.75H5.78125C5.62656 6.75 5.5 6.62344 5.5 6.46875V5.53125C5.5 5.37656 5.62656 5.25 5.78125 5.25H6.71875C6.87344 5.25 7 5.37656 7 5.53125ZM9.25 6.46875V5.53125C9.25 5.37656 9.12344 5.25 8.96875 5.25H8.03125C7.87656 5.25 7.75 5.37656 7.75 5.53125V6.46875C7.75 6.62344 7.87656 6.75 8.03125 6.75H8.96875C9.12344 6.75 9.25 6.62344 9.25 6.46875ZM7 7.78125V8.71875C7 8.87344 6.87344 9 6.71875 9H5.78125C5.62656 9 5.5 8.87344 5.5 8.71875V7.78125C5.5 7.62656 5.62656 7.5 5.78125 7.5H6.71875C6.87344 7.5 7 7.62656 7 7.78125ZM4.75 8.71875V7.78125C4.75 7.62656 4.62344 7.5 4.46875 7.5H3.53125C3.37656 7.5 3.25 7.62656 3.25 7.78125V8.71875C3.25 8.87344 3.37656 9 3.53125 9H4.46875C4.62344 9 4.75 8.87344 4.75 8.71875ZM9.25 7.78125V8.71875C9.25 8.87344 9.12344 9 8.96875 9H8.03125C7.87656 9 7.75 8.87344 7.75 8.71875V7.78125C7.75 7.62656 7.87656 7.5 8.03125 7.5H8.96875C9.12344 7.5 9.25 7.62656 9.25 7.78125ZM10.375 3.75V10.7344C10.375 10.8117 10.3117 10.875 10.2344 10.875H2.26562C2.18828 10.875 2.125 10.8117 2.125 10.7344V3.75H10.375Z" fill="#5A5C60"/>
<path fill-rule="evenodd" clip-rule="evenodd" d="M11.5 10.875C11.5 11.4961 10.9961 12 10.375 12H2.125C1.50391 12 1 11.4961 1 10.875V2.625C1 2.00391 1.50391 1.5 2.125 1.5H3.25V0.28125C3.25 0.126563 3.37656 0 3.53125 0H4.46875C4.62344 0 4.75 0.126563 4.75 0.28125V1.5H7.75V0.28125C7.75 0.126563 7.87656 0 8.03125 0H8.96875C9.12344 0 9.25 0.126563 9.25 0.28125V1.5H10.375C10.9961 1.5 11.5 2.00391 11.5 2.625V10.875ZM3.53125 6.75H4.46875C4.62344 6.75 4.75 6.62344 4.75 6.46875V5.53125C4.75 5.37656 4.62344 5.25 4.46875 5.25H3.53125C3.37656 5.25 3.25 5.37656 3.25 5.53125V6.46875C3.25 6.62344 3.37656 6.75 3.53125 6.75ZM7 5.53125V6.46875C7 6.62344 6.87344 6.75 6.71875 6.75H5.78125C5.62656 6.75 5.5 6.62344 5.5 6.46875V5.53125C5.5 5.37656 5.62656 5.25 5.78125 5.25H6.71875C6.87344 5.25 7 5.37656 7 5.53125ZM9.25 6.46875V5.53125C9.25 5.37656 9.12344 5.25 8.96875 5.25H8.03125C7.87656 5.25 7.75 5.37656 7.75 5.53125V6.46875C7.75 6.62344 7.87656 6.75 8.03125 6.75H8.96875C9.12344 6.75 9.25 6.62344 9.25 6.46875ZM7 7.78125V8.71875C7 8.87344 6.87344 9 6.71875 9H5.78125C5.62656 9 5.5 8.87344 5.5 8.71875V7.78125C5.5 7.62656 5.62656 7.5 5.78125 7.5H6.71875C6.87344 7.5 7 7.62656 7 7.78125ZM4.75 8.71875V7.78125C4.75 7.62656 4.62344 7.5 4.46875 7.5H3.53125C3.37656 7.5 3.25 7.62656 3.25 7.78125V8.71875C3.25 8.87344 3.37656 9 3.53125 9H4.46875C4.62344 9 4.75 8.87344 4.75 8.71875ZM9.25 7.78125V8.71875C9.25 8.87344 9.12344 9 8.96875 9H8.03125C7.87656 9 7.75 8.87344 7.75 8.71875V7.78125C7.75 7.62656 7.87656 7.5 8.03125 7.5H8.96875C9.12344 7.5 9.25 7.62656 9.25 7.78125ZM10.375 3.75V10.7344C10.375 10.8117 10.3117 10.875 10.2344 10.875H2.26562C2.18828 10.875 2.125 10.8117 2.125 10.7344V3.75H10.375Z" fill="#5A5C60"/>
</svg>
