<svg width="12" height="12" viewBox="0 0 12 12" fill="none" xmlns="http://www.w3.org/2000/svg">
<path d="M2.30769 2.28904C1.46154 3.15442 1 4.28904 1 5.48135C1 5.75058 1.21154 5.94289 1.46154 5.94289C1.71154 5.94289 1.92308 5.73135 1.92308 5.48135C1.90385 4.53904 2.28846 3.63519 2.96154 2.96212C3.63462 2.28904 4.55769 1.92365 5.48077 1.92365C5.75 1.92365 5.94231 1.71212 5.94231 1.46212C5.94231 1.19289 5.73077 1.00058 5.48077 1.00058C4.30769 0.981347 3.15385 1.44289 2.30769 2.28904ZM2.86538 5.48135C2.86538 5.75058 3.05769 5.94289 3.32692 5.94289C3.59615 5.94289 3.78846 5.73135 3.78846 5.48135C3.78846 5.03904 3.96154 4.59673 4.28846 4.28904C4.61538 3.96212 5.03846 3.80827 5.48077 3.78904C5.75 3.78904 5.94231 3.5775 5.94231 3.3275C5.94231 3.05827 5.75 2.86596 5.48077 2.86596C4.78846 2.86596 4.11538 3.13519 3.61538 3.61596C3.53846 3.71212 2.82692 4.42365 2.86538 5.48135V5.48135ZM9.36538 3.48135C9.19231 3.25058 8.96154 2.98135 8.92308 2.94289C8.86538 2.90442 8.78846 2.86596 8.71154 2.86596C8.63461 2.86596 8.55769 2.88519 8.51923 2.94289L6.57692 4.86596C6.11538 4.48135 5.42308 4.50058 4.98077 4.94289C4.53846 5.38519 4.51923 6.0775 4.90385 6.53904L3.03846 8.40442C2.98077 8.46212 2.94231 8.53904 2.94231 8.61596C2.94231 8.71212 2.98077 8.80827 3.05769 8.86596L3.57692 9.25058C4.28846 9.80827 5.17308 10.116 6.11538 10.116C8.38461 10.116 10.2308 8.26981 10.2308 6.00058C10.2308 5.0775 9.90385 4.19289 9.36538 3.48135V3.48135Z" fill="#5A5C60"/>
</svg>
