<svg width="12" height="12" viewBox="0 0 12 12" fill="none" xmlns="http://www.w3.org/2000/svg">
<g clip-path="url(#clip0_4165_12022)">
<path d="M6.53077 8.10468C7.45846 6.78838 8.10923 5.90038 8.48123 5.43792C8.83569 4.99853 9.17077 4.59792 9.492 4.23422C9.78369 3.90561 10.0735 3.60284 10.3542 3.31668C10.6588 3.00561 11.1 2.60222 11.6778 2.10745C11.6873 2.09921 11.695 2.08913 11.7004 2.07783C11.7058 2.06653 11.7089 2.05424 11.7094 2.04172C11.7099 2.0292 11.7079 2.0167 11.7034 2.00499C11.6989 1.99328 11.6921 1.9826 11.6834 1.97361L11.2726 1.55545C11.257 1.53982 11.2363 1.53029 11.2143 1.52859C11.1923 1.5269 11.1704 1.53315 11.1526 1.54622C10.3163 2.15545 9.73846 2.58284 9.41815 2.82745C9.13108 3.04622 8.86431 3.25576 8.61508 3.45515C8.36585 3.65268 8.11108 3.86868 7.84154 4.09484C7.52954 4.35607 6.98308 4.84253 6.19846 5.55145L4.64492 4.42899C4.6113 4.40453 4.5704 4.39213 4.52886 4.3938C4.48731 4.39548 4.44754 4.41113 4.416 4.43822L2.99077 5.66868C2.96985 5.6868 2.95327 5.70938 2.94225 5.73477C2.93124 5.76016 2.92607 5.78769 2.92714 5.81535C2.9282 5.843 2.93547 5.87006 2.9484 5.89452C2.96133 5.91899 2.9796 5.94023 3.00185 5.95668L6.00831 8.18868C6.04789 8.21812 6.09296 8.23933 6.14088 8.25106C6.18879 8.26278 6.23857 8.26479 6.28727 8.25696C6.33597 8.24913 6.38261 8.23162 6.42443 8.20547C6.46625 8.17931 6.50241 8.14505 6.53077 8.10468Z" fill="#5A5C60"/>
<path d="M1.46124 1.92287V10.0773C1.46124 10.1379 1.47318 10.198 1.49637 10.254C1.51957 10.31 1.55356 10.3608 1.59642 10.4037C1.63928 10.4466 1.69016 10.4805 1.74616 10.5037C1.80215 10.5269 1.86217 10.5389 1.92278 10.5389H10.0772C10.1379 10.5389 10.1979 10.5269 10.2539 10.5037C10.3099 10.4805 10.3607 10.4466 10.4036 10.4037C10.4465 10.3608 10.4805 10.31 10.5036 10.254C10.5268 10.198 10.5388 10.1379 10.5388 10.0773V5.57734C10.5359 5.50989 10.5467 5.44255 10.5705 5.37938C10.5943 5.31621 10.6306 5.25851 10.6773 5.20976C10.724 5.16101 10.7801 5.12221 10.8422 5.09571C10.9043 5.06921 10.9711 5.05554 11.0386 5.05554C11.1061 5.05554 11.1729 5.06921 11.235 5.09571C11.2971 5.12221 11.3532 5.16101 11.3999 5.20976C11.4466 5.25851 11.483 5.31621 11.5068 5.37938C11.5306 5.44255 11.5414 5.50989 11.5385 5.57734V10.6155C11.5385 10.8603 11.4412 11.0951 11.2681 11.2682C11.095 11.4413 10.8602 11.5386 10.6154 11.5386H1.38462C1.13981 11.5386 0.905021 11.4413 0.731911 11.2682C0.5588 11.0951 0.461548 10.8603 0.461548 10.6155V1.38472C0.461548 1.1399 0.5588 0.905117 0.731911 0.732006C0.905021 0.558896 1.13981 0.461643 1.38462 0.461643H7.80739C7.87484 0.458744 7.94218 0.469525 8.00535 0.493338C8.06852 0.51715 8.12622 0.553501 8.17497 0.600202C8.22372 0.646903 8.26252 0.702987 8.28902 0.765077C8.31552 0.827167 8.32919 0.893979 8.32919 0.961489C8.32919 1.029 8.31552 1.09581 8.28902 1.1579C8.26252 1.21999 8.22372 1.27608 8.17497 1.32278C8.12622 1.36948 8.06852 1.40583 8.00535 1.42964C7.94218 1.45345 7.87484 1.46423 7.80739 1.46134H1.92278C1.86217 1.46134 1.80215 1.47327 1.74616 1.49647C1.69016 1.51966 1.63928 1.55366 1.59642 1.59652C1.55356 1.63937 1.51957 1.69025 1.49637 1.74625C1.47318 1.80225 1.46124 1.86226 1.46124 1.92287Z" fill="#5A5C60"/>
</g>
<defs>
<clipPath id="clip0_4165_12022">
<rect width="12" height="12" fill="white"/>
</clipPath>
</defs>
</svg>
