<svg width="12" height="12" viewBox="0 0 12 12" fill="none" xmlns="http://www.w3.org/2000/svg">
<path d="M10.6364 2H0.818182C0.368182 2 0 2.36818 0 2.81818V10.1818C0 10.6318 0.368182 11 0.818182 11H10.6364C11.0864 11 11.4545 10.6318 11.4545 10.1818V2.81818C11.4545 2.36818 11.0864 2 10.6364 2ZM10.6364 9.77273C10.6364 9.97727 10.4727 10.1818 10.2273 10.1818H1.22727C0.981818 10.1818 0.818182 10.0182 0.818182 9.77273V3.22727C0.818182 3.02273 0.981818 2.81818 1.22727 2.81818H10.2273C10.4727 2.81818 10.6364 2.98182 10.6364 3.22727V9.77273Z" fill="#5A5C60"/>
<path d="M2.04544 3.63647C1.79999 3.63647 1.63635 3.80011 1.63635 4.04557V7.31829C1.63635 7.52284 1.79999 7.72738 2.04544 7.72738C2.2909 7.72738 2.45453 7.56375 2.45453 7.31829V4.04557C2.45453 3.84102 2.2909 3.63647 2.04544 3.63647ZM9.81817 9.77284C10.0636 9.77284 10.2273 9.6092 10.2273 9.36375V7.72738L8.18181 9.77284H9.81817Z" fill="#5A5C60"/>
</svg>
