<svg width="12" height="12" viewBox="0 0 12 12" fill="none" xmlns="http://www.w3.org/2000/svg">
<path d="M8.24921 0C7.26316 0 6.41053 0.736575 6.26053 1.67999C6.23921 1.73367 6.22895 1.79052 6.22895 1.84736L6.23132 9.49889C6.03158 10.3073 6.34184 11.1647 7.05079 11.6739C7.27943 11.8011 7.52546 11.8942 7.78105 11.9502L7.96658 11.9818L8.03526 11.9897L8.17026 11.9984L8.24921 11.9999C8.51516 12.0021 8.77888 11.9512 9.02492 11.8502C9.27096 11.7492 9.49438 11.6002 9.68211 11.4118C9.91713 11.171 10.0904 10.877 10.1872 10.5548C10.284 10.2325 10.3014 9.89167 10.2379 9.56126C11.2263 9.431 12 8.56811 12 7.5568C12 6.95049 11.7197 6.38128 11.2563 5.99918C11.4875 5.8108 11.674 5.57358 11.8026 5.30454C11.9312 5.03549 11.9986 4.74132 12 4.44313C12 3.4263 11.2184 2.56183 10.2245 2.43788L10.2497 2.30051C10.2633 2.20797 10.2702 2.11457 10.2703 2.02104C10.2659 1.48637 10.0516 0.974822 9.67352 0.596738C9.29544 0.218655 8.78389 0.00433289 8.24921 0V0ZM3.75079 0C3.21611 0.00433289 2.70456 0.218655 2.32648 0.596738C1.94839 0.974822 1.73407 1.48637 1.72974 2.02104C1.72974 2.16315 1.74553 2.30367 1.77632 2.44262C1.29522 2.51374 0.855351 2.7544 0.536025 3.1212C0.216698 3.48801 0.0389186 3.95682 0.0347372 4.44313C0.0345306 4.73808 0.0983823 5.02955 0.221878 5.29739C0.345374 5.56524 0.525568 5.80307 0.75 5.99444C0.282632 6.37575 -1.25483e-07 6.94733 -1.25483e-07 7.55759C-1.25483e-07 8.54758 0.743684 9.39863 1.70763 9.55258L1.68474 9.70889C1.63784 10.1941 1.75969 10.6807 2.02974 11.0865L2.11658 11.2128C2.17909 11.2967 2.2477 11.3759 2.32184 11.4497C2.67602 11.7709 3.12843 11.9629 3.60553 11.9944L3.75079 11.9999L3.87789 11.996L4.00263 11.9849L4.21263 11.9486C4.58077 11.8656 4.91762 11.6794 5.18368 11.4118C5.47293 11.1251 5.66321 10.7537 5.72684 10.3515C5.74742 10.3081 5.76101 10.2618 5.76711 10.2142L5.77184 10.1526L5.77105 6.66944C5.78047 6.57601 5.781 6.48191 5.77263 6.38839L5.77105 1.84736C5.77187 1.79848 5.76301 1.74991 5.745 1.70446C5.66581 1.23134 5.42255 0.801214 5.05789 0.489539C4.69324 0.177864 4.23047 0.00454897 3.75079 0V0ZM8.25 0.927626C8.84211 0.927626 9.34342 1.42815 9.34342 2.02104C9.34342 2.49157 9.06158 2.89577 8.62105 3.05367C8.38658 3.14761 8.25553 3.42472 8.34316 3.64103C8.36877 3.73499 8.42417 3.8181 8.50104 3.87789C8.57791 3.93767 8.6721 3.97091 8.76947 3.97261C8.79629 3.97358 8.82311 3.97093 8.84921 3.96471C8.88868 3.95445 8.925 3.93472 8.91237 3.93077C9.16653 3.83828 9.40014 3.69694 9.6 3.51472L9.71526 3.40182L9.84947 3.36867C9.90388 3.3563 9.95947 3.34995 10.0153 3.34972C10.6074 3.34972 11.1079 3.85024 11.1079 4.44313C11.1079 5.0005 10.6642 5.47734 10.1171 5.53102L10.0129 5.53655H9.97974C9.70737 5.53655 9.51632 5.7276 9.51632 5.99997C9.51632 6.2447 9.67105 6.4247 9.90079 6.45786L10.0832 6.46891C10.3524 6.49834 10.6017 6.62516 10.784 6.82551C10.9664 7.02586 11.0692 7.28594 11.0732 7.5568C11.0732 8.1489 10.5726 8.65021 9.97974 8.65021C9.42237 8.65021 8.94553 8.20653 8.89184 7.66022L8.88079 7.47785C8.84763 7.24812 8.66763 7.09338 8.42289 7.09338C8.15053 7.09338 7.95947 7.28443 7.95947 7.5568C7.96255 7.95097 8.07975 8.33581 8.29692 8.66478C8.51408 8.99375 8.8219 9.25275 9.18316 9.41047C9.40421 9.77284 9.38368 10.2268 9.12158 10.6049C9.06711 10.6839 9.00316 10.7549 8.93526 10.8134C8.49316 11.1655 7.87263 11.1307 7.46842 10.7265C7.36444 10.6246 7.28183 10.503 7.22544 10.3688C7.16905 10.2346 7.14 10.0905 7.14 9.94494C7.14 9.79937 7.16905 9.65526 7.22544 9.52106C7.28183 9.38685 7.36444 9.26525 7.46842 9.16337C7.51219 9.12117 7.547 9.07059 7.57078 9.01463C7.59455 8.95868 7.60681 8.89851 7.60681 8.83771C7.60681 8.77692 7.59455 8.71675 7.57078 8.66079C7.547 8.60484 7.51219 8.55425 7.46842 8.51206C7.402 8.44459 7.31665 8.39889 7.22368 8.38101L7.15579 8.37311V6.58891C7.15579 6.37733 7.19526 6.19339 7.28211 6.01812C7.39816 5.78602 7.63737 5.58944 7.90658 5.48918C8.17816 5.39839 8.45842 5.42129 8.74342 5.54681C8.97 5.68339 9.25026 5.59971 9.38921 5.36839C9.525 5.14102 9.44132 4.86155 9.20526 4.72024C8.73947 4.46919 8.19158 4.42103 7.66421 4.57182C7.52763 4.61129 7.39816 4.66576 7.27579 4.73445L7.15579 4.80866V2.02104C7.15579 1.42894 7.65711 0.927626 8.25 0.927626V0.927626ZM3.75158 0.927626C4.30895 0.927626 4.78579 1.37131 4.84026 1.91762L4.845 2.02025V4.8205C4.69816 4.72576 4.54026 4.65471 4.37211 4.60655C3.85712 4.45174 3.30192 4.50562 2.82632 4.75655C2.595 4.8955 2.51053 5.17576 2.64711 5.40313C2.78605 5.63365 3.06553 5.71813 3.285 5.58628C3.54762 5.45606 3.85067 5.4334 4.12974 5.52313C4.29381 5.57445 4.44286 5.66507 4.56394 5.78711C4.68502 5.90915 4.77445 6.05891 4.82447 6.22339L4.84658 6.29839L4.84579 8.40864C4.72798 8.41305 4.61637 8.46251 4.53395 8.54679C4.4565 8.62092 4.40806 8.72026 4.39735 8.82693C4.38664 8.9336 4.41436 9.04059 4.47553 9.12863L4.52842 9.19179L4.58684 9.24863L4.60263 9.28179L4.68237 9.41521C4.95079 9.90468 4.81105 10.5292 4.34289 10.8513C3.88263 11.167 3.25737 11.0889 2.89658 10.6799C2.78188 10.5292 2.70526 10.3531 2.67324 10.1664C2.64121 9.97978 2.65473 9.78815 2.71263 9.60784L2.76711 9.46574L2.77737 9.42784L2.90684 9.36863C3.24535 9.20145 3.53075 8.94351 3.73121 8.62358C3.93167 8.30366 4.0393 7.93433 4.04211 7.5568C4.04211 7.28443 3.85105 7.09338 3.57868 7.09338C3.33395 7.09338 3.15395 7.24812 3.12079 7.47785L3.10895 7.66575C3.0679 8.06048 2.80895 8.41101 2.48763 8.55943C2.36289 8.54679 2.23184 8.58311 2.18842 8.636C2.13553 8.64548 2.08026 8.65021 2.02184 8.65021C1.42974 8.65021 0.928421 8.14969 0.928421 7.5568C0.928421 6.99943 1.37211 6.5226 1.91763 6.46891L2.10079 6.45786C2.32974 6.4247 2.48526 6.2447 2.48526 5.99997C2.48526 5.75523 2.33053 5.57523 2.10079 5.54207L1.91842 5.53102C1.64913 5.50159 1.39988 5.37477 1.21755 5.17442C1.03523 4.97407 0.932402 4.714 0.928421 4.44313C0.928421 3.85103 1.42895 3.34972 2.02184 3.34972C2.10868 3.34972 2.205 3.36551 2.24842 3.3584C2.48563 3.62578 2.78931 3.82569 3.12868 3.93787C3.12158 3.93787 3.12 3.93787 3.12237 3.93945L3.16579 3.95998C3.18704 3.9688 3.20989 3.9731 3.23289 3.97261C3.32755 3.97174 3.41944 3.94063 3.49514 3.88381C3.57085 3.827 3.6264 3.74746 3.65368 3.65682C3.74605 3.42393 3.615 3.14761 3.37579 3.05209C3.19658 2.98735 3.04026 2.88077 2.93684 2.7663C2.92106 2.73224 2.90089 2.70039 2.87684 2.67156L2.84763 2.64551L2.80342 2.57446C2.70868 2.40946 2.65816 2.2192 2.65816 2.02104C2.65816 1.42894 3.15947 0.927626 3.75158 0.927626V0.927626Z" fill="#5A5C60"/>
</svg>
