<svg width="12" height="12" viewBox="0 0 12 12" fill="none" xmlns="http://www.w3.org/2000/svg">
<path d="M8.56178 1C7.6579 1 6.87632 1.67519 6.73882 2.53999C6.71928 2.5892 6.70987 2.64131 6.70987 2.69341L6.71204 9.70732C6.52895 10.4484 6.81336 11.2343 7.46322 11.7011C7.67281 11.8177 7.89833 11.903 8.13263 11.9543L8.3027 11.9833L8.36566 11.9905L8.48941 11.9985L8.56178 11.9999C8.80557 12.0019 9.0473 11.9553 9.27284 11.8627C9.49838 11.7701 9.70318 11.6335 9.87526 11.4608C10.0907 11.2401 10.2496 10.9706 10.3383 10.6752C10.427 10.3798 10.4429 10.0674 10.3847 9.76449C11.2908 9.64508 12 8.8541 12 7.92707C12 7.37128 11.7431 6.84951 11.3183 6.49925C11.5302 6.32657 11.7012 6.10911 11.8191 5.86249C11.9369 5.61587 11.9987 5.34621 12 5.07287C12 4.14077 11.2836 3.34834 10.3724 3.23472L10.3956 3.1088C10.408 3.02398 10.4143 2.93836 10.4144 2.85262C10.4104 2.3625 10.214 1.89359 9.86739 1.54701C9.52082 1.20043 9.0519 1.00397 8.56178 1V1ZM4.43822 1C3.9481 1.00397 3.47918 1.20043 3.1326 1.54701C2.78603 1.89359 2.58956 2.3625 2.58559 2.85262C2.58559 2.98288 2.60007 3.1117 2.62829 3.23907C2.18728 3.30426 1.78407 3.52487 1.49136 3.8611C1.19864 4.19734 1.03568 4.62709 1.03184 5.07287C1.03165 5.34324 1.09018 5.61042 1.20339 5.85594C1.31659 6.10147 1.48177 6.31948 1.6875 6.4949C1.25908 6.84444 1 7.36839 1 7.92779C1 8.83529 1.68171 9.61541 2.56533 9.75653L2.54434 9.89982C2.50136 10.3446 2.61305 10.7906 2.86059 11.1626L2.9402 11.2784C2.9975 11.3553 3.06039 11.4279 3.12836 11.4955C3.45302 11.79 3.86772 11.966 4.30507 11.9949L4.43822 11.9999L4.55474 11.9963L4.66908 11.9862L4.86158 11.9529C5.19904 11.8768 5.50782 11.7061 5.75171 11.4608C6.01685 11.1981 6.19127 10.8576 6.24961 10.4889C6.26847 10.4491 6.28092 10.4066 6.28651 10.363L6.29086 10.3065L6.29013 7.11365C6.29876 7.02801 6.29925 6.94175 6.29158 6.85602L6.29013 2.69341C6.29088 2.6486 6.28276 2.60409 6.26625 2.56243C6.19366 2.12873 5.97067 1.73445 5.6364 1.44874C5.30213 1.16304 4.87793 1.00417 4.43822 1V1ZM8.5625 1.85032C9.10526 1.85032 9.5648 2.30914 9.5648 2.85262C9.5648 3.28393 9.30645 3.65446 8.90263 3.7992C8.6877 3.88531 8.56757 4.13932 8.64789 4.33761C8.67137 4.42374 8.72216 4.49992 8.79262 4.55473C8.86309 4.60954 8.94943 4.64 9.03868 4.64156C9.06326 4.64245 9.08785 4.64002 9.11178 4.63432C9.14796 4.62491 9.18125 4.60682 9.16967 4.6032C9.40266 4.51843 9.61679 4.38886 9.8 4.22182L9.90566 4.11834L10.0287 4.08794C10.0786 4.07661 10.1295 4.07079 10.1807 4.07057C10.7234 4.07057 11.1822 4.52939 11.1822 5.07287C11.1822 5.58379 10.7755 6.02089 10.274 6.0701L10.1785 6.07517H10.1481C9.89842 6.07517 9.72329 6.2503 9.72329 6.49997C9.72329 6.72431 9.86513 6.88931 10.0757 6.9197L10.2429 6.92984C10.4897 6.95681 10.7182 7.07306 10.8854 7.25672C11.0525 7.44038 11.1467 7.67878 11.1504 7.92707C11.1504 8.46983 10.6916 8.92936 10.1481 8.92936C9.63717 8.92936 9.20007 8.52266 9.15086 8.02187L9.14072 7.8547C9.11033 7.64411 8.94533 7.50227 8.72099 7.50227C8.47132 7.50227 8.29618 7.6774 8.29618 7.92707C8.299 8.28839 8.40644 8.64116 8.60551 8.94271C8.80457 9.24427 9.08674 9.48169 9.41789 9.62627C9.62053 9.95844 9.60171 10.3746 9.36145 10.7212C9.31151 10.7936 9.25289 10.8587 9.19066 10.9122C8.78539 11.235 8.21658 11.2032 7.84605 10.8326C7.75074 10.7393 7.67501 10.6278 7.62332 10.5048C7.57163 10.3817 7.545 10.2496 7.545 10.1162C7.545 9.98276 7.57163 9.85066 7.62332 9.72764C7.67501 9.60462 7.75074 9.49315 7.84605 9.39976C7.88617 9.36108 7.91808 9.3147 7.93988 9.26341C7.96167 9.21212 7.97291 9.15697 7.97291 9.10124C7.97291 9.04551 7.96167 8.99035 7.93988 8.93906C7.91808 8.88777 7.88617 8.8414 7.84605 8.80272C7.78517 8.74088 7.70693 8.69899 7.62171 8.68259L7.55947 8.67535V7.03983C7.55947 6.84589 7.59566 6.67727 7.67526 6.51661C7.78164 6.30385 8.00092 6.12366 8.2477 6.03175C8.49664 5.94853 8.75355 5.96951 9.0148 6.08458C9.2225 6.20977 9.47941 6.13306 9.60678 5.92103C9.73125 5.71261 9.65454 5.45642 9.43816 5.32688C9.01118 5.09675 8.50895 5.05261 8.02553 5.19083C7.90033 5.22702 7.78164 5.27695 7.66947 5.33991L7.55947 5.40794V2.85262C7.55947 2.30986 8.01901 1.85032 8.5625 1.85032ZM4.43895 1.85032C4.94987 1.85032 5.38697 2.25703 5.43691 2.75782L5.44125 2.8519V5.41879C5.30664 5.33195 5.16191 5.26682 5.00776 5.22267C4.5357 5.08077 4.02676 5.13015 3.59079 5.36017C3.37875 5.48754 3.30132 5.74445 3.42651 5.95287C3.55388 6.16418 3.81007 6.24162 4.01125 6.12076C4.25198 6.00139 4.52978 5.98062 4.78559 6.06287C4.93599 6.10991 5.07262 6.19298 5.18361 6.30485C5.2946 6.41672 5.37658 6.554 5.42243 6.70477L5.4427 6.77352L5.44197 8.70792C5.33399 8.71197 5.23167 8.7573 5.15612 8.83456C5.08512 8.90251 5.04072 8.99357 5.0309 9.09135C5.02108 9.18913 5.0465 9.28721 5.10257 9.36791L5.15105 9.42581L5.20461 9.47791L5.21908 9.50831L5.29217 9.63061C5.53822 10.0793 5.41013 10.6517 4.98099 10.947C4.55908 11.2365 3.98592 11.1648 3.6552 10.7899C3.55006 10.6518 3.47982 10.4903 3.45047 10.3192C3.42111 10.1481 3.4335 9.97247 3.48658 9.80719L3.53651 9.67693L3.54592 9.64219L3.66461 9.58791C3.9749 9.43466 4.23652 9.19822 4.42028 8.90495C4.60403 8.61169 4.7027 8.27313 4.70526 7.92707C4.70526 7.6774 4.53013 7.50227 4.28046 7.50227C4.05612 7.50227 3.89112 7.64411 3.86072 7.8547L3.84987 8.02693C3.81224 8.38877 3.57487 8.71009 3.28033 8.84614C3.16599 8.83456 3.04586 8.86785 3.00605 8.91634C2.95757 8.92502 2.90691 8.92936 2.85336 8.92936C2.31059 8.92936 1.85105 8.47055 1.85105 7.92707C1.85105 7.41615 2.25776 6.97905 2.75783 6.92984L2.92572 6.9197C3.13559 6.88931 3.27816 6.72431 3.27816 6.49997C3.27816 6.27563 3.13632 6.11063 2.92572 6.08024L2.75855 6.0701C2.5117 6.04313 2.28322 5.92688 2.11609 5.74322C1.94896 5.55956 1.8547 5.32116 1.85105 5.07287C1.85105 4.53011 2.30987 4.07057 2.85336 4.07057C2.93296 4.07057 3.02125 4.08505 3.06105 4.07854C3.27849 4.32363 3.55687 4.50688 3.86796 4.60972C3.86145 4.60972 3.86 4.60972 3.86217 4.61116L3.90197 4.62998C3.92145 4.63807 3.9424 4.64201 3.96349 4.64156C4.05025 4.64076 4.13448 4.61224 4.20388 4.56016C4.27328 4.50808 4.3242 4.43517 4.34921 4.35209C4.43388 4.1386 4.31375 3.88531 4.09447 3.79775C3.9302 3.73841 3.78691 3.64071 3.69211 3.53578C3.67764 3.50455 3.65915 3.47536 3.6371 3.44893L3.61033 3.42505L3.5698 3.35992C3.48296 3.20867 3.43664 3.03427 3.43664 2.85262C3.43664 2.30986 3.89618 1.85032 4.43895 1.85032Z" fill="#5A5C60"/>
</svg>
