<svg width="12" height="12" viewBox="0 0 12 12" fill="none" xmlns="http://www.w3.org/2000/svg">
<path fill-rule="evenodd" clip-rule="evenodd" d="M2.09524 8.71429V3L0 3.20118V4.06393H1.06532V8.71429H2.09524ZM7.61905 8.71429V7.84767H5.47681L5.46961 7.82832L6.33371 6.71409C6.74175 6.22146 7.02918 5.83586 7.196 5.55731C7.36282 5.27875 7.44623 4.97053 7.44623 4.63265C7.44623 4.13486 7.29741 3.7383 6.99978 3.44298C6.70215 3.14766 6.2845 3 5.74684 3C5.20918 3 4.78074 3.17345 4.4615 3.52036C4.14227 3.86727 3.98865 4.29091 4.00065 4.79128L4.00785 4.81449H5.03036C5.03036 4.54109 5.09277 4.31541 5.21759 4.13744C5.3424 3.95947 5.51882 3.87049 5.74684 3.87049C5.96287 3.87049 6.12488 3.94013 6.2329 4.07941C6.34091 4.21869 6.39491 4.40439 6.39491 4.63652C6.39491 4.81449 6.34391 5.00987 6.2419 5.22265C6.13989 5.43544 5.96767 5.6953 5.72524 6.00222L4.10146 7.97534V8.71429H7.61905ZM11.4808 8.27751C11.1346 8.5687 10.6908 8.71429 10.1494 8.71429C9.67273 8.71429 9.25591 8.57696 8.89897 8.30231C8.54204 8.02766 8.36956 7.64238 8.38154 7.14648L8.38872 7.12359H9.40922C9.40922 7.33213 9.4781 7.50696 9.61584 7.6481C9.75358 7.78924 9.93145 7.85981 10.1494 7.85981C10.389 7.85981 10.583 7.78479 10.7316 7.63475C10.8801 7.48471 10.9543 7.29525 10.9543 7.06637C10.9543 6.77392 10.8849 6.55712 10.7459 6.41598C10.607 6.27484 10.4034 6.20427 10.1351 6.20427H9.55655V5.36887H10.1351C10.3842 5.36887 10.5693 5.30021 10.6902 5.16288C10.8112 5.02556 10.8717 4.83228 10.8717 4.58306C10.8717 4.37453 10.8082 4.2016 10.6813 4.06428C10.5543 3.92695 10.377 3.85829 10.1494 3.85829C9.9578 3.85829 9.7967 3.92059 9.66615 4.0452C9.53559 4.16981 9.47031 4.32876 9.47031 4.52203H8.457L8.44981 4.49914C8.43544 4.06428 8.59354 3.7057 8.92413 3.42342C9.25471 3.14114 9.66315 3 10.1494 3C10.6908 3 11.1208 3.13542 11.4394 3.40626C11.7581 3.67709 11.9174 4.06555 11.9174 4.57162C11.9174 4.82593 11.8485 5.05925 11.7107 5.2716C11.573 5.48395 11.3843 5.65115 11.1448 5.77322C11.4179 5.88257 11.6287 6.04851 11.7772 6.27103C11.9257 6.49355 12 6.76248 12 7.07782C12 7.58643 11.8269 7.98633 11.4808 8.27751Z" fill="#5A5C60"/>
</svg>
