<svg width="12" height="12" viewBox="0 0 12 12" fill="none" xmlns="http://www.w3.org/2000/svg">
<path d="M8.67014 8.3224C8.67014 7.71365 7.96733 6.96395 7.40843 6.87933L8.16655 5.60539H6.41229C6.72773 5.14319 6.93804 4.53433 6.93804 3.8579V3.70007C7.61874 3.57605 8.06142 3.37876 8.06142 3.18147C8.06142 2.9673 7.56892 2.76996 6.81629 2.64595C6.78309 2.46554 6.27397 1.00559 5.67633 1.00559C5.41071 1.00559 5.20035 1.14649 5.06203 1.36071C5.06203 1.46785 4.9569 1.57489 4.81852 1.57489C4.69677 1.57489 4.59164 1.48468 4.57506 1.3776C4.45321 1.16348 4.22633 1 3.96071 1C3.37965 1 2.83728 2.34157 2.71557 2.67981C2.06812 2.80383 1.6475 2.98419 1.6475 3.19841C1.6475 3.41258 2.08469 3.59294 2.77093 3.717V3.87484C2.77093 4.55127 2.96462 5.16007 3.29668 5.62232H1.54237L2.295 6.87374C1.73601 6.87369 1 7.65726 1 8.33933L1.01662 10.3912C1.01662 10.7294 1.2767 11 1.61431 11H8.09462C8.1732 11.0003 8.25107 10.9848 8.32373 10.9543C8.3964 10.9239 8.46242 10.879 8.51798 10.8224C8.57355 10.7658 8.61756 10.6986 8.64748 10.6246C8.6774 10.5506 8.69263 10.4712 8.6923 10.3912L8.67014 8.3224ZM4.38128 10.4983H4.09904L3.57329 6.55238L4.6746 7.53319L4.38128 10.4983ZM5.58768 10.4983H5.30543L5.00657 7.53319L6.11338 6.53545L5.58768 10.4983ZM6.25175 4.26942V4.39343H6.11343C6.11343 4.39343 6.02487 5.16007 5.55448 5.16007C5.07855 5.16007 4.99004 4.39343 4.99004 4.39343H4.67465C4.60272 5.01912 4.28728 5.16007 4.11571 5.16007C3.69514 5.16007 3.57334 4.59072 3.55676 4.39343H3.4129V4.14545H4.46434V4.26947H5.16721V4.14545H6.21866V4.26947H6.25175V4.26942Z" fill="#5A5C60"/>
<path d="M8.69226 2.53711H11V3.51009H8.69226V2.53711ZM8.69226 4.34643H10.1029V5.33527H8.69226V4.34643ZM8.69226 6.16365H10.7127V7.15249H8.69226V6.16365Z" fill="#5A5C60"/>
</svg>
