<svg width="12" height="12" viewBox="0 0 12 12" fill="none" xmlns="http://www.w3.org/2000/svg">
<path d="M11 8.18997V8.85714C11 10.0389 10.0389 11 8.85711 11H3.14285C1.9611 11 1 10.0389 1 8.85714V7.74609C1.04145 7.71612 1.07789 7.67897 1.10427 7.63145L2.69141 4.76512L3.87316 8.60513C3.91884 8.75476 4.05707 8.85689 4.21387 8.85728H4.21459C4.371 8.85728 4.50892 8.75587 4.55563 8.60656L5.99997 3.98328L7.44496 8.60656C7.49136 8.75587 7.62959 8.85728 7.78568 8.85728H7.78639C7.9428 8.85696 8.08105 8.75476 8.12711 8.60513L9.29355 4.8143L10.9485 8.12431C10.9618 8.15038 10.9818 8.16864 10.9999 8.19L11 8.18997ZM2.47326 3.68424C2.54253 3.55892 2.68036 3.48709 2.82291 3.50208C2.96545 3.51707 3.08503 3.61528 3.1272 3.75241L4.21719 7.29467L5.65931 2.67955C5.7057 2.52992 5.84394 2.42851 6.00002 2.42851C6.1561 2.42851 6.29435 2.52991 6.34106 2.67922L7.78318 7.29434L8.87317 3.75208C8.91606 3.61241 9.03962 3.51316 9.18535 3.50104C9.33036 3.48709 9.4686 3.56673 9.53429 3.69715L11 6.63002V3.14286C11 1.96111 10.0389 1 8.85715 1H3.14289C1.96114 1 1.00004 1.96111 1.00004 3.14286V6.34471L2.47326 3.68424Z" fill="#5A5C60"/>
</svg>
