<svg width="12" height="12" viewBox="0 0 12 12" fill="none" xmlns="http://www.w3.org/2000/svg">
<path fill-rule="evenodd" clip-rule="evenodd" d="M11.5461 8.27445C11.2396 8.54982 10.8165 8.6875 10.2769 8.6875C9.72673 8.6875 9.28264 8.51174 8.94458 8.16023C8.60653 7.80872 8.4375 7.35447 8.4375 6.79748V5.89315C8.4375 5.33824 8.60233 4.88399 8.93198 4.53039C9.26164 4.1768 9.69418 4 10.2296 4C10.7881 4 11.2249 4.1356 11.5398 4.40679C11.8548 4.67799 12.0081 5.05975 11.9997 5.55207L11.9934 5.57084H11.0989C11.0989 5.27879 11.028 5.06131 10.8863 4.91841C10.7446 4.77551 10.5257 4.70406 10.2296 4.70406C9.95455 4.70406 9.73985 4.81411 9.58552 5.03419C9.43119 5.25428 9.35403 5.53851 9.35403 5.88689V6.79748C9.35403 7.14795 9.43539 7.43374 9.59812 7.65487C9.76085 7.876 9.98709 7.98657 10.2769 7.98657C10.5519 7.98657 10.7572 7.91512 10.8926 7.77222C11.028 7.62932 11.0957 7.40975 11.0957 7.11353H11.9871L11.9934 7.1323C12.0018 7.61837 11.8527 7.99908 11.5461 8.27445ZM1.24067 7.71703L0.938966 8.6875H0L1.51158 4.1875H2.43208L3.9375 8.6875H2.99853L2.69375 7.71703H1.24067ZM1.5 7H2.625L2.07447 5.3125H2.05395L1.5 7ZM6.24004 8.6875C6.76133 8.6875 7.16415 8.57675 7.44849 8.35525C7.73283 8.13376 7.875 7.80769 7.875 7.37706C7.875 7.12157 7.80391 6.89801 7.66174 6.70639C7.51957 6.51477 7.30838 6.3932 7.02816 6.34169C7.2342 6.25927 7.3908 6.13668 7.49794 5.9739C7.60508 5.81113 7.65865 5.62672 7.65865 5.42067C7.65865 5.01271 7.5103 4.70519 7.2136 4.49811C6.9169 4.29104 6.50378 4.1875 5.97424 4.1875H4.5V8.6875H6.24004ZM5.4375 6.0625H6.02183C6.25557 6.0625 6.43536 6.01575 6.56122 5.92224C6.68707 5.82873 6.75 5.69237 6.75 5.51315C6.75 5.3164 6.68657 5.17127 6.55972 5.07776C6.43286 4.98425 6.24358 4.9375 5.99187 4.9375H5.4375V6.0625ZM6.14845 7.9375H5.25V6.625H6.13851C6.40594 6.625 6.60597 6.68438 6.73858 6.80312C6.87119 6.92188 6.9375 7.09167 6.9375 7.3125C6.9375 7.51875 6.87009 7.67448 6.73527 7.77969C6.60044 7.8849 6.40484 7.9375 6.14845 7.9375Z" fill="#5A5C60"/>
</svg>
