<svg width="12" height="12" viewBox="0 0 12 12" fill="none" xmlns="http://www.w3.org/2000/svg">
<path d="M9.676 7.136C9.676 6.936 9.608 6.764 9.468 6.612L5.372 2.524C5.228 2.38 5.028 2.256 4.788 2.152C4.54 2.048 4.32 2 4.12 2H1.736C1.536 2 1.364 2.076 1.22 2.22C1.076 2.364 1 2.536 1 2.736V5.112C1 5.312 1.048 5.54 1.152 5.78C1.256 6.028 1.372 6.22 1.524 6.364L5.62 10.46C5.764 10.604 5.936 10.668 6.136 10.668C6.336 10.668 6.508 10.6 6.66 10.46L9.468 7.652C9.6 7.508 9.676 7.336 9.676 7.136ZM3.348 4.356C3.204 4.5 3.032 4.568 2.832 4.568C2.632 4.568 2.46 4.5 2.316 4.356C2.172 4.212 2.104 4.04 2.104 3.84C2.104 3.64 2.172 3.468 2.316 3.324C2.46 3.18 2.632 3.112 2.832 3.112C3.032 3.112 3.204 3.18 3.348 3.324C3.492 3.468 3.556 3.64 3.556 3.84C3.568 4.044 3.492 4.212 3.348 4.356ZM11.664 6.608L7.568 2.524C7.424 2.38 7.224 2.256 6.984 2.152C6.736 2.048 6.516 2 6.316 2H5.028C5.228 2 5.456 2.048 5.696 2.152C5.944 2.256 6.136 2.372 6.28 2.524L10.376 6.608C10.52 6.76 10.588 6.932 10.588 7.132C10.588 7.332 10.52 7.504 10.376 7.648L7.692 10.34C7.808 10.456 7.912 10.54 7.996 10.596C8.08 10.652 8.196 10.672 8.332 10.672C8.532 10.672 8.704 10.604 8.856 10.46L11.664 7.644C11.808 7.5 11.872 7.328 11.872 7.128C11.872 6.928 11.804 6.764 11.664 6.608Z" fill="#5A5C60"/>
</svg>
