<svg width="12" height="12" viewBox="0 0 12 12" fill="none" xmlns="http://www.w3.org/2000/svg">
<path d="M8.95397 10.2003H1.231V2.97008C0.398633 2.80431 -0.138603 2.01204 0.0314064 1.20029C0.201262 0.388543 1.01396 -0.135139 1.84648 0.030629C2.67885 0.196247 3.21608 0.988663 3.04607 1.80026C2.98577 2.08845 2.8399 2.353 2.62661 2.56099C2.41333 2.76898 2.14203 2.91124 1.84648 2.97008V9.60018H8.95397C9.12383 8.78843 9.93652 8.26474 10.7689 8.43051C11.6014 8.59613 12.1385 9.38855 11.9686 10.2001C12.0142 10.4181 12.0096 10.6432 11.955 10.8591C11.9003 11.0751 11.7972 11.2765 11.6529 11.4487C11.5086 11.621 11.3268 11.7599 11.1208 11.8552C10.9147 11.9505 10.6894 12 10.4613 12C10.2332 12 10.0079 11.9505 9.80186 11.8552C9.59577 11.7599 9.414 11.621 9.26973 11.4487C9.12545 11.2765 9.02227 11.0751 8.96766 10.8591C8.91305 10.6432 8.90837 10.4181 8.95397 10.2001V10.2003ZM8.73155 4.75425L4.99703 8.40024H3.07712V6.52748L6.81241 2.8794L8.7317 4.7544L8.73155 4.75425ZM7.46462 2.24376L8.92231 0.827841L10.8436 2.69984L9.38453 4.11771L7.46524 2.24391H7.46462V2.24376ZM1.53859 2.39993C1.7834 2.39993 2.01818 2.30511 2.19129 2.13632C2.3644 1.96753 2.46165 1.73861 2.46165 1.4999C2.46165 1.2612 2.3644 1.03227 2.19129 0.863487C2.01818 0.694698 1.7834 0.599874 1.53859 0.599874C1.29378 0.599874 1.05899 0.694698 0.885883 0.863487C0.712776 1.03227 0.615525 1.2612 0.615525 1.4999C0.615525 1.73861 0.712776 1.96753 0.885883 2.13632C1.05899 2.30511 1.29378 2.39993 1.53859 2.39993ZM10.4615 10.8001C10.7063 10.8001 10.9411 10.7053 11.1142 10.5366C11.2873 10.3678 11.3846 10.1389 11.3846 9.90016C11.3846 9.66146 11.2874 9.43253 11.1143 9.26372C10.9412 9.09492 10.7064 9.00008 10.4616 9.00006H10.4615C10.2166 9.00006 9.98186 9.09488 9.80875 9.26367C9.63565 9.43246 9.5384 9.66138 9.5384 9.90009C9.5384 10.1388 9.63565 10.3677 9.80875 10.5365C9.98186 10.7053 10.2166 10.8001 10.4615 10.8001Z" fill="#576266"/>
</svg>
