<svg width="12" height="12" viewBox="0 0 12 12" fill="none" xmlns="http://www.w3.org/2000/svg">
<path d="M3.32582 7.47071C3.06739 7.47071 2.87357 7.27659 2.87357 7.01776C2.87357 6.75894 3.06739 6.56482 3.32582 6.56482H4.23033C4.48876 6.56482 4.68258 6.75894 4.68258 7.01776C4.68258 7.21188 4.48876 7.47071 4.23033 7.47071H3.32582ZM3.32582 4.68835C3.06739 4.68835 2.80896 4.49424 2.80896 4.23541C2.80896 3.97659 3.00278 3.78247 3.26121 3.78247H7.78375C8.04219 3.78247 8.23601 3.97659 8.23601 4.23541C8.23601 4.36482 8.1714 4.49424 8.10679 4.55894C8.04219 4.62365 7.91297 4.68835 7.78375 4.68835H3.32582Z" fill="#5A5C60"/>
<path d="M2.61519 12C1.71069 12 1 11.2882 1 10.4471V2.61765C1 1.71176 1.71069 1 2.61519 1H8.5591C9.46361 1 10.1743 1.71176 10.1743 2.61765V4.48333H10.0451C9.85126 4.41863 9.59283 4.35392 9.26979 4.28922H9.20518V2.61765C9.20518 2.29412 8.94675 1.97059 8.5591 1.97059H2.61519C2.29215 1.97059 1.96912 2.22941 1.96912 2.61765V10.4471C1.96912 10.7706 2.22755 11.0941 2.61519 11.0941H5.9748V11.1588C6.16862 11.3529 6.49166 11.6118 6.8147 11.8059L7.07313 12H2.61519Z" fill="#5A5C60"/>
<path d="M8.79962 11.9998C8.75982 11.9998 8.72003 11.9998 8.68023 11.9604C7.56598 11.5661 6.77009 10.9747 6.21297 10.2256C5.65584 9.43711 5.45687 8.21489 5.61605 6.48012C5.61605 6.32242 5.77523 6.16471 5.9344 6.12529C6.41194 6.00701 6.84968 5.8493 7.32722 5.61274C7.80475 5.37618 8.1629 5.1002 8.48126 4.78478C8.56085 4.70593 8.68023 4.6665 8.79962 4.6665C8.919 4.6665 8.99859 4.70593 9.07818 4.78478C9.43633 5.13962 9.83428 5.41561 10.1924 5.61274C10.7098 5.88873 11.1475 6.00701 11.6648 6.12529C11.8638 6.16471 11.9832 6.32242 11.9832 6.48012C12.0628 8.3726 11.8638 9.47654 11.3067 10.2256C10.9485 10.8565 10.1924 11.4084 8.919 11.9604C8.87921 11.9604 8.83941 11.9998 8.79962 11.9998ZM6.41194 6.83496C6.33235 8.21489 6.49153 9.20055 6.88948 9.79195C7.32722 10.3833 7.96393 10.8565 8.79962 11.1719C9.79448 10.7382 10.3914 10.2651 10.6302 9.83138C10.6302 9.79195 10.67 9.79195 10.67 9.75252C11.0679 9.23998 11.2271 8.29374 11.1873 6.83496C10.7496 6.71668 10.3516 6.55898 9.83428 6.32242C9.47613 6.16471 9.11797 5.88873 8.79962 5.61274C8.48126 5.88873 8.12311 6.12529 7.68537 6.32242C7.28742 6.55898 6.84968 6.71668 6.41194 6.83496ZM8.75982 9.75252C8.64044 9.75252 8.56085 9.7131 8.48126 9.63425L7.40681 8.60916C7.32722 8.5303 7.28742 8.45145 7.28742 8.33317C7.28742 8.21489 7.32722 8.13604 7.40681 8.05718C7.48639 7.97833 7.56598 7.93891 7.68537 7.93891C7.80475 7.93891 7.88434 7.97833 7.96393 8.05718L8.75982 8.76686L9.95366 7.54464C10.0332 7.46579 10.1526 7.42636 10.272 7.42636C10.3914 7.42636 10.471 7.46579 10.5506 7.54464C10.7098 7.70235 10.7098 7.93891 10.5506 8.09661L9.03838 9.63425C8.9588 9.7131 8.87921 9.75252 8.75982 9.75252Z" fill="#5A5C60"/>
</svg>
