<svg width="12" height="12" viewBox="0 0 12 12" fill="none" xmlns="http://www.w3.org/2000/svg">
<path d="M8.43113 1H3.55767C3.33483 1 3.15454 1.17987 3.15454 1.40219V3.19082C3.15454 3.41314 3.33483 3.59301 3.55767 3.59301H8.43113C8.65398 3.59301 8.83427 3.41314 8.83427 3.19082V1.40219C8.83427 1.17987 8.65398 1 8.43113 1V1ZM8.028 2.78863H3.96081V1.80438H8.028V2.78863V2.78863ZM7.53527 4.69903H4.45353C3.73684 4.69903 3.15454 5.28109 3.15454 5.99497C3.15454 6.70998 3.73796 7.29092 4.45353 7.29092H7.53527C8.25196 7.29092 8.83427 6.70886 8.83427 5.99497C8.83427 5.27997 8.25196 4.69903 7.53527 4.69903V4.69903ZM7.53527 6.48654H4.45353C4.18141 6.48654 3.96081 6.26533 3.96081 5.99497C3.96081 5.72349 4.18253 5.50341 4.45353 5.50341H7.53527C7.80739 5.50341 8.028 5.72461 8.028 5.99497C8.028 6.26645 7.80739 6.48654 7.53527 6.48654V6.48654ZM8.41321 8.40699H3.53863C3.31579 8.40699 3.1355 8.58686 3.1355 8.80918V10.5978C3.1355 10.8201 3.31579 11 3.53863 11H8.41321C8.63606 11 8.81635 10.8201 8.81635 10.5978V8.80918C8.81635 8.58686 8.63494 8.40699 8.41321 8.40699ZM8.01008 10.1956H3.94177V9.21137H8.01008V10.1956ZM2.30347 2.14848C1.91825 2.34287 1.59239 2.64004 1.36282 3.00536C1.12542 3.38186 1 3.81756 1 4.26332C1 4.79511 1.17245 5.29673 1.49832 5.71567C1.49944 5.71679 1.50056 5.71903 1.50168 5.72014L1.03359 6.01843C0.983203 6.05083 0.996641 6.12792 1.05487 6.14021L2.35274 6.42509C2.38858 6.43291 2.42441 6.41057 2.43225 6.37482L2.7234 5.08334C2.73684 5.02525 2.67189 4.98056 2.6215 5.01184L2.17805 5.29226C2.16573 5.26768 2.15118 5.24422 2.13438 5.22299C1.91937 4.94705 1.80515 4.61524 1.80515 4.26332C1.80515 3.67009 2.1355 3.13496 2.66629 2.86571C2.8645 2.76517 2.94401 2.52385 2.84323 2.32499C2.74244 2.12613 2.50168 2.04793 2.30347 2.14848V2.14848ZM10.8712 9.63367L10.4647 9.29963C10.4759 9.28846 10.4882 9.27617 10.4983 9.26276C10.8219 8.86281 11 8.36007 11 7.84505C11 7.44174 10.8914 7.04513 10.6876 6.6988C10.4894 6.36365 10.206 6.08323 9.86786 5.88772C9.81075 5.85532 9.75252 5.82404 9.69317 5.79611C9.4916 5.70227 9.25196 5.78941 9.15678 5.9905C9.06271 6.1916 9.15006 6.43068 9.35162 6.52564C9.3897 6.54351 9.42777 6.56362 9.46473 6.58373C9.91377 6.84627 10.1937 7.3289 10.1937 7.84616C10.1937 8.18244 10.0817 8.49749 9.87122 8.75891C9.86226 8.77008 9.85442 8.78125 9.84658 8.79243L9.41769 8.44051C9.37178 8.40252 9.30235 8.43939 9.30795 8.4986L9.44009 9.81801C9.44345 9.85488 9.47704 9.88169 9.51288 9.87834L10.8331 9.75209C10.8947 9.74651 10.9171 9.67166 10.8712 9.63367Z" fill="#5F5F61"/>
</svg>
