<svg width="16" height="16" viewBox="0 0 16 16" fill="none" xmlns="http://www.w3.org/2000/svg">
<g clip-path="url(#clip0_3227_11678)">
<path d="M5.838 14.1091H2.51425C2.22428 14.1015 1.94917 13.9792 1.74915 13.7691C1.54913 13.5591 1.4405 13.2783 1.44706 12.9883V2.63088C1.4405 2.34088 1.54913 2.0601 1.74915 1.85004C1.94917 1.63997 2.22428 1.51773 2.51425 1.51008H12.7251C13.0151 1.51752 13.2904 1.6397 13.4904 1.84981C13.6905 2.05993 13.7991 2.34083 13.7923 2.63088V5.20033C13.7892 5.28925 13.8041 5.37788 13.836 5.46093C13.8679 5.54398 13.9162 5.61976 13.978 5.68375C14.0398 5.74773 14.1139 5.79862 14.1958 5.83338C14.2777 5.86813 14.3658 5.88604 14.4547 5.88604C14.5437 5.88604 14.6318 5.86813 14.7137 5.83338C14.7956 5.79862 14.8696 5.74773 14.9315 5.68375C14.9933 5.61976 15.0416 5.54398 15.0735 5.46093C15.1054 5.37788 15.1203 5.28925 15.1172 5.20033V2.63088C15.1322 1.98006 14.8883 1.34988 14.4391 0.878758C13.9898 0.407632 13.372 0.134072 12.7212 0.118164H2.51031C1.86028 0.135305 1.24352 0.409372 0.79516 0.88034C0.346796 1.35131 0.103369 1.98078 0.118193 2.63088V12.9875C0.103369 13.6376 0.346796 14.2671 0.79516 14.7381C1.24352 15.209 1.86028 15.4831 2.51031 15.5002H5.838C6.01546 15.4899 6.18226 15.4121 6.30425 15.2828C6.42623 15.1535 6.49417 14.9824 6.49417 14.8047C6.49417 14.6269 6.42623 14.4559 6.30425 14.3266C6.18226 14.1972 6.01546 14.1195 5.838 14.1091Z" fill="#5A5C60"/>
<path d="M15.2228 10.5008H11.8186V7.09666C11.8186 6.9219 11.7492 6.75432 11.6256 6.63075C11.5021 6.50718 11.3345 6.43774 11.1597 6.43774C10.985 6.43774 10.8174 6.50718 10.6938 6.63075C10.5702 6.75432 10.5008 6.9219 10.5008 7.09666V10.5008H7.09666C6.9219 10.5008 6.75432 10.5702 6.63075 10.6938C6.50718 10.8173 6.43774 10.985 6.43774 11.1597C6.43774 11.3345 6.50718 11.5021 6.63075 11.6256C6.75432 11.7492 6.9219 11.8187 7.09666 11.8187H10.5008V15.2228C10.5008 15.3975 10.5702 15.5651 10.6938 15.6887C10.8174 15.8122 10.985 15.8817 11.1597 15.8817C11.3345 15.8817 11.5021 15.8122 11.6256 15.6887C11.7492 15.5651 11.8186 15.3975 11.8186 15.2228V11.8187H15.2228C15.3975 11.8187 15.5651 11.7492 15.6887 11.6256C15.8123 11.5021 15.8817 11.3345 15.8817 11.1597C15.8817 10.985 15.8123 10.8173 15.6887 10.6938C15.5651 10.5702 15.3975 10.5008 15.2228 10.5008Z" fill="#5A5C60"/>
</g>
<defs>
<clipPath id="clip0_3227_11678">
<rect width="16" height="16" fill="white"/>
</clipPath>
</defs>
</svg>
