<svg width="16" height="16" viewBox="0 0 16 16" fill="none" xmlns="http://www.w3.org/2000/svg">
<path fill-rule="evenodd" clip-rule="evenodd" d="M2.07143 1.5H14.9286C15.5179 1.5 16 1.98214 16 2.57143V13.2857C16 13.875 15.5179 14.3571 14.9286 14.3571H2.07143C1.48214 14.3571 1 13.875 1 13.2857V2.57143C1 1.98214 1.48214 1.5 2.07143 1.5ZM14.3929 13.2857C14.7143 13.2857 14.9286 13.0179 14.9286 12.75V3.10714C14.9286 2.83929 14.7143 2.57143 14.3929 2.57143H2.60714C2.28571 2.57143 2.07143 2.83929 2.07143 3.10714V12.75C2.07143 13.0179 2.28571 13.2857 2.60714 13.2857H14.3929ZM5.82185 4.17847H11.179C11.3397 4.17847 11.4468 4.23204 11.554 4.33918C11.6611 4.44632 11.7147 4.55347 11.7147 4.71418V5.78561C11.7147 6.05347 11.5004 6.32132 11.179 6.32132C10.8576 6.32132 10.6433 6.10704 10.6433 5.78561V5.2499H9.03613V10.607H9.57185C9.89328 10.607 10.1076 10.8213 10.1076 11.1428C10.1076 11.4642 9.8397 11.6785 9.57185 11.6785H7.42899C7.10756 11.6785 6.89328 11.4642 6.89328 11.1428C6.89328 10.8213 7.16113 10.607 7.42899 10.607H7.9647V5.2499H6.35756V5.78561C6.35756 6.05347 6.14328 6.32132 5.82185 6.32132C5.50042 6.32132 5.28613 6.10704 5.28613 5.78561V4.71418C5.28613 4.55347 5.3397 4.44632 5.44685 4.33918C5.55399 4.23204 5.66113 4.17847 5.82185 4.17847Z" fill="#5A5C60"/>
</svg>
