<svg width="16" height="16" viewBox="0 0 16 16" fill="none" xmlns="http://www.w3.org/2000/svg">
<path d="M8.79605 15.5V8.29605H14.4211V9.38158H9.88158V14.4145H14.9145V12.3421H16V15.5H8.79605ZM1 15.4013V8.29605H8.10526V15.4013H1ZM7.01974 14.3158V9.38158H2.08553V14.3158H7.01974ZM12.1513 13.1316C11.9539 13.1316 11.7566 13.0329 11.6579 12.9342L10.2763 11.3553L11.0658 10.6645L12.3487 12.0461L15.2105 9.28289L15.9013 10.0724L12.8421 13.0329C12.7434 13.1316 12.6447 13.1316 12.5461 13.2303C12.4474 13.1316 12.3487 13.1316 12.1513 13.1316ZM8.79605 7.70395V0.5H14.4211V1.58553H9.88158V6.61842H14.9145V4.44737H16V7.60526H8.79605V7.70395ZM1 7.60526V0.5H8.10526V7.60526H1ZM7.01974 6.51974V1.58553H2.08553V6.51974H7.01974ZM12.1513 5.23684C11.9539 5.23684 11.7566 5.13816 11.6579 5.03947L10.2763 3.46053L11.0658 2.76974L12.3487 4.05263L15.2105 1.28947L15.9013 2.07895L12.8421 5.03947C12.7434 5.13816 12.6447 5.13816 12.5461 5.23684C12.4474 5.23684 12.3487 5.23684 12.1513 5.23684Z" fill="#5A5C60"/>
</svg>
