<svg width="16" height="16" viewBox="0 0 16 16" fill="none" xmlns="http://www.w3.org/2000/svg">
<path d="M8.27273 1C12.2727 1 15.5454 4.27273 15.5454 8.27273C15.5454 12.2727 12.2727 15.5454 8.27273 15.5454C4.27273 15.5454 1 12.2727 1 8.27273C1 4.27273 4.27273 1 8.27273 1ZM8.27273 2.45455C5.07273 2.45455 2.45455 5.07273 2.45455 8.27273C2.45455 11.4727 5.07273 14.0909 8.27273 14.0909C11.4727 14.0909 14.0909 11.4727 14.0909 8.27273C14.0909 5.07273 11.4727 2.45455 8.27273 2.45455Z" fill="#5A5C60"/>
<path d="M4.59833 8.34838C4.59833 9.34294 4.99342 10.2968 5.69669 11C6.39995 11.7033 7.35378 12.0984 8.34834 12.0984C9.3429 12.0984 10.2967 11.7033 11 11C11.7032 10.2968 12.0983 9.34294 12.0983 8.34838C12.0983 7.35381 11.7032 6.39998 11 5.69672C10.2967 4.99346 9.3429 4.59839 8.34834 4.59839C7.35378 4.59839 6.39995 4.99346 5.69669 5.69672C4.99342 6.39998 4.59833 7.35381 4.59833 8.34838Z" fill="#5A5C60"/>
</svg>
