<svg width="16" height="16" viewBox="0 0 16 16" fill="none" xmlns="http://www.w3.org/2000/svg">
<g clip-path="url(#clip0_5175_14871)">
<path d="M9.22123 2.96312H0.965247C0.469888 2.96312 0.139648 2.63288 0.139648 2.13752C0.139648 1.64217 0.469888 1.31193 0.965247 1.31193H9.22123C9.71659 1.31193 10.0468 1.64217 10.0468 2.13752C10.0468 2.63288 9.71659 2.96312 9.22123 2.96312ZM9.22123 8.74231H0.965247C0.469888 8.74231 0.139648 8.41207 0.139648 7.91671C0.139648 7.42135 0.469888 7.09111 0.965247 7.09111H9.22123C9.71659 7.09111 10.0468 7.42135 10.0468 7.91671C10.0468 8.41207 9.71659 8.74231 9.22123 8.74231ZM11.698 15.3471V1.31193C11.698 0.816567 12.0283 0.486328 12.5236 0.486328C13.019 0.486328 13.3492 0.816567 13.3492 1.31193V10.3935H15.826L11.698 15.3471ZM9.22123 14.5215H0.965247C0.469888 14.5215 0.139648 14.1913 0.139648 13.6959C0.139648 13.2005 0.469888 12.8703 0.965247 12.8703H9.22123C9.71659 12.8703 10.0468 13.2005 10.0468 13.6959C10.0468 14.1913 9.71659 14.5215 9.22123 14.5215Z" fill="#5A5C60"/>
</g>
<defs>
<clipPath id="clip0_5175_14871">
<rect width="16" height="16" fill="white"/>
</clipPath>
</defs>
</svg>
