<svg width="16" height="16" viewBox="0 0 16 16" fill="none" xmlns="http://www.w3.org/2000/svg">
<path d="M14.929 0.5H2.07105C1.47983 0.5 1 1.01536 1 1.65393V6.26964C1 6.90714 1.47983 7.42357 2.07105 7.42357H14.929C15.5202 7.42357 16 6.90714 16 6.26964V1.65393C16 1.01536 15.5202 0.5 14.929 0.5ZM14.929 6.26964H2.07105V1.65393H14.929V6.26964ZM13.8579 2.80786H9.57051L11.7126 5.11464L13.8579 2.80786ZM14.929 8.57643H2.07105C1.47983 8.57643 1 9.09286 1 9.73036V14.3461C1 14.9846 1.47983 15.5 2.07105 15.5H14.929C15.5202 15.5 16 14.9846 16 14.3461V9.73036C16 9.09393 15.5202 8.57643 14.929 8.57643ZM14.929 14.3461H2.07105V9.73036H14.929V14.3461ZM13.8579 10.8843H9.57051L11.7126 13.1911L13.8579 10.8843Z" fill="#5A5C60"/>
</svg>
