<svg t="1694158483789" class="icon" viewBox="0 0 1024 1024" version="1.1" xmlns="http://www.w3.org/2000/svg" p-id="4313" width="16" height="16">
<path d="M130.048 317.553778a175.217778 175.217778 0 0 1 31.971556-26.396445v-49.664l116.622222-15.075555 236.373333-93.980445 235.064889 93.980445 113.720889 14.961778-0.341333 182.499555v0.170667c0 4.266667-0.056889 8.533333-0.227556 12.8l25.031111 65.422222-0.056889 0.056889 20.024889 52.508444c12.8-42.439111 19.342222-86.528 19.228445-130.844444l0.398222-238.705778-161.507556-21.276444-251.278222-100.465778-252.643556 100.465778-164.465777 21.219555 0.113777 182.158222c8.135111-19.171556 18.375111-35.328 30.72-48.526222l1.251556-1.308444z m628.167111-122.311111l137.614222 18.090666-0.398222 210.659556 0.341333-210.659556-137.557333-18.090666-70.200889-28.103111 70.200889 28.103111z m72.533333 452.266666l-14.336-37.660444h-0.455111a349.468444 349.468444 0 0 1-92.216889 107.861333l-211.512888 162.531556-110.136889-84.935111-24.860445-19.228445-24.632889-19.000889c-7.907556 3.584-17.066667 6.371556-27.420444 8.476445a254.293333 254.293333 0 0 1-47.274667 4.380444l-2.844444-0.056889-3.982222 5.12 241.038222 186.026667 250.595555-192.568889a407.722667 407.722667 0 0 0 81.92-84.593778l-13.880889-36.352z" p-id="4314"></path>
<path d="M346.510222 750.762667a110.364444 110.364444 0 0 0 35.157334-12.686223l31.630222 47.786667 56.32-47.786667-28.16-42.154666c18.716444-18.773333 32.142222-43.633778 40.391111-74.524445 8.192-30.947556 12.344889-68.949333 12.344889-113.948444 0-88.064-17.066667-150.869333-51.029334-188.416-33.962667-37.546667-81.464889-56.263111-142.336-56.263111-60.984889 0-108.999111 18.773333-144.156444 56.263111-35.157333 37.546667-52.736 100.352-52.736 188.416 0 88.177778 17.635556 151.438222 52.736 189.838222 35.157333 38.456889 83.171556 57.685333 144.156444 57.685333 16.384 0 31.630222-1.422222 45.681778-4.209777z m-124.814222-87.210667c-22.300444-25.315556-33.393778-77.368889-33.393778-156.046222 0-78.791111 11.093333-130.275556 33.393778-154.737778 22.243556-24.348444 48.64-36.522667 79.075556-36.522667 30.492444 0 56.32 12.231111 77.368888 36.522667 21.105778 24.462222 31.630222 75.946667 31.630223 154.737778 0 31.857778-1.137778 55.296-3.470223 70.257778-2.389333 15.075556-5.916444 31.914667-10.581333 50.631111l-49.208889-75.889778-49.208889 47.786667 56.263111 87.210666a63.488 63.488 0 0 1-21.105777 9.784889c-9.386667 2.844444-19.911111 4.266667-31.630223 4.266667-30.492444 0-56.888889-12.686222-79.075555-38.001778z m564.280889-400.782222H715.662222l-175.786666 486.570666h84.366222l49.208889-149.048888h154.737777l49.208889 149.048888h84.366223l-175.786667-486.570666z m-94.947556 284.103111l56.32-171.576889h6.997334l56.206222 171.576889h-119.466667z" p-id="4315"></path>
</svg>