<svg width="24" height="24" viewBox="0 0 24 24" fill="none" xmlns="http://www.w3.org/2000/svg">
<path d="M21.8368 12H18.5891V9.87879C20.2879 9.87879 21.637 8.51515 21.637 6.79798C21.637 6.69697 21.587 6.49495 21.537 6.49495H20.188C20.088 6.49495 20.0381 6.59596 20.0381 6.64646C20.0381 7.40404 19.4385 8.06061 18.6391 8.06061H6.39762C5.64815 8.11111 5.04857 7.50505 5.04857 6.74747C5.04857 6.64646 4.94864 6.59596 4.89867 6.59596H3.49965C3.39972 6.59596 3.39972 6.79798 3.39972 6.89899C3.39972 8.61616 4.74878 9.9798 6.44759 9.9798V12.101H3.1499C3.04996 12.101 3 12.202 3 12.2525V13.6162C3 13.7172 3.09993 13.7677 3.1499 13.7677H6.39762V16.0909C4.89867 16.7475 3.84941 18.2626 3.84941 19.9798C3.84941 20.0808 3.89937 20.2828 3.94934 20.2828H5.24843C5.34836 20.2828 5.39832 20.1818 5.39832 20.1313C5.39832 19.1717 5.89797 18.3131 6.69741 17.8586C6.84731 18.2626 6.9972 18.6162 7.19706 18.9192C7.74668 19.8283 8.49615 20.5859 9.39552 21.1414C10.2949 21.697 11.3442 22 12.4934 22C13.5926 22 14.6918 21.697 15.5912 21.1414C16.4906 20.5859 17.24 19.8283 17.7896 18.9192C17.9895 18.5657 18.1394 18.2121 18.2893 17.8586C19.0887 18.3131 19.5884 19.1717 19.5884 20.1313C19.5884 20.2323 19.6883 20.2828 19.7383 20.2828H21.0374C21.1373 20.2828 21.1373 20.0808 21.1373 19.9798C21.1373 18.2121 20.088 16.7475 18.5891 16.0909V13.7677H21.8368C21.9367 13.7677 21.9867 13.6667 21.9867 13.6162V12.2525C22.0367 12.101 21.9367 12 21.8368 12ZM16.7404 15.7374C16.7404 16.5455 16.5405 17.303 16.1408 18.0101C15.7411 18.6667 15.1915 19.2222 14.5419 19.6263C14.0922 19.8788 13.9423 20.0808 13.4427 20.1818V11.3939C13.4427 11.2929 13.3428 11.2424 13.2928 11.2424H11.7938C11.6939 11.2424 11.6439 11.3434 11.6439 11.3939V20.1313C11.1443 20.0303 10.9944 19.8788 10.5447 19.5758C9.89517 19.1717 9.34556 18.6162 8.94584 17.9596C8.54612 17.2525 8.34626 16.495 8.34626 15.6869V9.92929H16.8403V15.7374H16.7404ZM7.64675 6.84848C7.64675 5.9899 7.89657 4.82828 8.24633 4.17172C8.64605 3.46465 9.29559 2.90909 9.94514 2.55556C10.6446 2.20202 11.4441 2 12.2935 2H12.6432C13.4927 2 14.3421 2.20202 14.9916 2.55556C15.6911 2.9596 16.3407 3.51515 16.6904 4.17172C17.0402 4.87879 17.34 5.9899 17.34 6.84848C17.34 6.94949 17.24 7 17.1901 7H15.7411C15.6412 7 15.5912 6.89899 15.5912 6.84848C15.5912 6.24242 15.4413 5.68687 15.2414 5.23232C14.9916 4.82828 14.6918 4.47475 14.2421 4.22222C13.7924 3.9697 13.2428 3.76768 12.6432 3.76768H12.2935C11.6939 3.76768 11.1443 3.9697 10.6946 4.22222C10.2949 4.47475 9.94514 4.77778 9.69531 5.23232C9.44549 5.68687 9.34556 6.24242 9.34556 6.84848C9.34556 6.94949 9.24563 7 9.19566 7H7.79664C7.69671 7.0505 7.64675 6.94949 7.64675 6.84848Z" fill="#5A5C60"/>
</svg>
