<svg t="1694158802845" class="icon" viewBox="0 0 1126 1024" version="1.1" xmlns="http://www.w3.org/2000/svg" p-id="5340" width="16" height="16">
<path d="M572.669834 0C468.19905 0 366.082825 29.995041 279.168866 86.24854a515.69973 515.69973 0 0 0-194.507094 229.723116 497.119184 497.119184 0 0 0-30.097414 295.753155 507.151655 507.151655 0 0 0 144.600669 262.072716 533.717229 533.717229 0 0 0 270.467233 140.096294c102.474527 19.757826 208.634451 9.622983 305.171393-29.176064a525.015596 525.015596 0 0 0 237.093911-188.467137A500.599837 500.599837 0 0 0 1100.910152 511.860774c0-135.745477-55.639266-265.962858-154.735512-361.936753C847.129581 53.950126 712.766128 0 572.669834 0z m221.123854 545.797143l-300.052786 191.94779a43.149863 43.149863 0 0 1-59.017547-13.257194 40.027513 40.027513 0 0 1-6.142329-20.730361v-383.89558a40.027513 40.027513 0 0 1 6.142329-20.730362 41.716653 41.716653 0 0 1 16.123615-14.843962 43.354608 43.354608 0 0 1 42.893932 1.586768l300.155158 191.845418a41.460723 41.460723 0 0 1 13.717869 14.741591 39.92514 39.92514 0 0 1 0 38.49193 41.460723 41.460723 0 0 1-13.717869 14.74159l-0.051186 0.102372z" p-id="5341">
</path>
</svg>