<svg width="16" height="16" viewBox="0 0 16 16" fill="none" xmlns="http://www.w3.org/2000/svg">
<path d="M8.00004 1.33325C4.31769 1.33325 1.33337 4.31757 1.33337 7.99992C1.33337 11.6823 4.31769 14.6666 8.00004 14.6666C11.6824 14.6666 14.6667 11.6823 14.6667 7.99992C14.6667 4.31757 11.6824 1.33325 8.00004 1.33325ZM7.20788 10.5097C7.20788 10.9555 6.88239 11.3189 6.4837 11.3189C6.08501 11.3189 5.75952 10.9542 5.75952 10.5097V5.49012C5.75952 5.04436 6.08501 4.68096 6.4837 4.68096C6.88239 4.68096 7.20788 5.04567 7.20788 5.49012V10.5097ZM10.1504 10.5097C10.1504 10.9555 9.82488 11.3189 9.42618 11.3189C9.02749 11.3189 8.702 10.9542 8.702 10.5097V5.49012C8.702 5.04436 9.02749 4.68096 9.42618 4.68096C9.82488 4.68096 10.1504 5.04567 10.1504 5.49012V10.5097Z" fill="#5A5C60"/>
</svg>
