<svg width="16" height="16" viewBox="0 0 16 16" fill="none" xmlns="http://www.w3.org/2000/svg">
<path d="M8.44526 16H8.33577L1.32847 12.274C1.10949 12.1644 1 11.9452 1 11.726V4.27397V4.16438L1.10949 3.94521C1.10949 3.83562 1.21898 3.83562 1.21898 3.83562L8.22628 0L8.44526 0C8.55474 0 8.55474 0 8.66423 0H8.77372L15.6715 3.72603L15.781 3.83562L15.8905 3.94521C15.8905 4.05479 16 4.05479 16 4.16438V11.726C16 11.9452 15.8905 12.0548 15.6715 12.1644L8.77372 15.8904H8.66423L8.44526 16ZM8.9927 14.5753L14.7956 11.3973V5.15068L13.2628 5.91781V10.3014V10.411L13.1533 10.6301L13.0438 10.7397V10.8493L8.9927 13.0411V14.5753ZM7.89781 14.5753V13.0411L3.84672 10.8493L3.62774 10.6301C3.62774 10.5205 3.51825 10.5205 3.51825 10.411V5.91781L2.09489 5.15068V11.3973L7.89781 14.5753ZM8.44526 12.0548L11.6204 10.3014L8.44526 8.65753L5.27007 10.411L8.44526 12.0548ZM12.2774 9.42466V6.0274L8.9927 4.27397V7.67123L12.2774 9.42466ZM4.72263 9.42466L7.89781 7.67123V4.27397L4.72263 6.0274V9.42466ZM12.8248 5.0411L14.2482 4.27397L8.9927 1.42466V2.9589L12.8248 5.0411ZM4.17518 5.0411L7.89781 2.9589V1.42466L2.64234 4.27397L4.17518 5.0411Z" fill="#5A5C60"/>
</svg>
