<svg width="17" height="16" viewBox="0 0 17 16" fill="none" xmlns="http://www.w3.org/2000/svg">
<path d="M13.5464 1H2.50859C1.84337 1.00032 1.20548 1.26472 0.735097 1.7351C0.264713 2.20549 0.000315048 2.84337 0 3.50859L0 11.7596C0.00125969 12.414 0.262105 13.0412 0.725286 13.5035C1.18847 13.9658 1.81614 14.2254 2.47055 14.2254H13.5856C14.2399 14.2251 14.8674 13.9653 15.3305 13.5031C15.7937 13.0409 16.0546 12.4139 16.0562 11.7596V3.50859C16.0559 2.84316 15.7913 2.2051 15.3207 1.73468C14.85 1.26427 14.2118 1 13.5464 1ZM14.8007 11.6681V11.718C14.8004 12.0504 14.6681 12.3692 14.4329 12.6041C14.1977 12.8391 13.8788 12.9711 13.5464 12.9711H2.50859C2.34347 12.9711 2.17998 12.9385 2.02749 12.8752C1.875 12.8118 1.73652 12.719 1.61998 12.602C1.50345 12.4851 1.41116 12.3462 1.34841 12.1935C1.28565 12.0408 1.25367 11.8772 1.2543 11.712V3.50859C1.25493 3.17624 1.38731 2.85769 1.62244 2.62279C1.85756 2.38789 2.17623 2.25581 2.50859 2.25549H13.5464C13.8788 2.25581 14.1974 2.38789 14.4325 2.62279C14.6677 2.85769 14.8001 3.17624 14.8007 3.50859V11.6716V11.6681Z" fill="#5A5C60"/>
<path d="M12.3026 9.79475H3.75797C3.58739 9.79475 3.4238 9.8625 3.30317 9.98313C3.18255 10.1037 3.11478 10.2673 3.11478 10.4379C3.11478 10.6085 3.18255 10.7721 3.30317 10.8928C3.4238 11.0134 3.58739 11.0811 3.75797 11.0811H12.3026C12.4732 11.0811 12.6368 11.0134 12.7575 10.8928C12.8781 10.7721 12.9458 10.6085 12.9458 10.4379C12.9458 10.2673 12.8781 10.1037 12.7575 9.98313C12.6368 9.8625 12.4732 9.79475 12.3026 9.79475ZM2.74147 5.56936H4.13011C4.30069 5.56936 4.46428 5.5016 4.58491 5.38098C4.70553 5.26035 4.7733 5.09676 4.7733 4.92618C4.7733 4.75559 4.70553 4.592 4.58491 4.47137C4.46428 4.35075 4.30069 4.28296 4.13011 4.28296H2.74147C2.57088 4.28296 2.40727 4.35075 2.28665 4.47137C2.16602 4.592 2.09827 4.75559 2.09827 4.92618C2.09827 5.09676 2.16602 5.26035 2.28665 5.38098C2.40727 5.5016 2.57088 5.56936 2.74147 5.56936ZM5.80527 5.56936H7.19034C7.36093 5.56936 7.52453 5.5016 7.64516 5.38098C7.76578 5.26035 7.83354 5.09676 7.83354 4.92618C7.83354 4.75559 7.76578 4.592 7.64516 4.47137C7.52453 4.35075 7.36093 4.28296 7.19034 4.28296H5.80289C5.63231 4.28296 5.4687 4.35075 5.34807 4.47137C5.22745 4.592 5.1597 4.75559 5.1597 4.92618C5.1597 5.09676 5.22745 5.26035 5.34807 5.38098C5.4687 5.5016 5.63231 5.56936 5.80289 5.56936H5.80527ZM8.8679 5.56936H10.2565C10.4271 5.56936 10.5907 5.5016 10.7113 5.38098C10.832 5.26035 10.8997 5.09676 10.8997 4.92618C10.8997 4.75559 10.832 4.592 10.7113 4.47137C10.5907 4.35075 10.4271 4.28296 10.2565 4.28296H8.8679C8.69731 4.28296 8.5337 4.35075 8.41308 4.47137C8.29245 4.592 8.2247 4.75559 8.2247 4.92618C8.2247 5.09676 8.29245 5.26035 8.41308 5.38098C8.5337 5.5016 8.69731 5.56936 8.8679 5.56936ZM13.3203 4.28296H11.9329C11.7623 4.28296 11.5987 4.35075 11.4781 4.47137C11.3575 4.592 11.2897 4.75559 11.2897 4.92618C11.2897 5.09676 11.3575 5.26035 11.4781 5.38098C11.5987 5.5016 11.7623 5.56936 11.9329 5.56936H13.3203C13.4909 5.56936 13.6545 5.5016 13.7751 5.38098C13.8958 5.26035 13.9635 5.09676 13.9635 4.92618C13.9635 4.75559 13.8958 4.592 13.7751 4.47137C13.6545 4.35075 13.4909 4.28296 13.3203 4.28296ZM4.76735 7.61192C4.76782 7.52782 4.7517 7.44444 4.71992 7.36658C4.68813 7.28871 4.6413 7.21791 4.58211 7.15817C4.52292 7.09843 4.45254 7.05092 4.37498 7.01841C4.29742 6.9859 4.2142 6.96901 4.13011 6.9687H2.74147C2.57088 6.9687 2.40727 7.03649 2.28665 7.15712C2.16602 7.27774 2.09827 7.44133 2.09827 7.61192C2.09827 7.7825 2.16602 7.9461 2.28665 8.06672C2.40727 8.18734 2.57088 8.2551 2.74147 8.2551H4.13011C4.2141 8.25448 4.29716 8.23731 4.37452 8.20459C4.45189 8.17187 4.52205 8.12423 4.58101 8.0644C4.63996 8.00456 4.68655 7.93372 4.71812 7.85588C4.74969 7.77804 4.7656 7.69472 4.76498 7.61072L4.76735 7.61192ZM5.80527 8.2551H7.19034C7.36093 8.2551 7.52453 8.18734 7.64516 8.06672C7.76578 7.9461 7.83354 7.7825 7.83354 7.61192C7.83354 7.44133 7.76578 7.27774 7.64516 7.15712C7.52453 7.03649 7.36093 6.9687 7.19034 6.9687H5.80289C5.63231 6.9687 5.4687 7.03649 5.34807 7.15712C5.22745 7.27774 5.1597 7.44133 5.1597 7.61192C5.1597 7.7825 5.22745 7.9461 5.34807 8.06672C5.4687 8.18734 5.63231 8.2551 5.80289 8.2551H5.80527ZM8.8679 8.2551H10.2565C10.4271 8.2551 10.5907 8.18734 10.7113 8.06672C10.832 7.9461 10.8997 7.7825 10.8997 7.61192C10.8997 7.44133 10.832 7.27774 10.7113 7.15712C10.5907 7.03649 10.4271 6.9687 10.2565 6.9687H8.8679C8.69731 6.9687 8.5337 7.03649 8.41308 7.15712C8.29245 7.27774 8.2247 7.44133 8.2247 7.61192C8.2247 7.7825 8.29245 7.9461 8.41308 8.06672C8.5337 8.18734 8.69731 8.2551 8.8679 8.2551ZM13.3203 6.9687H11.9329C11.7623 6.9687 11.5987 7.03649 11.4781 7.15712C11.3575 7.27774 11.2897 7.44133 11.2897 7.61192C11.2897 7.7825 11.3575 7.9461 11.4781 8.06672C11.5987 8.18734 11.7623 8.2551 11.9329 8.2551H13.3203C13.4909 8.2551 13.6545 8.18734 13.7751 8.06672C13.8958 7.9461 13.9635 7.7825 13.9635 7.61192C13.9635 7.44133 13.8958 7.27774 13.7751 7.15712C13.6545 7.03649 13.4909 6.9687 13.3203 6.9687Z" fill="#5A5C60"/>
</svg>
