<svg t="1697096227284" class="icon" viewBox="0 0 1024 1024" version="1.1" xmlns="http://www.w3.org/2000/svg" p-id="14950" width="16" height="16">
<path d="M390.951566 120.376476V64.059996h249.904381v56.572464L391.015562 120.440472V120.376476zM63.996 373.160677V64.059996h831.948003v56.572464H123.83226v252.592213L63.996 373.160677z m843.915256 28.414225V120.31248h-130.679833V64.059996h190.452097v337.578902l-59.772264-0.191988v0.127992zM63.996 609.945878h59.83626V373.224673H63.996v236.785201z m843.979252-37.885632h59.708268V401.638898h-59.708268v170.421348zM63.996 919.430536V609.945878h59.83626v252.976189h194.675833v56.508469H63.996zM679.893507 657.430911c-58.23636 0-105.5934 46.3971-105.593401 103.545528 0 57.148428 47.35704 103.481532 105.593401 103.481532 58.364352 0 105.5934-46.333104 105.5934-103.481532s-47.165052-103.545528-105.5934-103.545528z m0.31998-58.684333c-91.578276 0-165.813637 72.699456-165.813637 162.421849 0 89.850384 74.23536 162.549841 165.813637 162.549841 91.51428 0 165.813637-72.699456 165.813636-162.485845 0-89.722392-74.23536-162.549841-165.74964-162.549841zM1023.936004 761.104431C1023.936004 824.588463 882.056871 960.004 679.893507 960.004c-196.979689 0-344.042497-133.239673-344.042498-198.899569 0-65.723892 147.638773-198.771577 344.042498-198.771577 203.763265 0 344.106493 133.047685 344.042497 198.771577z" p-id="14951"></path>
<path d="M0 112.056996a111.993 111.993 0 1 0 223.986001 0 111.993 111.993 0 0 0-223.986001 0zM0 912.007a111.993 111.993 0 1 0 223.986001 0 111.993 111.993 0 0 0-223.986001 0zM799.950003 112.056996a111.993 111.993 0 1 0 224.113993 0 111.993 111.993 0 0 0-224.113993 0z" p-id="14952"></path>
</svg>