<svg t="1694158675026" class="icon" viewBox="0 0 1024 1024" version="1.1" xmlns="http://www.w3.org/2000/svg" p-id="4948" width="16" height="16">
<path d="M777.955556 910.222222H249.571556A135.168 135.168 0 0 1 113.777778 775.054222V248.945778A135.168 135.168 0 0 1 249.571556 113.777778h524.743111a135.168 135.168 0 0 1 135.736889 135.168v522.467555A133.006222 133.006222 0 0 1 777.955556 910.222222z m-407.324445-113.208889h227.555556a28.899556 28.899556 0 0 0 29.297777-29.297777c0-18.204444-10.979556-29.184-29.297777-29.184h-227.555556a28.899556 28.899556 0 0 0-29.354667 29.184c0 18.318222 14.677333 29.240889 29.354667 29.240888z m411.022222-496.924444c-22.016-18.204444-51.370667-21.902222-69.745777-3.640889L488.106667 504.661333l-113.777778-105.927111c-18.318222-18.204444-51.313778-14.620444-69.688889 3.640889-22.016 18.261333-22.016 47.502222-3.640889 65.763556l150.414222 142.506666 3.697778 3.640889a41.756444 41.756444 0 0 0 29.354667 10.979556h7.338666a41.756444 41.756444 0 0 0 29.354667-10.979556l3.640889-3.640889 260.551111-244.792889c18.375111-18.204444 18.375111-47.502222-3.640889-65.763555z" p-id="4949">
</path>
</svg>