<svg t="1694165300162" class="icon" viewBox="0 0 1024 1024" version="1.1" xmlns="http://www.w3.org/2000/svg" p-id="5536" width="16" height="16">
<path d="M14.016 442.432h490.752l36.608-87.168H14.016C6.4 355.2 0 361.6 0 369.216v58.112c0 8.64 6.4 15.104 14.016 15.104zM14.016 226.112h580.096l35.52-87.168H13.952c-7.488 0-13.952 6.4-13.952 14.016v58.112c0 8.576 6.4 15.04 14.016 15.04zM0 586.624v58.112c0 7.552 6.4 14.016 14.016 14.016h400.32c0-1.088 0-1.088 1.088-2.176l35.52-84.992H14.016C6.4 571.52 0 577.92 0 586.624zM14.016 787.84c-7.552 0-14.016 6.528-14.016 14.08v58.048c0 7.552 6.4 14.016 14.016 14.016h417.536l-12.864-87.168H14.016v1.088zM1001.984 139.968c-52.736-43.008-129.152-75.328-198.016-82.88a56.448 56.448 0 0 0-58.112 34.432l-249.728 598.4c-2.112 5.376-2.112 10.752-2.112 15.104l34.432 227.072a30.784 30.784 0 0 0 17.216 22.592c9.664 4.288 20.48 2.176 27.968-3.2l185.152-135.68a33.664 33.664 0 0 0 9.6-11.776l9.728-21.504 240-576.896a56.32 56.32 0 0 0-16.128-65.664zM632.832 837.376a124.352 124.352 0 0 0-63.488-26.88l-15.104-101.184c56 6.4 118.4 32.256 161.472 67.84l-82.88 60.224z" p-id="5537">
</path>
</svg>