<svg t="1694158622724" class="icon" viewBox="0 0 1024 1024" version="1.1" xmlns="http://www.w3.org/2000/svg" p-id="4752" width="16" height="16">
<path d="M830.5664 113.8176H193.4336c-43.8272 0-79.2576 35.84-79.2576 79.616l-0.4096 716.8 159.2832-159.232h557.568c43.776 0 79.616-35.84 79.616-79.6672V193.3824c0-43.776-35.84-79.616-79.6672-79.616z m0 557.5168H240.0256l-23.552 23.4496-23.04 23.0912V193.4336h637.1328v477.8496z m-378.3168-79.6672h298.7008V512h-219.0336l-79.6672 79.6672z m153.7024-233.7792a19.712 19.712 0 0 0 0-28.2624L535.552 259.1744a19.712 19.712 0 0 0-28.2624 0L273.0496 493.312v98.3552h98.3552l234.5984-233.7792z" p-id="4753"></path>
</svg>