<svg width="16" height="16" viewBox="0 0 16 16" fill="none" xmlns="http://www.w3.org/2000/svg">
<path d="M14.7499 12.3885V4.60071C15.1902 4.46295 15.5594 4.159 15.7791 3.75345C15.9235 3.47692 15.9992 3.16977 16 2.85787C15.9978 2.4202 15.8404 1.99748 15.5558 1.66489C15.2712 1.3323 14.8778 1.11138 14.4456 1.04142C14.0133 0.971464 13.5703 1.05699 13.1952 1.28281C12.8202 1.50862 12.5374 1.86008 12.3971 2.2747H4.60878C4.51049 1.9742 4.33677 1.7039 4.10422 1.48962C3.87168 1.27534 3.58806 1.12422 3.28045 1.0507C2.97284 0.977182 2.65152 0.983713 2.34715 1.06967C2.04279 1.15563 1.76555 1.31814 1.54191 1.5417C1.31827 1.76526 1.15569 2.04239 1.0697 2.34663C0.983707 2.65088 0.977173 2.97208 1.05072 3.27956C1.12427 3.58705 1.27545 3.87056 1.48981 4.10302C1.70418 4.33548 1.97458 4.50912 2.2752 4.60738V12.3952C1.85818 12.5335 1.50403 12.8157 1.27612 13.1912C1.04822 13.5667 0.961437 14.011 1.03131 14.4446C1.10119 14.8783 1.32316 15.2729 1.65749 15.5578C1.99183 15.8428 2.41671 15.9996 2.85609 16C3.18861 15.9995 3.51472 15.9086 3.79952 15.737C4.08433 15.5655 4.3171 15.3197 4.47293 15.0261C4.52916 14.9285 4.57178 14.8237 4.59961 14.7145H12.3904C12.5128 15.0821 12.7476 15.402 13.0616 15.6291C13.3756 15.8561 13.7531 15.9789 14.1406 15.98C14.4731 15.9795 14.7993 15.8886 15.0841 15.717C15.3689 15.5455 15.6016 15.2997 15.7575 15.0061C15.903 14.7299 15.9798 14.4227 15.9817 14.1105C15.9773 13.732 15.8569 13.3639 15.6366 13.0559C15.4163 12.748 15.1068 12.515 14.7499 12.3885ZM12.4163 13.5549H4.61878C4.52716 13.2838 4.37421 13.0376 4.17184 12.8353C3.96946 12.633 3.72312 12.4801 3.45199 12.3885V4.60071C3.89262 4.46314 4.26219 4.15917 4.4821 3.75345C4.53833 3.65584 4.58095 3.55101 4.60878 3.44187H12.3996C12.4912 3.7129 12.6442 3.95915 12.8466 4.16144C13.0489 4.36373 13.2953 4.51662 13.5664 4.60821V12.396C13.2967 12.4865 13.0517 12.6382 12.8505 12.8393C12.6494 13.0403 12.4976 13.2853 12.4071 13.5549H12.4163ZM14.1665 2.18639C14.2568 2.18638 14.3463 2.20433 14.4297 2.2392C14.5131 2.27408 14.5887 2.32517 14.6521 2.38951C14.7155 2.45386 14.7655 2.53017 14.7992 2.614C14.8329 2.69784 14.8495 2.78753 14.8482 2.87786C14.8471 2.99328 14.8206 3.10704 14.7707 3.2111C14.7088 3.3165 14.6207 3.40415 14.515 3.46559C14.4093 3.52703 14.2896 3.56018 14.1673 3.56184C14.0769 3.56316 13.9872 3.54651 13.9033 3.51286C13.8195 3.47921 13.7431 3.42922 13.6788 3.36581C13.6144 3.30239 13.5633 3.22682 13.5284 3.14348C13.4935 3.06014 13.4756 2.9707 13.4756 2.88036C13.4756 2.69697 13.5484 2.52109 13.6782 2.39142C13.8079 2.26174 13.9838 2.18889 14.1673 2.18889L14.1665 2.18639ZM2.8986 2.18639C2.98897 2.18638 3.07845 2.20433 3.16182 2.2392C3.24519 2.27408 3.32079 2.32517 3.38423 2.38951C3.44767 2.45386 3.49767 2.53017 3.53134 2.614C3.56501 2.69784 3.58166 2.78753 3.58034 2.87786C3.58066 2.99466 3.55049 3.10952 3.49283 3.2111C3.4161 3.3394 3.29985 3.43938 3.1615 3.49608C3.02315 3.55278 2.87014 3.56315 2.7254 3.52561C2.58066 3.48808 2.45199 3.40468 2.35865 3.2879C2.26532 3.17113 2.21235 3.02726 2.20769 2.87786C2.20769 2.69447 2.28057 2.51859 2.41029 2.38892C2.54002 2.25924 2.71597 2.18639 2.89943 2.18639H2.8986ZM3.49283 14.4721C3.43359 14.5777 3.34747 14.6658 3.2432 14.7273C3.13892 14.7889 3.02021 14.8219 2.8991 14.8228C2.77799 14.8237 2.65879 14.7926 2.55358 14.7326C2.44838 14.6727 2.36091 14.5859 2.30006 14.4812C2.23921 14.3766 2.20714 14.2577 2.20709 14.1366C2.20705 14.0155 2.23904 13.8966 2.29981 13.7919C2.36058 13.6872 2.44798 13.6004 2.55314 13.5403C2.6583 13.4802 2.77748 13.449 2.8986 13.4499C2.98897 13.4499 3.07845 13.4678 3.16182 13.5027C3.24519 13.5376 3.32079 13.5887 3.38423 13.653C3.44767 13.7174 3.49767 13.7937 3.53134 13.8775C3.56501 13.9613 3.58166 14.051 3.58034 14.1414C3.58066 14.2582 3.55049 14.373 3.49283 14.4746V14.4721ZM14.7699 14.4721C14.708 14.5775 14.6199 14.6651 14.5142 14.7266C14.4085 14.788 14.2887 14.8212 14.1665 14.8228C14.0761 14.8242 13.9864 14.8075 13.9025 14.7739C13.8186 14.7402 13.7423 14.6902 13.6779 14.6268C13.6136 14.5634 13.5624 14.4878 13.5276 14.4045C13.4927 14.3211 13.4747 14.2317 13.4747 14.1414C13.4747 13.958 13.5476 13.7821 13.6773 13.6524C13.8071 13.5227 13.983 13.4499 14.1665 13.4499C14.2568 13.4499 14.3463 13.4678 14.4297 13.5027C14.5131 13.5376 14.5887 13.5887 14.6521 13.653C14.7155 13.7174 14.7655 13.7937 14.7992 13.8775C14.8329 13.9613 14.8495 14.051 14.8482 14.1414C14.8471 14.2568 14.8206 14.3705 14.7707 14.4746L14.7699 14.4721Z" fill="#5A5C60"/>
</svg>
