<svg width="16" height="16" viewBox="0 0 16 16" fill="none" xmlns="http://www.w3.org/2000/svg">
<g clip-path="url(#clip0_5168_13484)">
<path d="M15.9488 8.37641C16.0171 8.44474 16.0171 8.55535 15.9488 8.62368L8.12364 16.4488C8.05531 16.5171 7.94469 16.5171 7.87636 16.4488L0.0512455 8.62368C-0.0170818 8.55536 -0.0170818 8.44474 0.0512455 8.37641L1.42179 7.00587C1.72735 7.30535 2.09802 7.52994 2.505 7.662L1.66684 8.50003H14.3333L7.99989 2.1667L6.03931 4.1274C5.93204 3.69708 5.75347 3.28775 5.51102 2.91645L7.87624 0.551245C7.94456 0.482918 8.05518 0.482918 8.12351 0.551245L15.9488 8.37641ZM1.21852 4.818C1.21852 3.22972 2.79218 2.39874 3.25885 0.545626C3.26356 0.519336 3.28638 0.500239 3.31317 0.500239C3.33983 0.500239 3.36277 0.519336 3.36748 0.545626C3.8299 2.38181 5.37914 3.21451 5.40743 4.77483C5.42826 5.92835 4.62393 6.9307 3.56167 7.06251C2.2937 7.22 1.21852 6.15451 1.21852 4.8181L1.21852 4.818ZM2.65529 2.98727C1.19037 5.00661 2.11834 6.00797 3.10307 6.04692C2.31475 5.45454 2.24977 4.7033 2.65529 2.98727Z" fill="#5A5C60"/>
</g>
<defs>
<clipPath id="clip0_5168_13484">
<rect width="16" height="16" fill="white"/>
</clipPath>
</defs>
</svg>
