<svg width="16" height="16" viewBox="0 0 16 16" fill="none" xmlns="http://www.w3.org/2000/svg">
<g id="tool segmentation">
<path id="Vector" d="M4.94245 9.5009C4.94245 9.5009 3.12846 10.4984 3.05795 12.0691C2.98727 12.6813 2.76302 13.2649 2.40666 13.7639C2.0503 14.263 1.57376 14.6608 1.02263 14.9194C0.531426 15.062 8.2052 15.3847 7.6435 12.035L4.94245 9.5009ZM8.315 10.5652C8.39214 10.6009 8.45971 10.6548 8.51204 10.7225C8.56438 10.7902 8.59994 10.8697 8.61573 10.9542C8.63153 11.0388 8.6271 11.1259 8.60282 11.2084C8.57854 11.2908 8.53512 11.3661 8.4762 11.428C8.41729 11.4898 8.3446 11.5364 8.26426 11.5638C8.18392 11.5913 8.09828 11.5987 8.01452 11.5855C7.93077 11.5723 7.85137 11.5389 7.78298 11.488C7.71459 11.4372 7.65923 11.3705 7.62154 11.2934L5.77229 9.5009C5.69516 9.46525 5.62758 9.41131 5.57525 9.34362C5.52292 9.27593 5.48736 9.19647 5.47156 9.11193C5.45577 9.02739 5.4602 8.94023 5.48448 8.85778C5.50876 8.77534 5.55218 8.70002 5.6111 8.63816C5.67001 8.5763 5.7427 8.52971 5.82303 8.5023C5.90337 8.47489 5.98902 8.46747 6.07277 8.48066C6.15652 8.49385 6.23593 8.52727 6.30432 8.5781C6.37271 8.62893 6.42807 8.69569 6.46576 8.77276L8.315 10.5652ZM14.7296 1.1481C14.5539 1.0394 14.3495 0.988444 14.1443 1.0022C13.9391 1.01596 13.743 1.09376 13.583 1.22497C13.0051 1.61925 8.85186 5.71527 7.04769 7.60691C6.82636 7.90673 6.67669 8.13908 7.74116 9.21751C8.63747 10.1275 9.05528 10.0683 9.5095 9.67516C10.2654 8.90771 13.4842 4.3511 14.6729 2.61436C14.8677 2.32979 15.2682 1.51833 14.7307 1.14752L14.7296 1.1481Z" fill="#5A5C60"/>
</g>
</svg>
