<svg t="1697096185268" class="icon" viewBox="0 0 1024 1024" version="1.1" xmlns="http://www.w3.org/2000/svg" p-id="14754" width="16" height="16">
<path d="M981.414551 537.238588c-27.768471-128.662588-119.386353-256.240941-196.005647-234.074353-27.467294 7.890824-48.489412 22.407529-62.102589 42.405647-24.696471-11.444706-49.995294-12.589176-74.752-1.686588-18.130824 7.830588-33.310118 21.202824-43.309176 38.189177-28.491294-14.396235-61.259294-14.095059-95.593412 2.048a115.290353 115.290353 0 0 0-20.720941 12.288c-83.727059-118.302118-152.094118-171.670588-213.714824-157.696-87.341176 19.757176-87.341176 95.894588-21.082353 195.584l127.096471 196.608c-69.692235-13.131294-120.169412-1.807059-150.106353 38.128941-48.911059 65.355294 2.891294 125.771294 123.060706 179.862588l232.327529 103.303529a34.394353 34.394353 0 0 0 27.949177-62.885647L382.314315 786.070588c-46.863059-21.082353-77.763765-40.839529-92.039529-57.46447-8.252235-9.637647-8.493176-12.348235-3.97553-18.371765 16.986353-22.708706 69.872941-22.708706 161.912471 11.625412 31.081412 11.625412 58.910118-23.070118 40.96-50.898824L311.718551 396.589176c-44.092235-66.379294-44.092235-85.534118-21.323295-90.714352 30.177882-6.806588 93.726118 53.127529 178.05553 183.41647 6.324706 14.938353 16.263529 30.539294 29.515294 46.260706 27.346824 32.527059 77.824-3.855059 55.657412-40.116706-8.131765-13.312-16.384-26.503529-24.816941-39.634823 0.602353-4.035765 4.216471-6.625882 10.059294-9.396706 24.094118-11.324235 39.213176-6.987294 56.139294 16.865882a34.394353 34.394353 0 0 0 62.403765-17.829647c1.385412-22.768941 7.710118-33.611294 18.853647-38.550588 9.637647-4.216471 21.684706-0.602353 40.357647 17.227294a34.394353 34.394353 0 0 0 58.006588-21.865412c1.566118-17.829647 9.697882-27.166118 29.936941-33.008941 21.202824-6.144 89.389176 88.907294 109.628235 182.512941 14.576941 67.343059 14.576941 147.335529-0.361411 239.977412a34.394353 34.394353 0 1 0 68.005647 10.902588c16.143059-100.592941 16.143059-189.018353-0.421647-265.396706z" p-id="14755"></path>
<path d="M284.793374 925.033412H137.939727a39.574588 39.574588 0 0 1-38.972235-40.176941V139.143529c0-22.287059 17.588706-40.176941 38.972235-40.176941h403.877647c21.443765 0 39.032471 17.829647 39.032471 40.176941a34.394353 34.394353 0 1 0 68.788706 0A108.423529 108.423529 0 0 0 541.817374 30.117647H137.939727A108.423529 108.423529 0 0 0 30.118551 139.143529v745.712942c0 60.114824 48.188235 109.025882 107.821176 109.025882h146.853647a34.394353 34.394353 0 1 0 0-68.848941z" p-id="14756"></path>
</svg>