<svg width="16" height="16" viewBox="0 0 16 16" fill="none" xmlns="http://www.w3.org/2000/svg">
<g clip-path="url(#clip0_5168_13470)">
<path d="M14.1342 0.463623C13.755 0.46547 13.3852 0.582134 13.0736 0.79825C12.762 1.01437 12.5232 1.3198 12.3886 1.67432C10.3829 1.81311 8.44525 2.45898 6.75741 3.55136C6.44564 3.34587 6.07966 3.23804 5.70627 3.24165C5.45237 3.23917 5.20048 3.28673 4.96496 3.38161C4.72945 3.47649 4.51493 3.61683 4.33365 3.79462C4.15238 3.97241 4.0079 4.18416 3.90847 4.41779C3.80903 4.65142 3.75659 4.90234 3.75414 5.15624C3.75443 5.45325 3.82519 5.74595 3.96062 6.01029C2.59559 7.63645 1.72589 9.62016 1.45476 11.7259C1.14586 11.807 0.861859 11.9634 0.628146 12.1811C0.394433 12.3987 0.218283 12.6709 0.115437 12.9733C0.0125906 13.2756 -0.0137482 13.5988 0.0387739 13.9138C0.0912959 14.2288 0.221043 14.5259 0.416421 14.7786C0.611799 15.0312 0.866722 15.2315 1.15841 15.3616C1.4501 15.4917 1.76947 15.5475 2.08798 15.524C2.40649 15.5005 2.71423 15.3985 2.98368 15.227C3.25314 15.0556 3.47592 14.82 3.63213 14.5415C3.79427 14.2554 3.87842 13.9318 3.87615 13.6029C3.86927 13.2504 3.76704 12.9063 3.58031 12.6072C3.39358 12.3081 3.12933 12.0652 2.81562 11.9042C3.05143 10.0789 3.81096 8.36101 5.00238 6.9582C5.22053 7.04442 5.45292 7.08899 5.6875 7.08959C6.03359 7.09012 6.37355 6.99817 6.6722 6.82327C6.97085 6.64837 7.21736 6.39686 7.38622 6.09476C7.54836 5.80869 7.63251 5.48505 7.63024 5.15624C7.62825 4.99767 7.60618 4.83999 7.56454 4.68698C9.02186 3.75381 10.6904 3.20194 12.4167 3.0821C12.5531 3.40453 12.777 3.68236 13.0631 3.88423C13.3491 4.08609 13.6859 4.20393 14.0354 4.22443C14.3849 4.24493 14.7332 4.16728 15.0409 4.00024C15.3486 3.83321 15.6034 3.58345 15.7766 3.27919C15.9389 2.99359 16.02 2.66905 16.0112 2.34067C16.0112 2.09417 15.9627 1.85009 15.8684 1.62235C15.774 1.39462 15.6358 1.1877 15.4615 1.0134C15.2872 0.839097 15.0803 0.700835 14.8525 0.606505C14.6248 0.512174 14.3807 0.463623 14.1342 0.463623V0.463623ZM2.39328 13.8563C2.34959 13.94 2.28339 14.0099 2.20213 14.058C2.12088 14.1061 2.0278 14.1305 1.93341 14.1285C1.79402 14.1285 1.66033 14.0731 1.56177 13.9746C1.46321 13.876 1.40783 13.7423 1.40783 13.6029C1.40783 13.4636 1.46321 13.3299 1.56177 13.2313C1.66033 13.1327 1.79402 13.0774 1.93341 13.0774C2.07367 13.0773 2.20834 13.1324 2.3084 13.2307C2.40846 13.329 2.4659 13.4627 2.46836 13.6029C2.46813 13.6929 2.44207 13.7808 2.39328 13.8563ZM6.14737 5.40964C6.10368 5.49334 6.03748 5.56317 5.95622 5.61126C5.87497 5.65935 5.7819 5.68378 5.6875 5.68181C5.54811 5.68181 5.41443 5.62644 5.31586 5.52787C5.2173 5.42931 5.16192 5.29563 5.16192 5.15624C5.16192 5.01685 5.2173 4.88317 5.31586 4.7846C5.41443 4.68604 5.54811 4.63066 5.6875 4.63066C5.82777 4.63064 5.96243 4.68571 6.06249 4.78402C6.16255 4.88232 6.21999 5.01599 6.22246 5.15624C6.22222 5.24615 6.19616 5.33411 6.14737 5.40964ZM14.5941 2.59407C14.5528 2.66748 14.4929 2.72869 14.4204 2.77154C14.3479 2.81438 14.2653 2.83734 14.1811 2.83809C14.066 2.83636 13.9556 2.79238 13.8708 2.7145C13.786 2.63663 13.7328 2.5303 13.7213 2.41575V2.35944C13.7213 2.30313 13.7213 2.35944 13.7213 2.35944C13.7347 2.24566 13.7885 2.14046 13.8728 2.06296C13.9572 1.98547 14.0666 1.94081 14.1811 1.9371C14.2428 1.9371 14.3038 1.94924 14.3607 1.97282C14.4176 1.99641 14.4694 2.03097 14.5129 2.07455C14.5565 2.11812 14.5911 2.16985 14.6147 2.22679C14.6383 2.28372 14.6504 2.34474 14.6504 2.40637C14.6277 2.46628 14.5925 2.52068 14.5472 2.56591L14.5941 2.59407Z" fill="#5A5C60"/>
</g>
<defs>
<clipPath id="clip0_5168_13470">
<rect width="16" height="16" fill="white"/>
</clipPath>
</defs>
</svg>
