<svg width="16" height="16" viewBox="0 0 16 16" fill="none" xmlns="http://www.w3.org/2000/svg">
<path d="M12.9161 15C11.7873 15 10.919 14.125 10.919 12.9875C10.919 12.725 11.0058 12.375 11.0926 12.1125V12.025L3.79889 4.7625H3.62523V10.975H3.71206C4.31988 11.15 4.75403 11.675 4.92769 12.2C5.27501 13.25 4.75403 14.475 3.71206 14.825C3.5384 15 3.27791 15 3.01742 15C2.14912 15 1.36765 14.475 1.10716 13.6C0.759835 12.55 1.28082 11.325 2.32278 10.975H2.40961V5.025H2.32278C1.54131 4.675 1.02033 3.8875 1.02033 3.0125C1.02033 1.9625 1.97546 1 3.01742 1C4.14622 1 5.01452 1.9625 5.01452 3.1C5.01452 3.3625 4.92769 3.7125 4.84086 3.975V4.0625L11.9609 11.2375H12.0478C12.1346 11.2375 12.2214 11.15 12.2214 11.15H12.3083V5.025H12.2214C11.6136 4.85 11.1795 4.325 11.0058 3.8C10.6585 2.75 11.1795 1.525 12.2214 1.175C12.4819 1 12.6556 1 12.9161 1C13.7844 1 14.5658 1.525 14.8263 2.4C15 2.925 15 3.45 14.7395 3.975C14.479 4.5 14.1317 4.85 13.6107 5.025H13.5239V11.0625H13.6107C14.3922 11.325 15 12.1125 15 12.9875C14.9132 14.125 14.0449 15 12.9161 15ZM3.01742 12.2C2.58327 12.2 2.23595 12.55 2.23595 12.9875C2.23595 13.5125 2.58327 13.8625 3.01742 13.8625C3.27791 13.8625 3.45157 13.775 3.62523 13.6C3.79889 13.425 3.88573 13.25 3.79889 12.9875C3.79889 12.55 3.5384 12.2 3.01742 12.2ZM12.8292 12.1125C12.6556 12.1125 12.3951 12.2 12.3083 12.375C12.1346 12.55 12.0478 12.725 12.1346 12.9875C12.1346 13.425 12.4819 13.775 12.9161 13.775C13.3502 13.775 13.6975 13.425 13.6975 12.9875C13.6975 12.8125 13.6107 12.55 13.5239 12.375C13.3502 12.2875 13.0897 12.2 12.8292 12.1125ZM3.01742 2.225C2.58327 2.225 2.23595 2.575 2.23595 3.0125C2.23595 3.45 2.58327 3.8 3.01742 3.8C3.45157 3.8 3.79889 3.45 3.79889 3.0125C3.88573 2.575 3.5384 2.225 3.01742 2.225ZM12.1346 3.1C12.1346 3.5375 12.4819 3.8875 12.9161 3.8875C13.3502 3.8875 13.6975 3.5375 13.7844 3.1C13.7844 2.575 13.4371 2.225 13.0029 2.225C12.3951 2.225 12.0478 2.6625 12.1346 3.1Z" fill="#5A5C60"/>
</svg>
