<svg width="16" height="16" viewBox="0 0 16 16" fill="none" xmlns="http://www.w3.org/2000/svg">
<path d="M1 15V4.63243H1.07527L4.6129 1.07568V1H15V11.3676H14.9247L11.3871 14.9243V15H11.3118H1ZM10.4086 14.0162V11.3676H5.29032L2.65591 14.0162H10.4086ZM11.3871 13.5622L13.5699 11.3676H11.3871V13.5622ZM1.97849 13.4108L4.6129 10.7622V5.54054H1.97849V13.4108ZM14.0215 10.4595V2.58919L11.3871 5.23784V10.3838H14.0215V10.4595ZM10.4086 10.4595V5.54054H5.51613V10.3838H10.4086V10.4595ZM10.7097 4.63243L13.3441 1.98378H5.51613V4.63243H10.7097ZM4.6129 4.63243V2.43784L2.43011 4.63243H4.6129Z" fill="#5A5C60"/>
</svg>
