<svg width="16" height="16" viewBox="0 0 16 16" fill="none" xmlns="http://www.w3.org/2000/svg">
<path d="M8 4.11112C11.6095 4.11112 14.5455 5.85552 14.5455 8C14.5455 10.1438 11.6095 11.8888 8 11.8888C4.39131 11.8888 1.45456 10.1438 1.45456 8C1.45456 5.85552 4.39131 4.11112 8 4.11112ZM8 3C3.58186 3 0 5.23833 0 8C0 10.7611 3.58186 13 8 13C12.419 13 16 10.7611 16 8C16 5.23833 12.419 3 8 3Z" fill="#5A5C60"/>
<path d="M6.54545 8.04545C6.54545 8.43122 6.6987 8.80119 6.97148 9.07397C7.24426 9.34675 7.61423 9.5 8 9.5C8.38576 9.5 8.75573 9.34675 9.02851 9.07397C9.30129 8.80119 9.45454 8.43122 9.45454 8.04545C9.45454 7.65968 9.30129 7.28972 9.02851 7.01694C8.75573 6.74415 8.38576 6.59091 8 6.59091C7.61423 6.59091 7.24426 6.74415 6.97148 7.01694C6.6987 7.28972 6.54545 7.65968 6.54545 8.04545Z" fill="#5A5C60"/>
</svg>
