<svg width="16" height="16" viewBox="0 0 16 16" fill="none" xmlns="http://www.w3.org/2000/svg">
<g clip-path="url(#clip0_5168_13465)">
<path d="M15.5475 3.25197C15.4251 3.12252 15.2564 3.04696 15.0783 3.04192C14.9002 3.03688 14.7274 3.10277 14.5979 3.22509C13.2721 4.47928 13.1377 4.90929 13.0839 5.82306C13.0605 6.25257 12.9944 6.67869 12.8868 7.09517C12.5733 8.37624 11.7939 8.57332 11.5699 8.60916C11.469 8.57997 11.378 8.52359 11.3069 8.44617C11.2358 8.36875 11.1873 8.27328 11.1668 8.17019C11.0412 7.37691 10.6615 6.64583 10.0848 6.08686C9.50805 5.52789 8.76545 5.17125 7.96862 5.07055C7.85216 5.07055 7.63716 5.07055 7.6282 4.72116V4.51512C7.58372 4.32153 7.60911 4.11846 7.69987 3.94177C7.93639 3.62554 8.28651 3.41354 8.67635 3.35051C10.1222 2.93792 11.4469 2.18184 12.5375 1.14672C12.6633 1.02074 12.734 0.849969 12.734 0.671918C12.734 0.493867 12.6633 0.323096 12.5375 0.197117C12.4089 0.072866 12.237 0.00341797 12.0582 0.00341797C11.8794 0.00341797 11.7075 0.072866 11.5789 0.197117C10.6618 1.06849 9.54533 1.70208 8.32697 2.04257C7.95935 2.11742 7.61086 2.26646 7.3028 2.48056C6.99474 2.69466 6.73357 2.96934 6.53526 3.2878C6.28551 3.76073 6.2155 4.30811 6.33818 4.82867C6.35208 5.25254 6.52969 5.65453 6.83372 5.9502C7.13775 6.24588 7.54453 6.41223 7.96862 6.41432C8.43894 6.52122 8.86734 6.76431 9.20033 7.11323C9.53332 7.46215 9.75613 7.90144 9.84095 8.37624C9.90463 8.76756 10.0892 9.12914 10.3687 9.41029C10.6483 9.69144 11.0088 9.87806 11.3997 9.94398H11.5162C11.5968 9.94398 13.5677 9.94398 14.2037 7.40872C14.3292 6.91925 14.4013 6.41764 14.4188 5.91265C14.4188 5.34826 14.4188 5.19597 15.5206 4.20157C15.6501 4.07919 15.7257 3.91041 15.7307 3.73233C15.7357 3.55426 15.6698 3.38148 15.5475 3.25197Z" fill="#5A5C60"/>
<path d="M8.79279 7.47137L8.68529 7.39074C7.72972 6.72795 6.6306 6.3012 5.47814 6.14551C4.70906 6.18447 3.98182 6.5075 3.4373 7.05202C2.89278 7.59653 2.56975 8.32378 2.53079 9.09286C2.53079 9.5587 1.48264 10.6785 0.53304 11.3862C0.462453 11.4392 0.402985 11.5055 0.358031 11.5814C0.313076 11.6573 0.283516 11.7414 0.271038 11.8287C0.245837 12.0051 0.291745 12.1843 0.398663 12.3269C0.50558 12.4694 0.664749 12.5637 0.841154 12.5889C1.01756 12.6141 1.19675 12.5682 1.33931 12.4613C1.93057 12.0133 3.84769 10.4546 3.84769 9.09286C3.89003 8.67746 4.07611 8.2899 4.37381 7.99712C4.6715 7.70433 5.0621 7.52471 5.47814 7.48928C6.31999 7.63235 7.12078 7.95633 7.82527 8.43889C8.37427 9.32082 8.70019 10.3232 8.77487 11.3594C8.77487 12.3627 7.24297 12.3896 7.18026 12.3896H7.019L6.87567 12.4613C6.62483 12.5867 4.3852 13.7334 3.74019 15.0324C3.70022 15.1105 3.67616 15.1958 3.6694 15.2833C3.66264 15.3707 3.67332 15.4587 3.70082 15.542C3.72832 15.6254 3.7721 15.7024 3.8296 15.7687C3.88711 15.835 3.9572 15.8892 4.03582 15.9282C4.1298 15.9771 4.23449 16.0017 4.34041 15.9999C4.46463 16.0001 4.58649 15.9659 4.69245 15.9011C4.79841 15.8362 4.88431 15.7433 4.94063 15.6326C5.5852 14.8184 6.41019 14.1651 7.35047 13.7244C8.39861 13.6707 10.1186 13.1331 10.1186 11.3594C10.0302 10.0141 9.60178 8.71333 8.87342 7.57887L8.79279 7.47137Z" fill="#5A5C60"/>
</g>
<defs>
<clipPath id="clip0_5168_13465">
<rect width="16" height="16" fill="white"/>
</clipPath>
</defs>
</svg>
