<svg width="16" height="16" viewBox="0 0 16 16" fill="none" xmlns="http://www.w3.org/2000/svg">
<g clip-path="url(#clip0_5210_178)">
<path d="M14.3528 16H1.6472C0.738918 16 0 15.2611 0 14.3528V1.6472C0 0.738918 0.738918 0 1.6472 0H14.3528C15.2611 0 16 0.738918 16 1.6472V14.3528C16 15.2611 15.2611 16 14.3528 16ZM1.6472 1.35653C1.48963 1.35653 1.35653 1.48963 1.35653 1.6472V14.3528C1.35653 14.5104 1.48963 14.6435 1.6472 14.6435H14.3528C14.5104 14.6435 14.6435 14.5104 14.6435 14.3528V1.6472C14.6435 1.48963 14.5104 1.35653 14.3528 1.35653H1.6472Z" fill="#5A5C60"/>
</g>
<defs>
<clipPath id="clip0_5210_178">
<rect width="16" height="16" fill="white"/>
</clipPath>
</defs>
</svg>
