<svg width="16" height="16" viewBox="0 0 16 16" fill="none" xmlns="http://www.w3.org/2000/svg">
<g id="tool fill in" clip-path="url(#clip0_5265_209)">
<g id="Group 1707478029">
<path id="Vector" d="M14.3307 15.9992C13.9452 16.0125 13.5698 15.8746 13.2845 15.615C12.9993 15.3554 12.8268 14.9946 12.8038 14.6095C13.1613 13.4638 13.675 12.373 14.3307 11.3678C14.9863 12.373 15.5001 13.4638 15.8575 14.6095C15.8346 14.9946 15.6621 15.3554 15.3768 15.615C15.0916 15.8746 14.7162 16.0125 14.3307 15.9992ZM8.35261 2.94726L2.15642 9.09382C2.02625 9.21557 1.85467 9.28331 1.67643 9.28331C1.49819 9.28331 1.32661 9.21557 1.19643 9.09382C1.1343 9.03377 1.08489 8.96183 1.05114 8.88228C1.01739 8.80274 1 8.71721 1 8.6308C1 8.54439 1.01739 8.45887 1.05114 8.37932C1.08489 8.29978 1.1343 8.22783 1.19643 8.16779L7.39262 2.06302C7.5228 1.94127 7.69438 1.87354 7.87262 1.87354C8.05086 1.87354 8.22244 1.94127 8.35261 2.06302C8.41448 2.11887 8.46394 2.18707 8.49779 2.26323C8.53164 2.33939 8.54913 2.4218 8.54913 2.50514C8.54913 2.58848 8.53164 2.6709 8.49779 2.74706C8.46394 2.82321 8.41448 2.89142 8.35261 2.94726Z" fill="#5A5C60"/>
<path id="Vector_2" d="M6.87293 0.172977L14.8507 7.94042C14.9696 8.06359 15.0354 8.22855 15.0339 8.39978C15.0325 8.57101 14.9638 8.7348 14.8427 8.85588C14.7216 8.97696 14.5578 9.04565 14.3866 9.04714C14.2154 9.04862 14.0504 8.9828 13.9272 8.86384L5.94951 1.0964C5.82708 0.973931 5.7583 0.807854 5.7583 0.634687C5.7583 0.46152 5.82708 0.295443 5.94951 0.172977C6.07747 0.0614441 6.24147 0 6.41122 0C6.58096 0 6.74497 0.0614441 6.87293 0.172977Z" fill="#5A5C60"/>
<path id="Vector_3" d="M14.8052 8.90296L8.72133 14.9111C8.5412 15.0733 8.30739 15.163 8.06501 15.163C7.82262 15.163 7.58882 15.0733 7.40869 14.9111L1.19421 9.07537C1.15766 9.04178 1.13235 8.99775 1.12171 8.94926C1.11107 8.90078 1.11562 8.85019 1.13474 8.80438C1.15386 8.75857 1.18663 8.71977 1.22858 8.69324C1.27054 8.66671 1.31965 8.65374 1.36923 8.65611L14.6315 8.48762C14.6801 8.48645 14.728 8.49998 14.7688 8.52644C14.8096 8.5529 14.8415 8.59107 14.8602 8.63595C14.879 8.68082 14.8838 8.73032 14.874 8.77796C14.8641 8.8256 14.8402 8.86917 14.8052 8.90296Z" fill="#5A5C60"/>
</g>
</g>
<defs>
<clipPath id="clip0_5265_209">
<rect width="16" height="16" fill="white"/>
</clipPath>
</defs>
</svg>
