<svg width="16" height="16" viewBox="0 0 16 16" fill="none" xmlns="http://www.w3.org/2000/svg">
<path d="M12.171 13.0747H8.47482C7.97319 13.0747 7.56519 12.6667 7.56519 12.1651V9.4412H4.82992C4.32829 9.4412 3.92029 9.0332 3.92029 8.53157V4.83542C3.92029 4.33379 4.32829 3.92578 4.82992 3.92578H8.52608C9.02771 3.92578 9.43571 4.33379 9.43571 4.83542V7.55929H12.171C12.6726 7.55929 13.0806 7.9673 13.0806 8.46893V12.1651C13.0806 12.6667 12.6726 13.0747 12.171 13.0747ZM8.83677 11.803H11.8089V8.83087H8.83677V11.803ZM5.19203 8.16962H8.16413V5.19753H5.19203V8.16962Z" fill="#5A5C60"/>
<path d="M14.4558 16H2.54425C1.69274 16 1 15.3073 1 14.4558V2.54425C1 1.69274 1.69274 1 2.54425 1H14.4558C15.3073 1 16 1.69274 16 2.54425V14.4558C16 15.3073 15.3073 16 14.4558 16ZM2.54425 2.27175C2.39653 2.27175 2.27175 2.39653 2.27175 2.54425V14.4558C2.27175 14.6035 2.39653 14.7283 2.54425 14.7283H14.4558C14.6035 14.7283 14.7283 14.6035 14.7283 14.4558V2.54425C14.7283 2.39653 14.6035 2.27175 14.4558 2.27175H2.54425Z" fill="#5A5C60"/>
</svg>
