<svg width="16" height="16" viewBox="0 0 16 16" fill="none" xmlns="http://www.w3.org/2000/svg">
<g clip-path="url(#clip0_5175_14812)">
<path d="M8.00002 0.726562C12 0.726562 15.2727 3.99929 15.2727 7.99929C15.2727 11.9993 12 15.272 8.00002 15.272C4.00002 15.272 0.727295 11.9993 0.727295 7.99929C0.727295 3.99929 4.00002 0.726562 8.00002 0.726562ZM8.00002 2.18111C4.80002 2.18111 2.18184 4.79929 2.18184 7.99929C2.18184 11.1993 4.80002 13.8175 8.00002 13.8175C11.2 13.8175 13.8182 11.1993 13.8182 7.99929C13.8182 4.79929 11.2 2.18111 8.00002 2.18111Z" fill="#5A5C60"/>
<path d="M6.54541 8.00142C6.54541 8.38719 6.69866 8.75715 6.97144 9.02993C7.24422 9.30271 7.61419 9.45597 7.99996 9.45597C8.38573 9.45597 8.75569 9.30271 9.02847 9.02993C9.30125 8.75715 9.4545 8.38719 9.4545 8.00142C9.4545 7.61565 9.30125 7.24568 9.02847 6.9729C8.75569 6.70012 8.38573 6.54688 7.99996 6.54688C7.61419 6.54688 7.24422 6.70012 6.97144 6.9729C6.69866 7.24568 6.54541 7.61565 6.54541 8.00142Z" fill="#5A5C60"/>
</g>
<defs>
<clipPath id="clip0_5175_14812">
<rect width="16" height="16" fill="white"/>
</clipPath>
</defs>
</svg>
