<svg width="16" height="16" viewBox="0 0 16 16" fill="none" xmlns="http://www.w3.org/2000/svg">
<g id="tooltype mask polygon" clip-path="url(#clip0_5310_11513)">
<path id="Vector" d="M13.0467 8.88948V6.32084C13.4905 6.17131 13.8668 5.86919 14.1088 5.46822C14.3507 5.06725 14.4426 4.59345 14.368 4.13111C14.2935 3.66877 14.0573 3.24788 13.7015 2.94332C13.3458 2.63876 12.8935 2.47028 12.4252 2.46787C12.136 2.46456 11.8497 2.52502 11.5865 2.64497C11.3234 2.76491 11.0899 2.94138 10.9027 3.16182L5.50644 1.61856C5.44298 1.27542 5.2899 0.955178 5.06271 0.690312C4.83553 0.425446 4.54232 0.225386 4.21285 0.11043C3.88338 -0.00452687 3.52936 -0.0302887 3.18671 0.0357577C2.84407 0.101804 2.52499 0.257309 2.26185 0.486494C1.99871 0.715679 1.80088 1.01039 1.68842 1.34072C1.57596 1.67106 1.55288 2.02526 1.62152 2.3674C1.69016 2.70953 1.84807 3.02742 2.07924 3.28882C2.31041 3.55021 2.60661 3.74581 2.93779 3.85577V12.1417C2.60405 12.251 2.30542 12.4472 2.07258 12.7101C1.83974 12.973 1.68108 13.2931 1.6129 13.6376C1.54472 13.9821 1.56947 14.3386 1.68461 14.6704C1.79976 15.0021 2.00114 15.2973 2.26808 15.5255C2.53503 15.7536 2.8579 15.9067 3.20354 15.9688C3.54919 16.0309 3.90514 15.9999 4.23484 15.879C4.56454 15.758 4.8561 15.5515 5.07957 15.2806C5.30305 15.0097 5.45038 14.6842 5.50644 14.3375L11.2652 12.3799C11.5998 12.6319 12.0064 12.7698 12.4252 12.7735C12.8935 12.7711 13.3458 12.6026 13.7015 12.2981C14.0573 11.9935 14.2935 11.5726 14.368 11.1103C14.4426 10.6479 14.3507 10.1741 14.1088 9.77317C13.8668 9.37221 13.4905 9.07008 13.0467 8.92056V8.88948ZM12.4252 3.71076C12.5707 3.71076 12.7128 3.75389 12.8338 3.8347C12.9547 3.9155 13.0489 4.03035 13.1046 4.16472C13.1603 4.2991 13.1748 4.44696 13.1465 4.58961C13.1181 4.73226 13.048 4.86329 12.9452 4.96613C12.8424 5.06898 12.7113 5.13902 12.5687 5.16739C12.426 5.19576 12.2782 5.1812 12.1438 5.12554C12.0094 5.06988 11.8946 4.97563 11.8138 4.8547C11.733 4.73376 11.6898 4.59159 11.6898 4.44614C11.6898 4.34957 11.7088 4.25394 11.7458 4.16472C11.7828 4.0755 11.8369 3.99444 11.9052 3.92615C11.9735 3.85786 12.0546 3.8037 12.1438 3.76674C12.233 3.72978 12.3286 3.71076 12.4252 3.71076ZM11.8038 6.32084V8.88948C11.4102 9.01803 11.0673 9.2674 10.8237 9.60212C10.5801 9.93684 10.4483 10.3398 10.4469 10.7538C10.4475 10.9331 10.4754 11.1112 10.5298 11.2821L5.29929 13.0635C5.0643 12.6127 4.66314 12.271 4.18068 12.1106V3.82469C4.4318 3.73764 4.66293 3.60113 4.8604 3.42323C5.05786 3.24534 5.21767 3.02966 5.33036 2.78895L10.5091 4.23899V4.37364C10.4916 4.79335 10.6074 5.20783 10.84 5.55763C11.0726 5.90744 11.41 6.17462 11.8038 6.32084ZM3.51781 1.24569C3.61525 1.24432 3.71199 1.26233 3.80241 1.29867C3.89282 1.33501 3.97512 1.38896 4.04451 1.45738C4.11389 1.52581 4.16899 1.60734 4.20659 1.69724C4.24419 1.78714 4.26355 1.88362 4.26354 1.98107C4.27593 2.08567 4.26603 2.19172 4.23447 2.29222C4.20291 2.39271 4.15042 2.48539 4.08046 2.56413C4.01049 2.64287 3.92464 2.7059 3.82855 2.74906C3.73246 2.79222 3.62832 2.81454 3.52299 2.81454C3.41765 2.81454 3.31351 2.79222 3.21742 2.74906C3.12133 2.7059 3.03548 2.64287 2.96551 2.56413C2.89555 2.48539 2.84306 2.39271 2.8115 2.29222C2.77994 2.19172 2.77004 2.08567 2.78243 1.98107C2.78227 1.88091 2.80257 1.78178 2.84209 1.68974C2.88161 1.59771 2.93951 1.51472 3.01225 1.44587C3.08499 1.37701 3.17102 1.32374 3.26508 1.28931C3.35914 1.25489 3.45924 1.24005 3.55924 1.24569H3.51781ZM3.51781 14.7104C3.37282 14.7083 3.23167 14.6635 3.11211 14.5814C2.99255 14.4994 2.89991 14.3838 2.84583 14.2493C2.79176 14.1148 2.77867 13.9672 2.8082 13.8253C2.83773 13.6833 2.90858 13.5533 3.01182 13.4514C3.11507 13.3496 3.24611 13.2806 3.38847 13.2531C3.53082 13.2255 3.67815 13.2407 3.81192 13.2966C3.94569 13.3526 4.05994 13.4468 4.14029 13.5675C4.22065 13.6882 4.26353 13.83 4.26354 13.975C4.26641 14.1665 4.19441 14.3516 4.06288 14.4909C3.93134 14.6302 3.75064 14.7126 3.55924 14.7207L3.51781 14.7104ZM12.3838 11.4892C12.2363 11.4892 12.0921 11.4455 11.9695 11.3635C11.8468 11.2816 11.7512 11.1651 11.6948 11.0288C11.6384 10.8926 11.6236 10.7426 11.6524 10.598C11.6811 10.4533 11.7522 10.3204 11.8565 10.2162C11.9608 10.1119 12.0936 10.0408 12.2383 10.0121C12.3829 9.98328 12.5329 9.99805 12.6692 10.0545C12.8054 10.1109 12.9219 10.2065 13.0038 10.3292C13.0858 10.4518 13.1295 10.596 13.1295 10.7435C13.1351 10.9368 13.0644 11.1245 12.9325 11.2661C12.8007 11.4076 12.6184 11.4915 12.4252 11.4996L12.3838 11.4892Z" fill="#5A5C60"/>
<path id="Vector_2" d="M3.86819 10.9985L10.5 3.49854L11.5001 5.49854L4.50006 13.4582L3.86819 10.9985ZM3.8681 5.72407L6.99996 2.49854L8.50006 3.49854L3.8681 8.18679V5.72407ZM7.24546 12.305L7.25992 12.3199L12 6.99854L12.5 8.18679V8.95488L9.49996 12.4985L7.25595 13.4582L7.24546 12.305Z" fill="#5A5C60"/>
</g>
<defs>
<clipPath id="clip0_5310_11513">
<rect width="16" height="16" fill="white"/>
</clipPath>
</defs>
</svg>
