<svg width="16" height="16" viewBox="0 0 16 16" fill="none" xmlns="http://www.w3.org/2000/svg">
<g id="tool intellect" clip-path="url(#clip0_5265_220)">
<path id="Vector" d="M10.1315 9.90044C10.1315 9.66285 10.3193 9.46998 10.5507 9.46998C11.7059 9.46998 12.6466 8.50405 12.6466 7.31771C12.6466 7.08012 12.8344 6.88726 13.0658 6.88726C13.2971 6.88726 13.4849 7.08009 13.4849 7.31771C13.4849 8.50405 14.4256 9.46998 15.5808 9.46998C15.8122 9.46998 16 9.66285 16 9.90044C16 10.138 15.8122 10.3309 15.5808 10.3309C14.4256 10.3309 13.4849 11.2968 13.4849 12.4832C13.4849 12.7207 13.2971 12.9136 13.0658 12.9136C12.8344 12.9136 12.6466 12.7207 12.6466 12.4832C12.6466 11.2968 11.7059 10.3309 10.5507 10.3309C10.3193 10.3309 10.1315 10.138 10.1315 9.90044ZM13.0658 8.86819C12.8172 9.29091 12.4722 9.64518 12.0605 9.90044C12.4722 10.1557 12.8172 10.51 13.0658 10.9327C13.3143 10.51 13.6593 10.1557 14.071 9.90044C13.6593 9.64518 13.3143 9.29091 13.0658 8.86819ZM7.61644 1.29136C7.61644 1.05374 7.80425 0.860908 8.03561 0.860908C8.26698 0.860908 8.45479 0.668044 8.45479 0.430454C8.45479 0.19283 8.6426 0 8.87397 0C9.10534 0 9.29315 0.19283 9.29315 0.430454C9.29315 0.668078 9.48096 0.860908 9.71233 0.860908C9.94369 0.860908 10.1315 1.05377 10.1315 1.29136C10.1315 1.52895 9.94369 1.72182 9.71233 1.72182C9.48096 1.72182 9.29315 1.91464 9.29315 2.15227C9.29315 2.38989 9.10534 2.58272 8.87397 2.58272C8.6426 2.58272 8.45479 2.38989 8.45479 2.15227C8.45479 1.91464 8.26698 1.72182 8.03561 1.72182C7.80425 1.72182 7.61644 1.52899 7.61644 1.29136ZM2.63745 15.6229L11.5123 6.5093C11.7496 6.26566 11.8795 5.94198 11.8795 5.5959C11.8795 5.24982 11.7487 4.92611 11.5123 4.6825L11.021 4.17802C10.7838 3.93438 10.4685 3.80094 10.1315 3.80094C9.79452 3.80094 9.47929 3.93522 9.24206 4.17802L0.367207 13.2916C0.129945 13.5352 0 13.8589 0 14.205C0 14.5511 0.130797 14.8748 0.367207 15.1184L0.858497 15.6229C1.09576 15.8666 1.41096 16 1.74797 16C2.08499 16 2.40022 15.8657 2.63748 15.6229L2.63745 15.6229ZM10.4283 4.78752L10.9196 5.29199C10.9984 5.3729 11.0412 5.48055 11.0412 5.59677C11.0412 5.713 10.9976 5.82061 10.9196 5.90156L9.71318 7.14042L8.62918 6.02726L9.83556 4.78839C9.99904 4.62052 10.2648 4.62052 10.4283 4.78839L10.4283 4.78752ZM1.45114 15.0134L0.959853 14.5088C0.881027 14.4279 0.838291 14.3203 0.838291 14.2049C0.838291 14.0896 0.881879 13.9811 0.959853 13.901L8.03473 6.63585L9.11873 7.74901L2.04385 15.0142C1.88037 15.1821 1.61459 15.1821 1.45111 15.0142L1.45114 15.0134ZM11.8082 3.01318C11.8082 2.77555 11.996 2.58272 12.2274 2.58272C12.9207 2.58272 13.4849 2.00333 13.4849 1.29136C13.4849 1.05374 13.6727 0.860908 13.9041 0.860908C14.1355 0.860908 14.3233 1.05377 14.3233 1.29136C14.3233 2.00333 14.8875 2.58272 15.5808 2.58272C15.8122 2.58272 16 2.77555 16 3.01318C16 3.2508 15.8122 3.44363 15.5808 3.44363C14.8875 3.44363 14.3233 4.02303 14.3233 4.73499C14.3233 4.97262 14.1355 5.16545 13.9041 5.16545C13.6727 5.16545 13.4849 4.97262 13.4849 4.73499C13.4849 4.02303 12.9207 3.44363 12.2274 3.44363C11.996 3.44363 11.8082 3.2508 11.8082 3.01318ZM13.9041 2.58101C13.7824 2.74589 13.6438 2.88824 13.4885 3.00921L13.4833 3.01318C13.6438 3.13811 13.7824 3.28046 13.9002 3.4399L13.9041 3.44535C14.0258 3.28046 14.1644 3.13811 14.3197 3.01714L14.325 3.01318C14.1644 2.88824 14.0258 2.74589 13.908 2.58646L13.9041 2.58101ZM3.42465 3.01318C3.42465 2.77555 3.61243 2.58272 3.84383 2.58272C4.53715 2.58272 5.10137 2.00333 5.10137 1.29136C5.10137 1.05374 5.28914 0.860908 5.52054 0.860908C5.75194 0.860908 5.93972 1.05377 5.93972 1.29136C5.93972 2.00333 6.50394 2.58272 7.19726 2.58272C7.42862 2.58272 7.61644 2.77555 7.61644 3.01318C7.61644 3.2508 7.42866 3.44363 7.19726 3.44363C6.50394 3.44363 5.93972 4.02303 5.93972 4.73499C5.93972 4.97262 5.75194 5.16545 5.52054 5.16545C5.28914 5.16545 5.10137 4.97262 5.10137 4.73499C5.10137 4.02303 4.53715 3.44363 3.84383 3.44363C3.61246 3.44363 3.42465 3.2508 3.42465 3.01318ZM5.52054 2.58101C5.39888 2.74589 5.26026 2.88824 5.10497 3.00921L5.0997 3.01318C5.26026 3.13811 5.39888 3.28046 5.51668 3.4399L5.52054 3.44535C5.6422 3.28046 5.78083 3.13811 5.93612 3.01714L5.94139 3.01318C5.78083 2.88824 5.6422 2.74589 5.52441 2.58646L5.52054 2.58101Z" fill="#5A5C60"/>
</g>
<defs>
<clipPath id="clip0_5265_220">
<rect width="16" height="16" fill="white"/>
</clipPath>
</defs>
</svg>
