<svg width="16" height="16" viewBox="0 0 16 16" fill="none" xmlns="http://www.w3.org/2000/svg">
<g clip-path="url(#clip0_5175_13553)">
<path d="M8.05031 16C7.44654 16 7.04403 15.4969 7.04403 14.9937C7.04403 14.6918 7.24528 14.2893 7.44654 14.1887V1.91195C7.14465 1.71069 6.9434 1.40881 6.9434 1.00629C6.9434 0.402516 7.44654 0 7.94969 0C8.45283 0 8.95597 0.503145 8.95597 1.00629C8.95597 1.30818 8.75472 1.71069 8.55346 1.81132V14.0881C8.85535 14.2893 9.0566 14.5912 9.0566 14.9937C9.0566 15.5975 8.55346 16 8.05031 16ZM10.1635 12.0755V3.92453H16V12.0755H10.1635ZM14.7925 10.8679V5.13208H11.3711V10.8679H14.7925ZM0 12.0755V3.92453H5.83648V12.0755H0ZM4.62893 10.8679V5.13208H1.20755V10.8679H4.62893Z" fill="#5A5C60"/>
</g>
<defs>
<clipPath id="clip0_5175_13553">
<rect width="16" height="16" fill="white"/>
</clipPath>
</defs>
</svg>
