<svg width="16" height="16" viewBox="0 0 16 16" fill="none" xmlns="http://www.w3.org/2000/svg">
<g id="tool polygon">
<path id="&#232;&#183;&#175;&#229;&#190;&#132; 15644" d="M14.6046 12.8747L14.1487 6.90342C14.4329 6.77572 14.6717 6.57327 14.8364 6.32052C15.0011 6.06777 15.0846 5.77552 15.0768 5.47906C15.069 5.1826 14.9702 4.8946 14.7925 4.64984C14.6147 4.40508 14.3655 4.21402 14.0749 4.09973C13.78 3.98368 13.455 3.95309 13.1415 4.01186C12.828 4.07063 12.5403 4.21609 12.315 4.42967L8.29222 2.54396C8.29684 2.47141 8.29684 2.39866 8.29222 2.3261C8.24099 1.95926 8.0499 1.62247 7.75455 1.3785C7.4592 1.13452 7.07975 1 6.68689 1C6.29404 1 5.91459 1.13452 5.61924 1.3785C5.32389 1.62247 5.1328 1.95926 5.08156 2.3261C5.08273 2.46557 5.10561 2.60413 5.14945 2.73735L2.61595 4.34915C2.33643 4.13316 1.9869 4.01367 1.62535 4.01053C1.24043 4.01681 0.870174 4.15068 0.579669 4.3886C0.289164 4.62653 0.0970017 4.95328 0.0369593 5.31144C-0.0230831 5.66959 0.0528375 6.03621 0.251376 6.34686C0.449914 6.65751 0.758364 6.89231 1.12251 7.00998V10.5478C0.858935 10.628 0.621585 10.7704 0.433107 10.9616C0.244629 11.1528 0.111312 11.3863 0.045877 11.6397C-0.0195577 11.8932 -0.014926 12.1583 0.05933 12.4096C0.133586 12.661 0.274989 12.8902 0.470044 13.0754C0.665099 13.2606 0.907298 13.3957 1.17353 13.4677C1.43976 13.5397 1.72114 13.5462 1.99081 13.4866C2.26049 13.4271 2.50946 13.3034 2.71397 13.1275C2.91848 12.9516 3.07171 12.7292 3.15902 12.4816H6.02021C6.10118 12.7316 6.24961 12.9576 6.45099 13.1374C6.65237 13.3173 6.89983 13.4449 7.16921 13.5077C7.43699 13.5685 7.71697 13.5625 7.98152 13.4902C8.24606 13.418 8.48603 13.282 8.67774 13.0957L12.6879 14.5347C12.7109 14.8179 12.8176 15.0894 12.996 15.3184C13.1743 15.5475 13.4171 15.725 13.697 15.8308C13.9768 15.9366 14.2826 15.9666 14.5796 15.9173C14.8766 15.868 15.153 15.7413 15.3775 15.5518C15.6021 15.3622 15.7658 15.1172 15.8502 14.8445C15.9347 14.5718 15.9363 14.2823 15.8551 14.0087C15.7739 13.7352 15.613 13.4885 15.3907 13.2966C15.1684 13.1047 14.8935 12.9752 14.597 12.9228L14.6046 12.8747ZM13.4556 4.98141C13.5772 4.98016 13.6964 5.01326 13.7978 5.07643C13.8993 5.1396 13.9783 5.22995 14.0246 5.33582C14.0718 5.44213 14.0847 5.55921 14.0616 5.67237C14.0385 5.78554 13.9804 5.88977 13.8947 5.97202C13.8094 6.05417 13.6997 6.11 13.58 6.13213C13.4602 6.15425 13.3362 6.14164 13.2243 6.09594C13.1124 6.05032 13.0173 5.97444 12.9512 5.8779C12.8851 5.78136 12.851 5.66852 12.853 5.55367C12.8525 5.47897 12.8676 5.4049 12.8974 5.3357C12.9273 5.2665 12.9714 5.20352 13.0271 5.15037C13.0828 5.09722 13.1491 5.05494 13.2222 5.02595C13.2953 4.99696 13.3738 4.98182 13.4531 4.98141H13.4556ZM11.8415 5.33582C11.8331 5.40822 11.8331 5.48126 11.8415 5.55367C11.8402 5.90855 11.9688 6.25299 12.2058 6.52892C12.4427 6.80485 12.7734 6.99539 13.1422 7.06839L13.5981 13.0397C13.3317 13.1621 13.1066 13.3518 12.9477 13.5875L9.12862 12.2172C9.13273 12.1446 9.13273 12.0719 9.12862 11.9993C9.12919 11.5977 8.96291 11.2119 8.66535 10.9242C8.36778 10.6366 7.96254 10.47 7.53628 10.4601C7.19692 10.4623 6.86698 10.5655 6.59374 10.7551C6.3205 10.9447 6.11797 11.2109 6.01518 11.5155H3.15651C3.07782 11.2904 2.9444 11.0858 2.76688 10.918C2.58937 10.7501 2.37267 10.6236 2.13406 10.5485V7.0084C2.45896 6.90622 2.74151 6.71037 2.9417 6.44859C3.14189 6.1868 3.24959 5.87234 3.24954 5.54972C3.2441 5.41346 3.22131 5.27831 3.18165 5.14717L5.71599 3.53536C6.02275 3.77304 6.4136 3.89269 6.81012 3.87029C7.20664 3.84789 7.57951 3.68511 7.85391 3.41459L11.8415 5.33582ZM6.69653 1.75463C6.83929 1.75238 6.97836 1.79736 7.08954 1.88174C7.20071 1.96611 7.27695 2.08453 7.30497 2.21639C7.33425 2.34856 7.31381 2.48621 7.24714 2.60574C7.18047 2.72527 7.07174 2.81923 6.93957 2.87153C6.85597 2.90313 6.76602 2.91705 6.67608 2.91231C6.58613 2.90757 6.49839 2.88428 6.41906 2.84409C6.33972 2.8039 6.27073 2.74778 6.21695 2.67972C6.16317 2.61165 6.12592 2.53329 6.10784 2.45017C6.08975 2.36705 6.09127 2.28121 6.11228 2.19871C6.13329 2.1162 6.17329 2.03905 6.22944 1.97271C6.28559 1.90636 6.35653 1.85244 6.43725 1.81476C6.51796 1.77708 6.60647 1.75655 6.69653 1.75463ZM1.62535 4.97746C1.74694 4.97621 1.86615 5.00931 1.96758 5.07248C2.06901 5.13565 2.14801 5.226 2.1944 5.33187C2.24161 5.43819 2.25446 5.55526 2.23135 5.66843C2.20825 5.78159 2.15021 5.88582 2.0645 5.96807C1.9792 6.05022 1.86944 6.10605 1.74972 6.12818C1.63001 6.15031 1.50598 6.13769 1.39404 6.09199C1.28211 6.04638 1.18708 5.97049 1.12098 5.87395C1.05489 5.77742 1.02071 5.66457 1.02278 5.54972C1.02222 5.47503 1.03731 5.40096 1.06718 5.33175C1.09705 5.26255 1.14111 5.19958 1.19684 5.14643C1.25257 5.09328 1.31888 5.051 1.39198 5.022C1.46508 4.99301 1.54352 4.97787 1.62284 4.97746H1.62535ZM1.62535 12.5763C1.48602 12.5753 1.35136 12.5289 1.24425 12.4449C1.13713 12.361 1.06416 12.2447 1.03772 12.1159C1.01128 11.987 1.03299 11.8535 1.09919 11.7381C1.16538 11.6226 1.27197 11.5322 1.40085 11.4824C1.52974 11.4325 1.67297 11.4262 1.80625 11.4645C1.93952 11.5027 2.05462 11.5833 2.13199 11.6924C2.20937 11.8016 2.24425 11.9326 2.23073 12.0632C2.2172 12.1938 2.1561 12.316 2.0578 12.409C2.00142 12.4629 1.93404 12.5055 1.85973 12.5343C1.78541 12.563 1.70569 12.5773 1.62535 12.5763ZM7.53963 12.5763C7.41749 12.5777 7.29767 12.5449 7.19538 12.482C7.0931 12.4191 7.01297 12.329 6.96519 12.2232C6.91741 12.1173 6.90413 12.0004 6.92704 11.8874C6.94995 11.7744 7.00801 11.6704 7.09385 11.5885C7.17969 11.5067 7.28943 11.4507 7.40912 11.4277C7.52881 11.4048 7.65305 11.4158 7.76604 11.4595C7.87904 11.5032 7.97569 11.5776 8.04372 11.6731C8.11174 11.7687 8.14807 11.8811 8.14808 11.9962C8.14895 12.0947 8.12268 12.1918 8.07181 12.278C8.01853 12.3668 7.94159 12.4411 7.84856 12.4934C7.75553 12.5457 7.64964 12.5743 7.54131 12.5763H7.53963ZM14.3004 14.9933C14.161 14.9922 14.0264 14.9458 13.9193 14.8618C13.8122 14.7779 13.7392 14.6617 13.7127 14.5328C13.6863 14.404 13.708 14.2705 13.7742 14.155C13.8404 14.0395 13.947 13.9492 14.0759 13.8993C14.2048 13.8494 14.348 13.8431 14.4813 13.8814C14.6145 13.9197 14.7296 14.0002 14.807 14.1094C14.8844 14.2185 14.9193 14.3495 14.9058 14.4801C14.8922 14.6107 14.8311 14.7329 14.7328 14.8259C14.6764 14.8798 14.6091 14.9224 14.5347 14.9512C14.4604 14.98 14.3807 14.9943 14.3004 14.9933Z" fill="#5A5C60"/>
</g>
</svg>
