<svg width="16" height="16" viewBox="0 0 16 16" fill="none" xmlns="http://www.w3.org/2000/svg">
<g id="tool panoramic">
<path id="&#232;&#183;&#175;&#229;&#190;&#132; 29347" d="M1.03728 9.928L2.14188 9.9648L2.10623 11.3104L7.9996 14.7288L11.6838 12.62L12.2373 13.6L12.2 13.6368L7.96232 16H7.92666L1 11.9264L1.03728 9.928ZM10.8377 1.564L15 4.0376L14.9263 12.0376L13.2681 13.0192L12.7162 12.0368L13.8589 11.3832L13.9319 4.692L10.2469 2.4736L10.8377 1.564ZM7.74269 4.7272C8.03687 4.7272 8.1479 4.9104 8.2954 5.092L8.33268 5.1272L11.0954 10.3648C11.1676 10.4591 11.2067 10.5741 11.2067 10.6924C11.2067 10.8107 11.1676 10.9257 11.0954 11.02C11.0404 11.0964 10.9656 11.1568 10.8787 11.1947C10.7919 11.2327 10.6963 11.2468 10.6021 11.2355C10.5078 11.2243 10.4183 11.1882 10.3431 11.131C10.2679 11.0737 10.2097 10.9975 10.1748 10.9104L9.91543 10.4L9.36272 9.3824C9.30623 9.28158 9.24428 9.18384 9.17714 9.0896L8.58877 10.2176C8.47775 10.4728 8.33025 10.6912 8.21922 10.9448C8.1843 11.0335 8.12476 11.1107 8.04743 11.1675C7.97011 11.2244 7.87813 11.2586 7.78203 11.2662C7.68593 11.2737 7.5896 11.2545 7.50409 11.2105C7.41859 11.1665 7.34736 11.0997 7.29858 11.0176C7.24104 10.9162 7.21399 10.8007 7.22059 10.6846C7.22719 10.5686 7.26718 10.4568 7.33586 10.3624L8.109 8.9448C8.21922 8.6896 8.36753 8.4712 8.47694 8.2168C8.53108 8.14259 8.56021 8.05345 8.56021 7.962C8.56021 7.87055 8.53108 7.78141 8.47694 7.7072C8.21841 7.272 8.03444 6.8352 7.77754 6.3984C7.68294 6.47093 7.61724 6.57402 7.59196 6.6896L6.48735 8.7616L5.42246 10.8376C5.37771 10.9391 5.31211 11.0303 5.22981 11.1055C5.14751 11.1807 5.05029 11.2382 4.94432 11.2744C4.8596 11.2929 4.77148 11.2893 4.68857 11.2641C4.60566 11.2389 4.53078 11.1929 4.47126 11.1306C4.41174 11.0683 4.3696 10.9918 4.34897 10.9086C4.32833 10.8254 4.3299 10.7384 4.35352 10.656C4.38289 10.5679 4.41948 10.4823 4.46293 10.4C5.38356 8.6544 6.26773 6.9448 7.18837 5.2C7.3002 4.9096 7.44851 4.7272 7.74269 4.7272ZM8.109 0L9.76712 1.0176L9.2136 1.964L8.07254 1.2736L2.14026 4.5456V8.7288H1.03566L1.07294 3.892L8.109 0ZM10.7988 5.2C10.9246 5.2091 11.0474 5.24269 11.1601 5.29885C11.2727 5.35502 11.373 5.43263 11.4551 5.52723C11.5372 5.62182 11.5996 5.73152 11.6385 5.85001C11.6775 5.9685 11.6923 6.09343 11.6821 6.2176C11.6576 6.46642 11.5367 6.6963 11.3447 6.85922C11.1526 7.02215 10.9042 7.10555 10.6513 7.092C10.5241 7.09123 10.3984 7.0647 10.282 7.01405C10.1657 6.9634 10.0611 6.88972 9.97468 6.79756C9.8883 6.7054 9.82201 6.59672 9.77989 6.47825C9.73778 6.35977 9.72075 6.23403 9.72984 6.1088C9.73337 5.97772 9.76462 5.84881 9.82158 5.73035C9.87854 5.61189 9.95996 5.50649 10.0606 5.42092C10.1613 5.33535 10.2789 5.27149 10.406 5.23345C10.5332 5.1954 10.6669 5.18401 10.7988 5.2Z" fill="#5A5C60"/>
</g>
</svg>
