<svg width="16" height="16" viewBox="0 0 16 16" fill="none" xmlns="http://www.w3.org/2000/svg">
<g id="tool edit">
<path id="&#232;&#183;&#175;&#229;&#190;&#132; 22612" d="M2.30229 1.90574L11.649 8.90977L8.51385 9.09818C7.8968 9.16143 7.30009 9.35443 6.76285 9.66447C6.22562 9.9745 5.75998 10.3946 5.3965 10.8972L3.6694 13.5104L2.30053 1.90485L2.30229 1.90574ZM1.5814 0.0222873C1.17873 -0.0861505 0.941414 0.205385 1.01252 0.803571L2.72897 15.3378C2.77341 15.7245 2.90673 15.9458 3.07207 15.9902C3.2374 16.0347 3.46673 15.9013 3.68806 15.5653L6.35473 11.5318C6.6191 11.1773 6.95301 10.8804 7.33601 10.6593C7.71901 10.4381 8.14307 10.2974 8.58229 10.2457L13.409 9.95503C14.1983 9.90792 14.3263 9.48127 13.6934 9.00753L1.99207 0.239179C1.86947 0.141564 1.72955 0.0679656 1.57964 0.0222873H1.5814Z" fill="#5A5C60"/>
</g>
</svg>
