<svg width="16" height="16" viewBox="0 0 16 16" fill="none" xmlns="http://www.w3.org/2000/svg">
<g clip-path="url(#clip0_3218_11680)">
<path d="M14.3999 5.85837C14.036 5.03017 13.5011 4.2797 12.8266 3.65133C12.1521 3.02296 11.3519 2.52944 10.4732 2.19997C10.4281 2.18388 10.3886 2.15635 10.3589 2.12037C10.3292 2.0844 10.3105 2.04136 10.3048 1.99597C10.2494 1.43708 9.97156 0.91935 9.52791 0.548567C9.08425 0.177784 8.50831 -0.0180671 7.91775 0.00103219C7.32719 0.0201315 6.7666 0.252739 6.35051 0.651328C5.93443 1.04992 5.69426 1.5844 5.67908 2.14557C5.67908 2.18477 5.67908 2.22557 5.67908 2.26317C5.67843 2.56763 5.7414 2.86919 5.86434 3.15037C6.02722 3.53815 6.30374 3.87343 6.6611 4.11645C7.01847 4.35948 7.44169 4.50006 7.8806 4.52153C8.31951 4.543 8.75569 4.44446 9.13744 4.2376C9.51919 4.03073 9.83049 3.7242 10.0344 3.35437C10.0647 3.30006 10.1153 3.2585 10.1763 3.23792C10.2373 3.21733 10.3041 3.2192 10.3637 3.24317C10.4479 3.27917 10.5397 3.31837 10.5818 3.33757C11.1834 3.62116 11.7299 3.99989 12.1978 4.45757C12.6486 4.89814 13.0224 5.40424 13.3052 5.95677C13.3233 5.99097 13.333 6.02864 13.3336 6.06693C13.3342 6.10522 13.3256 6.14313 13.3084 6.1778C13.2913 6.21247 13.2662 6.24299 13.2348 6.26707C13.2035 6.29114 13.1668 6.30814 13.1275 6.31677L12.6728 6.40797C12.6615 6.41052 12.6512 6.41578 12.6427 6.42324C12.6342 6.43069 12.6279 6.44009 12.6243 6.45053C12.6208 6.46098 12.6201 6.47212 12.6224 6.48287C12.6247 6.49363 12.6299 6.50365 12.6374 6.51197L13.8947 7.88797L14.4142 8.45517C14.4217 8.46336 14.4313 8.46951 14.4421 8.47298C14.4529 8.47645 14.4645 8.47712 14.4756 8.47492C14.4868 8.47272 14.4972 8.46772 14.5056 8.46045C14.514 8.45318 14.5203 8.4439 14.5237 8.43357L14.869 7.41677L15.3641 5.96397C15.3675 5.95375 15.368 5.94289 15.3657 5.93242C15.3633 5.92195 15.3582 5.91223 15.3507 5.9042C15.3433 5.89617 15.3338 5.89009 15.3232 5.88654C15.3125 5.883 15.3011 5.88211 15.29 5.88397L14.6871 6.00477C14.6284 6.01743 14.567 6.00981 14.5137 5.98327C14.4604 5.95672 14.4189 5.91301 14.3966 5.85997L14.3999 5.85837ZM9.12834 2.86877C9.02068 3.06478 8.85854 3.22902 8.65952 3.34362C8.4605 3.45823 8.23222 3.51882 7.9995 3.51882C7.76677 3.51882 7.53849 3.45823 7.33948 3.34362C7.14046 3.22902 6.97831 3.06478 6.87066 2.86877C6.76416 2.68269 6.70857 2.47417 6.70897 2.26237C6.7093 2.12657 6.73174 1.99165 6.7755 1.86237C6.85616 1.6138 7.01854 1.39634 7.23882 1.24186C7.45911 1.08739 7.7257 1.00404 7.9995 1.00404C8.2733 1.00404 8.53989 1.08739 8.76017 1.24186C8.98046 1.39634 9.14284 1.6138 9.2235 1.86237C9.27994 2.0274 9.30061 2.20159 9.28425 2.37442C9.2679 2.54725 9.21486 2.71514 9.12834 2.86797V2.86877ZM14.8774 9.62717C14.5765 9.44813 14.2356 9.33854 13.882 9.30717C13.8147 9.30077 13.7448 9.29757 13.6757 9.29757C13.052 9.30516 12.4569 9.54774 12.0214 9.97199C11.5859 10.3962 11.3455 10.9674 11.3532 11.56C11.3519 11.9859 11.4758 12.4038 11.7111 12.7664C11.7456 12.8194 11.7587 12.8824 11.7481 12.9439C11.7374 13.0054 11.7036 13.0611 11.653 13.1008C11.2423 13.4137 10.7891 13.6726 10.3056 13.8704C9.5765 14.1714 8.78983 14.326 7.99487 14.3248C7.85592 14.3248 7.71781 14.32 7.58055 14.3104C7.5396 14.3072 7.49999 14.295 7.4649 14.2747C7.42981 14.2544 7.4002 14.2265 7.37844 14.1934C7.35668 14.1603 7.34336 14.1228 7.33956 14.084C7.33576 14.0451 7.34158 14.0059 7.35655 13.9696L7.53087 13.528C7.53514 13.5178 7.53651 13.5067 7.53483 13.4958C7.53316 13.485 7.5285 13.4747 7.52132 13.4661C7.51415 13.4575 7.50471 13.4509 7.49397 13.4468C7.48323 13.4428 7.47155 13.4415 7.46013 13.4432L5.42813 13.76L4.82518 13.8528C4.81382 13.8548 4.8032 13.8596 4.79436 13.8667C4.78551 13.8738 4.77873 13.8829 4.77467 13.8932C4.77061 13.9035 4.7694 13.9146 4.77117 13.9254C4.77294 13.9363 4.77762 13.9465 4.78476 13.9552L5.58139 14.9152L6.46392 15.9784C6.47093 15.9869 6.48023 15.9934 6.49084 15.9973C6.50144 16.0012 6.51296 16.0023 6.52417 16.0005C6.53538 15.9987 6.54587 15.9941 6.55453 15.9871C6.5632 15.9801 6.56971 15.971 6.57339 15.9608L6.78308 15.4312C6.80293 15.3787 6.84105 15.3342 6.89112 15.3051C6.9412 15.276 7.00023 15.2641 7.05844 15.2712C8.03611 15.3995 9.03143 15.3256 9.9762 15.0544C10.921 14.7832 11.7929 14.3212 12.5321 13.7C12.5677 13.6697 12.6116 13.6497 12.6587 13.6422C12.7058 13.6347 12.7542 13.64 12.7982 13.6576C13.0526 13.7588 13.3243 13.8152 13.5999 13.824C13.9131 13.8293 14.2242 13.7753 14.5152 13.6651C14.8061 13.5549 15.0711 13.3907 15.2945 13.1822C15.5179 12.9737 15.6954 12.7249 15.8165 12.4505C15.9376 12.1761 16 11.8815 15.9999 11.584C16.0053 11.1934 15.9049 10.808 15.7083 10.4649C15.5117 10.1218 15.2256 9.83253 14.8774 9.62477V9.62717ZM13.6757 12.8192C13.5934 12.8195 13.5113 12.8117 13.4307 12.796C13.2544 12.7622 13.0876 12.6937 12.941 12.5949C12.7943 12.4961 12.6711 12.3692 12.5793 12.2224C12.4522 12.0228 12.3852 11.794 12.3856 11.5608C12.3819 11.2352 12.5127 10.9212 12.75 10.6862C12.9873 10.4512 13.3121 10.314 13.6547 10.304H13.6757C13.8512 10.3042 14.0248 10.339 14.1855 10.406C14.3462 10.4731 14.4906 10.571 14.6096 10.6936C14.8396 10.9294 14.9668 11.2393 14.9658 11.5608C14.9701 11.8901 14.8366 12.2076 14.5948 12.4435C14.3529 12.6794 14.0223 12.8145 13.6757 12.8192ZM2.3435 9.30637C2.27907 9.30421 2.21773 9.27962 2.17115 9.23728C2.12456 9.19495 2.09599 9.13782 2.09087 9.07677C2.07487 8.90237 2.06644 8.72477 2.06644 8.54717C2.06235 7.77586 2.2186 7.01138 2.52623 6.29757C2.68228 5.93627 2.87669 5.59102 3.10644 5.26717C3.12859 5.23527 3.15844 5.20886 3.1935 5.19013C3.22856 5.1714 3.26782 5.16089 3.30802 5.15948C3.34821 5.15807 3.38818 5.1658 3.4246 5.18203C3.46102 5.19826 3.49283 5.22251 3.51739 5.25277L3.79192 5.58237C3.79893 5.59087 3.80823 5.59742 3.81884 5.60132C3.82944 5.60521 3.84096 5.60632 3.85217 5.60452C3.86338 5.60272 3.87387 5.59807 3.88253 5.59108C3.8912 5.58408 3.89771 5.57499 3.90139 5.56477L4.59192 3.80477L4.85634 3.13117C4.86061 3.12097 4.86198 3.10989 4.8603 3.09903C4.85863 3.08817 4.85397 3.07793 4.8468 3.06933C4.83962 3.06073 4.83019 3.05408 4.81944 3.05004C4.8087 3.04601 4.79703 3.04475 4.7856 3.04637L3.67739 3.22397L2.15318 3.45997C2.14182 3.46202 2.1312 3.46681 2.12236 3.47389C2.11351 3.48097 2.10673 3.49009 2.10267 3.50037C2.09861 3.51066 2.0974 3.52177 2.09917 3.53263C2.10094 3.54348 2.10562 3.55373 2.11276 3.56237L2.51444 4.04237C2.55098 4.08742 2.57079 4.1427 2.57079 4.19957C2.57079 4.25644 2.55098 4.31171 2.51444 4.35677C1.34876 5.81592 0.838329 7.65404 1.09465 9.46957C1.10118 9.51493 1.09477 9.56113 1.07611 9.60334C1.05745 9.64555 1.02721 9.68223 0.98855 9.70957C0.677313 9.92351 0.424952 10.2056 0.252854 10.5319C0.0807565 10.8582 -0.00600653 11.2191 -8.19468e-05 11.584C-0.00013189 11.8815 0.0622236 12.1761 0.183343 12.4505C0.304463 12.7249 0.481919 12.9737 0.705349 13.1822C0.928779 13.3907 1.1937 13.5549 1.48466 13.6651C1.77561 13.7753 2.08675 13.8293 2.39992 13.824C2.72823 13.8141 3.05024 13.7357 3.34308 13.5944C3.66185 13.4417 3.93934 13.2213 4.15402 12.9504C4.47246 12.5507 4.64405 12.0628 4.64244 11.5616C4.64902 11.0115 4.44228 10.4783 4.06163 10.0637C3.68097 9.64912 3.15303 9.3821 2.57844 9.31357C2.53887 9.30957 2.44202 9.30637 2.3435 9.30637ZM3.41887 12.224C3.32667 12.3707 3.20339 12.4977 3.05683 12.5969C2.91028 12.696 2.74365 12.7652 2.5675 12.8C2.48687 12.8157 2.40475 12.8235 2.32244 12.8232C1.9761 12.8185 1.64582 12.6836 1.40399 12.4481C1.16216 12.2125 1.02852 11.8954 1.03234 11.5664C1.0313 11.2449 1.15859 10.935 1.38855 10.6992C1.50744 10.5765 1.65181 10.4785 1.81254 10.4114C1.97328 10.3444 2.14689 10.3097 2.32244 10.3096H2.3435C2.68564 10.3196 3.01005 10.4565 3.24725 10.691C3.48445 10.9254 3.61557 11.2388 3.61255 11.564C3.61275 11.7967 3.54576 12.0249 3.41887 12.224Z" fill="#5A5C60"/>
</g>
<defs>
<clipPath id="clip0_3218_11680">
<rect width="16" height="16" fill="white"/>
</clipPath>
</defs>
</svg>
