<svg width="24" height="24" viewBox="0 0 24 24" fill="none" xmlns="http://www.w3.org/2000/svg">
<path fill-rule="evenodd" clip-rule="evenodd" d="M11.7416 2.05358C11.9061 1.98214 12.0938 1.98214 12.2583 2.05358L17.4395 4.30358C17.6701 4.40374 17.8188 4.62775 17.8188 4.875V10.4683L22.6206 12.5536C22.8513 12.6537 23 12.8777 23 13.125V19.125C23 19.3723 22.8513 19.5963 22.6206 19.6964L17.4395 21.9464C17.275 22.0179 17.0873 22.0179 16.9228 21.9464L12 19.8086L7.07719 21.9464C6.91269 22.0179 6.72505 22.0179 6.56054 21.9464L1.37936 19.6964C1.14872 19.5963 1 19.3723 1 19.125V13.125C1 12.8777 1.14872 12.6537 1.37936 12.5536L6.1811 10.4683V4.875C6.1811 4.62775 6.32981 4.40374 6.56046 4.30358L11.7416 2.05358ZM12 6.4414L8.39294 4.875L12 3.3086L15.607 4.875L12 6.4414ZM6.81878 11.5586L3.21183 13.125L6.81886 14.6914L10.4258 13.125L6.81878 11.5586ZM7.45655 15.7817L11.3623 14.0855V18.7183L7.45655 20.4145V15.7817ZM21.7246 14.0855L17.8188 15.7817V20.4145L21.7246 18.7183V14.0855ZM17.1811 14.6914L13.5741 13.125L17.1811 11.5586L20.7882 13.125L17.1811 14.6914ZM16.5435 10.4683V5.83552L12.6376 7.53168V12.1645L16.5435 10.4683Z" fill="#5A5C60"/>
</svg>
