<svg width="24" height="24" viewBox="0 0 24 24" fill="none" xmlns="http://www.w3.org/2000/svg">
<path fill-rule="evenodd" clip-rule="evenodd" d="M9.91036 5.26574C9.91036 4.01443 10.9247 3.00005 12.176 3.00005C13.4274 3.00005 14.4417 4.01443 14.4417 5.26574C14.4417 6.1579 13.9261 6.92963 13.1765 7.29913V9.32857H15.8717C17.5286 9.32857 18.8717 10.6717 18.8717 12.3286V13.1622C20.3063 13.3869 21.4037 14.6283 21.4037 16.1259V16.5653C21.9723 16.9058 22.3529 17.5279 22.3529 18.2389C22.3529 19.3154 21.4802 20.1881 20.4037 20.1881C19.3271 20.1881 18.4544 19.3154 18.4544 18.2389C18.4544 17.5278 18.8351 16.9057 19.4037 16.5653V16.1259C19.4037 15.5736 18.956 15.1259 18.4037 15.1259H17.341C16.7887 15.1259 16.341 15.5736 16.341 16.1259V16.5658C16.9091 16.9064 17.2894 17.5282 17.2894 18.2389C17.2894 19.3154 16.4167 20.1881 15.3401 20.1881C14.2636 20.1881 13.3909 19.3154 13.3909 18.2389C13.3909 17.5275 13.7719 16.9052 14.341 16.5648V16.1259C14.341 14.6287 15.4378 13.3876 16.8717 13.1624V12.3286C16.8717 11.7763 16.424 11.3286 15.8717 11.3286H8.48051C7.92822 11.3286 7.48051 11.7763 7.48051 12.3286V13.1623C8.91488 13.3872 10.0121 14.6284 10.0121 16.1259V16.5656C10.5805 16.9061 10.9609 17.5281 10.9609 18.2389C10.9609 19.3154 10.0882 20.1881 9.01161 20.1881C7.93506 20.1881 7.06235 19.3154 7.06235 18.2389C7.06235 17.5277 7.44321 16.9054 8.0121 16.565V16.1259C8.0121 15.5736 7.56439 15.1259 7.0121 15.1259H5.94934C5.39705 15.1259 4.94934 15.5736 4.94934 16.1259V16.5653C5.51792 16.9058 5.89854 17.5279 5.89854 18.2389C5.89854 19.3154 5.02582 20.1881 3.94927 20.1881C2.87272 20.1881 2 19.3154 2 18.2389C2 17.5278 2.38068 16.9057 2.94934 16.5653V16.1259C2.94934 14.6286 4.04635 13.3874 5.48051 13.1623V12.3286C5.48051 10.6717 6.82366 9.32857 8.48051 9.32857H11.1765V7.29961C10.4265 6.9303 9.91036 6.15829 9.91036 5.26574ZM12.176 5.00005C12.0293 5.00005 11.9104 5.119 11.9104 5.26574C11.9104 5.41247 12.0293 5.53143 12.176 5.53143C12.3228 5.53143 12.4417 5.41247 12.4417 5.26574C12.4417 5.119 12.3228 5.00005 12.176 5.00005ZM4 18.2389C4 18.2669 3.97729 18.2896 3.94927 18.2896C3.92125 18.2896 3.89854 18.2669 3.89854 18.2389C3.89854 18.2108 3.92125 18.1881 3.94927 18.1881C3.97729 18.1881 4 18.2108 4 18.2389ZM9.01161 18.2896C9.03963 18.2896 9.06235 18.2669 9.06235 18.2389C9.06235 18.2108 9.03963 18.1881 9.01161 18.1881C8.98359 18.1881 8.96088 18.2108 8.96088 18.2389C8.96088 18.2669 8.98359 18.2896 9.01161 18.2896ZM15.3909 18.2389C15.3909 18.2669 15.3682 18.2896 15.3401 18.2896C15.3121 18.2896 15.2894 18.2669 15.2894 18.2389C15.2894 18.2108 15.3121 18.1881 15.3401 18.1881C15.3682 18.1881 15.3909 18.2108 15.3909 18.2389ZM20.4037 18.2896C20.4317 18.2896 20.4544 18.2669 20.4544 18.2389C20.4544 18.2108 20.4317 18.1881 20.4037 18.1881C20.3756 18.1881 20.3529 18.2108 20.3529 18.2389C20.3529 18.2669 20.3756 18.2896 20.4037 18.2896Z" fill="#5A5C60"/>
</svg>
