<svg width="24" height="24" viewBox="0 0 24 24" fill="none" xmlns="http://www.w3.org/2000/svg">
<path d="M14.75 22.583H9.25001V20.75H14.75V22.582V22.583ZM21.166 18.916H2.83301V17.083H4.66601V10.666C4.66601 8.72116 5.43859 6.85598 6.81379 5.48078C8.189 4.10557 10.0542 3.33299 11.999 3.33299C13.9438 3.33299 15.809 4.10557 17.1842 5.48078C18.5594 6.85598 19.332 8.72116 19.332 10.666V17.083H21.165V18.915L21.166 18.916ZM12 5.16599C10.5418 5.16758 9.14378 5.74755 8.11267 6.77866C7.08157 7.80977 6.5016 9.20779 6.50001 10.666V17.083H17.5V10.666C17.4984 9.20779 16.9184 7.80977 15.8873 6.77866C14.8562 5.74755 13.4582 5.16758 12 5.16599Z" fill="#5A5C60"/>
</svg>
