<svg width="24" height="24" viewBox="0 0 24 24" fill="none" xmlns="http://www.w3.org/2000/svg">
<path d="M9.22222 3C8.18403 3 7.32292 3.7207 7.07639 4.69453C7.0625 4.69453 7.05035 4.69277 7.03819 4.69102C7.02604 4.68926 7.01389 4.6875 7 4.6875C5.77431 4.6875 4.77778 5.69648 4.77778 6.9375C4.77778 7.10625 4.79861 7.27148 4.83681 7.42969C3.82292 7.85156 3.11111 8.85703 3.11111 10.0313C3.11111 10.4742 3.22222 10.8855 3.39931 11.2582C2.56597 11.7434 2 12.6434 2 13.6875C2 14.8582 2.70833 15.8637 3.71528 16.2855C3.68403 16.4473 3.66667 16.6125 3.66667 16.7812C3.66667 18.1805 4.78472 19.3125 6.16667 19.3125C6.30903 19.3125 6.44792 19.2949 6.58333 19.2703C6.91667 20.2723 7.84028 21 8.94444 21C10.3264 21 11.4444 19.868 11.4444 18.4688V15.0054H8.85707V16.134C9.11324 16.2841 9.28557 16.5645 9.28557 16.8857C9.28557 17.365 8.90182 17.7536 8.42843 17.7536C7.95505 17.7536 7.57129 17.365 7.57129 16.8857C7.57129 16.5645 7.74369 16.284 7.99993 16.1339V14.5715C7.99993 14.3318 8.19181 14.1376 8.4285 14.1376H11.4444V12.474H7.1711C7.02292 12.7335 6.74588 12.9081 6.42857 12.9081C5.95518 12.9081 5.57143 12.5195 5.57143 12.0402C5.57143 11.5609 5.95518 11.1724 6.42857 11.1724C6.74579 11.1724 7.02276 11.3468 7.17098 11.6062H11.4444V9.94279H8.4285C8.19181 9.94279 7.99993 9.74851 7.99993 9.50886V7.94651C7.74369 7.79646 7.57129 7.51597 7.57129 7.19471C7.57129 6.71541 7.95505 6.32686 8.42843 6.32686C8.90182 6.32686 9.28557 6.71541 9.28557 7.19471C9.28557 7.51591 9.11324 7.79636 8.85707 7.94643V9.07493H11.4444V5.25C11.4444 4.00898 10.4479 3 9.22222 3Z" fill="#5A5C60"/>
<path d="M14.7778 3C15.816 3 16.6771 3.7207 16.9236 4.69453C16.9375 4.69453 16.9497 4.69277 16.9618 4.69102C16.974 4.68926 16.9861 4.6875 17 4.6875C18.2257 4.6875 19.2222 5.69648 19.2222 6.9375C19.2222 7.10625 19.2014 7.27148 19.1632 7.42969C20.1771 7.85156 20.8889 8.85703 20.8889 10.0313C20.8889 10.4742 20.7778 10.8855 20.6007 11.2582C21.434 11.7434 22 12.6434 22 13.6875C22 14.8582 21.2917 15.8637 20.2847 16.2855C20.316 16.4473 20.3333 16.6125 20.3333 16.7812C20.3333 18.1805 19.2153 19.3125 17.8333 19.3125C17.691 19.3125 17.5521 19.2949 17.4167 19.2703C17.0833 20.2723 16.1597 21 15.0556 21C13.6736 21 12.5556 19.868 12.5556 18.4688V15.0054H15.1429V16.134C14.8868 16.2841 14.7144 16.5645 14.7144 16.8857C14.7144 17.365 15.0982 17.7536 15.5716 17.7536C16.045 17.7536 16.4287 17.365 16.4287 16.8857C16.4287 16.5645 16.2563 16.284 16.0001 16.1339V14.5715C16.0001 14.3318 15.8082 14.1376 15.5715 14.1376H12.5556V12.474H16.8289C16.9771 12.7335 17.2541 12.9081 17.5714 12.9081C18.0448 12.9081 18.4286 12.5195 18.4286 12.0402C18.4286 11.5609 18.0448 11.1724 17.5714 11.1724C17.2542 11.1724 16.9772 11.3468 16.829 11.6062H12.5556V9.94279H15.5715C15.8082 9.94279 16.0001 9.74851 16.0001 9.50886V7.94651C16.2563 7.79646 16.4287 7.51597 16.4287 7.19471C16.4287 6.71541 16.045 6.32686 15.5716 6.32686C15.0982 6.32686 14.7144 6.71541 14.7144 7.19471C14.7144 7.51591 14.8868 7.79636 15.1429 7.94643V9.07493H12.5556V5.25C12.5556 4.00898 13.5521 3 14.7778 3Z" fill="#5A5C60"/>
</svg>
