<svg width="24" height="24" viewBox="0 0 24 24" fill="none" xmlns="http://www.w3.org/2000/svg">
<path d="M14.75 22.583H9.25001V20.75H14.75V22.582V22.583ZM21.166 18.916H2.83301V17.083H4.66601V10.666C4.66601 8.72116 5.43859 6.85598 6.81379 5.48078C8.189 4.10557 10.0542 3.33299 11.999 3.33299C13.9438 3.33299 15.809 4.10557 17.1842 5.48078C18.5594 6.85598 19.332 8.72116 19.332 10.666V17.083H21.165V18.915L21.166 18.916ZM12 5.16599C10.5418 5.16758 9.14378 5.74755 8.11267 6.77866C7.08157 7.80977 6.5016 9.20779 6.50001 10.666V17.083H17.5V10.666C17.4984 9.20779 16.9184 7.80977 15.8873 6.77866C14.8562 5.74755 13.4582 5.16758 12 5.16599Z" fill="#5A5C60"/>
<path d="M14.2584 3.99994C13.7639 4.73996 13.5 5.60999 13.5 6.5C13.5 7.69348 13.9741 8.83807 14.818 9.68198C15.6619 10.5259 16.8065 11 18 11C18.89 11 19.76 10.7361 20.5001 10.2416C21.2401 9.74715 21.8169 9.04434 22.1575 8.22208C22.4981 7.39981 22.5872 6.49501 22.4135 5.62209C22.2399 4.74918 21.8113 3.94736 21.182 3.31802C20.5526 2.68868 19.7508 2.2601 18.8779 2.08647C18.005 1.91283 17.1002 2.00195 16.2779 2.34254C15.4557 2.68314 14.7529 3.25991 14.2584 3.99994Z" fill="#F97066" stroke="white"/>
</svg>
