<svg width="24" height="24" viewBox="0 0 24 24" fill="none" xmlns="http://www.w3.org/2000/svg">
<path d="M17.641 11.446C17.641 11.6531 17.5606 11.8516 17.4174 11.9981C17.2741 12.1445 17.08 12.2267 16.8775 12.2267H8.1232C7.85035 12.2267 7.59842 12.0778 7.46207 11.8364C7.32556 11.5949 7.32556 11.2971 7.46207 11.0557C7.59841 10.8143 7.85036 10.6654 8.1232 10.6654H16.8775C17.08 10.6654 17.2741 10.7475 17.4174 10.894C17.5606 11.0405 17.641 11.239 17.641 11.4461V11.446ZM16.3176 13.788H8.68297C8.41011 13.788 8.15819 13.9369 8.02184 14.1783C7.88532 14.4198 7.88532 14.7176 8.02184 14.959C8.15817 15.2005 8.41012 15.3493 8.68297 15.3493H16.3176C16.5904 15.3493 16.8424 15.2005 16.9787 14.959C17.1152 14.7176 17.1152 14.4198 16.9787 14.1783C16.8424 13.9369 16.5904 13.788 16.3176 13.788ZM14.6888 16.9107H10.3116C10.0388 16.9107 9.78684 17.0596 9.65049 17.301C9.51397 17.5425 9.51397 17.8402 9.65049 18.0817C9.78682 18.3231 10.0388 18.472 10.3116 18.472H14.6888C14.9617 18.472 15.2136 18.3231 15.35 18.0817C15.4865 17.8402 15.4865 17.5425 15.35 17.301C15.2136 17.0596 14.9617 16.9107 14.6888 16.9107ZM21 8.80007V18.2035C20.9985 19.4751 20.5039 20.6942 19.6245 21.5935C18.745 22.4927 17.5527 22.9985 16.3092 23H8.69083C7.44726 22.9985 6.25497 22.4928 5.37555 21.5935C4.49612 20.6942 4.00149 19.4751 4 18.2035V8.80007C4.00145 7.52849 4.49607 6.30935 5.37555 5.41012C6.25497 4.51089 7.44731 4.00512 8.69083 4.0036H10.2725C10.3486 3.26382 10.7793 2.61102 11.4217 2.2618C12.0641 1.91273 12.8341 1.91273 13.4765 2.2618C14.1189 2.61105 14.5496 3.26386 14.6257 4.0036H16.3092C17.5527 4.00508 18.745 4.51084 19.6245 5.41012C20.5039 6.30935 20.9985 7.52854 21 8.80007V8.80007ZM9.24233 7.54262H15.6047V5.56496H9.24233V7.54262ZM11.8289 4.0036H13.0689C12.9733 3.7378 12.7257 3.56122 12.4489 3.56122C12.1721 3.56122 11.9244 3.7378 11.8289 4.0036ZM19.4728 8.80002C19.4719 8.08888 19.2421 7.39778 18.8189 6.8333C18.3959 6.26881 17.803 5.86231 17.1315 5.67644V8.32328C17.1315 8.53034 17.0511 8.72885 16.9079 8.87534C16.7646 9.02181 16.5705 9.10397 16.368 9.10397H8.47878C8.27628 9.10397 8.08214 9.02181 7.93888 8.87534C7.79564 8.72888 7.71529 8.53036 7.71529 8.32328V5.72293C7.0798 5.93427 6.52589 6.3458 6.13271 6.89839C5.7397 7.45117 5.52756 8.11677 5.52667 8.80007V18.2035C5.52758 19.0611 5.86133 19.8835 6.4545 20.49C7.04767 21.0965 7.85182 21.4377 8.69058 21.4387H16.3089C17.1476 21.4378 17.9519 21.0965 18.545 20.49C19.1381 19.8834 19.4719 19.0612 19.4728 18.2035L19.4728 8.80002Z" fill="#5A5C60"/>
</svg>
