<svg width="24" height="24" viewBox="0 0 24 24" fill="none" xmlns="http://www.w3.org/2000/svg">
<path d="M3 21V12.54H4.872V4.98C4.872 4.476 5.052 4.008 5.412 3.612C5.772 3.216 6.24 3 6.744 3H17.256C17.724 3 18.192 3.216 18.552 3.576L18.588 3.612L18.624 3.648C18.948 4.008 19.128 4.512 19.128 4.98V12.54H21V21H3ZM17.652 4.944C17.652 4.836 17.616 4.728 17.544 4.656C17.508 4.62 17.4 4.548 17.292 4.548H6.744C6.636 4.548 6.564 4.584 6.492 4.656C6.384 4.728 6.348 4.836 6.348 4.944V12.504H8.868V12.828C8.868 14.556 10.272 15.96 12 15.96C13.728 15.96 15.132 14.556 15.132 12.828V12.504H17.652V4.944V4.944ZM4.548 14.088V19.488H19.452V14.088H16.5C16.248 15.024 15.708 15.852 14.952 16.5C14.124 17.184 13.08 17.58 11.964 17.58C10.848 17.58 9.84 17.184 8.976 16.5C8.22 15.888 7.68 15.024 7.428 14.088H4.548V14.088ZM11.352 12.468C11.1 12.468 10.812 12.36 10.632 12.18L7.968 9.372C7.572 8.976 7.572 8.328 7.968 7.896C8.148 7.716 8.4 7.572 8.652 7.572C8.904 7.572 9.192 7.68 9.372 7.896L11.28 9.948L15.384 5.628C15.564 5.412 15.816 5.304 16.104 5.304C16.356 5.304 16.644 5.412 16.824 5.628C17.22 6.024 17.22 6.672 16.824 7.104L12.072 12.18C11.856 12.36 11.604 12.468 11.352 12.468V12.468Z" fill="#5A5C60"/>
</svg>
