<svg width="24" height="24" viewBox="0 0 24 24" fill="none" xmlns="http://www.w3.org/2000/svg">
<path fill-rule="evenodd" clip-rule="evenodd" d="M21.6 12C21.6 17.3019 17.3019 21.6 12 21.6C6.69807 21.6 2.4 17.3019 2.4 12C2.4 6.69807 6.69807 2.4 12 2.4C17.3019 2.4 21.6 6.69807 21.6 12ZM23 12C23 18.0751 18.0751 23 12 23C5.92487 23 1 18.0751 1 12C1 5.92487 5.92487 1 12 1C18.0751 1 23 5.92487 23 12ZM13.9867 10.6267L13.3733 10.0133L7.33333 16.0533V16.6667H7.94667L13.9867 10.6267ZM15.3067 6.19333C15.4333 6.06667 15.6067 6 15.7733 6C15.9467 6 16.1133 6.06 16.2467 6.19333L17.8067 7.75333C18.0667 8.01333 18.0667 8.43333 17.8067 8.69333L16.5867 9.91333L14.0867 7.41333L15.3067 6.19333ZM6 15.5L13.3733 8.12667L15.8733 10.6267L8.5 18H6V15.5Z" fill="#5A5C60"/>
</svg>
