<svg width="24" height="24" viewBox="0 0 24 24" fill="none" xmlns="http://www.w3.org/2000/svg">
<path d="M12.5955 17.6304L7.90779 9.51112C7.59528 8.96983 7.70966 8.54293 8.25095 8.23042C8.79224 7.91791 9.21913 8.03229 9.53165 8.57358L14.2193 16.6929C14.5318 17.2342 14.4174 17.6611 13.8762 17.9736C13.3349 18.2861 12.908 18.1717 12.5955 17.6304Z" fill="#5A5C60"/>
<path d="M14.218 9.51893L9.5303 17.6382C9.21779 18.1795 8.79089 18.2939 8.24961 17.9814C7.70832 17.6689 7.59393 17.242 7.90644 16.7007L12.5941 8.58139C12.9066 8.04011 13.3335 7.92572 13.8748 8.23823C14.4161 8.55074 14.5305 8.97764 14.218 9.51893V9.51893Z" fill="#5A5C60"/>
<path d="M19.7132 2.28589L21.9008 5.74853C21.9613 5.84288 21.9954 5.95179 21.9994 6.06383C22.0034 6.17586 21.9771 6.28691 21.9234 6.38533C21.8698 6.48375 21.7906 6.56592 21.6942 6.62323C21.5979 6.68054 21.4879 6.71087 21.3758 6.71106H20.1257C20.1257 6.46241 20.027 6.22395 19.8511 6.04812C19.6753 5.8723 19.4368 5.77353 19.1882 5.77353C18.9395 5.77353 18.7011 5.8723 18.5253 6.04812C18.3494 6.22395 18.2507 6.46241 18.2507 6.71106H17.0006C16.8896 6.70867 16.7812 6.67673 16.6866 6.61853C16.592 6.56034 16.5146 6.47798 16.4624 6.37994C16.4102 6.2819 16.385 6.17172 16.3896 6.06074C16.3941 5.94976 16.4281 5.84199 16.4881 5.74853L18.6632 2.28589C18.7198 2.19817 18.7976 2.12605 18.8893 2.07611C18.981 2.02617 19.0838 2 19.1882 2C19.2926 2 19.3954 2.02617 19.4871 2.07611C19.5788 2.12605 19.6566 2.19817 19.7132 2.28589V2.28589Z" fill="#5A5C60"/>
<path d="M4.50009 4.19934H10.4628C10.5827 4.19934 10.7013 4.22294 10.812 4.2688C10.9227 4.31466 11.0233 4.38188 11.1081 4.46662C11.1928 4.55135 11.26 4.65195 11.3059 4.76266C11.3518 4.87338 11.3754 4.99204 11.3754 5.11188C11.3754 5.23171 11.3518 5.35037 11.3059 5.46109C11.26 5.5718 11.1928 5.6724 11.1081 5.75713C11.0233 5.84187 10.9227 5.90909 10.812 5.95495C10.7013 6.00081 10.5827 6.02441 10.4628 6.02441H5.07512C4.74358 6.02441 4.42563 6.15611 4.1912 6.39054C3.95677 6.62497 3.82507 6.94292 3.82507 7.27446V18.9374C3.82507 19.2689 3.95677 19.5869 4.1912 19.8213C4.42563 20.0557 4.74358 20.1874 5.07512 20.1874H17.0006C17.3321 20.1874 17.6501 20.0557 17.8845 19.8213C18.1189 19.5869 18.2506 19.2689 18.2506 18.9374V6.61193C18.2506 6.36328 18.3494 6.12482 18.5252 5.94899C18.701 5.77317 18.9395 5.6744 19.1882 5.6744C19.4368 5.6744 19.6753 5.77317 19.8511 5.94899C20.0269 6.12482 20.1257 6.36328 20.1257 6.61193V19.4999C20.1257 20.163 19.8623 20.7989 19.3934 21.2678C18.9246 21.7366 18.2887 22 17.6256 22H4.50009C3.83703 22 3.20112 21.7366 2.73226 21.2678C2.2634 20.7989 2 20.163 2 19.4999V6.69944C2 6.03637 2.2634 5.40046 2.73226 4.9316C3.20112 4.46274 3.83703 4.19934 4.50009 4.19934V4.19934Z" fill="#5A5C60"/>
</svg>
