<svg width="24" height="24" viewBox="0 0 24 24" fill="none" xmlns="http://www.w3.org/2000/svg">
<path d="M22 10.0211C22 9.39717 21.477 8.89132 20.832 8.89132H15.5759C14.9308 8.89132 14.4079 9.39717 14.4079 10.0211V11.9639H9.62381L9.55817 11.8383C8.55846 9.79266 8.68869 7.06309 13.2004 7.16095V9.70885L17.3647 5.85462L13.2004 2V4.49309C7.67076 4.35958 6.82413 8.78617 9.39294 11.8388L9.50634 11.9639H7.36684C6.72177 11.9639 6.19881 12.4698 6.19881 13.0937V14.6562H3.81819C3.17311 14.6562 2.84051 15.162 3.0753 15.786L4.98836 20.8702C5.22314 21.4942 5.93642 22 6.5815 22H21.1818C21.7564 22 22.0827 21.5985 21.9813 21.0698C21.9933 21.005 22 20.9384 22 20.8702V10.0211V10.0211ZM20.54 17.1901L20.0116 15.786C19.7768 15.162 19.0636 14.6562 18.4185 14.6562H7.65887V13.9411C7.65887 13.6291 7.92033 13.3762 8.24287 13.3762H15.8679V10.8685C15.8679 10.5565 16.1293 10.3036 16.4519 10.3036H19.9559C20.2785 10.3036 20.5399 10.5565 20.5399 10.8685V17.1901H20.54Z" fill="#5A5C60"/>
</svg>
