<svg width="24" height="24" viewBox="0 0 24 24" fill="none" xmlns="http://www.w3.org/2000/svg">
<path d="M13.1512 18.2605H16.9039V6.68686H5.11476V9.42592H3.87452V6.31296C3.87321 6.09757 3.96051 5.89021 4.11782 5.73508C4.27512 5.57996 4.48998 5.48934 4.7166 5.48254H17.3066C17.534 5.48711 17.7503 5.57704 17.9081 5.73265C18.0659 5.88826 18.1524 6.09691 18.1487 6.31296V18.6691C18.1512 18.7763 18.1313 18.8828 18.0902 18.9826C18.0491 19.0824 17.9877 19.1735 17.9095 19.2507C17.8312 19.3279 17.7377 19.3896 17.6342 19.4323C17.5307 19.475 17.4194 19.4979 17.3066 19.4996H13.1512V18.2605Z" fill="#5A5C60"/>
<path d="M16.9268 15.7866H19.7368V4.21736H7.96591V6.68686H6.72567V3.82606C6.72321 3.61076 6.81027 3.40324 6.96794 3.24856C7.12562 3.09389 7.34116 3.00457 7.56776 3H20.1624C20.3882 3.00569 20.6026 3.09551 20.7592 3.25006C20.9159 3.40461 21.0024 3.6115 20.9999 3.82606V16.1866C21.0036 16.4015 20.9175 16.609 20.7606 16.7638C20.6036 16.9186 20.3886 17.0081 20.1624 17.0127H16.9588L16.9268 15.7866Z" fill="#5A5C60"/>
<path d="M13.856 21.8388C13.9626 21.84 14.0683 21.8211 14.1671 21.7831C14.2659 21.7452 14.3557 21.689 14.4315 21.6178C14.5073 21.5467 14.5674 21.4619 14.6085 21.3685C14.6495 21.2751 14.6707 21.1749 14.6707 21.0737V8.8305C14.6707 8.62756 14.5858 8.43293 14.4347 8.28943C14.2837 8.14593 14.0788 8.06531 13.8652 8.06531H2.51538C2.30212 8.06529 2.09746 8.14518 1.9458 8.28762C1.79415 8.43006 1.70774 8.62357 1.70533 8.82616V13.4086C1.70533 13.6127 1.79068 13.8085 1.94259 13.9528C2.0945 14.0971 2.30054 14.1782 2.51538 14.1782C2.73022 14.1782 2.93626 14.0971 3.08817 13.9528C3.24008 13.8085 3.32543 13.6127 3.32543 13.4086V9.57831H13.046V20.3041H11.4259C11.2123 20.3041 11.0074 20.3848 10.8564 20.5283C10.7054 20.6718 10.6205 20.8664 10.6205 21.0693C10.6205 21.2722 10.7054 21.4668 10.8564 21.6103C11.0074 21.7538 11.2123 21.8345 11.4259 21.8345H13.856V21.8388ZM1.92958 18.2346L1.90212 18.2607C1.76385 18.4068 1.68966 18.5977 1.69477 18.7941C1.69988 18.9906 1.78389 19.1777 1.92958 19.3172L4.35515 21.6128C4.47687 21.7323 4.63876 21.8077 4.8128 21.8258H4.93637C5.13167 21.8307 5.32196 21.7667 5.47065 21.6464C5.61934 21.526 5.71593 21.3576 5.74184 21.1736V20.9432C5.7181 20.7774 5.63581 20.6241 5.50843 20.5084L4.46041 19.5215H8.19028C8.40512 19.5215 8.61116 19.4404 8.76307 19.2961C8.91499 19.1518 9.00033 18.9561 9.00033 18.752V18.652C8.97189 18.468 8.87503 18.2997 8.72727 18.1777C8.57951 18.0556 8.39064 17.9879 8.19486 17.9868H4.46956L5.51759 16.9998C5.65446 16.8514 5.72525 16.6582 5.715 16.4611C5.70475 16.2639 5.61427 16.0783 5.46267 15.9434C5.31557 15.8251 5.12909 15.7602 4.93637 15.7602C4.74365 15.7602 4.55717 15.8251 4.41007 15.9434L1.92958 18.2346Z" fill="#5A5C60"/>
</svg>
