<svg width="24" height="24" viewBox="0 0 24 24" fill="none" xmlns="http://www.w3.org/2000/svg">
<path d="M22.7222 11.4364L17.1424 3.66082C16.8436 3.24501 16.3488 3.00118 15.8181 3.00236C15.2874 3.00707 14.7976 3.26032 14.5062 3.68085L14.1466 4.20031L13.7585 3.65964C13.6131 3.45669 13.4177 3.29059 13.1893 3.17582C12.9608 3.06105 12.7063 3.00109 12.4479 3.00118H12.4342C11.9035 3.00589 11.4138 3.25915 11.1224 3.67967L10.707 4.28041L10.2606 3.65846C10.1152 3.45551 9.91977 3.28941 9.69133 3.17464C9.46289 3.05987 9.20836 2.99992 8.94994 3H8.9363C8.4056 3.00471 7.91581 3.25797 7.62318 3.67849L2.26033 11.4258C1.89206 11.957 1.91686 12.6543 2.31985 13.162L8.07205 20.4004C8.37212 20.7774 8.84331 21 9.33929 21H9.37649C9.88612 20.9882 10.361 20.7432 10.6487 20.3439L11.0653 19.7643L11.5712 20.4004C11.8713 20.7774 12.3425 21 12.8385 21H12.8757C13.3853 20.9882 13.8602 20.7432 14.1479 20.3439L14.5112 19.8397L14.9576 20.4004C15.2577 20.7774 15.7288 21 16.2248 21H16.262C16.7716 20.9882 17.2478 20.7432 17.5355 20.3439L22.7235 13.1361C23.0918 12.6202 23.093 11.9535 22.7222 11.4364ZM9.34053 19.5877C9.31077 19.5865 9.27978 19.5759 9.25994 19.55L3.50773 12.3116C3.49567 12.296 3.48886 12.2773 3.4882 12.2579C3.48754 12.2386 3.49305 12.2195 3.50401 12.2032L8.86563 4.45946C8.87307 4.44886 8.89415 4.41705 8.94746 4.41705H8.9487C9.00078 4.41705 9.0231 4.44768 9.03054 4.45828L10.1019 5.9519L14.6091 12.2338C14.6327 12.2656 14.6327 12.3069 14.6091 12.3398L10.4218 18.1553L9.42113 19.5453C9.40129 19.5723 9.37401 19.5865 9.34053 19.5877ZM12.8397 19.5877C12.8087 19.5888 12.779 19.5759 12.7591 19.55L11.9519 18.5346L12.5818 17.6606L15.838 13.1373C15.9492 12.983 16.0295 12.8104 16.0748 12.6284C16.1194 12.4482 16.1281 12.2609 16.1008 12.0783C16.0996 12.0736 16.0996 12.0701 16.0996 12.0654C16.0983 12.0536 16.0946 12.0418 16.0921 12.0312C16.0537 11.8227 15.9706 11.6201 15.8392 11.4375L11.6109 5.54551L12.3636 4.45828C12.371 4.44768 12.3921 4.41588 12.4454 4.41588H12.4466C12.4987 4.41588 12.521 4.4465 12.5285 4.4571L18.1083 12.2326C18.1145 12.2409 18.1183 12.2491 18.1207 12.2586C18.1294 12.2856 18.1245 12.3151 18.1071 12.3387L14.3661 17.5357L12.9178 19.5464C12.8992 19.5723 12.8732 19.5865 12.8397 19.5877ZM21.4922 12.3387L16.3042 19.5464C16.2856 19.5723 16.2583 19.5865 16.2248 19.5877C16.1926 19.5888 16.1641 19.5759 16.1442 19.55L15.3965 18.61L19.3359 13.1373C19.517 12.8874 19.6143 12.5914 19.6149 12.288C19.6149 11.9923 19.5231 11.6955 19.3371 11.4375L15.0518 5.46659L15.7487 4.46064C15.7561 4.45004 15.7772 4.41823 15.8305 4.41823C15.8838 4.42294 15.9062 4.44886 15.9136 4.45946L21.4934 12.235C21.5158 12.2644 21.5158 12.3057 21.4922 12.3387Z" fill="#5A5C60"/>
</svg>
