<svg width="24" height="24" viewBox="0 0 24 24" fill="none" xmlns="http://www.w3.org/2000/svg">
<path d="M13.5733 8.51111H4.17C2.97361 8.51111 2 9.43835 2 10.5778V19.5333C2 20.6727 2.97361 21.6 4.17 21.6H13.5733C14.7697 21.6 15.7433 20.6727 15.7433 19.5333V10.5778C15.7433 9.43835 14.7697 8.51111 13.5733 8.51111ZM14.2966 19.5333C14.2966 19.716 14.2204 19.8912 14.0848 20.0204C13.9491 20.1496 13.7652 20.2222 13.5733 20.2222H4.17C3.77144 20.2222 3.44666 19.9136 3.44666 19.5333V10.5778C3.44666 10.1982 3.77144 9.88888 4.17 9.88888H13.5733C13.9726 9.88888 14.2966 10.1982 14.2966 10.5778V19.5333Z" fill="#5A5C60"/>
<path d="M16.4666 5.75549H7.06331C6.87147 5.75549 6.68749 5.82807 6.55183 5.95726C6.41618 6.08646 6.33998 6.26168 6.33998 6.44438C6.33998 6.62709 6.41618 6.80231 6.55183 6.9315C6.68749 7.06069 6.87147 7.13327 7.06331 7.13327H16.4666C16.8659 7.13327 17.19 7.44258 17.19 7.82216V16.7777C17.19 16.9604 17.2662 17.1356 17.4018 17.2648C17.5375 17.394 17.7215 17.4666 17.9133 17.4666C18.1051 17.4666 18.2891 17.394 18.4248 17.2648C18.5604 17.1356 18.6366 16.9604 18.6366 16.7777V7.82216C18.6366 6.68274 17.663 5.75549 16.4666 5.75549ZM12.1266 17.4666H5.61664C5.4248 17.4666 5.24082 17.5392 5.10517 17.6684C4.96952 17.7976 4.89331 17.9728 4.89331 18.1555C4.89331 18.3382 4.96952 18.5134 5.10517 18.6426C5.24082 18.7718 5.4248 18.8444 5.61664 18.8444H12.1266C12.3185 18.8444 12.5025 18.7718 12.6381 18.6426C12.7738 18.5134 12.85 18.3382 12.85 18.1555C12.85 17.9728 12.7738 17.7976 12.6381 17.6684C12.5025 17.5392 12.3185 17.4666 12.1266 17.4666Z" fill="#5A5C60"/>
<path d="M19.3599 3H9.95661C9.76477 3 9.58079 3.07258 9.44514 3.20177C9.30948 3.33096 9.23328 3.50618 9.23328 3.68889C9.23328 3.87159 9.30948 4.04681 9.44514 4.17601C9.58079 4.3052 9.76477 4.37778 9.95661 4.37778H19.3599C19.7592 4.37778 20.0833 4.68709 20.0833 5.06666V14.0222C20.0833 14.2049 20.1595 14.3801 20.2951 14.5093C20.4308 14.6385 20.6148 14.7111 20.8066 14.7111C20.9984 14.7111 21.1824 14.6385 21.3181 14.5093C21.4537 14.3801 21.5299 14.2049 21.5299 14.0222V5.06666C21.5299 3.92724 20.5563 3 19.3599 3Z" fill="#5A5C60"/>
</svg>
