<svg width="16" height="16" viewBox="0 0 16 16" fill="none" xmlns="http://www.w3.org/2000/svg">
<path fill-rule="evenodd" clip-rule="evenodd" d="M3.42086 14.5223C2.33237 14.5223 1.5 13.5693 1.5 12.4802V2.54208C1.5 1.3849 2.3964 0.5 3.42086 0.5H12.705C13.7935 0.5 14.6259 1.45297 14.6259 2.54208V6.9666C14.6259 7.30694 14.3698 7.57922 14.0496 7.57922C13.7935 7.57922 13.5374 7.37501 13.4734 7.10273V7.03467V2.61015C13.4734 2.13367 13.0892 1.72525 12.641 1.72525H3.42086C2.97266 1.65718 2.58849 2.0656 2.58849 2.54208V12.4122C2.58849 12.8886 2.97266 13.2971 3.42086 13.2971H7.58273H7.64676C7.96691 13.3651 8.15899 13.6374 8.09496 13.9777C8.03094 14.25 7.90288 14.3862 7.64676 14.4542H7.51871H3.42086V14.5223ZM5.02158 11.3911C4.89353 11.3911 4.70144 11.323 4.57338 11.255L4.50935 11.1869L3.99712 10.6423C3.80504 10.4381 3.80504 10.0297 3.99712 9.82551C4.12518 9.68937 4.25324 9.6213 4.3813 9.6213C4.50935 9.6213 4.63741 9.68937 4.70144 9.75744L4.76547 9.82551L5.02158 10.0297L5.66187 9.14482C5.78993 9.00868 5.91799 8.94061 6.11007 8.94061C6.23813 8.94061 6.36619 9.00868 6.43022 9.07675C6.6223 9.28096 6.68633 9.55323 6.6223 9.82551L6.55827 9.89358L5.66187 11.1869L5.59784 11.255C5.40576 11.323 5.21367 11.3911 5.02158 11.3911ZM5.02158 8.46412C4.89353 8.46412 4.70144 8.39605 4.57338 8.32798L4.50935 8.25991L3.99712 7.71536C3.80504 7.51115 3.80504 7.10273 3.99712 6.89853C4.06115 6.69432 4.25324 6.62625 4.3813 6.62625C4.50935 6.62625 4.57338 6.62625 4.70144 6.69432L4.76547 6.76239L5.02158 7.03467L5.66187 6.14976C5.7259 6.01362 5.91799 5.94555 6.04604 5.94555C6.1741 5.94555 6.30216 5.94555 6.43022 6.01362C6.6223 6.21783 6.68633 6.49011 6.55827 6.76239V6.83046L5.66187 8.12378L5.59784 8.19185C5.40576 8.32798 5.21367 8.46412 5.02158 8.46412ZM7.64676 7.91957C7.32662 7.91957 7.0705 7.64729 7.0705 7.30694C7.0705 6.9666 7.32662 6.69432 7.64676 6.69432H11.3604C11.6806 6.69432 11.9367 6.9666 11.9367 7.30694C11.9367 7.64729 11.6806 7.91957 11.3604 7.91957H7.64676ZM5.02158 5.46907C4.89353 5.46907 4.70144 5.401 4.57338 5.33293L4.50935 5.26486L3.99712 4.65224C3.86907 4.58417 3.80504 4.44803 3.80504 4.24382C3.80504 4.10768 3.86907 3.90347 3.99712 3.8354C4.06115 3.69926 4.25324 3.69926 4.3813 3.69926C4.50935 3.69926 4.63741 3.76733 4.70144 3.8354L4.76547 3.90347L5.02158 4.17575L5.66187 3.29085C5.78993 3.15471 5.91799 3.08664 6.11007 3.08664C6.23813 3.08664 6.36619 3.15471 6.43022 3.22278C6.6223 3.22278 6.68633 3.56312 6.55827 3.8354V3.90347L5.59784 5.19679V5.26486C5.40576 5.401 5.21367 5.46907 5.02158 5.46907ZM7.64676 4.92451C7.32662 4.92451 7.0705 4.65224 7.0705 4.31189C7.0705 3.97154 7.32662 3.69926 7.64676 3.69926H11.3604C11.6806 3.69926 11.9367 3.97154 11.9367 4.31189C11.9367 4.44803 11.8727 4.65224 11.7446 4.7203C11.6165 4.85644 11.4885 4.92451 11.3604 4.92451H7.64676ZM11.8083 14.5225C10.7839 14.5225 9.75941 14.046 8.92703 13.1611C8.67092 12.8889 8.47883 12.6166 8.28675 12.3443L8.22272 12.2082C8.09466 12.072 8.09466 11.8678 8.15869 11.6636L8.22272 11.5955L8.54286 11.1871C8.60689 11.1191 8.67092 11.034 8.73495 10.9489C8.79898 10.8638 8.86301 10.7787 8.92703 10.7106C9.82344 9.82574 10.7839 9.34925 11.8083 9.34925C12.8328 9.34925 13.8573 9.82574 14.6896 10.7106C14.9762 10.9543 15.1601 11.2525 15.2874 11.4589L15.2875 11.4591C15.3024 11.4832 15.3165 11.5061 15.3299 11.5275L15.3939 11.6636C15.522 11.7997 15.522 12.004 15.458 12.2082V12.2762L15.458 12.2762C15.3299 12.4805 15.0738 12.8889 14.7537 13.2292C13.7932 14.046 12.8328 14.5225 11.8083 14.5225ZM11.8083 10.4384C11.104 10.4384 10.3997 10.7106 9.75941 11.2552C9.67012 11.3027 9.61197 11.3832 9.56323 11.4507L9.56322 11.4507C9.54206 11.48 9.52268 11.5069 9.50329 11.5275L9.24718 11.7997C9.18315 11.8678 9.18315 11.9359 9.24718 12.004L9.31121 12.072C9.35175 12.1151 9.3923 12.1651 9.43488 12.2175C9.52678 12.3307 9.62814 12.4555 9.75941 12.5485C10.3997 13.0931 11.104 13.3653 11.8083 13.3653C12.5126 13.3653 13.217 13.0931 13.8573 12.5485C14.0493 12.4124 14.2414 12.2082 14.3695 12.004C14.4335 11.9359 14.4335 11.8678 14.3695 11.7997H14.3055C14.1774 11.5955 14.0493 11.4594 13.8573 11.3233C13.217 10.7106 12.5126 10.4384 11.8083 10.4384ZM11.1048 12.685C11.2969 12.8892 11.553 13.0253 11.8091 13.0253C12.0652 13.0253 12.3213 12.8892 12.5134 12.685C12.7055 12.4808 12.8335 12.2085 12.8335 11.9362C12.8335 11.3236 12.3853 10.8471 11.8091 10.8471C11.2328 10.8471 10.7846 11.3236 10.7846 11.9362C10.7846 12.2085 10.9127 12.4808 11.1048 12.685Z" fill="#5A5C60"/>
</svg>
