<svg width="24" height="24" viewBox="0 0 24 24" fill="none" xmlns="http://www.w3.org/2000/svg">
<path d="M7.74374 14.6506L12.4317 6.53077C12.7443 5.98945 13.1712 5.87505 13.7125 6.18758C14.2538 6.50012 14.3682 6.92704 14.0557 7.46837L9.3677 15.5882C9.05517 16.1295 8.62824 16.2439 8.08692 15.9314C7.5456 15.6189 7.4312 15.1919 7.74374 14.6506Z" fill="#5A5C60"/>
<path d="M9.37112 6.53467L14.0591 14.6545C14.3716 15.1958 14.2572 15.6228 13.7159 15.9353C13.1746 16.2478 12.7477 16.1334 12.4351 15.5921L7.74715 7.47227C7.43462 6.93095 7.54902 6.50402 8.09034 6.19149C8.63166 5.87896 9.05859 5.99335 9.37112 6.53467V6.53467Z" fill="#5A5C60"/>
<path d="M21.7145 19.7133L18.3142 21.901C18.2198 21.9615 18.1109 21.9956 17.9988 21.9996C17.8868 22.0036 17.7757 21.9773 17.6773 21.9236C17.5789 21.87 17.4967 21.7908 17.4394 21.6944C17.3821 21.5981 17.3517 21.4881 17.3516 21.3759V20.1258C17.6002 20.1258 17.8387 20.027 18.0145 19.8512C18.1904 19.6754 18.2892 19.4369 18.2892 19.1882C18.2892 18.9396 18.1904 18.7011 18.0145 18.5252C17.8387 18.3494 17.6002 18.2506 17.3516 18.2506V17.0005C17.3517 16.8884 17.3821 16.7784 17.4394 16.682C17.4967 16.5856 17.5789 16.5065 17.6773 16.4528C17.7757 16.3991 17.8868 16.3729 17.9988 16.3769C18.1109 16.3808 18.2198 16.4149 18.3142 16.4754L21.7145 18.6507C21.805 18.7067 21.8796 18.7849 21.9314 18.8779C21.9831 18.9709 22.0103 19.0756 22.0103 19.182C22.0103 19.2884 21.9831 19.393 21.9314 19.486C21.8796 19.579 21.805 19.6572 21.7145 19.7133V19.7133Z" fill="#5A5C60"/>
<path d="M19.8019 4.50026V10.4634C19.8019 10.7054 19.7057 10.9375 19.5346 11.1087C19.3634 11.2798 19.1313 11.376 18.8893 11.376C18.6472 11.376 18.4151 11.2798 18.244 11.1087C18.0728 10.9375 17.9767 10.7054 17.9767 10.4634V5.07532C17.9767 4.74377 17.845 4.42579 17.6105 4.19135C17.3761 3.9569 17.0581 3.82519 16.7265 3.82519H5.06282C4.73126 3.82519 4.41329 3.9569 4.17884 4.19135C3.9444 4.42579 3.81269 4.74377 3.81269 5.07532V17.0016C3.81269 17.3331 3.9444 17.6511 4.17884 17.8855C4.41329 18.12 4.73126 18.2517 5.06282 18.2517H17.3891C17.6378 18.2517 17.8763 18.3505 18.0521 18.5263C18.2279 18.7021 18.3267 18.9406 18.3267 19.1893C18.3267 19.438 18.2279 19.6764 18.0521 19.8523C17.8763 20.0281 17.6378 20.1269 17.3891 20.1269H4.50026C3.83715 20.1269 3.2012 19.8635 2.73231 19.3946C2.26342 18.9257 2 18.2897 2 17.6266V4.50026C2 3.83715 2.26342 3.2012 2.73231 2.73231C3.2012 2.26342 3.83715 2 4.50026 2H17.3016C17.9647 2 18.6007 2.26342 19.0695 2.73231C19.5384 3.2012 19.8019 3.83715 19.8019 4.50026Z" fill="#5A5C60"/>
<path d="M21.7145 19.7133L18.3142 21.901C18.2198 21.9615 18.1109 21.9956 17.9988 21.9996C17.8868 22.0036 17.7757 21.9773 17.6773 21.9236C17.5789 21.87 17.4967 21.7908 17.4394 21.6944C17.3821 21.5981 17.3517 21.4881 17.3516 21.3759V20.1258C17.6002 20.1258 17.8387 20.027 18.0145 19.8512C18.1904 19.6754 18.2892 19.4369 18.2892 19.1882C18.2892 18.9396 18.1904 18.7011 18.0145 18.5252C17.8387 18.3494 17.6002 18.2506 17.3516 18.2506V17.0005C17.3517 16.8884 17.3821 16.7784 17.4394 16.682C17.4967 16.5856 17.5789 16.5065 17.6773 16.4528C17.7757 16.3991 17.8868 16.3729 17.9988 16.3769C18.1109 16.3808 18.2198 16.4149 18.3142 16.4754L21.7145 18.6507C21.805 18.7067 21.8796 18.7849 21.9314 18.8779C21.9831 18.9709 22.0103 19.0756 22.0103 19.182C22.0103 19.2884 21.9831 19.393 21.9314 19.486C21.8796 19.579 21.805 19.6572 21.7145 19.7133V19.7133Z" fill="#5A5C60"/>
</svg>
