<svg width="24" height="24" viewBox="0 0 24 24" fill="none" xmlns="http://www.w3.org/2000/svg">
<path d="M19.8109 7.39492L14.7238 2.19277C14.603 2.06926 14.4394 2 14.268 2H6.8178C5.26477 2 4 3.29212 4 4.88089V19.1194C4 20.7076 5.26416 22 6.8178 22L17.1808 21.9991C18.7347 21.9991 19.9997 20.7073 19.9997 19.1185L20 7.86059C19.9994 7.6862 19.9317 7.51856 19.8109 7.39505L19.8109 7.39492ZM14.9123 4.24954L17.799 7.20152H16.4422C15.5989 7.20152 14.9123 6.5003 14.9123 5.6388V4.24954ZM18.7104 19.1181C18.7104 19.9796 18.0238 20.6805 17.1805 20.6805L6.81752 20.6814C5.97511 20.6814 5.28874 19.9805 5.28874 19.119V4.88048C5.28874 4.01901 5.97475 3.31776 6.81752 3.31776H13.6231V5.63901C13.6231 7.22715 14.8875 8.5199 16.442 8.5199H18.7101V19.118L18.7104 19.1181ZM7.60861 8.08378H8.66202V9.16383C8.66202 9.52761 8.95033 9.82275 9.30637 9.82275C9.66241 9.82275 9.95071 9.52761 9.95071 9.16383V8.08378H11.0041C11.3602 8.08378 11.6485 7.78864 11.6485 7.42486C11.6485 7.06107 11.3602 6.76594 11.0041 6.76594H9.95071V5.69051C9.95071 5.32673 9.66241 5.0316 9.30637 5.0316C8.95033 5.0316 8.66202 5.32673 8.66202 5.69051V6.76594H7.60861C7.25287 6.76594 6.96426 7.06107 6.96426 7.42486C6.96426 7.78864 7.25287 8.08378 7.60861 8.08378ZM16.3918 14.4033H7.60861C7.25287 14.4033 6.96426 14.6985 6.96426 15.0622C6.96426 15.426 7.25287 15.7212 7.60861 15.7212H16.3918C16.7485 15.7212 17.0362 15.426 17.0362 15.0622C17.0362 14.6985 16.7485 14.4033 16.3918 14.4033ZM7.60861 11.6432C7.25287 11.6432 6.96426 11.9383 6.96426 12.3021C6.96426 12.6659 7.25287 12.961 7.60861 12.961H16.3918C16.7485 12.961 17.0362 12.6659 17.0362 12.3021C17.0362 11.9383 16.7482 11.6432 16.3918 11.6432H7.60861ZM16.3918 17.1634H7.60861C7.25287 17.1634 6.96426 17.4585 6.96426 17.8223C6.96426 18.1861 7.25287 18.4812 7.60861 18.4812H16.3918C16.7485 18.4812 17.0362 18.1861 17.0362 17.8223C17.0362 17.4585 16.7485 17.1634 16.3918 17.1634Z" fill="#5A5C60"/>
</svg>
