<svg width="16" height="16" viewBox="0 0 16 16" fill="none" xmlns="http://www.w3.org/2000/svg">
<g id="mark as unresolved" clip-path="url(#clip0_4535_12289)">
<path id="Subtract" fill-rule="evenodd" clip-rule="evenodd" d="M10.861 11.3125V13.4154C10.861 13.6934 10.8063 13.9686 10.6999 14.2255C10.5935 14.4823 10.4376 14.7156 10.2411 14.9122C10.0445 15.1088 9.81115 15.2647 9.55433 15.3711C9.29751 15.4774 9.02225 15.5322 8.74427 15.5322H2.61677C2.33879 15.5322 2.06354 15.4774 1.80672 15.3711C1.5499 15.2647 1.31655 15.1088 1.11999 14.9122C0.923428 14.7156 0.767507 14.4823 0.66113 14.2255C0.554752 13.9686 0.5 13.6934 0.5 13.4154V5.61677C0.5 5.33879 0.554752 5.06354 0.66113 4.80672C0.767507 4.5499 0.923428 4.31655 1.11999 4.11999C1.31655 3.92343 1.5499 3.76751 1.80672 3.66113C2.06354 3.55475 2.33879 3.5 2.61677 3.5H5.49963C5.2921 3.77629 5.11253 4.07478 4.96511 4.39127H2.61677C2.29175 4.39127 1.98004 4.52039 1.75021 4.75021C1.52039 4.98004 1.39127 5.29175 1.39127 5.61677V13.4154C1.39127 13.5763 1.42297 13.7357 1.48456 13.8844C1.54615 14.0331 1.63642 14.1682 1.75021 14.282C1.86401 14.3958 1.99911 14.486 2.14779 14.5476C2.29648 14.6092 2.45584 14.6409 2.61677 14.6409H8.74427C9.0693 14.6409 9.38101 14.5118 9.61083 14.282C9.84066 14.0521 9.96977 13.7404 9.96977 13.4154V11.4782C10.2757 11.4497 10.5736 11.3936 10.861 11.3125Z" fill="#5A5C60"/>
<path id="Vector" d="M4.01359 8.04785L3.00391 7.97953C3.1221 7.97953 4.07457 7.96674 4.15814 7.88317C4.24171 7.7996 4.28867 7.68625 4.28867 7.56806C4.28867 7.44987 4.24171 7.33652 4.15814 7.25294C4.07457 7.16937 3.1221 7.08826 3.00391 7.08826L4.01359 7.15658C3.8954 7.15658 2.94293 7.16937 2.85936 7.25294C2.77578 7.33652 2.72883 7.44987 2.72883 7.56806C2.72883 7.68625 2.77578 7.7996 2.85936 7.88317C2.94293 7.96674 3.8954 8.04785 4.01359 8.04785ZM3.17447 10.2419H4.76553C4.82406 10.2419 4.88201 10.2304 4.93609 10.208C4.99016 10.1856 5.0393 10.1528 5.08069 10.1114C5.12208 10.07 5.15491 10.0209 5.17731 9.96679C5.19971 9.91272 5.21124 9.85477 5.21124 9.79624C5.21124 9.73771 5.19971 9.67976 5.17731 9.62568C5.15491 9.57161 5.12208 9.52248 5.08069 9.4811C5.0393 9.43972 4.99016 9.40689 4.93609 9.3845C4.88201 9.36211 4.82406 9.35059 4.76553 9.3506H3.17447C3.11594 9.35059 3.05798 9.36211 3.00391 9.3845C2.94983 9.40689 2.9007 9.43972 2.85931 9.4811C2.81792 9.52248 2.78509 9.57161 2.76269 9.62568C2.74029 9.67976 2.72876 9.73771 2.72876 9.79624C2.72876 9.85477 2.74029 9.91272 2.76269 9.96679C2.78509 10.0209 2.81792 10.07 2.85931 10.1114C2.9007 10.1528 2.94983 10.1856 3.00391 10.208C3.05798 10.2304 3.11594 10.2419 3.17447 10.2419ZM3.17447 12.4701L7.55453 12.4656C7.61306 12.4656 7.67102 12.4541 7.72509 12.4317C7.77917 12.4093 7.82831 12.3765 7.86969 12.3351C7.91108 12.2937 7.94392 12.2446 7.96632 12.1905C7.98872 12.1364 8.00024 12.0785 8.00024 12.02C8.00024 11.9614 7.98872 11.9035 7.96632 11.8494C7.94392 11.7953 7.91108 11.7462 7.86969 11.7048C7.82831 11.6634 7.77917 11.6306 7.72509 11.6082C7.67102 11.5858 7.61306 11.5743 7.55453 11.5743L3.17447 11.5788C3.11594 11.5788 3.05799 11.5903 3.00391 11.6127C2.94983 11.6351 2.9007 11.6679 2.85931 11.7093C2.81792 11.7507 2.78509 11.7998 2.76269 11.8539C2.74029 11.9079 2.72876 11.9659 2.72876 12.0244C2.72876 12.0829 2.74029 12.1409 2.76269 12.195C2.78509 12.249 2.81792 12.2982 2.85931 12.3396C2.9007 12.3809 2.94983 12.4138 3.00391 12.4362C3.05799 12.4585 3.11594 12.4701 3.17447 12.4701Z" fill="#5A5C60"/>
<path id="Vector_2" d="M10 11.5C8.9122 11.5 7.84884 11.1774 6.94437 10.5731C6.0399 9.96874 5.33495 9.10975 4.91866 8.10476C4.50238 7.09977 4.39346 5.9939 4.60568 4.92701C4.8179 3.86011 5.34173 2.8801 6.11091 2.11092C6.8801 1.34173 7.86011 0.817903 8.927 0.605684C9.9939 0.393465 11.0998 0.502383 12.1048 0.918666C13.1098 1.33495 13.9687 2.0399 14.5731 2.94437C15.1774 3.84884 15.5 4.9122 15.5 6C15.5 7.45869 14.9205 8.85764 13.8891 9.88909C12.8576 10.9205 11.4587 11.5 10 11.5ZM8.4875 3.52959C8.4875 3.40803 8.43921 3.29145 8.35326 3.20549C8.2673 3.11954 8.15073 3.07125 8.02917 3.07125H7.25C7.12844 3.07125 7.01187 3.11954 6.92591 3.20549C6.83996 3.29145 6.79167 3.40803 6.79167 3.52959V6.45833C6.79167 6.57989 6.83996 6.69647 6.92591 6.78242C7.01187 6.86838 7.12844 6.91667 7.25 6.91667H8.02917C8.15073 6.91667 8.2673 6.86838 8.35326 6.78242C8.43921 6.69647 8.4875 6.57989 8.4875 6.45833V3.52959ZM12.5529 3.43334C12.5296 3.32994 12.4712 3.23782 12.3877 3.17264C12.3041 3.10745 12.2005 3.07325 12.0946 3.07584H9.30792C9.18636 3.07584 9.06978 3.12412 8.98383 3.21008C8.89787 3.29603 8.84959 3.41261 8.84959 3.53417V6.62792C8.8505 6.67762 8.85821 6.72697 8.8725 6.77458L9.50042 8.60792C9.53821 8.71716 9.61588 8.80808 9.71788 8.86248C9.81987 8.91687 9.93865 8.93072 10.0504 8.90125L10.8388 8.69042C10.9509 8.66011 11.0473 8.58836 11.1086 8.48966C11.1699 8.39097 11.1914 8.27269 11.1688 8.15875L10.9167 6.91667H12.75C12.8185 6.9169 12.8861 6.90179 12.948 6.87244C13.0099 6.8431 13.0644 6.80026 13.1075 6.74708C13.1498 6.69345 13.1795 6.63105 13.1946 6.56444C13.2097 6.49783 13.2097 6.42869 13.1946 6.36208L12.5529 3.43334Z" fill="#5A5C60"/>
</g>
<defs>
<clipPath id="clip0_4535_12289">
<rect width="16" height="16" fill="white"/>
</clipPath>
</defs>
</svg>
