<svg width="24" height="24" viewBox="0 0 24 24" fill="none" xmlns="http://www.w3.org/2000/svg">
<path d="M8.17906 14.7453C8.09273 14.7456 8.00722 14.7286 7.92751 14.6955C7.8478 14.6624 7.77549 14.6137 7.71477 14.5523L7.69318 14.5293C7.56499 14.3933 7.49193 14.2145 7.48819 14.0276C7.48445 13.8407 7.55029 13.6592 7.67293 13.5181L8.68788 12.4489H3.65364V10.9813H8.67708L7.68238 9.93365C7.55457 9.79772 7.48174 9.61918 7.478 9.43261C7.47426 9.24604 7.53988 9.06473 7.66214 8.92378L7.68238 8.89948C7.74198 8.83351 7.81437 8.78035 7.89514 8.74322C7.97591 8.7061 8.06339 8.68578 8.15225 8.68351C8.24111 8.68123 8.32951 8.69705 8.41208 8.73C8.49464 8.76295 8.56965 8.81234 8.63254 8.87518L11.3346 11.7212L8.66493 14.5293C8.60383 14.5977 8.52893 14.6523 8.44517 14.6895C8.36141 14.7267 8.27071 14.7458 8.17906 14.7453M15.8181 14.7453C15.7316 14.7458 15.6458 14.7289 15.5659 14.6958C15.4859 14.6626 15.4134 14.6138 15.3525 14.5523L12.6518 11.7077L15.3188 8.89948C15.3784 8.83351 15.4508 8.78035 15.5315 8.74322C15.6123 8.7061 15.6998 8.68578 15.7886 8.68351C15.8775 8.68123 15.9659 8.69705 16.0485 8.73C16.131 8.76295 16.206 8.81234 16.2689 8.87518L16.2892 8.89948C16.4167 9.03413 16.4895 9.21144 16.4935 9.39687C16.4975 9.5823 16.4324 9.76258 16.3108 9.9026L15.2945 10.9719H20.3193V12.4489H15.2985L16.2919 13.4965C16.4195 13.6306 16.4924 13.8075 16.4964 13.9925C16.5004 14.1776 16.4352 14.3575 16.3135 14.4969L16.2919 14.5212V14.532C16.233 14.6 16.1599 14.6543 16.0779 14.6912C15.9958 14.728 15.9067 14.7465 15.8168 14.7453M2.84114 22.7878C1.91257 22.7081 1.19995 21.9102 1.19995 20.9112V3.08602C1.19995 2.03295 1.9895 1.19995 2.995 1.19995H8.99965C10.0051 1.19995 10.7947 2.0289 10.7947 3.08737V4.97614H9.39105V3.08737C9.39312 2.9788 9.35462 2.87337 9.28308 2.7917C9.20904 2.71522 9.10866 2.66984 9.00235 2.66479H2.99365C2.88784 2.66794 2.78751 2.71255 2.71427 2.789C2.6776 2.82674 2.64909 2.87163 2.63051 2.92087C2.61194 2.97011 2.6037 3.02265 2.6063 3.07522V20.8842C2.6063 21.1461 2.74666 21.2933 2.99365 21.2933H8.99965C9.10546 21.2901 9.20579 21.2455 9.27903 21.1691C9.31536 21.1316 9.34368 21.0872 9.36224 21.0384C9.38081 20.9897 9.38923 20.9377 9.387 20.8855V18.9981H10.7812V20.8842C10.7812 21.9426 9.99165 22.7716 8.98615 22.7716H2.83979L2.84249 22.7878H2.84114ZM14.9962 22.7986C13.9921 22.7986 13.2025 21.9696 13.2025 20.9112V19.0238H14.6061V20.9112C14.6061 21.1718 14.7465 21.3203 14.9935 21.3203H21.013C21.1147 21.3069 21.2087 21.259 21.2792 21.1845C21.3498 21.11 21.3925 21.0135 21.4004 20.9112V3.09817C21.4004 2.8376 21.26 2.68909 21.013 2.68909H14.9962C14.8945 2.70244 14.8005 2.75038 14.73 2.82487C14.6594 2.89936 14.6167 2.99586 14.6088 3.09817V5.04364H13.2052V3.09952C13.2052 2.04105 13.9948 1.2121 15.0003 1.2121H21.0049C22.0104 1.2121 22.8 2.04105 22.8 3.09952V20.9125C22.8 21.971 22.0104 22.8 21.0049 22.8H14.9962V22.7986Z" fill="#5A5C60"/>
</svg>
