<svg width="24" height="24" viewBox="0 0 24 24" fill="none" xmlns="http://www.w3.org/2000/svg">
<path d="M14.5714 20.75H5.57143C4.92857 20.75 4.28571 20.25 4.28571 19.5V8.25C4.28571 7.5 4.92857 7 5.57143 7V5.75C4.15714 5.75 3 6.875 3 8.25V19.5C3 20.875 4.15714 22 5.57143 22H14.5714C15.9857 22 17.1429 20.875 17.1429 19.5H15.8571C15.8571 20.125 15.2143 20.75 14.5714 20.75ZM15.8571 2H9.42857C8.01429 2 6.85714 3.125 6.85714 4.5V15.75C6.85714 17.125 8.01429 18.25 9.42857 18.25H18.4286C19.8429 18.25 21 17.125 21 15.75V7L15.8571 2ZM13.9286 17H8.78571C8.4 17 8.14286 16.75 8.14286 16.375C8.14286 16 8.4 15.75 8.78571 15.75H13.9286C14.3143 15.75 14.5714 16 14.5714 16.375C14.5714 16.75 14.3143 17 13.9286 17ZM17.7857 14.5H8.78571C8.4 14.5 8.14286 14.25 8.14286 13.875C8.14286 13.5 8.4 13.25 8.78571 13.25H17.7857C18.1714 13.25 18.4286 13.5 18.4286 13.875C18.4286 14.25 18.1714 14.5 17.7857 14.5ZM17.7857 12H8.78571C8.4 12 8.14286 11.75 8.14286 11.375C8.14286 11 8.4 10.75 8.78571 10.75H17.7857C18.1714 10.75 18.4286 11 18.4286 11.375C18.4286 11.75 18.1714 12 17.7857 12ZM15.8571 7V3.875L19.0714 7H15.8571Z" fill="#5A5C60"/>
</svg>
