<svg width="24" height="24" viewBox="0 0 24 24" fill="none" xmlns="http://www.w3.org/2000/svg">
<path d="M22.5 16.3594L17.7445 13.1883V15.1688H14.3461L12.2648 12.6235L10.7297 14.5008L12.8625 17.1094C13.0875 17.386 13.425 17.5454 13.7812 17.5454H17.7422V19.5282L22.5 16.3594ZM6.65156 6.45239H2.68828C2.03203 6.45239 1.5 6.98442 1.5 7.64067C1.5 8.29692 2.03203 8.82896 2.68828 8.82896H6.08672L8.16797 11.3719L9.70312 9.49458L7.57031 6.88599C7.34531 6.61411 7.00781 6.45239 6.65156 6.45239Z" fill="#5A5C60"/>
<path d="M22.5 7.64067L17.7445 4.47192V6.45239H13.7836C13.425 6.45239 13.0898 6.61177 12.8648 6.88833L6.08672 15.1688H2.68828C2.03203 15.1688 1.5 15.7008 1.5 16.3571C1.5 17.0133 2.03203 17.5454 2.68828 17.5454H6.65156C7.00781 17.5454 7.34531 17.386 7.57266 17.1094L14.3461 8.82896H17.7445V10.8118L22.5 7.64067Z" fill="#5A5C60"/>
</svg>
