<svg width="24" height="24" viewBox="0 0 24 24" fill="none" xmlns="http://www.w3.org/2000/svg">
<path fill-rule="evenodd" clip-rule="evenodd" d="M3 12.54V21H21V12.54H19.128V4.98C19.128 4.512 18.948 4.008 18.624 3.648L18.588 3.612L18.552 3.576C18.192 3.216 17.724 3 17.256 3H6.744C6.24 3 5.772 3.216 5.412 3.612C5.052 4.008 4.872 4.476 4.872 4.98V12.54H3ZM17.544 4.656C17.616 4.728 17.652 4.836 17.652 4.944V12.504H15.132V12.828C15.132 14.556 13.728 15.96 12 15.96C10.272 15.96 8.868 14.556 8.868 12.828V12.504H6.348V4.944C6.348 4.836 6.384 4.728 6.492 4.656C6.564 4.584 6.636 4.548 6.744 4.548H17.292C17.4 4.548 17.508 4.62 17.544 4.656ZM4.548 19.488V14.088H7.428C7.68 15.024 8.22 15.888 8.976 16.5C9.84 17.184 10.848 17.58 11.964 17.58C13.08 17.58 14.124 17.184 14.952 16.5C15.708 15.852 16.248 15.024 16.5 14.088H19.452V19.488H4.548ZM13.7708 11.8333C13.9375 11.9167 14.1042 12 14.2708 12C14.5208 12 14.6875 11.9167 14.7708 11.75C14.9375 11.6667 14.9375 11.4167 14.9375 11.25C14.9375 11.0833 14.9375 10.9167 14.7708 10.75L12.9375 9L14.7708 7.16667L14.7708 7.16665C14.8542 6.99999 14.9375 6.83333 14.9375 6.66667C14.9375 6.5 14.9375 6.33333 14.7708 6.16667C14.6042 6.08333 14.4375 6 14.2708 6C14.1042 6 13.9375 6.08333 13.7708 6.16667L12.0208 8L10.1875 6.16667C10.0208 6.08333 9.85417 6 9.6875 6C9.52083 6 9.35417 6.08333 9.1875 6.16667C8.9375 6.5 8.9375 6.91667 9.1875 7.16667L11.0208 9L9.1875 10.8333C8.9375 11.1667 8.9375 11.5833 9.1875 11.8333C9.35417 11.9167 9.52083 12 9.6875 12C9.85417 12 10.1042 11.9167 10.1875 11.75L12.0208 9.91667L13.7708 11.8333Z" fill="#5A5C60"/>
</svg>
