<svg width="24" height="24" viewBox="0 0 24 24" fill="none" xmlns="http://www.w3.org/2000/svg">
<path fill-rule="evenodd" clip-rule="evenodd" d="M3.80899 21.1124C3.40449 21.1124 3 20.7079 3 20.2022V2.80899C3 2.40449 3.40449 2 3.80899 2H20.191C20.6966 2 21 2.40449 21 2.80899V8.57303C21 9.07865 20.5955 9.38202 20.191 9.38202C19.6854 9.38202 19.382 8.97753 19.382 8.57303V3.7191H4.7191V19.4944H11.7978C12.3034 19.4944 12.6067 19.8989 12.6067 20.3034C12.6067 20.809 12.2022 21.1124 11.7978 21.1124H3.80899ZM20.1908 19.0899C19.9885 19.0899 19.7863 18.9888 19.6852 18.8876L17.4605 16.6629L15.2357 18.8876C15.1346 18.9888 14.9324 19.0899 14.7301 19.0899C14.5279 19.0899 14.3256 18.9888 14.2245 18.8876C13.9211 18.5843 13.9211 18.0787 14.2245 17.7753L16.4492 15.5506L14.1234 13.2247C13.82 12.9214 13.82 12.4157 14.1234 12.1124C14.2245 12.0112 14.4268 11.9101 14.629 11.9101C14.8312 11.9101 15.0335 12.0112 15.1346 12.1124L17.3593 14.3371L19.5841 12.1124C19.6852 12.0112 19.8874 11.9101 20.0897 11.9101C20.2919 11.9101 20.4942 12.0112 20.5953 12.1124C20.8987 12.4157 20.8987 12.9214 20.5953 13.2247L18.3706 15.4494L20.5953 17.6742C20.6964 17.7753 20.7975 17.9775 20.7975 18.1798C20.7975 18.382 20.6964 18.5843 20.5953 18.6854C20.5953 18.9888 20.393 19.0899 20.1908 19.0899ZM6.53941 15.7528C6.53941 16.1573 6.84278 16.5618 7.3484 16.5618H9.67424C10.0787 16.5618 10.3821 16.1573 10.3821 15.7528C10.3821 15.3483 10.0787 14.9438 9.57312 14.9438H7.3484C6.9439 14.9438 6.53941 15.3483 6.53941 15.7528ZM6.53941 11.5056C6.53941 11.9101 6.84278 12.3146 7.3484 12.3146H11.3933C11.7978 12.3146 12.2023 11.9101 12.2023 11.5056C12.2023 11.1011 11.899 10.6966 11.3933 10.6966H7.3484C6.9439 10.6966 6.53941 11.1011 6.53941 11.5056ZM6.53941 7.15731C6.53941 7.56181 6.84278 7.9663 7.3484 7.9663H16.7529C17.1574 7.9663 17.5619 7.66293 17.5619 7.15731C17.5619 6.75282 17.2585 6.34832 16.7529 6.34832H7.3484C6.9439 6.34832 6.53941 6.65169 6.53941 7.15731Z" fill="#5A5C60"/>
</svg>
