<svg width="16" height="16" viewBox="0 0 16 16" fill="none" xmlns="http://www.w3.org/2000/svg">
<g id="resolved" clip-path="url(#clip0_1949_11500)">
<path id="Subtract" fill-rule="evenodd" clip-rule="evenodd" d="M10.861 11.3125V13.4154C10.861 13.6934 10.8063 13.9686 10.6999 14.2255C10.5935 14.4823 10.4376 14.7156 10.2411 14.9122C10.0445 15.1088 9.81115 15.2647 9.55433 15.3711C9.29751 15.4774 9.02225 15.5322 8.74427 15.5322H2.61677C2.33879 15.5322 2.06354 15.4774 1.80672 15.3711C1.5499 15.2647 1.31655 15.1088 1.11999 14.9122C0.923428 14.7156 0.767507 14.4823 0.66113 14.2255C0.554752 13.9686 0.5 13.6934 0.5 13.4154V5.61677C0.5 5.33879 0.554752 5.06354 0.66113 4.80672C0.767507 4.5499 0.923428 4.31655 1.11999 4.11999C1.31655 3.92343 1.5499 3.76751 1.80672 3.66113C2.06354 3.55475 2.33879 3.5 2.61677 3.5H5.49963C5.2921 3.77629 5.11253 4.07478 4.96511 4.39127H2.61677C2.29175 4.39127 1.98004 4.52039 1.75021 4.75021C1.52039 4.98004 1.39127 5.29175 1.39127 5.61677V13.4154C1.39127 13.5763 1.42297 13.7357 1.48456 13.8844C1.54615 14.0331 1.63642 14.1682 1.75021 14.282C1.86401 14.3958 1.99911 14.486 2.14779 14.5476C2.29648 14.6092 2.45584 14.6409 2.61677 14.6409H8.74427C9.0693 14.6409 9.38101 14.5118 9.61083 14.282C9.84066 14.0521 9.96977 13.7404 9.96977 13.4154V11.4782C10.2757 11.4497 10.5736 11.3936 10.861 11.3125Z" fill="#5A5C60"/>
<path id="Vector" d="M4.01347 8.04785L3.00379 7.97953C3.12198 7.97953 4.07445 7.96674 4.15802 7.88317C4.24159 7.7996 4.28854 7.68625 4.28854 7.56806C4.28854 7.44987 4.24159 7.33652 4.15802 7.25294C4.07445 7.16937 3.12198 7.08826 3.00379 7.08826L4.01347 7.15658C3.89528 7.15658 2.94281 7.16937 2.85924 7.25294C2.77566 7.33652 2.72871 7.44987 2.72871 7.56806C2.72871 7.68625 2.77566 7.7996 2.85924 7.88317C2.94281 7.96674 3.89528 8.04785 4.01347 8.04785ZM3.17435 10.2419H4.76541C4.82393 10.2419 4.88189 10.2304 4.93597 10.208C4.99004 10.1856 5.03918 10.1528 5.08057 10.1114C5.12196 10.07 5.15479 10.0209 5.17719 9.96679C5.19959 9.91272 5.21112 9.85477 5.21112 9.79624C5.21112 9.73771 5.19959 9.67976 5.17719 9.62568C5.15479 9.57161 5.12196 9.52248 5.08057 9.4811C5.03918 9.43972 4.99004 9.40689 4.93597 9.3845C4.88189 9.36211 4.82393 9.35059 4.76541 9.3506H3.17435C3.11582 9.35059 3.05786 9.36211 3.00379 9.3845C2.94971 9.40689 2.90058 9.43972 2.85919 9.4811C2.8178 9.52248 2.78497 9.57161 2.76257 9.62568C2.74017 9.67976 2.72864 9.73771 2.72864 9.79624C2.72864 9.85477 2.74017 9.91272 2.76257 9.96679C2.78497 10.0209 2.8178 10.07 2.85919 10.1114C2.90058 10.1528 2.94971 10.1856 3.00379 10.208C3.05786 10.2304 3.11582 10.2419 3.17435 10.2419ZM3.17435 12.4701L7.55441 12.4656C7.61294 12.4656 7.6709 12.4541 7.72497 12.4317C7.77905 12.4093 7.82818 12.3765 7.86957 12.3351C7.91096 12.2937 7.94379 12.2446 7.96619 12.1905C7.98859 12.1364 8.00012 12.0785 8.00012 12.02C8.00012 11.9614 7.98859 11.9035 7.96619 11.8494C7.94379 11.7953 7.91096 11.7462 7.86957 11.7048C7.82818 11.6634 7.77905 11.6306 7.72497 11.6082C7.6709 11.5858 7.61294 11.5743 7.55441 11.5743L3.17435 11.5788C3.11582 11.5788 3.05786 11.5903 3.00379 11.6127C2.94971 11.6351 2.90058 11.6679 2.85919 11.7093C2.8178 11.7507 2.78497 11.7998 2.76257 11.8539C2.74017 11.9079 2.72864 11.9659 2.72864 12.0244C2.72864 12.0829 2.74017 12.1409 2.76257 12.195C2.78497 12.249 2.8178 12.2982 2.85919 12.3396C2.90058 12.3809 2.94971 12.4138 3.00379 12.4362C3.05786 12.4585 3.11582 12.4701 3.17435 12.4701Z" fill="#5A5C60"/>
<path id="Vector_2" d="M10 0.5C8.9122 0.5 7.84884 0.822569 6.94437 1.42692C6.0399 2.03126 5.33495 2.89025 4.91866 3.89524C4.50238 4.90023 4.39346 6.0061 4.60568 7.07299C4.8179 8.13989 5.34173 9.1199 6.11091 9.88908C6.8801 10.6583 7.86011 11.1821 8.927 11.3943C9.9939 11.6065 11.0998 11.4976 12.1048 11.0813C13.1098 10.6651 13.9687 9.9601 14.5731 9.05563C15.1774 8.15116 15.5 7.0878 15.5 6C15.5 4.54131 14.9205 3.14236 13.8891 2.11091C12.8576 1.07946 11.4587 0.5 10 0.5ZM8.4875 8.47041C8.4875 8.59197 8.43921 8.70855 8.35326 8.79451C8.2673 8.88046 8.15073 8.92875 8.02917 8.92875H7.25C7.12844 8.92875 7.01187 8.88046 6.92591 8.79451C6.83996 8.70855 6.79167 8.59197 6.79167 8.47041V5.54167C6.79167 5.42011 6.83996 5.30353 6.92591 5.21758C7.01187 5.13162 7.12844 5.08333 7.25 5.08333H8.02917C8.15073 5.08333 8.2673 5.13162 8.35326 5.21758C8.43921 5.30353 8.4875 5.42011 8.4875 5.54167V8.47041ZM12.5529 8.56666C12.5296 8.67006 12.4712 8.76218 12.3877 8.82736C12.3041 8.89255 12.2005 8.92675 12.0946 8.92416H9.30792C9.18636 8.92416 9.06978 8.87588 8.98383 8.78992C8.89787 8.70397 8.84959 8.58739 8.84959 8.46583V5.37208C8.8505 5.32238 8.85821 5.27303 8.8725 5.22542L9.50042 3.39208C9.53821 3.28284 9.61588 3.19192 9.71788 3.13752C9.81987 3.08313 9.93865 3.06928 10.0504 3.09875L10.8388 3.30958C10.9509 3.33989 11.0473 3.41164 11.1086 3.51034C11.1699 3.60903 11.1914 3.72731 11.1688 3.84125L10.9167 5.08333H12.75C12.8185 5.0831 12.8861 5.09821 12.948 5.12756C13.0099 5.1569 13.0644 5.19974 13.1075 5.25292C13.1498 5.30655 13.1795 5.36895 13.1946 5.43556C13.2097 5.50217 13.2097 5.57131 13.1946 5.63792L12.5529 8.56666Z" fill="#5A5C60"/>
</g>
<defs>
<clipPath id="clip0_1949_11500">
<rect width="16" height="16" fill="white"/>
</clipPath>
</defs>
</svg>
