<svg width="24" height="24" viewBox="0 0 24 24" fill="none" xmlns="http://www.w3.org/2000/svg">
<path d="M3 12V15.5C3 15.984 3.40219 16.375 3.9 16.375H4.8V11.125H3.9C3.40219 11.125 3 11.516 3 12ZM16.05 7.625H12.9V5.875C12.9 5.39102 12.4978 5 12 5C11.5022 5 11.1 5.39102 11.1 5.875V7.625H7.95C6.70687 7.625 5.7 8.60391 5.7 9.8125V17.25C5.7 18.2152 6.50719 19 7.5 19H16.5C17.4928 19 18.3 18.2152 18.3 17.25V9.8125C18.3 8.60391 17.2931 7.625 16.05 7.625ZM10.2 16.375H8.4V15.5H10.2V16.375ZM9.3 13.0938C8.67844 13.0938 8.175 12.6043 8.175 12C8.175 11.3957 8.67844 10.9062 9.3 10.9062C9.92156 10.9062 10.425 11.3957 10.425 12C10.425 12.6043 9.92156 13.0938 9.3 13.0938ZM12.9 16.375H11.1V15.5H12.9V16.375ZM15.6 16.375H13.8V15.5H15.6V16.375ZM14.7 13.0938C14.0784 13.0938 13.575 12.6043 13.575 12C13.575 11.3957 14.0784 10.9062 14.7 10.9062C15.3216 10.9062 15.825 11.3957 15.825 12C15.825 12.6043 15.3216 13.0938 14.7 13.0938ZM20.1 11.125H19.2V16.375H20.1C20.5978 16.375 21 15.984 21 15.5V12C21 11.516 20.5978 11.125 20.1 11.125Z" fill="#5A5C60"/>
</svg>
