<svg width="24" height="24" viewBox="0 0 24 24" fill="none" xmlns="http://www.w3.org/2000/svg">
<path fill-rule="evenodd" clip-rule="evenodd" d="M8.43467 8.06591C8.43467 7.04993 9.25828 6.22632 10.2743 6.22632C11.2902 6.22632 12.1138 7.04993 12.1138 8.06591C12.1138 8.85286 11.6197 9.52441 10.9248 9.78717V12.1829H13.6273C15.0908 12.1829 16.2773 13.3693 16.2773 14.8329V15.7578C17.6139 15.8931 18.6572 17.0219 18.6572 18.3942V18.8616C19.184 19.1069 19.5492 19.6411 19.5492 20.2605C19.5492 21.1122 18.8587 21.8027 18.007 21.8027C17.1553 21.8027 16.4648 21.1122 16.4648 20.2605C16.4648 19.6409 16.8302 19.1067 17.3572 18.8615V18.3942C17.3572 17.6487 16.7527 17.0442 16.0072 17.0442H15.2488C14.5032 17.0442 13.8988 17.6487 13.8988 18.3942V18.8618C14.4254 19.1072 14.7904 19.6412 14.7904 20.2605C14.7904 21.1122 14.0999 21.8027 13.2482 21.8027C12.3965 21.8027 11.706 21.1122 11.706 20.2605C11.706 19.6408 12.0716 19.1064 12.5988 18.8613V18.3942C12.5988 17.0224 13.6413 15.894 14.9773 15.758V14.8329C14.9773 14.0873 14.3728 13.4829 13.6273 13.4829H6.92097C6.17539 13.4829 5.57097 14.0873 5.57097 14.8329V15.7579C6.90751 15.8933 7.95056 17.022 7.95056 18.3942V18.8617C8.4773 19.107 8.84241 19.6411 8.84241 20.2605C8.84241 21.1122 8.15195 21.8027 7.30022 21.8027C6.4485 21.8027 5.75803 21.1122 5.75803 20.2605C5.75803 19.6409 6.12346 19.1066 6.65056 18.8614V18.3942C6.65056 17.6487 6.04615 17.0442 5.30056 17.0442H4.54221C3.79663 17.0442 3.19221 17.6487 3.19221 18.3942V18.8616C3.71912 19.1068 4.08438 19.641 4.08438 20.2605C4.08438 21.1122 3.39392 21.8027 2.54219 21.8027C1.69046 21.8027 1 21.1122 1 20.2605C1 19.641 1.36528 19.1068 1.89221 18.8616V18.3942C1.89221 17.0223 2.93483 15.8938 4.27097 15.758V14.8329C4.27097 13.3693 5.45742 12.1829 6.92097 12.1829H9.62475V9.78755C8.92929 9.52505 8.43467 8.85324 8.43467 8.06591ZM10.2743 7.52632C9.97625 7.52632 9.73467 7.7679 9.73467 8.06591C9.73467 8.36391 9.97625 8.60549 10.2743 8.60549C10.5723 8.60549 10.8138 8.36391 10.8138 8.06591C10.8138 7.7679 10.5723 7.52632 10.2743 7.52632ZM2.3 20.2605C2.3 20.1267 2.40843 20.0183 2.54219 20.0183C2.67595 20.0183 2.78438 20.1267 2.78438 20.2605C2.78438 20.3942 2.67595 20.5027 2.54219 20.5027C2.40843 20.5027 2.3 20.3942 2.3 20.2605ZM7.30022 20.0183C7.16646 20.0183 7.05803 20.1267 7.05803 20.2605C7.05803 20.3942 7.16646 20.5027 7.30022 20.5027C7.43398 20.5027 7.54241 20.3942 7.54241 20.2605C7.54241 20.1267 7.43398 20.0183 7.30022 20.0183ZM13.006 20.2605C13.006 20.1267 13.1145 20.0183 13.2482 20.0183C13.382 20.0183 13.4904 20.1267 13.4904 20.2605C13.4904 20.3942 13.382 20.5027 13.2482 20.5027C13.1145 20.5027 13.006 20.3942 13.006 20.2605ZM18.007 20.0183C17.8733 20.0183 17.7648 20.1267 17.7648 20.2605C17.7648 20.3942 17.8733 20.5027 18.007 20.5027C18.1408 20.5027 18.2492 20.3942 18.2492 20.2605C18.2492 20.1267 18.1408 20.0183 18.007 20.0183Z" fill="#5A5C60"/>
<path d="M17.4834 12.4636C17.6677 12.6518 17.8946 12.7386 18.1357 12.7386C18.3768 12.7386 18.6037 12.6518 18.7881 12.4636L22.7022 8.46922C23.0567 8.10741 23.0567 7.49956 22.7022 7.13775C22.3477 6.77593 21.752 6.77593 21.3975 7.13775L19.0433 9.54019V2.94071C19.0433 2.4197 18.6321 2 18.1215 2C17.611 2 17.1997 2.4197 17.1997 2.94071V9.51124L14.874 7.15222C14.5194 6.79041 13.9238 6.79041 13.5692 7.15222C13.2147 7.51403 13.2147 8.12188 13.5692 8.48369L17.4834 12.4636V12.4636Z" fill="#5A5C60"/>
</svg>
