<svg width="16" height="16" viewBox="0 0 16 16" fill="none" xmlns="http://www.w3.org/2000/svg">
<g id="select all loaded">
<path id="Vector" d="M13.9225 14.5V12.9225H15.5V14.5H13.9225ZM11.8521 14.5V13.6127H13.4296V14.5H11.8521ZM9.78169 14.5V13.6127H11.3592V14.5H9.78169ZM7.71127 14.5V13.6127H9.28873V14.5H7.71127ZM5.64084 14.5V13.6127H7.21831V14.5H5.64084ZM3.57042 14.5V13.6127H5.14789V14.5H3.57042ZM1.5 14.5V12.9225H3.07746V14.5H1.5ZM14.6127 12.4296V10.8521H15.5V12.4296H14.6127ZM1.5 12.4296V10.8521H2.38732V12.4296H1.5ZM14.6127 10.3592V8.78169H15.5V10.3592H14.6127ZM1.5 10.3592V8.78169H2.38732V10.3592H1.5ZM14.6127 8.28873V6.71127H15.5V8.28873H14.6127ZM1.5 8.28873V6.71127H2.38732V8.28873H1.5ZM14.6127 6.21831V4.64084H15.5V6.21831H14.6127ZM1.5 6.21831V4.64084H2.38732V6.21831H1.5ZM14.6127 4.14789V2.57042H15.5V4.14789H14.6127ZM1.5 4.14789V2.57042H2.38732V4.14789H1.5ZM13.9225 2.07746V0.5H15.5V2.07746H13.9225ZM1.5 2.07746V0.5H3.07746V2.07746H1.5ZM11.8521 1.38732V0.5H13.4296V1.38732H11.8521ZM9.78169 1.38732V0.5H11.3592V1.38732H9.78169ZM7.71127 1.38732V0.5H9.28873V1.38732H7.71127ZM5.64084 1.38732V0.5H7.21831V1.38732H5.64084ZM3.57042 1.38732V0.5H5.14789V1.38732H3.57042Z" fill="#5A5C60"/>
<path id="Vector_2" d="M7.78571 6.78571H3.5V2.5H7.78571V6.78571ZM7.78571 12.5H3.5V8.21429H7.78571V12.5ZM9.21429 8.21429H13.5V12.5H9.21429V8.21429ZM9.21429 2.5H13.5V6.78571H9.21429V2.5Z" fill="#5A5C60"/>
</g>
</svg>
