<svg width="24" height="24" viewBox="0 0 24 24" fill="none" xmlns="http://www.w3.org/2000/svg">
<path d="M16.9836 8.27583L12.319 12.9425L9.839 10.4605C9.57056 10.1921 9.13693 10.1921 8.86849 10.4605C8.7384 10.5906 8.66819 10.762 8.66819 10.9458C8.66819 11.1295 8.74046 11.3009 8.86849 11.431L11.7119 14.2744C11.8791 14.4417 12.1001 14.5263 12.319 14.5263C12.5399 14.5263 12.7588 14.4417 12.926 14.2744L17.9541 9.24634C18.0842 9.11625 18.1544 8.94486 18.1544 8.76109C18.1544 8.57731 18.0821 8.40592 17.9541 8.27583C17.6857 8.00946 17.252 8.00946 16.9836 8.27583ZM14.1402 19.9405H5.10415C4.79441 19.9405 4.54043 19.6886 4.54043 19.3768V9.93189C4.54043 9.50858 4.19559 9.16168 3.77021 9.16168C3.34691 9.16168 3 9.50652 3 9.93189V19.3768C3 20.5352 3.9416 21.4789 5.10208 21.4789H14.1382C14.5615 21.4789 14.9084 21.1341 14.9084 20.7087C14.9084 20.2833 14.5635 19.9405 14.1402 19.9405V19.9405Z" fill="#5A5C60"/>
<path d="M20.7377 6.00652C21.161 6.00652 21.5079 5.66168 21.5079 5.2363V5.10002C21.5079 4.95754 21.4914 4.81093 21.4604 4.66432C21.4542 4.63748 21.446 4.61476 21.4398 4.59411L21.4274 4.55695C21.4026 4.46402 21.3716 4.35871 21.3283 4.25753C21.3138 4.22243 21.2952 4.19146 21.2787 4.16255C21.2704 4.14809 21.2622 4.13364 21.2539 4.11712L21.2477 4.10679C21.2085 4.03452 21.1693 3.96019 21.1197 3.88998C21.0929 3.85074 21.0619 3.81771 21.035 3.78467C21.0247 3.77228 21.0144 3.76195 21.0041 3.74956C20.9483 3.68349 20.8988 3.62567 20.8409 3.57198C20.8389 3.56992 20.8347 3.56372 20.8306 3.55959C20.8224 3.54927 20.812 3.53688 20.7976 3.52449C20.7687 3.49971 20.7398 3.47906 20.7129 3.46048L20.6695 3.4295C20.6613 3.42331 20.651 3.41505 20.6427 3.40885C20.6117 3.38407 20.5787 3.3593 20.5415 3.33452C20.4734 3.29115 20.4032 3.25605 20.333 3.22095L20.2958 3.20236C20.2628 3.18584 20.2297 3.16726 20.1926 3.1528C20.112 3.11977 20.0315 3.09912 19.953 3.07847C19.9386 3.07434 19.922 3.07021 19.9076 3.06608C19.8787 3.05782 19.8477 3.04749 19.8126 3.0413C19.6743 3.01445 19.54 3 19.412 3H7.41692C7.2889 3 7.15468 3.01445 7.01633 3.0413C6.98123 3.04749 6.95025 3.05782 6.92134 3.06608C6.90689 3.07021 6.89244 3.07434 6.87592 3.07847C6.79745 3.09912 6.71485 3.12183 6.63432 3.1528C6.59715 3.16726 6.56205 3.18584 6.53108 3.20236L6.49391 3.22095C6.42163 3.25605 6.35349 3.29115 6.28535 3.33452C6.24818 3.35723 6.21514 3.38407 6.18417 3.40885C6.17591 3.41505 6.16558 3.42331 6.15733 3.4295L6.11396 3.46048C6.08505 3.47906 6.05614 3.49971 6.0293 3.52449C6.01485 3.53688 6.00452 3.54927 5.99626 3.55959C5.99213 3.56372 5.988 3.56992 5.98594 3.57198C5.92812 3.62567 5.8765 3.68555 5.82281 3.74956C5.81248 3.76195 5.80216 3.77434 5.79184 3.78467C5.76293 3.81771 5.73402 3.85074 5.70717 3.88998C5.65762 3.96019 5.61838 4.03452 5.57915 4.10679L5.57295 4.11712C5.56469 4.13157 5.55644 4.14603 5.54818 4.16255C5.53166 4.19146 5.51307 4.22243 5.49862 4.25753C5.45319 4.35871 5.42428 4.46609 5.3995 4.55901C5.39744 4.56934 5.39124 4.58172 5.38711 4.59618C5.38092 4.61683 5.37266 4.63954 5.36646 4.66639C5.33549 4.813 5.31897 4.9596 5.31897 5.10208V17.091C5.31897 18.2494 6.26057 19.1931 7.42105 19.1931H19.4099C20.5684 19.1931 21.512 18.2494 21.512 17.091V5.2838C21.512 4.86049 21.1672 4.51358 20.7418 4.51358C20.3164 4.51358 19.9716 4.85842 19.9716 5.2838V17.0889C19.9716 17.3987 19.7197 17.6526 19.4079 17.6526H7.41692C7.10719 17.6526 6.8532 17.4007 6.8532 17.0889V5.10002C6.8532 5.06285 6.85733 5.02362 6.86559 4.98438L6.86766 4.97612C6.86972 4.96993 6.87179 4.96167 6.87385 4.95341C6.88211 4.92657 6.88831 4.89766 6.90069 4.87288C6.90276 4.86875 6.90482 4.86255 6.90895 4.85636C6.91308 4.85016 6.91721 4.84397 6.91928 4.83777C6.93167 4.813 6.94406 4.79235 6.95645 4.77376C6.96058 4.76963 6.96471 4.76344 6.9709 4.75518C6.97503 4.75105 6.97916 4.74485 6.98329 4.74072C7.00188 4.71801 7.01633 4.70149 7.03285 4.68497C7.03491 4.68291 7.03904 4.68084 7.04111 4.67671C7.04524 4.67258 7.04937 4.67052 7.0535 4.66639C7.10306 4.62509 7.15468 4.59411 7.20837 4.5714L7.2125 4.56934C7.21869 4.56727 7.22282 4.56727 7.22902 4.56521C7.29303 4.54249 7.35704 4.5301 7.41486 4.5301H19.4038C19.4616 4.5301 19.5256 4.54249 19.5896 4.56521C19.5958 4.56727 19.5999 4.56934 19.6061 4.56934H19.6082C19.6619 4.58998 19.7156 4.62302 19.7631 4.66432C19.7672 4.66845 19.7713 4.67052 19.7754 4.67465C19.7775 4.67671 19.7816 4.67878 19.7837 4.68291C19.8002 4.69736 19.8167 4.71594 19.8333 4.73866C19.8374 4.74279 19.8415 4.74898 19.8456 4.75311C19.8518 4.75931 19.856 4.7655 19.8601 4.76963C19.8746 4.78822 19.8849 4.81093 19.8973 4.83364C19.9014 4.83984 19.9035 4.84603 19.9076 4.85223C19.9117 4.85842 19.9138 4.86462 19.9159 4.86668C19.9262 4.89146 19.9344 4.92037 19.9427 4.94721C19.9448 4.95547 19.9468 4.96167 19.9489 4.96786C19.9489 4.96786 19.951 4.97199 19.951 4.97612C19.9592 5.01536 19.9633 5.05459 19.9633 5.09176V5.22804C19.9675 5.66168 20.3123 6.00652 20.7377 6.00652Z" fill="#5A5C60"/>
</svg>
