<svg width="24" height="24" viewBox="0 0 24 24" fill="none" xmlns="http://www.w3.org/2000/svg">
<path d="M3.38748 21.9039C2.45106 21.9039 1.71521 21.1103 1.71521 20.0949V18.286H3.02394V20.0949C3.02394 20.3457 3.15431 20.4873 3.38497 20.4873H8.99472C9.09096 20.4734 9.17949 20.4268 9.24546 20.3554C9.31142 20.2839 9.35081 20.192 9.357 20.0949V3.01875C9.357 2.76803 9.22663 2.62763 8.99472 2.62763H3.38748C3.29166 2.64175 3.20358 2.68826 3.13788 2.75942C3.07219 2.83059 3.03287 2.92211 3.02645 3.01875V4.88532H1.71772V3.01875C1.71772 2.00461 2.45357 1.20984 3.38999 1.20984H8.9872C9.92487 1.20984 10.6607 2.00461 10.6607 3.01875V20.0949C10.6607 21.1103 9.92487 21.9039 8.9872 21.9039H3.38748V21.9039Z" fill="#5A5C60"/>
<path d="M4.15218 14.1845C4.07138 14.1846 3.9914 14.1683 3.91707 14.1366C3.84274 14.105 3.7756 14.0585 3.7197 14.0002L1.20001 11.2724L3.6871 8.57975C3.74188 8.51712 3.80904 8.46654 3.88436 8.4312C3.95967 8.39585 4.0415 8.37651 4.12467 8.37439C4.20784 8.37227 4.29054 8.38742 4.36756 8.41888C4.44458 8.45034 4.51423 8.49743 4.57213 8.55718L4.59219 8.57975C4.71203 8.71008 4.78019 8.87968 4.78389 9.0567C4.78758 9.23373 4.72655 9.40601 4.61224 9.54124L3.66579 10.5667H8.34789V11.9832H3.6683L4.59595 12.9873C4.71493 13.1177 4.78245 13.2868 4.78591 13.4633C4.78937 13.6397 4.72854 13.8114 4.61475 13.9463L4.59469 13.9701V13.9789C4.54079 14.0438 4.47312 14.096 4.39659 14.1315C4.32005 14.1671 4.23657 14.1852 4.15218 14.1845M14.5957 21.894C13.7307 21.8187 13.0663 21.0541 13.0663 20.0951V3.00886C13.0663 1.99597 13.8009 1.19995 14.7374 1.19995H20.3358C21.2722 1.19995 22.0081 1.99472 22.0081 3.00886V4.81777H20.6981V3.00886C20.7002 2.90538 20.6645 2.80468 20.5978 2.72555C20.5299 2.65283 20.4364 2.60925 20.3371 2.60395H14.7361C14.6865 2.60556 14.6377 2.61703 14.5926 2.63771C14.5474 2.65839 14.5069 2.68785 14.4733 2.72438C14.4396 2.76091 14.4137 2.80378 14.3968 2.85047C14.3799 2.89716 14.3726 2.94675 14.3751 2.99632V20.07C14.3751 20.3207 14.5055 20.4611 14.7361 20.4611H20.3346C20.3842 20.4595 20.433 20.4481 20.4781 20.4274C20.5233 20.4067 20.5638 20.3772 20.5974 20.3407C20.631 20.3042 20.657 20.2613 20.6739 20.2146C20.6907 20.1679 20.6981 20.1183 20.6956 20.0688V18.2611H21.9943V20.0713C21.9943 21.0854 21.2585 21.8802 20.322 21.8802H14.5932L14.5957 21.8952V21.894Z" fill="#5A5C60"/>
<path d="M19.5699 14.1839C19.4891 14.184 19.4091 14.1678 19.3348 14.1361C19.2604 14.1044 19.1933 14.058 19.1374 13.9997L19.1173 13.9759C18.9976 13.8439 18.9297 13.673 18.9263 13.4949C18.9228 13.3167 18.984 13.1433 19.0985 13.0068L20.045 11.9827H15.3528V10.5762H20.0349L19.1073 9.57079C18.9876 9.43883 18.9197 9.26796 18.9162 9.08981C18.9128 8.91166 18.974 8.73829 19.0885 8.60178L19.1086 8.57921C19.1633 8.51659 19.2305 8.46601 19.3058 8.43066C19.3811 8.39532 19.4629 8.37597 19.5461 8.37385C19.6293 8.37173 19.712 8.38688 19.789 8.41835C19.866 8.44981 19.9357 8.4969 19.9936 8.55665L22.512 11.2844L20.0224 13.9759C19.9666 14.041 19.8974 14.0933 19.8195 14.1292C19.7416 14.1651 19.6569 14.1838 19.5711 14.1839" fill="#5A5C60"/>
</svg>
