<svg width="16" height="16" viewBox="0 0 16 16" fill="none" xmlns="http://www.w3.org/2000/svg">
<path d="M8.48734 1.56599L13.1199 2.83461C13.9324 3.05441 14.4998 3.79788 14.5 4.64312V4.68141L14.3295 7.53256L13.2035 7.46458L13.3747 4.6308L13.3746 4.62351C13.3626 4.29651 13.1374 4.01078 12.8281 3.92898L8.19759 2.66093C8.07127 2.62488 7.94309 2.62488 7.81827 2.66055L3.18498 3.92935C2.86482 4.01993 2.64559 4.30006 2.6398 4.62613L2.63962 4.63192L2.81071 7.46869C2.93684 9.59469 4.01731 11.508 5.77487 12.7181L8.00466 14.2538L9.90253 12.946C10.0262 12.8602 10.1761 12.8283 10.3244 12.856C10.4727 12.8836 10.6013 12.9674 10.6867 13.0931C10.7722 13.2169 10.8041 13.3669 10.7765 13.5156C10.7489 13.664 10.6651 13.7925 10.5399 13.8779L8.32558 15.4014C8.22165 15.4677 8.11363 15.5 7.99515 15.5C7.88171 15.5 7.76827 15.4655 7.67629 15.4029L5.12297 13.6452C3.07808 12.2371 1.81961 10.0087 1.67053 7.53163L1.5 4.68103V4.64275C1.5 3.80236 2.06776 3.05871 2.88049 2.83442L7.51303 1.56581C7.82947 1.47803 8.16624 1.47803 8.48734 1.56599Z" fill="#5A5C60"/>
<path d="M5.07626 9.7203C4.75612 9.7203 4.5 9.44803 4.5 9.10768C4.5 8.76733 4.75612 8.49506 5.07626 8.49506H6.78993C7.11007 8.49506 7.36619 8.76733 7.36619 9.10768C7.36619 9.44803 7.11007 9.7203 6.78993 9.7203H5.07626ZM5.07626 6.72525C4.75612 6.72525 4.5 6.45297 4.5 6.11262C4.5 5.77228 4.75612 5.5 5.07626 5.5H10.7899C11.1101 5.5 11.3662 5.77228 11.3662 6.11262C11.3662 6.24876 11.3022 6.45297 11.1741 6.52104C11.046 6.65718 10.918 6.72525 10.7899 6.72525H5.07626Z" fill="#666666"/>
<path fill-rule="evenodd" clip-rule="evenodd" d="M9.3104 11.3119C10.1428 12.1968 11.1672 12.6733 12.1917 12.6733C13.2162 12.6733 14.1766 12.1968 15.137 11.38C15.4572 11.0396 15.7133 10.6312 15.8413 10.427L15.8413 10.427V10.3589C15.9054 10.1547 15.9054 9.9505 15.7773 9.81436L15.7133 9.67822C15.6998 9.65678 15.6857 9.63384 15.6708 9.60964C15.5435 9.4033 15.3595 9.10508 15.073 8.86139C14.2406 7.97649 13.2162 7.5 12.1917 7.5C11.1672 7.5 10.2068 7.97649 9.3104 8.86139C9.24637 8.92946 9.18235 9.01454 9.11832 9.09963C9.05429 9.18472 8.99026 9.26981 8.92623 9.33787L8.60609 9.74629L8.54206 9.81436C8.47803 10.0186 8.47803 10.2228 8.60609 10.3589L8.67012 10.4951L8.67012 10.4951C8.86221 10.7673 9.05429 11.0396 9.3104 11.3119ZM10.1428 9.40594C10.7831 8.86139 11.4874 8.58911 12.1917 8.58911C12.896 8.58911 13.6003 8.86139 14.2406 9.47401C14.4327 9.61015 14.5608 9.74629 14.6888 9.9505H14.7529C14.8169 10.0186 14.8169 10.0866 14.7529 10.1547C14.6248 10.3589 14.4327 10.5631 14.2406 10.6993C13.6003 11.2438 12.896 11.5161 12.1917 11.5161C11.4874 11.5161 10.7831 11.2438 10.1428 10.6993C10.0115 10.6062 9.91014 10.4814 9.81825 10.3682C9.77567 10.3158 9.73512 10.2659 9.69458 10.2228L9.63055 10.1547C9.56652 10.0866 9.56652 10.0186 9.63055 9.9505L9.88666 9.67822C9.90605 9.65761 9.92544 9.63076 9.9466 9.60145C9.99533 9.53395 10.0535 9.4534 10.1428 9.40594ZM11.4881 10.8359C11.6802 11.0401 11.9363 11.1763 12.1924 11.1763C12.4485 11.1763 12.7047 11.0401 12.8967 10.8359C13.0888 10.6317 13.2169 10.3594 13.2169 10.0872C13.2169 9.47453 12.7687 8.99805 12.1924 8.99805C11.6162 8.99805 11.168 9.47453 11.168 10.0872C11.168 10.3594 11.296 10.6317 11.4881 10.8359Z" fill="#666666"/>
</svg>
