<svg width="24" height="24" viewBox="0 0 24 24" fill="none" xmlns="http://www.w3.org/2000/svg">
<path fill-rule="evenodd" clip-rule="evenodd" d="M20.5567 12.7217C20.7629 12.8247 20.866 12.8247 21.0722 12.8247C21.1753 12.8247 21.3814 12.8247 21.5876 12.7217C21.7938 12.6186 22 12.3093 22 12C22 6.43299 17.4639 2 12 2C7.6701 2 3.95876 4.68041 2.61856 8.70103L2.51546 8.90722L4.16495 9.52577V9.31959C5.29897 6.02062 8.39175 3.75258 11.8969 3.75258C15.8144 3.75258 19.1134 6.43299 19.9381 10.2474L18.9072 9.62887L17.9794 11.0722L20.5567 12.7217ZM2 12C2 17.4639 6.43299 21.8969 12 21.8969C16.2268 21.8969 20.0412 19.2165 21.3814 15.1959L21.4845 14.9897L19.8351 14.4743L19.732 14.6804C18.5979 17.9794 15.5052 20.2474 12 20.2474C8.08247 20.2474 4.7835 17.567 3.95876 13.7526L4.98969 14.3712L5.91753 13.031L3.34021 11.2784C3.13402 11.1753 3.03093 11.1753 2.82474 11.1753C2.72165 11.1753 2.51546 11.1753 2.41237 11.2784C2.20619 11.3815 2 11.6907 2 12ZM16.3299 8.18557H11.0722V9.52577H16.3299V8.18557ZM7.56704 7.56704H10.0413V10.0413H7.56704V7.56704ZM16.3299 11.6907H11.0722V13.031H16.3299V11.6907ZM7.56704 11.0722H10.0413V13.5464H7.56704V11.0722ZM16.3299 15.1959H11.0722V16.5361H16.3299V15.1959ZM7.56704 14.5773H10.0413V17.0516H7.56704V14.5773Z" fill="#5A5C60"/>
</svg>
